M48
; DRILL file {KiCad 7.0.1} date Thu Jan 25 16:33:09 2024
; FORMAT={-:-/ absolute / metric / decimal}
; #@! TF.CreationDate,2024-01-25T16:33:09-05:00
; #@! TF.GenerationSoftware,Kicad,Pcbnew,7.0.1
; #@! TF.FileFunction,NonPlated,1,2,NPTH
FMAT,2
METRIC
; #@! TA.AperFunction,NonPlated,NPTH,ComponentDrill
T1C1.702
; #@! TA.AperFunction,NonPlated,NPTH,ComponentDrill
T2C3.000
; #@! TA.AperFunction,NonPlated,NPTH,ComponentDrill
T3C3.988
%
G90
G05
T1
X104.648Y-87.376
X104.648Y-106.426
X114.808Y-87.376
X114.808Y-106.426
X123.698Y-82.296
X123.698Y-101.346
X133.858Y-82.296
X133.858Y-101.346
X137.999Y-134.246
X142.748Y-80.01
X142.748Y-99.06
X148.005Y-136.01
X152.908Y-80.01
X152.908Y-99.06
X159.096Y-138.594
X161.798Y-82.296
X161.798Y-101.346
X168.91Y-141.224
X171.958Y-82.296
X171.958Y-101.346
X179.884Y-144.313
X189.432Y-147.787
T2
X105.918Y-84.836
X105.918Y-103.886
X112.268Y-82.296
X112.268Y-101.346
X124.968Y-79.756
X124.968Y-98.806
X131.318Y-77.216
X131.318Y-96.266
X139.691Y-131.965
X144.018Y-77.47
X144.018Y-96.52
X146.386Y-130.566
X150.368Y-74.93
X150.368Y-93.98
X160.98Y-136.47
X163.068Y-79.756
X163.068Y-98.806
X167.771Y-135.66
X169.418Y-77.216
X169.418Y-96.266
X181.947Y-142.36
X188.782Y-142.145
T3
X109.728Y-87.376
X109.728Y-106.426
X128.778Y-82.296
X128.778Y-101.346
X143.002Y-135.128
X147.828Y-80.01
X147.828Y-99.06
X164.003Y-139.909
X166.878Y-82.296
X166.878Y-101.346
X184.658Y-146.05
T0
M30
