M48
; DRILL file {KiCad 7.0.1} date Thu Jan 25 16:33:09 2024
; FORMAT={-:-/ absolute / metric / decimal}
; #@! TF.CreationDate,2024-01-25T16:33:09-05:00
; #@! TF.GenerationSoftware,Kicad,Pcbnew,7.0.1
; #@! TF.FileFunction,Plated,1,2,PTH
FMAT,2
METRIC
; #@! TA.AperFunction,Plated,PTH,ViaDrill
T1C0.400
; #@! TA.AperFunction,Plated,PTH,ComponentDrill
T2C1.000
%
G90
G05
T1
X118.44Y-84.07
X137.01Y-80.16
X156.6Y-75.19
X175.24Y-77.8
X176.09Y-135.49
X176.47Y-108.925
X176.496Y-107.926
X176.524Y-106.927
X176.57Y-105.81
X176.96Y-77.14
X178.99Y-107.12
X182.24Y-113.111
X182.964Y-120.566
X183.8Y-113.835
X184.98Y-114.56
X194.006Y-98.956
X194.62Y-116.73
X195.02Y-98.58
T2
X180.086Y-74.168
X180.086Y-76.708
X180.086Y-79.248
X180.086Y-81.788
X180.086Y-84.328
X180.086Y-86.868
X180.086Y-89.408
X180.086Y-91.948
X180.086Y-94.488
X182.626Y-94.488
X185.166Y-94.488
X187.706Y-94.488
X190.246Y-94.488
X192.786Y-94.488
X195.326Y-74.168
X195.326Y-76.708
X195.326Y-79.248
X195.326Y-81.788
X195.326Y-84.328
X195.326Y-86.868
X195.326Y-89.408
X195.326Y-91.948
X195.326Y-94.488
T0
M30
