%TF.GenerationSoftware,KiCad,Pcbnew,7.0.1*%
%TF.CreationDate,2024-01-26T17:48:26-05:00*%
%TF.ProjectId,OctoPlus Trio,4f63746f-506c-4757-9320-5472696f2e6b,rev?*%
%TF.SameCoordinates,Original*%
%TF.FileFunction,Legend,Bot*%
%TF.FilePolarity,Positive*%
%FSLAX46Y46*%
G04 Gerber Fmt 4.6, Leading zero omitted, Abs format (unit mm)*
G04 Created by KiCad (PCBNEW 7.0.1) date 2024-01-26 17:48:26*
%MOMM*%
%LPD*%
G01*
G04 APERTURE LIST*
%ADD10C,0.150000*%
%ADD11C,0.300000*%
G04 APERTURE END LIST*
D10*
X115573682Y-134594768D02*
X116392834Y-134021192D01*
X115245924Y-134126682D02*
X115959830Y-134149989D01*
X116065076Y-133553105D02*
X115924747Y-134348950D01*
X114820608Y-133436245D02*
X114836227Y-133541573D01*
X114836227Y-133541573D02*
X114945480Y-133697602D01*
X114945480Y-133697602D02*
X115039113Y-133748303D01*
X115039113Y-133748303D02*
X115144441Y-133732684D01*
X115144441Y-133732684D02*
X115456499Y-133514179D01*
X115456499Y-133514179D02*
X115507200Y-133420545D01*
X115507200Y-133420545D02*
X115491581Y-133315218D01*
X115491581Y-133315218D02*
X115382328Y-133159189D01*
X115382328Y-133159189D02*
X115288695Y-133108487D01*
X115288695Y-133108487D02*
X115183367Y-133124106D01*
X115183367Y-133124106D02*
X115105353Y-133178733D01*
X115105353Y-133178733D02*
X115300470Y-133623432D01*
X115109197Y-132769116D02*
X114426529Y-132956464D01*
X114836065Y-132379044D02*
X114426529Y-132956464D01*
X114426529Y-132956464D02*
X114286119Y-133171045D01*
X114286119Y-133171045D02*
X114274425Y-133237365D01*
X114274425Y-133237365D02*
X114290044Y-133342693D01*
X114071458Y-132449370D02*
X114890610Y-131875794D01*
X114578552Y-132094299D02*
X114562933Y-131988971D01*
X114562933Y-131988971D02*
X114453680Y-131832942D01*
X114453680Y-131832942D02*
X114360047Y-131782241D01*
X114360047Y-131782241D02*
X114293726Y-131770547D01*
X114293726Y-131770547D02*
X114188399Y-131786166D01*
X114188399Y-131786166D02*
X113954355Y-131950045D01*
X113954355Y-131950045D02*
X113903654Y-132043678D01*
X113903654Y-132043678D02*
X113891960Y-132109999D01*
X113891960Y-132109999D02*
X113907579Y-132215327D01*
X113907579Y-132215327D02*
X114016832Y-132371355D01*
X114016832Y-132371355D02*
X114110465Y-132422057D01*
X113470568Y-131591211D02*
X113564202Y-131641912D01*
X113564202Y-131641912D02*
X113630522Y-131653606D01*
X113630522Y-131653606D02*
X113735850Y-131637987D01*
X113735850Y-131637987D02*
X113969893Y-131474108D01*
X113969893Y-131474108D02*
X114020595Y-131380474D01*
X114020595Y-131380474D02*
X114032289Y-131314154D01*
X114032289Y-131314154D02*
X114016670Y-131208826D01*
X114016670Y-131208826D02*
X113934730Y-131091805D01*
X113934730Y-131091805D02*
X113841097Y-131041103D01*
X113841097Y-131041103D02*
X113774776Y-131029409D01*
X113774776Y-131029409D02*
X113669449Y-131045028D01*
X113669449Y-131045028D02*
X113435405Y-131208907D01*
X113435405Y-131208907D02*
X113384704Y-131302541D01*
X113384704Y-131302541D02*
X113373010Y-131368861D01*
X113373010Y-131368861D02*
X113388629Y-131474189D01*
X113388629Y-131474189D02*
X113470568Y-131591211D01*
X112787739Y-130616029D02*
X113216819Y-130315585D01*
X113216819Y-130315585D02*
X113322147Y-130299966D01*
X113322147Y-130299966D02*
X113415780Y-130350667D01*
X113415780Y-130350667D02*
X113525033Y-130506696D01*
X113525033Y-130506696D02*
X113540652Y-130612024D01*
X112826747Y-130588716D02*
X112842366Y-130694044D01*
X112842366Y-130694044D02*
X112978931Y-130889080D01*
X112978931Y-130889080D02*
X113072565Y-130939781D01*
X113072565Y-130939781D02*
X113177893Y-130924162D01*
X113177893Y-130924162D02*
X113255907Y-130869536D01*
X113255907Y-130869536D02*
X113306608Y-130775903D01*
X113306608Y-130775903D02*
X113290989Y-130670575D01*
X113290989Y-130670575D02*
X113154424Y-130475539D01*
X113154424Y-130475539D02*
X113138804Y-130370211D01*
X112514608Y-130225957D02*
X113060709Y-129843573D01*
X112904680Y-129952825D02*
X112955381Y-129859192D01*
X112955381Y-129859192D02*
X112967075Y-129792871D01*
X112967075Y-129792871D02*
X112951456Y-129687544D01*
X112951456Y-129687544D02*
X112896830Y-129609529D01*
X111913718Y-129367797D02*
X112732870Y-128794221D01*
X111952725Y-129340484D02*
X111968344Y-129445812D01*
X111968344Y-129445812D02*
X112077597Y-129601841D01*
X112077597Y-129601841D02*
X112171230Y-129652542D01*
X112171230Y-129652542D02*
X112237551Y-129664236D01*
X112237551Y-129664236D02*
X112342878Y-129648617D01*
X112342878Y-129648617D02*
X112576922Y-129484738D01*
X112576922Y-129484738D02*
X112627623Y-129391105D01*
X112627623Y-129391105D02*
X112639317Y-129324784D01*
X112639317Y-129324784D02*
X112623698Y-129219457D01*
X112623698Y-129219457D02*
X112514445Y-129063428D01*
X112514445Y-129063428D02*
X112420812Y-129012726D01*
X111640586Y-128977725D02*
X112459738Y-128404149D01*
X112459738Y-128404149D02*
X112323172Y-128209112D01*
X112323172Y-128209112D02*
X112202226Y-128119404D01*
X112202226Y-128119404D02*
X112069585Y-128096016D01*
X112069585Y-128096016D02*
X111964257Y-128111635D01*
X111964257Y-128111635D02*
X111780915Y-128181880D01*
X111780915Y-128181880D02*
X111663893Y-128263820D01*
X111663893Y-128263820D02*
X111535177Y-128412079D01*
X111535177Y-128412079D02*
X111484476Y-128505713D01*
X111484476Y-128505713D02*
X111461088Y-128638354D01*
X111461088Y-128638354D02*
X111504020Y-128782689D01*
X111504020Y-128782689D02*
X111640586Y-128977725D01*
X111667737Y-127854203D02*
X111012383Y-128080558D01*
X111012383Y-128080558D02*
X111293203Y-127651398D01*
X111293203Y-127651398D02*
X110793878Y-127768500D01*
X110793878Y-127768500D02*
X111230727Y-127230087D01*
X110286622Y-126961043D02*
X110302241Y-127066370D01*
X110302241Y-127066370D02*
X110411494Y-127222399D01*
X110411494Y-127222399D02*
X110505127Y-127273100D01*
X110505127Y-127273100D02*
X110610455Y-127257481D01*
X110610455Y-127257481D02*
X110922513Y-127038976D01*
X110922513Y-127038976D02*
X110973214Y-126945343D01*
X110973214Y-126945343D02*
X110957595Y-126840015D01*
X110957595Y-126840015D02*
X110848342Y-126683986D01*
X110848342Y-126683986D02*
X110754709Y-126633285D01*
X110754709Y-126633285D02*
X110649381Y-126648904D01*
X110649381Y-126648904D02*
X110571367Y-126703530D01*
X110571367Y-126703530D02*
X110766484Y-127148229D01*
X109794985Y-126258912D02*
X109810604Y-126364240D01*
X109810604Y-126364240D02*
X109919857Y-126520269D01*
X109919857Y-126520269D02*
X110013490Y-126570970D01*
X110013490Y-126570970D02*
X110118818Y-126555351D01*
X110118818Y-126555351D02*
X110430876Y-126336846D01*
X110430876Y-126336846D02*
X110481577Y-126243212D01*
X110481577Y-126243212D02*
X110465958Y-126137884D01*
X110465958Y-126137884D02*
X110356705Y-125981855D01*
X110356705Y-125981855D02*
X110263072Y-125931154D01*
X110263072Y-125931154D02*
X110157744Y-125946773D01*
X110157744Y-125946773D02*
X110079730Y-126001400D01*
X110079730Y-126001400D02*
X110274847Y-126446098D01*
X109482846Y-125896153D02*
X110301998Y-125322576D01*
X109989940Y-125541082D02*
X109974321Y-125435754D01*
X109974321Y-125435754D02*
X109865068Y-125279725D01*
X109865068Y-125279725D02*
X109771435Y-125229024D01*
X109771435Y-125229024D02*
X109705114Y-125217330D01*
X109705114Y-125217330D02*
X109599787Y-125232949D01*
X109599787Y-125232949D02*
X109365743Y-125396828D01*
X109365743Y-125396828D02*
X109315042Y-125490461D01*
X109315042Y-125490461D02*
X109303348Y-125556782D01*
X109303348Y-125556782D02*
X109318967Y-125662109D01*
X109318967Y-125662109D02*
X109428220Y-125818138D01*
X109428220Y-125818138D02*
X109521853Y-125868840D01*
X109030216Y-125166709D02*
X108936583Y-125116008D01*
X108936583Y-125116008D02*
X108827330Y-124959979D01*
X108827330Y-124959979D02*
X108811711Y-124854651D01*
X108811711Y-124854651D02*
X108862412Y-124761018D01*
X108862412Y-124761018D02*
X108901419Y-124733705D01*
X108901419Y-124733705D02*
X109006747Y-124718085D01*
X109006747Y-124718085D02*
X109100381Y-124768787D01*
X109100381Y-124768787D02*
X109182320Y-124885809D01*
X109182320Y-124885809D02*
X109275954Y-124936510D01*
X109275954Y-124936510D02*
X109381281Y-124920891D01*
X109381281Y-124920891D02*
X109420289Y-124893578D01*
X109420289Y-124893578D02*
X109470990Y-124799944D01*
X109470990Y-124799944D02*
X109455371Y-124694616D01*
X109455371Y-124694616D02*
X109373431Y-124577595D01*
X109373431Y-124577595D02*
X109279798Y-124526893D01*
X108577586Y-124437266D02*
X108511266Y-124425571D01*
X108511266Y-124425571D02*
X108499572Y-124491892D01*
X108499572Y-124491892D02*
X108565892Y-124503586D01*
X108565892Y-124503586D02*
X108577586Y-124437266D01*
X108577586Y-124437266D02*
X108499572Y-124491892D01*
X108772542Y-123719436D02*
X108226441Y-124101820D01*
X108694527Y-123774062D02*
X108706222Y-123707742D01*
X108706222Y-123707742D02*
X108690602Y-123602414D01*
X108690602Y-123602414D02*
X108608663Y-123485392D01*
X108608663Y-123485392D02*
X108515029Y-123434691D01*
X108515029Y-123434691D02*
X108409702Y-123450310D01*
X108409702Y-123450310D02*
X107980622Y-123750755D01*
X107527992Y-123021311D02*
X107543611Y-123126639D01*
X107543611Y-123126639D02*
X107652864Y-123282668D01*
X107652864Y-123282668D02*
X107746498Y-123333369D01*
X107746498Y-123333369D02*
X107851825Y-123317750D01*
X107851825Y-123317750D02*
X108163883Y-123099245D01*
X108163883Y-123099245D02*
X108214585Y-123005611D01*
X108214585Y-123005611D02*
X108198965Y-122900283D01*
X108198965Y-122900283D02*
X108089713Y-122744255D01*
X108089713Y-122744255D02*
X107996079Y-122693553D01*
X107996079Y-122693553D02*
X107890752Y-122709172D01*
X107890752Y-122709172D02*
X107812737Y-122763799D01*
X107812737Y-122763799D02*
X108007854Y-123208497D01*
X107843894Y-122393189D02*
X107625389Y-122081131D01*
X108035005Y-122084975D02*
X107332875Y-122576612D01*
X107332875Y-122576612D02*
X107227547Y-122592231D01*
X107227547Y-122592231D02*
X107133914Y-122541530D01*
X107133914Y-122541530D02*
X107079288Y-122463516D01*
%TO.C,SW2*%
X130111332Y-74456000D02*
X129968475Y-74503619D01*
X129968475Y-74503619D02*
X129730380Y-74503619D01*
X129730380Y-74503619D02*
X129635142Y-74456000D01*
X129635142Y-74456000D02*
X129587523Y-74408380D01*
X129587523Y-74408380D02*
X129539904Y-74313142D01*
X129539904Y-74313142D02*
X129539904Y-74217904D01*
X129539904Y-74217904D02*
X129587523Y-74122666D01*
X129587523Y-74122666D02*
X129635142Y-74075047D01*
X129635142Y-74075047D02*
X129730380Y-74027428D01*
X129730380Y-74027428D02*
X129920856Y-73979809D01*
X129920856Y-73979809D02*
X130016094Y-73932190D01*
X130016094Y-73932190D02*
X130063713Y-73884571D01*
X130063713Y-73884571D02*
X130111332Y-73789333D01*
X130111332Y-73789333D02*
X130111332Y-73694095D01*
X130111332Y-73694095D02*
X130063713Y-73598857D01*
X130063713Y-73598857D02*
X130016094Y-73551238D01*
X130016094Y-73551238D02*
X129920856Y-73503619D01*
X129920856Y-73503619D02*
X129682761Y-73503619D01*
X129682761Y-73503619D02*
X129539904Y-73551238D01*
X129206570Y-73503619D02*
X128968475Y-74503619D01*
X128968475Y-74503619D02*
X128777999Y-73789333D01*
X128777999Y-73789333D02*
X128587523Y-74503619D01*
X128587523Y-74503619D02*
X128349428Y-73503619D01*
X128016094Y-73598857D02*
X127968475Y-73551238D01*
X127968475Y-73551238D02*
X127873237Y-73503619D01*
X127873237Y-73503619D02*
X127635142Y-73503619D01*
X127635142Y-73503619D02*
X127539904Y-73551238D01*
X127539904Y-73551238D02*
X127492285Y-73598857D01*
X127492285Y-73598857D02*
X127444666Y-73694095D01*
X127444666Y-73694095D02*
X127444666Y-73789333D01*
X127444666Y-73789333D02*
X127492285Y-73932190D01*
X127492285Y-73932190D02*
X128063713Y-74503619D01*
X128063713Y-74503619D02*
X127444666Y-74503619D01*
%TO.C,SW7*%
X149161332Y-91220000D02*
X149018475Y-91267619D01*
X149018475Y-91267619D02*
X148780380Y-91267619D01*
X148780380Y-91267619D02*
X148685142Y-91220000D01*
X148685142Y-91220000D02*
X148637523Y-91172380D01*
X148637523Y-91172380D02*
X148589904Y-91077142D01*
X148589904Y-91077142D02*
X148589904Y-90981904D01*
X148589904Y-90981904D02*
X148637523Y-90886666D01*
X148637523Y-90886666D02*
X148685142Y-90839047D01*
X148685142Y-90839047D02*
X148780380Y-90791428D01*
X148780380Y-90791428D02*
X148970856Y-90743809D01*
X148970856Y-90743809D02*
X149066094Y-90696190D01*
X149066094Y-90696190D02*
X149113713Y-90648571D01*
X149113713Y-90648571D02*
X149161332Y-90553333D01*
X149161332Y-90553333D02*
X149161332Y-90458095D01*
X149161332Y-90458095D02*
X149113713Y-90362857D01*
X149113713Y-90362857D02*
X149066094Y-90315238D01*
X149066094Y-90315238D02*
X148970856Y-90267619D01*
X148970856Y-90267619D02*
X148732761Y-90267619D01*
X148732761Y-90267619D02*
X148589904Y-90315238D01*
X148256570Y-90267619D02*
X148018475Y-91267619D01*
X148018475Y-91267619D02*
X147827999Y-90553333D01*
X147827999Y-90553333D02*
X147637523Y-91267619D01*
X147637523Y-91267619D02*
X147399428Y-90267619D01*
X147113713Y-90267619D02*
X146447047Y-90267619D01*
X146447047Y-90267619D02*
X146875618Y-91267619D01*
%TO.C,SW11*%
X189039833Y-139301703D02*
X188889305Y-139297590D01*
X188889305Y-139297590D02*
X188665568Y-139216156D01*
X188665568Y-139216156D02*
X188592361Y-139138836D01*
X188592361Y-139138836D02*
X188563900Y-139077802D01*
X188563900Y-139077802D02*
X188551726Y-138972021D01*
X188551726Y-138972021D02*
X188584299Y-138882526D01*
X188584299Y-138882526D02*
X188661620Y-138809318D01*
X188661620Y-138809318D02*
X188722654Y-138780858D01*
X188722654Y-138780858D02*
X188828435Y-138768684D01*
X188828435Y-138768684D02*
X189023711Y-138789083D01*
X189023711Y-138789083D02*
X189129492Y-138776909D01*
X189129492Y-138776909D02*
X189190526Y-138748449D01*
X189190526Y-138748449D02*
X189267847Y-138675241D01*
X189267847Y-138675241D02*
X189300420Y-138585746D01*
X189300420Y-138585746D02*
X189288246Y-138479965D01*
X189288246Y-138479965D02*
X189259786Y-138418931D01*
X189259786Y-138418931D02*
X189186578Y-138341610D01*
X189186578Y-138341610D02*
X188962841Y-138260177D01*
X188962841Y-138260177D02*
X188812313Y-138256064D01*
X188515369Y-138097310D02*
X187949612Y-138955570D01*
X187949612Y-138955570D02*
X188014923Y-138219214D01*
X188014923Y-138219214D02*
X187591634Y-138825276D01*
X187591634Y-138825276D02*
X187709918Y-137804150D01*
X186517700Y-138434396D02*
X187054667Y-138629836D01*
X186786183Y-138532116D02*
X187128203Y-137592424D01*
X187128203Y-137592424D02*
X187168838Y-137759239D01*
X187168838Y-137759239D02*
X187225759Y-137881307D01*
X187225759Y-137881307D02*
X187298967Y-137958627D01*
X185622754Y-138108663D02*
X186159722Y-138304103D01*
X185891238Y-138206383D02*
X186233258Y-137266690D01*
X186233258Y-137266690D02*
X186273893Y-137433505D01*
X186273893Y-137433505D02*
X186330814Y-137555573D01*
X186330814Y-137555573D02*
X186404022Y-137632894D01*
%TO.C,SW4*%
X168211332Y-74456000D02*
X168068475Y-74503619D01*
X168068475Y-74503619D02*
X167830380Y-74503619D01*
X167830380Y-74503619D02*
X167735142Y-74456000D01*
X167735142Y-74456000D02*
X167687523Y-74408380D01*
X167687523Y-74408380D02*
X167639904Y-74313142D01*
X167639904Y-74313142D02*
X167639904Y-74217904D01*
X167639904Y-74217904D02*
X167687523Y-74122666D01*
X167687523Y-74122666D02*
X167735142Y-74075047D01*
X167735142Y-74075047D02*
X167830380Y-74027428D01*
X167830380Y-74027428D02*
X168020856Y-73979809D01*
X168020856Y-73979809D02*
X168116094Y-73932190D01*
X168116094Y-73932190D02*
X168163713Y-73884571D01*
X168163713Y-73884571D02*
X168211332Y-73789333D01*
X168211332Y-73789333D02*
X168211332Y-73694095D01*
X168211332Y-73694095D02*
X168163713Y-73598857D01*
X168163713Y-73598857D02*
X168116094Y-73551238D01*
X168116094Y-73551238D02*
X168020856Y-73503619D01*
X168020856Y-73503619D02*
X167782761Y-73503619D01*
X167782761Y-73503619D02*
X167639904Y-73551238D01*
X167306570Y-73503619D02*
X167068475Y-74503619D01*
X167068475Y-74503619D02*
X166877999Y-73789333D01*
X166877999Y-73789333D02*
X166687523Y-74503619D01*
X166687523Y-74503619D02*
X166449428Y-73503619D01*
X165639904Y-73836952D02*
X165639904Y-74503619D01*
X165877999Y-73456000D02*
X166116094Y-74170285D01*
X166116094Y-74170285D02*
X165497047Y-74170285D01*
%TO.C,SW9*%
X145676478Y-127638638D02*
X145527522Y-127660726D01*
X145527522Y-127660726D02*
X145293044Y-127619381D01*
X145293044Y-127619381D02*
X145207522Y-127555948D01*
X145207522Y-127555948D02*
X145168895Y-127500783D01*
X145168895Y-127500783D02*
X145138538Y-127398723D01*
X145138538Y-127398723D02*
X145155076Y-127304932D01*
X145155076Y-127304932D02*
X145218509Y-127219410D01*
X145218509Y-127219410D02*
X145273674Y-127180783D01*
X145273674Y-127180783D02*
X145375734Y-127150425D01*
X145375734Y-127150425D02*
X145571585Y-127136606D01*
X145571585Y-127136606D02*
X145673645Y-127106248D01*
X145673645Y-127106248D02*
X145728810Y-127067621D01*
X145728810Y-127067621D02*
X145792243Y-126982099D01*
X145792243Y-126982099D02*
X145808781Y-126888308D01*
X145808781Y-126888308D02*
X145778424Y-126786248D01*
X145778424Y-126786248D02*
X145739797Y-126731083D01*
X145739797Y-126731083D02*
X145654275Y-126667650D01*
X145654275Y-126667650D02*
X145419797Y-126626305D01*
X145419797Y-126626305D02*
X145270841Y-126648393D01*
X144950841Y-126543615D02*
X144542714Y-127487078D01*
X144542714Y-127487078D02*
X144479166Y-126750568D01*
X144479166Y-126750568D02*
X144167550Y-127420926D01*
X144167550Y-127420926D02*
X144106720Y-126394774D01*
X143511011Y-127305161D02*
X143323429Y-127272085D01*
X143323429Y-127272085D02*
X143237907Y-127208652D01*
X143237907Y-127208652D02*
X143199280Y-127153487D01*
X143199280Y-127153487D02*
X143130296Y-126996262D01*
X143130296Y-126996262D02*
X143116476Y-126800411D01*
X143116476Y-126800411D02*
X143182627Y-126425246D01*
X143182627Y-126425246D02*
X143246061Y-126339724D01*
X143246061Y-126339724D02*
X143301226Y-126301097D01*
X143301226Y-126301097D02*
X143403286Y-126270739D01*
X143403286Y-126270739D02*
X143590868Y-126303815D01*
X143590868Y-126303815D02*
X143676390Y-126367249D01*
X143676390Y-126367249D02*
X143715017Y-126422413D01*
X143715017Y-126422413D02*
X143745375Y-126524474D01*
X143745375Y-126524474D02*
X143704030Y-126758952D01*
X143704030Y-126758952D02*
X143640596Y-126844474D01*
X143640596Y-126844474D02*
X143585432Y-126883100D01*
X143585432Y-126883100D02*
X143483372Y-126913458D01*
X143483372Y-126913458D02*
X143295789Y-126880382D01*
X143295789Y-126880382D02*
X143210267Y-126816949D01*
X143210267Y-126816949D02*
X143171640Y-126761784D01*
X143171640Y-126761784D02*
X143141283Y-126659724D01*
%TO.C,SW10*%
X167780106Y-132804680D02*
X167629792Y-132813702D01*
X167629792Y-132813702D02*
X167399810Y-132752079D01*
X167399810Y-132752079D02*
X167320142Y-132681433D01*
X167320142Y-132681433D02*
X167286470Y-132623112D01*
X167286470Y-132623112D02*
X167265123Y-132518794D01*
X167265123Y-132518794D02*
X167289772Y-132426801D01*
X167289772Y-132426801D02*
X167360418Y-132347133D01*
X167360418Y-132347133D02*
X167418739Y-132313461D01*
X167418739Y-132313461D02*
X167523057Y-132292114D01*
X167523057Y-132292114D02*
X167719368Y-132295416D01*
X167719368Y-132295416D02*
X167823685Y-132274069D01*
X167823685Y-132274069D02*
X167882007Y-132240398D01*
X167882007Y-132240398D02*
X167952652Y-132160729D01*
X167952652Y-132160729D02*
X167977302Y-132068736D01*
X167977302Y-132068736D02*
X167955955Y-131964419D01*
X167955955Y-131964419D02*
X167922283Y-131906098D01*
X167922283Y-131906098D02*
X167842615Y-131835452D01*
X167842615Y-131835452D02*
X167612632Y-131773828D01*
X167612632Y-131773828D02*
X167462318Y-131782850D01*
X167152668Y-131650581D02*
X166663866Y-132554883D01*
X166663866Y-132554883D02*
X166664751Y-131815637D01*
X166664751Y-131815637D02*
X166295895Y-132456285D01*
X166295895Y-132456285D02*
X166324731Y-131428736D01*
X165191980Y-132160492D02*
X165743937Y-132308389D01*
X165467958Y-132234441D02*
X165726777Y-131268515D01*
X165726777Y-131268515D02*
X165781796Y-131431154D01*
X165781796Y-131431154D02*
X165849140Y-131547796D01*
X165849140Y-131547796D02*
X165928808Y-131618442D01*
X164852844Y-131034345D02*
X164760852Y-131009696D01*
X164760852Y-131009696D02*
X164656534Y-131031043D01*
X164656534Y-131031043D02*
X164598213Y-131064715D01*
X164598213Y-131064715D02*
X164527567Y-131144383D01*
X164527567Y-131144383D02*
X164432271Y-131316044D01*
X164432271Y-131316044D02*
X164370648Y-131546026D01*
X164370648Y-131546026D02*
X164367345Y-131742337D01*
X164367345Y-131742337D02*
X164388693Y-131846654D01*
X164388693Y-131846654D02*
X164422364Y-131904976D01*
X164422364Y-131904976D02*
X164502032Y-131975622D01*
X164502032Y-131975622D02*
X164594025Y-132000271D01*
X164594025Y-132000271D02*
X164698343Y-131978924D01*
X164698343Y-131978924D02*
X164756664Y-131945252D01*
X164756664Y-131945252D02*
X164827310Y-131865584D01*
X164827310Y-131865584D02*
X164922605Y-131693923D01*
X164922605Y-131693923D02*
X164984229Y-131463940D01*
X164984229Y-131463940D02*
X164987531Y-131267630D01*
X164987531Y-131267630D02*
X164966184Y-131163312D01*
X164966184Y-131163312D02*
X164932513Y-131104991D01*
X164932513Y-131104991D02*
X164852844Y-131034345D01*
%TO.C,SW5*%
X111061332Y-98586000D02*
X110918475Y-98633619D01*
X110918475Y-98633619D02*
X110680380Y-98633619D01*
X110680380Y-98633619D02*
X110585142Y-98586000D01*
X110585142Y-98586000D02*
X110537523Y-98538380D01*
X110537523Y-98538380D02*
X110489904Y-98443142D01*
X110489904Y-98443142D02*
X110489904Y-98347904D01*
X110489904Y-98347904D02*
X110537523Y-98252666D01*
X110537523Y-98252666D02*
X110585142Y-98205047D01*
X110585142Y-98205047D02*
X110680380Y-98157428D01*
X110680380Y-98157428D02*
X110870856Y-98109809D01*
X110870856Y-98109809D02*
X110966094Y-98062190D01*
X110966094Y-98062190D02*
X111013713Y-98014571D01*
X111013713Y-98014571D02*
X111061332Y-97919333D01*
X111061332Y-97919333D02*
X111061332Y-97824095D01*
X111061332Y-97824095D02*
X111013713Y-97728857D01*
X111013713Y-97728857D02*
X110966094Y-97681238D01*
X110966094Y-97681238D02*
X110870856Y-97633619D01*
X110870856Y-97633619D02*
X110632761Y-97633619D01*
X110632761Y-97633619D02*
X110489904Y-97681238D01*
X110156570Y-97633619D02*
X109918475Y-98633619D01*
X109918475Y-98633619D02*
X109727999Y-97919333D01*
X109727999Y-97919333D02*
X109537523Y-98633619D01*
X109537523Y-98633619D02*
X109299428Y-97633619D01*
X108442285Y-97633619D02*
X108918475Y-97633619D01*
X108918475Y-97633619D02*
X108966094Y-98109809D01*
X108966094Y-98109809D02*
X108918475Y-98062190D01*
X108918475Y-98062190D02*
X108823237Y-98014571D01*
X108823237Y-98014571D02*
X108585142Y-98014571D01*
X108585142Y-98014571D02*
X108489904Y-98062190D01*
X108489904Y-98062190D02*
X108442285Y-98109809D01*
X108442285Y-98109809D02*
X108394666Y-98205047D01*
X108394666Y-98205047D02*
X108394666Y-98443142D01*
X108394666Y-98443142D02*
X108442285Y-98538380D01*
X108442285Y-98538380D02*
X108489904Y-98586000D01*
X108489904Y-98586000D02*
X108585142Y-98633619D01*
X108585142Y-98633619D02*
X108823237Y-98633619D01*
X108823237Y-98633619D02*
X108918475Y-98586000D01*
X108918475Y-98586000D02*
X108966094Y-98538380D01*
%TO.C,SW8*%
X168211332Y-93506000D02*
X168068475Y-93553619D01*
X168068475Y-93553619D02*
X167830380Y-93553619D01*
X167830380Y-93553619D02*
X167735142Y-93506000D01*
X167735142Y-93506000D02*
X167687523Y-93458380D01*
X167687523Y-93458380D02*
X167639904Y-93363142D01*
X167639904Y-93363142D02*
X167639904Y-93267904D01*
X167639904Y-93267904D02*
X167687523Y-93172666D01*
X167687523Y-93172666D02*
X167735142Y-93125047D01*
X167735142Y-93125047D02*
X167830380Y-93077428D01*
X167830380Y-93077428D02*
X168020856Y-93029809D01*
X168020856Y-93029809D02*
X168116094Y-92982190D01*
X168116094Y-92982190D02*
X168163713Y-92934571D01*
X168163713Y-92934571D02*
X168211332Y-92839333D01*
X168211332Y-92839333D02*
X168211332Y-92744095D01*
X168211332Y-92744095D02*
X168163713Y-92648857D01*
X168163713Y-92648857D02*
X168116094Y-92601238D01*
X168116094Y-92601238D02*
X168020856Y-92553619D01*
X168020856Y-92553619D02*
X167782761Y-92553619D01*
X167782761Y-92553619D02*
X167639904Y-92601238D01*
X167306570Y-92553619D02*
X167068475Y-93553619D01*
X167068475Y-93553619D02*
X166877999Y-92839333D01*
X166877999Y-92839333D02*
X166687523Y-93553619D01*
X166687523Y-93553619D02*
X166449428Y-92553619D01*
X165925618Y-92982190D02*
X166020856Y-92934571D01*
X166020856Y-92934571D02*
X166068475Y-92886952D01*
X166068475Y-92886952D02*
X166116094Y-92791714D01*
X166116094Y-92791714D02*
X166116094Y-92744095D01*
X166116094Y-92744095D02*
X166068475Y-92648857D01*
X166068475Y-92648857D02*
X166020856Y-92601238D01*
X166020856Y-92601238D02*
X165925618Y-92553619D01*
X165925618Y-92553619D02*
X165735142Y-92553619D01*
X165735142Y-92553619D02*
X165639904Y-92601238D01*
X165639904Y-92601238D02*
X165592285Y-92648857D01*
X165592285Y-92648857D02*
X165544666Y-92744095D01*
X165544666Y-92744095D02*
X165544666Y-92791714D01*
X165544666Y-92791714D02*
X165592285Y-92886952D01*
X165592285Y-92886952D02*
X165639904Y-92934571D01*
X165639904Y-92934571D02*
X165735142Y-92982190D01*
X165735142Y-92982190D02*
X165925618Y-92982190D01*
X165925618Y-92982190D02*
X166020856Y-93029809D01*
X166020856Y-93029809D02*
X166068475Y-93077428D01*
X166068475Y-93077428D02*
X166116094Y-93172666D01*
X166116094Y-93172666D02*
X166116094Y-93363142D01*
X166116094Y-93363142D02*
X166068475Y-93458380D01*
X166068475Y-93458380D02*
X166020856Y-93506000D01*
X166020856Y-93506000D02*
X165925618Y-93553619D01*
X165925618Y-93553619D02*
X165735142Y-93553619D01*
X165735142Y-93553619D02*
X165639904Y-93506000D01*
X165639904Y-93506000D02*
X165592285Y-93458380D01*
X165592285Y-93458380D02*
X165544666Y-93363142D01*
X165544666Y-93363142D02*
X165544666Y-93172666D01*
X165544666Y-93172666D02*
X165592285Y-93077428D01*
X165592285Y-93077428D02*
X165639904Y-93029809D01*
X165639904Y-93029809D02*
X165735142Y-92982190D01*
%TO.C,SW6*%
X130111332Y-93506000D02*
X129968475Y-93553619D01*
X129968475Y-93553619D02*
X129730380Y-93553619D01*
X129730380Y-93553619D02*
X129635142Y-93506000D01*
X129635142Y-93506000D02*
X129587523Y-93458380D01*
X129587523Y-93458380D02*
X129539904Y-93363142D01*
X129539904Y-93363142D02*
X129539904Y-93267904D01*
X129539904Y-93267904D02*
X129587523Y-93172666D01*
X129587523Y-93172666D02*
X129635142Y-93125047D01*
X129635142Y-93125047D02*
X129730380Y-93077428D01*
X129730380Y-93077428D02*
X129920856Y-93029809D01*
X129920856Y-93029809D02*
X130016094Y-92982190D01*
X130016094Y-92982190D02*
X130063713Y-92934571D01*
X130063713Y-92934571D02*
X130111332Y-92839333D01*
X130111332Y-92839333D02*
X130111332Y-92744095D01*
X130111332Y-92744095D02*
X130063713Y-92648857D01*
X130063713Y-92648857D02*
X130016094Y-92601238D01*
X130016094Y-92601238D02*
X129920856Y-92553619D01*
X129920856Y-92553619D02*
X129682761Y-92553619D01*
X129682761Y-92553619D02*
X129539904Y-92601238D01*
X129206570Y-92553619D02*
X128968475Y-93553619D01*
X128968475Y-93553619D02*
X128777999Y-92839333D01*
X128777999Y-92839333D02*
X128587523Y-93553619D01*
X128587523Y-93553619D02*
X128349428Y-92553619D01*
X127539904Y-92553619D02*
X127730380Y-92553619D01*
X127730380Y-92553619D02*
X127825618Y-92601238D01*
X127825618Y-92601238D02*
X127873237Y-92648857D01*
X127873237Y-92648857D02*
X127968475Y-92791714D01*
X127968475Y-92791714D02*
X128016094Y-92982190D01*
X128016094Y-92982190D02*
X128016094Y-93363142D01*
X128016094Y-93363142D02*
X127968475Y-93458380D01*
X127968475Y-93458380D02*
X127920856Y-93506000D01*
X127920856Y-93506000D02*
X127825618Y-93553619D01*
X127825618Y-93553619D02*
X127635142Y-93553619D01*
X127635142Y-93553619D02*
X127539904Y-93506000D01*
X127539904Y-93506000D02*
X127492285Y-93458380D01*
X127492285Y-93458380D02*
X127444666Y-93363142D01*
X127444666Y-93363142D02*
X127444666Y-93125047D01*
X127444666Y-93125047D02*
X127492285Y-93029809D01*
X127492285Y-93029809D02*
X127539904Y-92982190D01*
X127539904Y-92982190D02*
X127635142Y-92934571D01*
X127635142Y-92934571D02*
X127825618Y-92934571D01*
X127825618Y-92934571D02*
X127920856Y-92982190D01*
X127920856Y-92982190D02*
X127968475Y-93029809D01*
X127968475Y-93029809D02*
X128016094Y-93125047D01*
%TO.C,SW1*%
X111061332Y-79536000D02*
X110918475Y-79583619D01*
X110918475Y-79583619D02*
X110680380Y-79583619D01*
X110680380Y-79583619D02*
X110585142Y-79536000D01*
X110585142Y-79536000D02*
X110537523Y-79488380D01*
X110537523Y-79488380D02*
X110489904Y-79393142D01*
X110489904Y-79393142D02*
X110489904Y-79297904D01*
X110489904Y-79297904D02*
X110537523Y-79202666D01*
X110537523Y-79202666D02*
X110585142Y-79155047D01*
X110585142Y-79155047D02*
X110680380Y-79107428D01*
X110680380Y-79107428D02*
X110870856Y-79059809D01*
X110870856Y-79059809D02*
X110966094Y-79012190D01*
X110966094Y-79012190D02*
X111013713Y-78964571D01*
X111013713Y-78964571D02*
X111061332Y-78869333D01*
X111061332Y-78869333D02*
X111061332Y-78774095D01*
X111061332Y-78774095D02*
X111013713Y-78678857D01*
X111013713Y-78678857D02*
X110966094Y-78631238D01*
X110966094Y-78631238D02*
X110870856Y-78583619D01*
X110870856Y-78583619D02*
X110632761Y-78583619D01*
X110632761Y-78583619D02*
X110489904Y-78631238D01*
X110156570Y-78583619D02*
X109918475Y-79583619D01*
X109918475Y-79583619D02*
X109727999Y-78869333D01*
X109727999Y-78869333D02*
X109537523Y-79583619D01*
X109537523Y-79583619D02*
X109299428Y-78583619D01*
X108394666Y-79583619D02*
X108966094Y-79583619D01*
X108680380Y-79583619D02*
X108680380Y-78583619D01*
X108680380Y-78583619D02*
X108775618Y-78726476D01*
X108775618Y-78726476D02*
X108870856Y-78821714D01*
X108870856Y-78821714D02*
X108966094Y-78869333D01*
%TO.C,SW3*%
X149161332Y-72170000D02*
X149018475Y-72217619D01*
X149018475Y-72217619D02*
X148780380Y-72217619D01*
X148780380Y-72217619D02*
X148685142Y-72170000D01*
X148685142Y-72170000D02*
X148637523Y-72122380D01*
X148637523Y-72122380D02*
X148589904Y-72027142D01*
X148589904Y-72027142D02*
X148589904Y-71931904D01*
X148589904Y-71931904D02*
X148637523Y-71836666D01*
X148637523Y-71836666D02*
X148685142Y-71789047D01*
X148685142Y-71789047D02*
X148780380Y-71741428D01*
X148780380Y-71741428D02*
X148970856Y-71693809D01*
X148970856Y-71693809D02*
X149066094Y-71646190D01*
X149066094Y-71646190D02*
X149113713Y-71598571D01*
X149113713Y-71598571D02*
X149161332Y-71503333D01*
X149161332Y-71503333D02*
X149161332Y-71408095D01*
X149161332Y-71408095D02*
X149113713Y-71312857D01*
X149113713Y-71312857D02*
X149066094Y-71265238D01*
X149066094Y-71265238D02*
X148970856Y-71217619D01*
X148970856Y-71217619D02*
X148732761Y-71217619D01*
X148732761Y-71217619D02*
X148589904Y-71265238D01*
X148256570Y-71217619D02*
X148018475Y-72217619D01*
X148018475Y-72217619D02*
X147827999Y-71503333D01*
X147827999Y-71503333D02*
X147637523Y-72217619D01*
X147637523Y-72217619D02*
X147399428Y-71217619D01*
X147113713Y-71217619D02*
X146494666Y-71217619D01*
X146494666Y-71217619D02*
X146827999Y-71598571D01*
X146827999Y-71598571D02*
X146685142Y-71598571D01*
X146685142Y-71598571D02*
X146589904Y-71646190D01*
X146589904Y-71646190D02*
X146542285Y-71693809D01*
X146542285Y-71693809D02*
X146494666Y-71789047D01*
X146494666Y-71789047D02*
X146494666Y-72027142D01*
X146494666Y-72027142D02*
X146542285Y-72122380D01*
X146542285Y-72122380D02*
X146589904Y-72170000D01*
X146589904Y-72170000D02*
X146685142Y-72217619D01*
X146685142Y-72217619D02*
X146970856Y-72217619D01*
X146970856Y-72217619D02*
X147066094Y-72170000D01*
X147066094Y-72170000D02*
X147113713Y-72122380D01*
D11*
%TO.C,G\u002A\u002A\u002A*%
X100501427Y-119645357D02*
X100644285Y-119573928D01*
X100644285Y-119573928D02*
X100858570Y-119573928D01*
X100858570Y-119573928D02*
X101072856Y-119645357D01*
X101072856Y-119645357D02*
X101215713Y-119788214D01*
X101215713Y-119788214D02*
X101287142Y-119931071D01*
X101287142Y-119931071D02*
X101358570Y-120216785D01*
X101358570Y-120216785D02*
X101358570Y-120431071D01*
X101358570Y-120431071D02*
X101287142Y-120716785D01*
X101287142Y-120716785D02*
X101215713Y-120859642D01*
X101215713Y-120859642D02*
X101072856Y-121002500D01*
X101072856Y-121002500D02*
X100858570Y-121073928D01*
X100858570Y-121073928D02*
X100715713Y-121073928D01*
X100715713Y-121073928D02*
X100501427Y-121002500D01*
X100501427Y-121002500D02*
X100429999Y-120931071D01*
X100429999Y-120931071D02*
X100429999Y-120431071D01*
X100429999Y-120431071D02*
X100715713Y-120431071D01*
X99572856Y-119573928D02*
X99572856Y-119931071D01*
X99929999Y-119788214D02*
X99572856Y-119931071D01*
X99572856Y-119931071D02*
X99215713Y-119788214D01*
X99787142Y-120216785D02*
X99572856Y-119931071D01*
X99572856Y-119931071D02*
X99358570Y-120216785D01*
X98429999Y-119573928D02*
X98429999Y-119931071D01*
X98787142Y-119788214D02*
X98429999Y-119931071D01*
X98429999Y-119931071D02*
X98072856Y-119788214D01*
X98644285Y-120216785D02*
X98429999Y-119931071D01*
X98429999Y-119931071D02*
X98215713Y-120216785D01*
X97287142Y-119573928D02*
X97287142Y-119931071D01*
X97644285Y-119788214D02*
X97287142Y-119931071D01*
X97287142Y-119931071D02*
X96929999Y-119788214D01*
X97501428Y-120216785D02*
X97287142Y-119931071D01*
X97287142Y-119931071D02*
X97072856Y-120216785D01*
D10*
%TO.C,SW2*%
X122428000Y-77851000D02*
X122428000Y-78232000D01*
X122428000Y-81280000D02*
X122428000Y-81661000D01*
X122809000Y-81661000D02*
X122428000Y-81661000D01*
X124968000Y-75311000D02*
X133858000Y-75311000D01*
X126313838Y-81661000D02*
X124587000Y-81661000D01*
X133858000Y-75311000D02*
X133858000Y-75692000D01*
X133858000Y-78740000D02*
X133858000Y-79756000D01*
X133858000Y-79756000D02*
X128778000Y-79756000D01*
X124968000Y-75311000D02*
G75*
G03*
X122428000Y-77851000I1J-2540001D01*
G01*
X128778000Y-79756000D02*
G75*
G03*
X126313839Y-81679960I0J-2539999D01*
G01*
%TO.C,SW7*%
X141478000Y-94615000D02*
X141478000Y-94996000D01*
X141478000Y-98044000D02*
X141478000Y-98425000D01*
X141859000Y-98425000D02*
X141478000Y-98425000D01*
X144018000Y-92075000D02*
X152908000Y-92075000D01*
X145363838Y-98425000D02*
X143637000Y-98425000D01*
X152908000Y-92075000D02*
X152908000Y-92456000D01*
X152908000Y-95504000D02*
X152908000Y-96520000D01*
X152908000Y-96520000D02*
X147828000Y-96520000D01*
X144018000Y-92075000D02*
G75*
G03*
X141478000Y-94615000I1J-2540001D01*
G01*
X147828000Y-96520000D02*
G75*
G03*
X145363839Y-98443960I0J-2539999D01*
G01*
%TO.C,SW11*%
X180211231Y-139701238D02*
X180080922Y-140059261D01*
X179038444Y-142923444D02*
X178908135Y-143281467D01*
X179266158Y-143411777D02*
X178908135Y-143281467D01*
X183466782Y-138183150D02*
X191820649Y-141223709D01*
X182559628Y-144610502D02*
X180936931Y-144019889D01*
X191820649Y-141223709D02*
X191690340Y-141581732D01*
X190647862Y-144445915D02*
X190300370Y-145400643D01*
X190300370Y-145400643D02*
X185526731Y-143663181D01*
X183466782Y-138183151D02*
G75*
G03*
X180211231Y-139701238I-868731J-2386820D01*
G01*
X185526731Y-143663181D02*
G75*
G03*
X182553143Y-144628319I-868731J-2386818D01*
G01*
%TO.C,SW4*%
X160528000Y-77851000D02*
X160528000Y-78232000D01*
X160528000Y-81280000D02*
X160528000Y-81661000D01*
X160909000Y-81661000D02*
X160528000Y-81661000D01*
X163068000Y-75311000D02*
X171958000Y-75311000D01*
X164413838Y-81661000D02*
X162687000Y-81661000D01*
X171958000Y-75311000D02*
X171958000Y-75692000D01*
X171958000Y-78740000D02*
X171958000Y-79756000D01*
X171958000Y-79756000D02*
X166878000Y-79756000D01*
X163068000Y-75311000D02*
G75*
G03*
X160528000Y-77851000I1J-2540001D01*
G01*
X166878000Y-79756000D02*
G75*
G03*
X164413839Y-81679960I0J-2539999D01*
G01*
%TO.C,SW9*%
X137520337Y-129647864D02*
X137454177Y-130023075D01*
X136924897Y-133024769D02*
X136858737Y-133399981D01*
X137233949Y-133466141D02*
X136858737Y-133399981D01*
X140462815Y-127587518D02*
X149217756Y-129131251D01*
X140685541Y-134074750D02*
X138984937Y-133774888D01*
X149217756Y-129131251D02*
X149151596Y-129506462D01*
X148622316Y-132508156D02*
X148445890Y-133508721D01*
X148445890Y-133508721D02*
X143443066Y-132626588D01*
X140462815Y-127587519D02*
G75*
G03*
X137520337Y-129647864I-441066J-2501412D01*
G01*
X143443066Y-132626588D02*
G75*
G03*
X140682249Y-134093422I-441066J-2501411D01*
G01*
%TO.C,SW10*%
X159019922Y-133972159D02*
X158921312Y-134340177D01*
X158132431Y-137284318D02*
X158033821Y-137652336D01*
X158401839Y-137750946D02*
X158033821Y-137652336D01*
X162130774Y-132176108D02*
X170717854Y-134477009D01*
X161787252Y-138658065D02*
X160119255Y-138211126D01*
X170717854Y-134477009D02*
X170619244Y-134845027D01*
X169830364Y-137789169D02*
X169567404Y-138770549D01*
X169567404Y-138770549D02*
X164660500Y-137455748D01*
X162130774Y-132176108D02*
G75*
G03*
X159019923Y-133972159I-657400J-2453452D01*
G01*
X164660500Y-137455748D02*
G75*
G03*
X161782346Y-138676379I-657400J-2453451D01*
G01*
%TO.C,SW5*%
X103378000Y-101981000D02*
X103378000Y-102362000D01*
X103378000Y-105410000D02*
X103378000Y-105791000D01*
X103759000Y-105791000D02*
X103378000Y-105791000D01*
X105918000Y-99441000D02*
X114808000Y-99441000D01*
X107263838Y-105791000D02*
X105537000Y-105791000D01*
X114808000Y-99441000D02*
X114808000Y-99822000D01*
X114808000Y-102870000D02*
X114808000Y-103886000D01*
X114808000Y-103886000D02*
X109728000Y-103886000D01*
X105918000Y-99441000D02*
G75*
G03*
X103378000Y-101981000I1J-2540001D01*
G01*
X109728000Y-103886000D02*
G75*
G03*
X107263839Y-105809960I0J-2539999D01*
G01*
%TO.C,SW8*%
X160528000Y-96901000D02*
X160528000Y-97282000D01*
X160528000Y-100330000D02*
X160528000Y-100711000D01*
X160909000Y-100711000D02*
X160528000Y-100711000D01*
X163068000Y-94361000D02*
X171958000Y-94361000D01*
X164413838Y-100711000D02*
X162687000Y-100711000D01*
X171958000Y-94361000D02*
X171958000Y-94742000D01*
X171958000Y-97790000D02*
X171958000Y-98806000D01*
X171958000Y-98806000D02*
X166878000Y-98806000D01*
X163068000Y-94361000D02*
G75*
G03*
X160528000Y-96901000I1J-2540001D01*
G01*
X166878000Y-98806000D02*
G75*
G03*
X164413839Y-100729960I0J-2539999D01*
G01*
%TO.C,SW6*%
X122428000Y-96901000D02*
X122428000Y-97282000D01*
X122428000Y-100330000D02*
X122428000Y-100711000D01*
X122809000Y-100711000D02*
X122428000Y-100711000D01*
X124968000Y-94361000D02*
X133858000Y-94361000D01*
X126313838Y-100711000D02*
X124587000Y-100711000D01*
X133858000Y-94361000D02*
X133858000Y-94742000D01*
X133858000Y-97790000D02*
X133858000Y-98806000D01*
X133858000Y-98806000D02*
X128778000Y-98806000D01*
X124968000Y-94361000D02*
G75*
G03*
X122428000Y-96901000I1J-2540001D01*
G01*
X128778000Y-98806000D02*
G75*
G03*
X126313839Y-100729960I0J-2539999D01*
G01*
%TO.C,SW1*%
X103378000Y-82931000D02*
X103378000Y-83312000D01*
X103378000Y-86360000D02*
X103378000Y-86741000D01*
X103759000Y-86741000D02*
X103378000Y-86741000D01*
X105918000Y-80391000D02*
X114808000Y-80391000D01*
X107263838Y-86741000D02*
X105537000Y-86741000D01*
X114808000Y-80391000D02*
X114808000Y-80772000D01*
X114808000Y-83820000D02*
X114808000Y-84836000D01*
X114808000Y-84836000D02*
X109728000Y-84836000D01*
X105918000Y-80391000D02*
G75*
G03*
X103378000Y-82931000I1J-2540001D01*
G01*
X109728000Y-84836000D02*
G75*
G03*
X107263839Y-86759960I0J-2539999D01*
G01*
%TO.C,SW3*%
X141478000Y-75565000D02*
X141478000Y-75946000D01*
X141478000Y-78994000D02*
X141478000Y-79375000D01*
X141859000Y-79375000D02*
X141478000Y-79375000D01*
X144018000Y-73025000D02*
X152908000Y-73025000D01*
X145363838Y-79375000D02*
X143637000Y-79375000D01*
X152908000Y-73025000D02*
X152908000Y-73406000D01*
X152908000Y-76454000D02*
X152908000Y-77470000D01*
X152908000Y-77470000D02*
X147828000Y-77470000D01*
X144018000Y-73025000D02*
G75*
G03*
X141478000Y-75565000I1J-2540001D01*
G01*
X147828000Y-77470000D02*
G75*
G03*
X145363839Y-79393960I0J-2539999D01*
G01*
%TO.C,G\u002A\u002A\u002A*%
G36*
X174882930Y-125327016D02*
G01*
X174996622Y-125364801D01*
X175100942Y-125437025D01*
X175136351Y-125472498D01*
X175203635Y-125569556D01*
X175238311Y-125680266D01*
X175243126Y-125811873D01*
X175231927Y-125889205D01*
X175186924Y-126006348D01*
X175112711Y-126102348D01*
X175013399Y-126172505D01*
X174893097Y-126212118D01*
X174869955Y-126215648D01*
X174741872Y-126215054D01*
X174626281Y-126182209D01*
X174526974Y-126122020D01*
X174447740Y-126039398D01*
X174392367Y-125939251D01*
X174364646Y-125826490D01*
X174368365Y-125706023D01*
X174407315Y-125582760D01*
X174461536Y-125493549D01*
X174549170Y-125406934D01*
X174652850Y-125349417D01*
X174766221Y-125322333D01*
X174882930Y-125327016D01*
G37*
G36*
X163664642Y-125331398D02*
G01*
X163767533Y-125373865D01*
X163857140Y-125441762D01*
X163928025Y-125532455D01*
X163974750Y-125643308D01*
X163991879Y-125771688D01*
X163991822Y-125782261D01*
X163972577Y-125913321D01*
X163919515Y-126025090D01*
X163833454Y-126116342D01*
X163715213Y-126185851D01*
X163651730Y-126204558D01*
X163550355Y-126213544D01*
X163446192Y-126204733D01*
X163357308Y-126178496D01*
X163303889Y-126149057D01*
X163213707Y-126070160D01*
X163151004Y-125972164D01*
X163116496Y-125861598D01*
X163110897Y-125744990D01*
X163134924Y-125628870D01*
X163189290Y-125519765D01*
X163274710Y-125424205D01*
X163330641Y-125382924D01*
X163440758Y-125333293D01*
X163553904Y-125316996D01*
X163664642Y-125331398D01*
G37*
G36*
X169299591Y-126389012D02*
G01*
X169408943Y-126440266D01*
X169504992Y-126525352D01*
X169558247Y-126600707D01*
X169604633Y-126714927D01*
X169618241Y-126831931D01*
X169601055Y-126945748D01*
X169555062Y-127050408D01*
X169482247Y-127139939D01*
X169384595Y-127208372D01*
X169264093Y-127249736D01*
X169241302Y-127254220D01*
X169193052Y-127263701D01*
X169168662Y-127268474D01*
X169133527Y-127265027D01*
X169074653Y-127246847D01*
X169006549Y-127218765D01*
X168941886Y-127186050D01*
X168893332Y-127153969D01*
X168827253Y-127085093D01*
X168768939Y-126979818D01*
X168741963Y-126863491D01*
X168746799Y-126743663D01*
X168783920Y-126627887D01*
X168853800Y-126523717D01*
X168854781Y-126522632D01*
X168954533Y-126438400D01*
X169066106Y-126388064D01*
X169183219Y-126371606D01*
X169299591Y-126389012D01*
G37*
G36*
X170050243Y-119575611D02*
G01*
X170129990Y-119626409D01*
X170190267Y-119703568D01*
X170224200Y-119803720D01*
X170228445Y-119838149D01*
X170223782Y-119965905D01*
X170191714Y-120103349D01*
X170134588Y-120239074D01*
X170116084Y-120272390D01*
X170009075Y-120418179D01*
X169872404Y-120544428D01*
X169711236Y-120647693D01*
X169530738Y-120724529D01*
X169336077Y-120771491D01*
X169306674Y-120775302D01*
X169160888Y-120778062D01*
X169000457Y-120759651D01*
X168838248Y-120722827D01*
X168687127Y-120670352D01*
X168559962Y-120604985D01*
X168464978Y-120532168D01*
X168362619Y-120430342D01*
X168271761Y-120317301D01*
X168204450Y-120206544D01*
X168184957Y-120162691D01*
X168148196Y-120039770D01*
X168134033Y-119916318D01*
X168143061Y-119802692D01*
X168175877Y-119709247D01*
X168221505Y-119647887D01*
X168300744Y-119588522D01*
X168392588Y-119557523D01*
X168488017Y-119557536D01*
X168578013Y-119591209D01*
X168602601Y-119608109D01*
X168656751Y-119667451D01*
X168693962Y-119751050D01*
X168717670Y-119865655D01*
X168718331Y-119870420D01*
X168733520Y-119946543D01*
X168758024Y-120001331D01*
X168799233Y-120051632D01*
X168806952Y-120059391D01*
X168906768Y-120131206D01*
X169030470Y-120173846D01*
X169179769Y-120187923D01*
X169198980Y-120187717D01*
X169342948Y-120170802D01*
X169461675Y-120127772D01*
X169553130Y-120060071D01*
X169615280Y-119969143D01*
X169646095Y-119856432D01*
X169652836Y-119810232D01*
X169680283Y-119715506D01*
X169726439Y-119646193D01*
X169796131Y-119593841D01*
X169859837Y-119566584D01*
X169957901Y-119554546D01*
X170050243Y-119575611D01*
G37*
G36*
X171855162Y-117958209D02*
G01*
X171982144Y-117979403D01*
X172057271Y-118001754D01*
X172169860Y-118045827D01*
X172267620Y-118096785D01*
X172344697Y-118150903D01*
X172395237Y-118204458D01*
X172413385Y-118253724D01*
X172412959Y-118264654D01*
X172398427Y-118299659D01*
X172360890Y-118307020D01*
X172297170Y-118287663D01*
X172253399Y-118274228D01*
X172156400Y-118271364D01*
X172059153Y-118299185D01*
X171971590Y-118354041D01*
X171903641Y-118432283D01*
X171880249Y-118480412D01*
X171859207Y-118580827D01*
X171866494Y-118684319D01*
X171902175Y-118775960D01*
X171904329Y-118779397D01*
X171978144Y-118861254D01*
X172073553Y-118915910D01*
X172181184Y-118939686D01*
X172291666Y-118928901D01*
X172324543Y-118916748D01*
X172399927Y-118868162D01*
X172466240Y-118800527D01*
X172509694Y-118726637D01*
X172521067Y-118700191D01*
X172540105Y-118683386D01*
X172570553Y-118693691D01*
X172588305Y-118704575D01*
X172643605Y-118765137D01*
X172675899Y-118849658D01*
X172686043Y-118952701D01*
X172674897Y-119068826D01*
X172643319Y-119192596D01*
X172592166Y-119318572D01*
X172522297Y-119441317D01*
X172434570Y-119555392D01*
X172383349Y-119609108D01*
X172235102Y-119728902D01*
X172069875Y-119813811D01*
X171885846Y-119864863D01*
X171841483Y-119871656D01*
X171659847Y-119876924D01*
X171486290Y-119847482D01*
X171324163Y-119786695D01*
X171176819Y-119697925D01*
X171047609Y-119584537D01*
X170939885Y-119449894D01*
X170856999Y-119297359D01*
X170802302Y-119130297D01*
X170779148Y-118952071D01*
X170790886Y-118766045D01*
X170801412Y-118710426D01*
X170860697Y-118526748D01*
X170952949Y-118361007D01*
X171075197Y-118216914D01*
X171224469Y-118098178D01*
X171397793Y-118008507D01*
X171442641Y-117992938D01*
X171570258Y-117965731D01*
X171712816Y-117953904D01*
X171855162Y-117958209D01*
G37*
G36*
X166760765Y-117961488D02*
G01*
X166883852Y-117979894D01*
X166983750Y-118007419D01*
X167079973Y-118049488D01*
X167170568Y-118100820D01*
X167242081Y-118154111D01*
X167290127Y-118205463D01*
X167310319Y-118250983D01*
X167298272Y-118286774D01*
X167288396Y-118294024D01*
X167254682Y-118297805D01*
X167197257Y-118283135D01*
X167170677Y-118275124D01*
X167108100Y-118267260D01*
X167041243Y-118280334D01*
X166937346Y-118328576D01*
X166855862Y-118404262D01*
X166804303Y-118501471D01*
X166786308Y-118615419D01*
X166804116Y-118717269D01*
X166855723Y-118808613D01*
X166936343Y-118881584D01*
X167041188Y-118930264D01*
X167079668Y-118938564D01*
X167177844Y-118934760D01*
X167271637Y-118900167D01*
X167350629Y-118839714D01*
X167404399Y-118758335D01*
X167408322Y-118749343D01*
X167430721Y-118709439D01*
X167448854Y-118693231D01*
X167457141Y-118696610D01*
X167487443Y-118721378D01*
X167526745Y-118762295D01*
X167530266Y-118766331D01*
X167566532Y-118815699D01*
X167583305Y-118865181D01*
X167587385Y-118934036D01*
X167570558Y-119103271D01*
X167515589Y-119276115D01*
X167422508Y-119440827D01*
X167291419Y-119597171D01*
X167282914Y-119605713D01*
X167147551Y-119720428D01*
X167001811Y-119802482D01*
X166835154Y-119857899D01*
X166743512Y-119874949D01*
X166565110Y-119879646D01*
X166388598Y-119849249D01*
X166219359Y-119786041D01*
X166062778Y-119692308D01*
X165924237Y-119570334D01*
X165809121Y-119422405D01*
X165730832Y-119264023D01*
X165683818Y-119089921D01*
X165668199Y-118908031D01*
X165683969Y-118726095D01*
X165731125Y-118551854D01*
X165809663Y-118393047D01*
X165818527Y-118379356D01*
X165935784Y-118235467D01*
X166079056Y-118115763D01*
X166241425Y-118025088D01*
X166415975Y-117968290D01*
X166505182Y-117956179D01*
X166629528Y-117953238D01*
X166760765Y-117961488D01*
G37*
G36*
X163480331Y-120371342D02*
G01*
X163668852Y-120423100D01*
X163839276Y-120504169D01*
X163987128Y-120613993D01*
X163989555Y-120616234D01*
X164075584Y-120716972D01*
X164128213Y-120825053D01*
X164147313Y-120935173D01*
X164132753Y-121042030D01*
X164084403Y-121140321D01*
X164002133Y-121224744D01*
X163955450Y-121255297D01*
X163882648Y-121282243D01*
X163798956Y-121287476D01*
X163697077Y-121271140D01*
X163569716Y-121233383D01*
X163525098Y-121218478D01*
X163442584Y-121193750D01*
X163376755Y-121180406D01*
X163313991Y-121176189D01*
X163240672Y-121178842D01*
X163076888Y-121207930D01*
X162919712Y-121272102D01*
X162774931Y-121367345D01*
X162646630Y-121489753D01*
X162538898Y-121635420D01*
X162455820Y-121800440D01*
X162401484Y-121980908D01*
X162383055Y-122092027D01*
X162373056Y-122323870D01*
X162400605Y-122553769D01*
X162464723Y-122778748D01*
X162564430Y-122995828D01*
X162698746Y-123202033D01*
X162866691Y-123394386D01*
X163026928Y-123535610D01*
X163240401Y-123679706D01*
X163473495Y-123795649D01*
X163718769Y-123879206D01*
X163813274Y-123898631D01*
X163954721Y-123915468D01*
X164114156Y-123924438D01*
X164280364Y-123925257D01*
X164442127Y-123917638D01*
X164588231Y-123901299D01*
X164624262Y-123895473D01*
X164935544Y-123823381D01*
X165235252Y-123714900D01*
X165519886Y-123571764D01*
X165785942Y-123395703D01*
X166029921Y-123188448D01*
X166169772Y-123045637D01*
X166324689Y-122857426D01*
X166446533Y-122666986D01*
X166538413Y-122469279D01*
X166603440Y-122259264D01*
X166635824Y-122155825D01*
X166699310Y-122031756D01*
X166780573Y-121933888D01*
X166875771Y-121864790D01*
X166981061Y-121827034D01*
X167092602Y-121823188D01*
X167206552Y-121855823D01*
X167232403Y-121869066D01*
X167317662Y-121933687D01*
X167388150Y-122017726D01*
X167432034Y-122107952D01*
X167437820Y-122142277D01*
X167443204Y-122215002D01*
X167446944Y-122317024D01*
X167449125Y-122443022D01*
X167449832Y-122587676D01*
X167449151Y-122745668D01*
X167447167Y-122911677D01*
X167443967Y-123080384D01*
X167439635Y-123246469D01*
X167434258Y-123404613D01*
X167427920Y-123549496D01*
X167420708Y-123675799D01*
X167412706Y-123778201D01*
X167404001Y-123851384D01*
X167403733Y-123853070D01*
X167350340Y-124137812D01*
X167282850Y-124414833D01*
X167203615Y-124676365D01*
X167114987Y-124914640D01*
X167019319Y-125121888D01*
X166979281Y-125194832D01*
X166889907Y-125336093D01*
X166792477Y-125466207D01*
X166692406Y-125578803D01*
X166595107Y-125667509D01*
X166505996Y-125725954D01*
X166428096Y-125754673D01*
X166317816Y-125764843D01*
X166213417Y-125742053D01*
X166121645Y-125689259D01*
X166049249Y-125609419D01*
X166002975Y-125505490D01*
X165992699Y-125444804D01*
X165997201Y-125382720D01*
X166018903Y-125312234D01*
X166060104Y-125225893D01*
X166123105Y-125116244D01*
X166131274Y-125102513D01*
X166206590Y-124959837D01*
X166282437Y-124789820D01*
X166354808Y-124602736D01*
X166419697Y-124408860D01*
X166473100Y-124218467D01*
X166485071Y-124170382D01*
X166511465Y-124059447D01*
X166526028Y-123982508D01*
X166527463Y-123936791D01*
X166514474Y-123919522D01*
X166485765Y-123927926D01*
X166440039Y-123959228D01*
X166376000Y-124010655D01*
X166136341Y-124189085D01*
X165838388Y-124368476D01*
X165518354Y-124520495D01*
X165181343Y-124642752D01*
X164832462Y-124732860D01*
X164810051Y-124737453D01*
X164726597Y-124753107D01*
X164648954Y-124764363D01*
X164568147Y-124771891D01*
X164475203Y-124776361D01*
X164361146Y-124778442D01*
X164217000Y-124778806D01*
X164147246Y-124778592D01*
X164021711Y-124777284D01*
X163923401Y-124774284D01*
X163844228Y-124768940D01*
X163776099Y-124760598D01*
X163710925Y-124748606D01*
X163640616Y-124732312D01*
X163605358Y-124723444D01*
X163290200Y-124628004D01*
X163004108Y-124509850D01*
X162743235Y-124366906D01*
X162503735Y-124197093D01*
X162281762Y-123998334D01*
X162109132Y-123811912D01*
X161926158Y-123570844D01*
X161779282Y-123319793D01*
X161667118Y-123056635D01*
X161656079Y-123024675D01*
X161578574Y-122740151D01*
X161537172Y-122455072D01*
X161531544Y-122172699D01*
X161561363Y-121896297D01*
X161626300Y-121629127D01*
X161726028Y-121374453D01*
X161860218Y-121135538D01*
X161867530Y-121124565D01*
X161972455Y-120988059D01*
X162100265Y-120852222D01*
X162242810Y-120723870D01*
X162391942Y-120609823D01*
X162539510Y-120516896D01*
X162677368Y-120451909D01*
X162850949Y-120397467D01*
X163066903Y-120357971D01*
X163278189Y-120349448D01*
X163480331Y-120371342D01*
G37*
G36*
X175378364Y-120368324D02*
G01*
X175582046Y-120421762D01*
X175781301Y-120503716D01*
X175972472Y-120612775D01*
X176151901Y-120747529D01*
X176315932Y-120906566D01*
X176460905Y-121088475D01*
X176583166Y-121291846D01*
X176679227Y-121496746D01*
X176753189Y-121702646D01*
X176800162Y-121905965D01*
X176822536Y-122117218D01*
X176822697Y-122346923D01*
X176815411Y-122476069D01*
X176797753Y-122643365D01*
X176769514Y-122794056D01*
X176728040Y-122941261D01*
X176670676Y-123098097D01*
X176536742Y-123385480D01*
X176369458Y-123656166D01*
X176172960Y-123901907D01*
X175948554Y-124121573D01*
X175697550Y-124314033D01*
X175421254Y-124478156D01*
X175120975Y-124612811D01*
X174798021Y-124716869D01*
X174747880Y-124730002D01*
X174679704Y-124746667D01*
X174618754Y-124758846D01*
X174557315Y-124767270D01*
X174487668Y-124772669D01*
X174402096Y-124775775D01*
X174292881Y-124777319D01*
X174152308Y-124778032D01*
X174038098Y-124778175D01*
X173916297Y-124777221D01*
X173819836Y-124774464D01*
X173740914Y-124769358D01*
X173671727Y-124761354D01*
X173604473Y-124749906D01*
X173531350Y-124734465D01*
X173445557Y-124714200D01*
X173109598Y-124614859D01*
X172782267Y-124486909D01*
X172470363Y-124333602D01*
X172180687Y-124158191D01*
X171920039Y-123963928D01*
X171872804Y-123927162D01*
X171838355Y-123908454D01*
X171827231Y-123917193D01*
X171827536Y-123924810D01*
X171835701Y-123978973D01*
X171853489Y-124060785D01*
X171878891Y-124162488D01*
X171909897Y-124276327D01*
X171944496Y-124394543D01*
X171980680Y-124509381D01*
X172010022Y-124595833D01*
X172040436Y-124677878D01*
X172074401Y-124760567D01*
X172114951Y-124850633D01*
X172165119Y-124954807D01*
X172227938Y-125079821D01*
X172306440Y-125232406D01*
X172312192Y-125243549D01*
X172346860Y-125314977D01*
X172365231Y-125366718D01*
X172370528Y-125411126D01*
X172365973Y-125460551D01*
X172346314Y-125536414D01*
X172288004Y-125639976D01*
X172199992Y-125721727D01*
X172163971Y-125741413D01*
X172069344Y-125764617D01*
X171963566Y-125759351D01*
X171857532Y-125725492D01*
X171839000Y-125716258D01*
X171726972Y-125639228D01*
X171614607Y-125527616D01*
X171504087Y-125385184D01*
X171397591Y-125215690D01*
X171297300Y-125022897D01*
X171205394Y-124810564D01*
X171124056Y-124582451D01*
X171055464Y-124342320D01*
X171030619Y-124242410D01*
X171002912Y-124126108D01*
X170980276Y-124021560D01*
X170962147Y-123923119D01*
X170947956Y-123825137D01*
X170937136Y-123721965D01*
X170929122Y-123607957D01*
X170923345Y-123477463D01*
X170919240Y-123324836D01*
X170916238Y-123144428D01*
X170913775Y-122930591D01*
X170905833Y-122156337D01*
X170954290Y-122061130D01*
X171010981Y-121968222D01*
X171080033Y-121898543D01*
X171167447Y-121849625D01*
X171187651Y-121841846D01*
X171303272Y-121820215D01*
X171418534Y-121833441D01*
X171526174Y-121878681D01*
X171618929Y-121953097D01*
X171689537Y-122053846D01*
X171698650Y-122073961D01*
X171722567Y-122137019D01*
X171750028Y-122219165D01*
X171776724Y-122307846D01*
X171789247Y-122349964D01*
X171883610Y-122588808D01*
X172014824Y-122817143D01*
X172183187Y-123035365D01*
X172388997Y-123243869D01*
X172632553Y-123443051D01*
X172699667Y-123490439D01*
X172906527Y-123613709D01*
X173137975Y-123723021D01*
X173383987Y-123813983D01*
X173634539Y-123882200D01*
X173644909Y-123884372D01*
X173722181Y-123896422D01*
X173824272Y-123907657D01*
X173939109Y-123916905D01*
X174054616Y-123922992D01*
X174061876Y-123923252D01*
X174294164Y-123921862D01*
X174505062Y-123899201D01*
X174706861Y-123853248D01*
X174911850Y-123781982D01*
X175103779Y-123689463D01*
X175303232Y-123559074D01*
X175486321Y-123403485D01*
X175647403Y-123228180D01*
X175780833Y-123038643D01*
X175880967Y-122840359D01*
X175922074Y-122721670D01*
X175964545Y-122533828D01*
X175985574Y-122338884D01*
X175984038Y-122149269D01*
X175958816Y-121977415D01*
X175908729Y-121818363D01*
X175824954Y-121649868D01*
X175717163Y-121501162D01*
X175589345Y-121376059D01*
X175445488Y-121278375D01*
X175289583Y-121211924D01*
X175125618Y-121180523D01*
X175074063Y-121177296D01*
X175010649Y-121177447D01*
X174951187Y-121185409D01*
X174882217Y-121203297D01*
X174790283Y-121233227D01*
X174734688Y-121251503D01*
X174644908Y-121276614D01*
X174577130Y-121287646D01*
X174522459Y-121286364D01*
X174499718Y-121282566D01*
X174396085Y-121243948D01*
X174312350Y-121177721D01*
X174252182Y-121090774D01*
X174219253Y-120989998D01*
X174217231Y-120882282D01*
X174249788Y-120774514D01*
X174256068Y-120762025D01*
X174318486Y-120670770D01*
X174409130Y-120585471D01*
X174533308Y-120501007D01*
X174592515Y-120467958D01*
X174777331Y-120393220D01*
X174972349Y-120352643D01*
X175173912Y-120344814D01*
X175378364Y-120368324D01*
G37*
G36*
X169266216Y-122112005D02*
G01*
X169375571Y-122142811D01*
X169499031Y-122210043D01*
X169601998Y-122309375D01*
X169686747Y-122442597D01*
X169690642Y-122450564D01*
X169722398Y-122534888D01*
X169755476Y-122655065D01*
X169789347Y-122808276D01*
X169823480Y-122991702D01*
X169857346Y-123202524D01*
X169890414Y-123437922D01*
X169922155Y-123695077D01*
X169966283Y-124020314D01*
X170041658Y-124423100D01*
X170136076Y-124791922D01*
X170249523Y-125126750D01*
X170381984Y-125427559D01*
X170533444Y-125694319D01*
X170703891Y-125927003D01*
X170893308Y-126125584D01*
X171101683Y-126290033D01*
X171329000Y-126420324D01*
X171397921Y-126452370D01*
X171504373Y-126495815D01*
X171602657Y-126525098D01*
X171708514Y-126544486D01*
X171837685Y-126558248D01*
X171963272Y-126563154D01*
X172160312Y-126545549D01*
X172340081Y-126496669D01*
X172499326Y-126417533D01*
X172634799Y-126309155D01*
X172658628Y-126284376D01*
X172756330Y-126156763D01*
X172822804Y-126021784D01*
X172857818Y-125884253D01*
X172861137Y-125748980D01*
X172832530Y-125620777D01*
X172771762Y-125504457D01*
X172678601Y-125404832D01*
X172642579Y-125373648D01*
X172574563Y-125296756D01*
X172537064Y-125216337D01*
X172524838Y-125122771D01*
X172530169Y-125054483D01*
X172566938Y-124948122D01*
X172635458Y-124859172D01*
X172732067Y-124791790D01*
X172853103Y-124750132D01*
X172910451Y-124742008D01*
X173040172Y-124751162D01*
X173167627Y-124797654D01*
X173290813Y-124880278D01*
X173407728Y-124997830D01*
X173516370Y-125149106D01*
X173554628Y-125214206D01*
X173629655Y-125375964D01*
X173675826Y-125542907D01*
X173697578Y-125729233D01*
X173698954Y-125758072D01*
X173694797Y-125957781D01*
X173663607Y-126145013D01*
X173602880Y-126335813D01*
X173538350Y-126480505D01*
X173412011Y-126688433D01*
X173256323Y-126876185D01*
X173075321Y-127040728D01*
X172873043Y-127179026D01*
X172653527Y-127288045D01*
X172420808Y-127364752D01*
X172178923Y-127406112D01*
X172152119Y-127408591D01*
X172075577Y-127415671D01*
X172015671Y-127421211D01*
X171983539Y-127424182D01*
X171963665Y-127424024D01*
X171910027Y-127420881D01*
X171834110Y-127415008D01*
X171745412Y-127407088D01*
X171626767Y-127392560D01*
X171341993Y-127330461D01*
X171065633Y-127231739D01*
X170799743Y-127097857D01*
X170546382Y-126930277D01*
X170307607Y-126730462D01*
X170085476Y-126499877D01*
X169882046Y-126239983D01*
X169699375Y-125952244D01*
X169659961Y-125879749D01*
X169571539Y-125694648D01*
X169485008Y-125484914D01*
X169403816Y-125260429D01*
X169331408Y-125031074D01*
X169271234Y-124806731D01*
X169226738Y-124597282D01*
X169223082Y-124576913D01*
X169202963Y-124469465D01*
X169187974Y-124399155D01*
X169177736Y-124364651D01*
X169171871Y-124364623D01*
X169170000Y-124397737D01*
X169169638Y-124408187D01*
X169161355Y-124471165D01*
X169143452Y-124562585D01*
X169117681Y-124675396D01*
X169085792Y-124802548D01*
X169049535Y-124936989D01*
X169010661Y-125071670D01*
X168970921Y-125199538D01*
X168900545Y-125401166D01*
X168755556Y-125743162D01*
X168588083Y-126056511D01*
X168399009Y-126340305D01*
X168189212Y-126593639D01*
X167959575Y-126815606D01*
X167710978Y-127005301D01*
X167444301Y-127161815D01*
X167160424Y-127284244D01*
X166860230Y-127371682D01*
X166782560Y-127386486D01*
X166629276Y-127404618D01*
X166462450Y-127413280D01*
X166294910Y-127412331D01*
X166139482Y-127401632D01*
X166008994Y-127381040D01*
X165901221Y-127353371D01*
X165662350Y-127266416D01*
X165439799Y-127149569D01*
X165237560Y-127005904D01*
X165059623Y-126838492D01*
X164909979Y-126650405D01*
X164792619Y-126444716D01*
X164719306Y-126251781D01*
X164672139Y-126037514D01*
X164656432Y-125819873D01*
X164672157Y-125605534D01*
X164719285Y-125401172D01*
X164797790Y-125213465D01*
X164823641Y-125168356D01*
X164904920Y-125053607D01*
X165001021Y-124946636D01*
X165102637Y-124857122D01*
X165200460Y-124794744D01*
X165290920Y-124759033D01*
X165422492Y-124737017D01*
X165548747Y-124750589D01*
X165664145Y-124799691D01*
X165698373Y-124823051D01*
X165782130Y-124907476D01*
X165833108Y-125007429D01*
X165849214Y-125117393D01*
X165828352Y-125231856D01*
X165826979Y-125235406D01*
X165799790Y-125278393D01*
X165752459Y-125333534D01*
X165694329Y-125389814D01*
X165613200Y-125470166D01*
X165545614Y-125567515D01*
X165508255Y-125672658D01*
X165496769Y-125794515D01*
X165502092Y-125878759D01*
X165540474Y-126033391D01*
X165613633Y-126177026D01*
X165718878Y-126305003D01*
X165853517Y-126412658D01*
X165939871Y-126463273D01*
X166056509Y-126512709D01*
X166184475Y-126543611D01*
X166336923Y-126559987D01*
X166401362Y-126562439D01*
X166628162Y-126546726D01*
X166849718Y-126494120D01*
X167063884Y-126406265D01*
X167268513Y-126284805D01*
X167461458Y-126131383D01*
X167640571Y-125947642D01*
X167803707Y-125735225D01*
X167948717Y-125495775D01*
X168073455Y-125230936D01*
X168119192Y-125115682D01*
X168181354Y-124941955D01*
X168236183Y-124763973D01*
X168285014Y-124575935D01*
X168329181Y-124372036D01*
X168370020Y-124146475D01*
X168408867Y-123893449D01*
X168447055Y-123607154D01*
X168473530Y-123404802D01*
X168502661Y-123199707D01*
X168531706Y-123012214D01*
X168559937Y-122846583D01*
X168586623Y-122707073D01*
X168611038Y-122597943D01*
X168632452Y-122523452D01*
X168692661Y-122397439D01*
X168780281Y-122284714D01*
X168887144Y-122196109D01*
X169007552Y-122135323D01*
X169135809Y-122106056D01*
X169266216Y-122112005D01*
G37*
G36*
X169307170Y-112394111D02*
G01*
X169440764Y-112402243D01*
X169584703Y-112413576D01*
X169730914Y-112427510D01*
X169871324Y-112443445D01*
X169997859Y-112460780D01*
X170014306Y-112463309D01*
X170359468Y-112526776D01*
X170688824Y-112608772D01*
X171012239Y-112712444D01*
X171339574Y-112840935D01*
X171680692Y-112997391D01*
X171989118Y-113158218D01*
X172338318Y-113369949D01*
X172665438Y-113604193D01*
X172978072Y-113866470D01*
X173283817Y-114162299D01*
X173477804Y-114374943D01*
X173744080Y-114712999D01*
X173984646Y-115076214D01*
X174197490Y-115460469D01*
X174380601Y-115861648D01*
X174531968Y-116275634D01*
X174649581Y-116698310D01*
X174731427Y-117125559D01*
X174737706Y-117173403D01*
X174749903Y-117308383D01*
X174758360Y-117466758D01*
X174763081Y-117639627D01*
X174764072Y-117818091D01*
X174761335Y-117993253D01*
X174754875Y-118156211D01*
X174744697Y-118298068D01*
X174730805Y-118409923D01*
X174726823Y-118433487D01*
X174666807Y-118748032D01*
X174597589Y-119033461D01*
X174515752Y-119298709D01*
X174417878Y-119552711D01*
X174300550Y-119804401D01*
X174160351Y-120062714D01*
X173993862Y-120336584D01*
X173913101Y-120466159D01*
X173815116Y-120633862D01*
X173738792Y-120781534D01*
X173682061Y-120915034D01*
X173642854Y-121040222D01*
X173619100Y-121162957D01*
X173608731Y-121289100D01*
X173609678Y-121424510D01*
X173614223Y-121494939D01*
X173644546Y-121685436D01*
X173699175Y-121853781D01*
X173776555Y-121996854D01*
X173875131Y-122111530D01*
X173993347Y-122194689D01*
X174043788Y-122217151D01*
X174147833Y-122243787D01*
X174251184Y-122248011D01*
X174345386Y-122230848D01*
X174421978Y-122193328D01*
X174472503Y-122136477D01*
X174476602Y-122128306D01*
X174487023Y-122093563D01*
X174482517Y-122053139D01*
X174462011Y-121992298D01*
X174460609Y-121988580D01*
X174431523Y-121881550D01*
X174432210Y-121786707D01*
X174462698Y-121691294D01*
X174517340Y-121603363D01*
X174604465Y-121522156D01*
X174709472Y-121466226D01*
X174824487Y-121438411D01*
X174941637Y-121441550D01*
X175053049Y-121478481D01*
X175058621Y-121481489D01*
X175124627Y-121532355D01*
X175192405Y-121607399D01*
X175252470Y-121694722D01*
X175295339Y-121782429D01*
X175319744Y-121877544D01*
X175333517Y-122000626D01*
X175334715Y-122131995D01*
X175323245Y-122256839D01*
X175299012Y-122360343D01*
X175265787Y-122439686D01*
X175194592Y-122566433D01*
X175105987Y-122690265D01*
X175009380Y-122796997D01*
X174993523Y-122811678D01*
X174877207Y-122898657D01*
X174736858Y-122976330D01*
X174585365Y-123038376D01*
X174435616Y-123078472D01*
X174232491Y-123100025D01*
X174026106Y-123086614D01*
X173818350Y-123036507D01*
X173605231Y-122949080D01*
X173598267Y-122945655D01*
X173511628Y-122899074D01*
X173436250Y-122848541D01*
X173360259Y-122785191D01*
X173271776Y-122700158D01*
X173233057Y-122660124D01*
X173149628Y-122565980D01*
X173075495Y-122472285D01*
X173020828Y-122391548D01*
X172994070Y-122344947D01*
X172878900Y-122098935D01*
X172799154Y-121841225D01*
X172755308Y-121576142D01*
X172747835Y-121308009D01*
X172777211Y-121041148D01*
X172843909Y-120779882D01*
X172856843Y-120742096D01*
X172918274Y-120586049D01*
X172995423Y-120424517D01*
X173092114Y-120249974D01*
X173212170Y-120054892D01*
X173226163Y-120032946D01*
X173382329Y-119774631D01*
X173512040Y-119531343D01*
X173619179Y-119294567D01*
X173707628Y-119055786D01*
X173781270Y-118806485D01*
X173799340Y-118736350D01*
X173837894Y-118572860D01*
X173866505Y-118423516D01*
X173886442Y-118277709D01*
X173898972Y-118124825D01*
X173905364Y-117954254D01*
X173906887Y-117755384D01*
X173906440Y-117673573D01*
X173902779Y-117495399D01*
X173894494Y-117341447D01*
X173880362Y-117201237D01*
X173859162Y-117064286D01*
X173829673Y-116920113D01*
X173790672Y-116758234D01*
X173733120Y-116553837D01*
X173597776Y-116179288D01*
X173427358Y-115813721D01*
X173224386Y-115460954D01*
X172991381Y-115124802D01*
X172730862Y-114809083D01*
X172445351Y-114517614D01*
X172137366Y-114254212D01*
X171897543Y-114079730D01*
X171543920Y-113861552D01*
X171170273Y-113672730D01*
X170781021Y-113514796D01*
X170380584Y-113389278D01*
X169973379Y-113297706D01*
X169563827Y-113241609D01*
X169156347Y-113222516D01*
X168835354Y-113234656D01*
X168430042Y-113284089D01*
X168025603Y-113370743D01*
X167624892Y-113493716D01*
X167230766Y-113652102D01*
X166846080Y-113844998D01*
X166473692Y-114071500D01*
X166265282Y-114218577D01*
X165943492Y-114482554D01*
X165648662Y-114772236D01*
X165382223Y-115085311D01*
X165145606Y-115419466D01*
X164940241Y-115772390D01*
X164767560Y-116141772D01*
X164628993Y-116525298D01*
X164525970Y-116920657D01*
X164459923Y-117325538D01*
X164456731Y-117356584D01*
X164448768Y-117485029D01*
X164445384Y-117637986D01*
X164446306Y-117804874D01*
X164451261Y-117975115D01*
X164459976Y-118138128D01*
X164472180Y-118283334D01*
X164487599Y-118400154D01*
X164527718Y-118607836D01*
X164606544Y-118915372D01*
X164708156Y-119211469D01*
X164835535Y-119503472D01*
X164991664Y-119798727D01*
X165179524Y-120104580D01*
X165311252Y-120323028D01*
X165441824Y-120588744D01*
X165536768Y-120848925D01*
X165595067Y-121101132D01*
X165606030Y-121199071D01*
X165611377Y-121335212D01*
X165608930Y-121481404D01*
X165599249Y-121625464D01*
X165582890Y-121755211D01*
X165560411Y-121858461D01*
X165486992Y-122071302D01*
X165376188Y-122307470D01*
X165243632Y-122516159D01*
X165090969Y-122695745D01*
X164919846Y-122844603D01*
X164731910Y-122961107D01*
X164528806Y-123043632D01*
X164312182Y-123090553D01*
X164254209Y-123096739D01*
X164037380Y-123096810D01*
X163831298Y-123059857D01*
X163638054Y-122986615D01*
X163459742Y-122877820D01*
X163298452Y-122734208D01*
X163262501Y-122694532D01*
X163146389Y-122534090D01*
X163067307Y-122363834D01*
X163025815Y-122185256D01*
X163022474Y-121999846D01*
X163024435Y-121979393D01*
X163054806Y-121827883D01*
X163108918Y-121697038D01*
X163183122Y-121589480D01*
X163273766Y-121507835D01*
X163377199Y-121454726D01*
X163489770Y-121432779D01*
X163607830Y-121444618D01*
X163727726Y-121492868D01*
X163805258Y-121550085D01*
X163877771Y-121642764D01*
X163920428Y-121751605D01*
X163930432Y-121868817D01*
X163904986Y-121986607D01*
X163889718Y-122033265D01*
X163882900Y-122106178D01*
X163907321Y-122163129D01*
X163964905Y-122211331D01*
X163969982Y-122214393D01*
X164067177Y-122250110D01*
X164176277Y-122253999D01*
X164289708Y-122227756D01*
X164399897Y-122173078D01*
X164499269Y-122091660D01*
X164521407Y-122066961D01*
X164587322Y-121973682D01*
X164649178Y-121860206D01*
X164700016Y-121740347D01*
X164732875Y-121627923D01*
X164749173Y-121508730D01*
X164753339Y-121353136D01*
X164742300Y-121195226D01*
X164716562Y-121052821D01*
X164703111Y-121003613D01*
X164676204Y-120922216D01*
X164641644Y-120838695D01*
X164596416Y-120747119D01*
X164537502Y-120641556D01*
X164461885Y-120516075D01*
X164366547Y-120364745D01*
X164314064Y-120281471D01*
X164161194Y-120022246D01*
X164033751Y-119776462D01*
X163927696Y-119535905D01*
X163838987Y-119292361D01*
X163803541Y-119181534D01*
X163721933Y-118893218D01*
X163661969Y-118619315D01*
X163621732Y-118347932D01*
X163599305Y-118067176D01*
X163592770Y-117765154D01*
X163595384Y-117589782D01*
X163611914Y-117293232D01*
X163645318Y-117012772D01*
X163697562Y-116736817D01*
X163770611Y-116453781D01*
X163866431Y-116152080D01*
X163920703Y-116000761D01*
X164100391Y-115576223D01*
X164313148Y-115171523D01*
X164557778Y-114788026D01*
X164833084Y-114427095D01*
X165137867Y-114090092D01*
X165470931Y-113778381D01*
X165831077Y-113493325D01*
X166217108Y-113236287D01*
X166627828Y-113008631D01*
X166697814Y-112974836D01*
X166818162Y-112920412D01*
X166955834Y-112861222D01*
X167100313Y-112801586D01*
X167241079Y-112745820D01*
X167367612Y-112698242D01*
X167469395Y-112663172D01*
X167600749Y-112623202D01*
X167901960Y-112544440D01*
X168206657Y-112481318D01*
X168503021Y-112436110D01*
X168779231Y-112411091D01*
X168835646Y-112407920D01*
X168930911Y-112402067D01*
X169013670Y-112396402D01*
X169070661Y-112391803D01*
X169103308Y-112389855D01*
X169191993Y-112389782D01*
X169307170Y-112394111D01*
G37*
%TD*%
M02*
