%TF.GenerationSoftware,KiCad,Pcbnew,7.0.1*%
%TF.CreationDate,2024-01-26T17:48:26-05:00*%
%TF.ProjectId,OctoPlus Trio,4f63746f-506c-4757-9320-5472696f2e6b,rev?*%
%TF.SameCoordinates,Original*%
%TF.FileFunction,Profile,NP*%
%FSLAX46Y46*%
G04 Gerber Fmt 4.6, Leading zero omitted, Abs format (unit mm)*
G04 Created by KiCad (PCBNEW 7.0.1) date 2024-01-26 17:48:26*
%MOMM*%
%LPD*%
G01*
G04 APERTURE LIST*
%TA.AperFunction,Profile*%
%ADD10C,0.100000*%
%TD*%
G04 APERTURE END LIST*
D10*
X196150000Y-137060000D02*
X194010000Y-133530000D01*
X127560000Y-143450000D02*
X124320000Y-144440000D01*
X187880000Y-158560000D02*
X190900000Y-159840000D01*
X114520000Y-135190000D02*
X116160000Y-139030000D01*
X105780000Y-121540000D02*
X107310000Y-123480000D01*
X101150000Y-116790000D02*
X101490000Y-117110000D01*
X116160000Y-139030000D02*
X116770000Y-141170000D01*
X134470000Y-143380000D02*
X137900000Y-143990000D01*
X100380000Y-116120000D02*
X100540000Y-116240000D01*
X119250000Y-77850000D02*
X100200000Y-77850000D01*
X116770000Y-141170000D02*
X116880000Y-142470000D01*
X109920000Y-127160000D02*
X111300000Y-129460000D01*
X117300000Y-147100000D02*
X116880000Y-142470000D01*
X101820000Y-117430000D02*
X102100000Y-117710000D01*
X103440000Y-119050000D02*
X104010000Y-119630000D01*
X157370000Y-72760000D02*
X157360000Y-70490000D01*
X111300000Y-129460000D02*
X114520000Y-135190000D01*
X100540000Y-116240000D02*
X100660000Y-116340000D01*
X100200000Y-77850000D02*
X100210000Y-115950000D01*
X199410000Y-95370000D02*
X199400000Y-72510000D01*
X137900000Y-143990000D02*
X151030000Y-146280000D01*
X157360000Y-70490000D02*
X138300000Y-70480000D01*
X199400000Y-72510000D02*
X194420000Y-72510000D01*
X181030000Y-93560000D02*
X181020000Y-72570000D01*
X100290000Y-116060000D02*
X100380000Y-116120000D01*
X169530000Y-151500000D02*
X174740000Y-153340000D01*
X100660000Y-116340000D02*
X100930000Y-116570000D01*
X119250000Y-72760000D02*
X119250000Y-77850000D01*
X176420000Y-72750000D02*
X157370000Y-72760000D01*
X178700000Y-72560000D02*
X176420000Y-72750000D01*
X132830000Y-143110000D02*
X134470000Y-143380000D01*
X190900000Y-159840000D02*
X198060000Y-140100000D01*
X102790000Y-118390000D02*
X103440000Y-119050000D01*
X198060000Y-140100000D02*
X196150000Y-137060000D01*
X174740000Y-153340000D02*
X182160000Y-156310000D01*
X129400000Y-143180000D02*
X127560000Y-143450000D01*
X182160000Y-156310000D02*
X187880000Y-158560000D01*
X152390000Y-146660000D02*
X157810000Y-148190000D01*
X199410000Y-95370000D02*
X194010000Y-133530000D01*
X181020000Y-72570000D02*
X178700000Y-72560000D01*
X157810000Y-148190000D02*
X169530000Y-151500000D01*
X101490000Y-117110000D02*
X101820000Y-117430000D01*
X124320000Y-144440000D02*
X120230000Y-145770000D01*
X102100000Y-117710000D02*
X102790000Y-118390000D01*
X194420000Y-93560000D02*
X181030000Y-93560000D01*
X104010000Y-119630000D02*
X105780000Y-121540000D01*
X100210000Y-115950000D02*
X100290000Y-116060000D01*
X151030000Y-146280000D02*
X152390000Y-146660000D01*
X131590000Y-143090000D02*
X132830000Y-143110000D01*
X100930000Y-116570000D02*
X101150000Y-116790000D01*
X194420000Y-72510000D02*
X194420000Y-93560000D01*
X138300000Y-72770000D02*
X119250000Y-72760000D01*
X120230000Y-145770000D02*
X117300000Y-147100000D01*
X107310000Y-123480000D02*
X109920000Y-127160000D01*
X131590000Y-143090000D02*
X129400000Y-143180000D01*
X138300000Y-70480000D02*
X138300000Y-72770000D01*
M02*
