%TF.GenerationSoftware,KiCad,Pcbnew,7.0.1*%
%TF.CreationDate,2024-01-26T17:48:26-05:00*%
%TF.ProjectId,OctoPlus Trio,4f63746f-506c-4757-9320-5472696f2e6b,rev?*%
%TF.SameCoordinates,Original*%
%TF.FileFunction,Copper,L1,Top*%
%TF.FilePolarity,Positive*%
%FSLAX46Y46*%
G04 Gerber Fmt 4.6, Leading zero omitted, Abs format (unit mm)*
G04 Created by KiCad (PCBNEW 7.0.1) date 2024-01-26 17:48:26*
%MOMM*%
%LPD*%
G01*
G04 APERTURE LIST*
%TA.AperFunction,SMDPad,CuDef*%
%ADD10R,0.400000X1.600000*%
%TD*%
%TA.AperFunction,ComponentPad*%
%ADD11O,2.500000X1.500000*%
%TD*%
%TA.AperFunction,ComponentPad*%
%ADD12O,1.500000X2.500000*%
%TD*%
%TA.AperFunction,ViaPad*%
%ADD13C,0.800000*%
%TD*%
%TA.AperFunction,Conductor*%
%ADD14C,0.250000*%
%TD*%
G04 APERTURE END LIST*
D10*
%TO.P,Cirque1,1,1*%
%TO.N,/SCK*%
X184530000Y-119280000D03*
%TO.P,Cirque1,2,2*%
%TO.N,/MISO*%
X185030000Y-116880000D03*
%TO.P,Cirque1,3,3*%
%TO.N,/CS*%
X185530000Y-119280000D03*
%TO.P,Cirque1,4,4*%
%TO.N,unconnected-(Cirque1-Pad4)*%
X186030000Y-116880000D03*
%TO.P,Cirque1,5,5*%
%TO.N,/MOSI*%
X186530000Y-119280000D03*
%TO.P,Cirque1,6,6*%
%TO.N,unconnected-(Cirque1-Pad6)*%
X187030000Y-116880000D03*
%TO.P,Cirque1,7,7*%
%TO.N,unconnected-(Cirque1-Pad7)*%
X187530000Y-119280000D03*
%TO.P,Cirque1,8,8*%
%TO.N,unconnected-(Cirque1-Pad8)*%
X188030000Y-116880000D03*
%TO.P,Cirque1,9,9*%
%TO.N,/CS*%
X188530000Y-119280000D03*
%TO.P,Cirque1,10,10*%
%TO.N,/MISO*%
X189030000Y-116880000D03*
%TO.P,Cirque1,11,11*%
%TO.N,/GND*%
X189530000Y-119280000D03*
%TO.P,Cirque1,12,12*%
%TO.N,/3v3*%
X190030000Y-116880000D03*
%TD*%
D11*
%TO.P,U1,1,0*%
%TO.N,/MISO*%
X179586000Y-74168000D03*
%TO.P,U1,2,1*%
%TO.N,/CS*%
X179586000Y-76708000D03*
%TO.P,U1,3,2*%
%TO.N,/SCK*%
X179586000Y-79248000D03*
%TO.P,U1,4,3*%
%TO.N,/MOSI*%
X179586000Y-81788000D03*
%TO.P,U1,5,4*%
%TO.N,unconnected-(U1-4-Pad5)*%
X179586000Y-84328000D03*
%TO.P,U1,6,5*%
%TO.N,unconnected-(U1-5-Pad6)*%
X179586000Y-86868000D03*
%TO.P,U1,7,6*%
%TO.N,unconnected-(U1-6-Pad7)*%
X179586000Y-89408000D03*
%TO.P,U1,8,7*%
%TO.N,unconnected-(U1-7-Pad8)*%
X179586000Y-91948000D03*
%TO.P,U1,9,8*%
%TO.N,unconnected-(U1-8-Pad9)*%
X179586000Y-94488000D03*
D12*
%TO.P,U1,10,9*%
%TO.N,/SW11*%
X182626000Y-94988000D03*
%TO.P,U1,11,10*%
%TO.N,/SW10*%
X185166000Y-94988000D03*
%TO.P,U1,12,11*%
%TO.N,/SW9*%
X187706000Y-94988000D03*
%TO.P,U1,13,12*%
%TO.N,/SW8*%
X190246000Y-94988000D03*
%TO.P,U1,14,13*%
%TO.N,/SW7*%
X192786000Y-94988000D03*
D11*
%TO.P,U1,15,14*%
%TO.N,/SW6*%
X195826000Y-94488000D03*
%TO.P,U1,16,15*%
%TO.N,/SW5*%
X195826000Y-91948000D03*
%TO.P,U1,17,26*%
%TO.N,/SW4*%
X195826000Y-89408000D03*
%TO.P,U1,18,27*%
%TO.N,/SW3*%
X195826000Y-86868000D03*
%TO.P,U1,19,28*%
%TO.N,/SW2*%
X195826000Y-84328000D03*
%TO.P,U1,20,29*%
%TO.N,/SW1*%
X195826000Y-81788000D03*
%TO.P,U1,21,3V3*%
%TO.N,/3v3*%
X195826000Y-79248000D03*
%TO.P,U1,22,GND*%
%TO.N,/GND*%
X195826000Y-76708000D03*
%TO.P,U1,23,5V*%
%TO.N,unconnected-(U1-5V-Pad23)*%
X195826000Y-74168000D03*
%TD*%
D13*
%TO.N,/SW1*%
X118440000Y-84070000D03*
%TO.N,/GND*%
X176090000Y-135490000D03*
%TO.N,/SW2*%
X137010000Y-80160000D03*
%TO.N,/SW3*%
X156600000Y-75190000D03*
%TO.N,/SW4*%
X195019503Y-98579503D03*
X175240000Y-77800000D03*
%TO.N,/SW5*%
X194006304Y-98956304D03*
X176470000Y-108925500D03*
%TO.N,/SW6*%
X176495768Y-107926329D03*
%TO.N,/SW7*%
X176524374Y-106927236D03*
%TO.N,/SW8*%
X176570000Y-105810000D03*
%TO.N,/3v3*%
X194620000Y-116730000D03*
%TO.N,/CS*%
X176960000Y-77140000D03*
X178990000Y-107120000D03*
X182964500Y-120565500D03*
%TO.N,/SCK*%
X183800000Y-113835500D03*
%TO.N,/MOSI*%
X182240000Y-113111000D03*
%TO.N,/MISO*%
X184980000Y-114560000D03*
%TD*%
D14*
%TO.N,/SW1*%
X198640000Y-88700000D02*
X198640000Y-92690000D01*
X118880000Y-84510000D02*
X118440000Y-84070000D01*
X198640000Y-95450000D02*
X198440000Y-95650000D01*
X198490000Y-97406396D02*
X184896396Y-111000000D01*
X198640000Y-92690000D02*
X198640000Y-95450000D01*
X195326000Y-81788000D02*
X198478000Y-81788000D01*
X198478000Y-81788000D02*
X198640000Y-81950000D01*
X198440000Y-95650000D02*
X198440000Y-97356396D01*
X198640000Y-81950000D02*
X198640000Y-88700000D01*
X198440000Y-97356396D02*
X198490000Y-97406396D01*
X184896396Y-111000000D02*
X118880000Y-111000000D01*
X118880000Y-111000000D02*
X118880000Y-84510000D01*
%TO.N,/GND*%
X198768000Y-76708000D02*
X199090000Y-77030000D01*
X198890000Y-95836396D02*
X198890000Y-96190000D01*
X198890000Y-96190000D02*
X198940000Y-96240000D01*
X199090000Y-77030000D02*
X199090000Y-95636396D01*
X198940000Y-96240000D02*
X198940000Y-97592792D01*
X176090000Y-135310000D02*
X176090000Y-135490000D01*
X195590000Y-118360000D02*
X191810000Y-122140000D01*
X199090000Y-95636396D02*
X198890000Y-95836396D01*
X189800000Y-122140000D02*
X189530000Y-121870000D01*
X191810000Y-122140000D02*
X189800000Y-122140000D01*
X195326000Y-76708000D02*
X198768000Y-76708000D01*
X189530000Y-121870000D02*
X176090000Y-135310000D01*
X198940000Y-97592792D02*
X195590000Y-100942792D01*
X195590000Y-100942792D02*
X195590000Y-118360000D01*
X189530000Y-121870000D02*
X189530000Y-119280000D01*
%TO.N,/SW2*%
X198190000Y-94810000D02*
X197990000Y-95010000D01*
X184710000Y-110550000D02*
X137900000Y-110550000D01*
X193690000Y-101570000D02*
X184710000Y-110550000D01*
X197990000Y-95836396D02*
X197990000Y-97270000D01*
X137730000Y-110380000D02*
X137730000Y-80880000D01*
X197990000Y-97270000D02*
X193690000Y-101570000D01*
X197990000Y-95010000D02*
X197990000Y-95836396D01*
X198190000Y-84380000D02*
X198190000Y-94810000D01*
X198188000Y-84328000D02*
X198190000Y-84330000D01*
X195326000Y-84328000D02*
X198188000Y-84328000D01*
X198190000Y-84330000D02*
X198190000Y-84380000D01*
X137730000Y-80880000D02*
X137010000Y-80160000D01*
X137900000Y-110550000D02*
X137730000Y-110380000D01*
%TO.N,/SW3*%
X196641802Y-97981802D02*
X187096802Y-107526802D01*
X184523604Y-110100000D02*
X179070000Y-110100000D01*
X197540000Y-97083604D02*
X196641802Y-97981802D01*
X197540000Y-87510000D02*
X197540000Y-97083604D01*
X195326000Y-86868000D02*
X197578000Y-86868000D01*
X156600000Y-110100000D02*
X156600000Y-75190000D01*
X197740000Y-87310000D02*
X197540000Y-87510000D01*
X197740000Y-87030000D02*
X197740000Y-87310000D01*
X179070000Y-110100000D02*
X156600000Y-110100000D01*
X187096802Y-107526802D02*
X184523604Y-110100000D01*
X197578000Y-86868000D02*
X197740000Y-87030000D01*
%TO.N,/SW4*%
X175700000Y-78260000D02*
X175240000Y-77800000D01*
X188963604Y-105023604D02*
X184337208Y-109650000D01*
X175700000Y-109650000D02*
X175700000Y-78260000D01*
X184337208Y-109650000D02*
X180150000Y-109650000D01*
X195019503Y-98967705D02*
X188963604Y-105023604D01*
X195019503Y-98579503D02*
X195019503Y-98967705D01*
X180150000Y-109650000D02*
X175700000Y-109650000D01*
%TO.N,/SW5*%
X194006304Y-98956304D02*
X194006304Y-99344508D01*
X194006304Y-99344508D02*
X190135406Y-103215406D01*
X177440000Y-109200000D02*
X176744500Y-109200000D01*
X190135406Y-103215406D02*
X184150812Y-109200000D01*
X176744500Y-109200000D02*
X176470000Y-108925500D01*
X184150812Y-109200000D02*
X177440000Y-109200000D01*
%TO.N,/SW6*%
X191722208Y-100215095D02*
X194218699Y-97718604D01*
X176495768Y-107926329D02*
X176496134Y-107926329D01*
X194218699Y-97718604D02*
X196168604Y-97718604D01*
X177319805Y-108750000D02*
X183964416Y-108750000D01*
X183964416Y-108750000D02*
X191722208Y-100992208D01*
X176496134Y-107926329D02*
X177319805Y-108750000D01*
X191722208Y-100992208D02*
X191722208Y-100215095D01*
X196218604Y-97768604D02*
X197090000Y-96897208D01*
X197090000Y-96897208D02*
X197090000Y-96252000D01*
X196168604Y-97718604D02*
X196218604Y-97768604D01*
X197090000Y-96252000D02*
X195326000Y-94488000D01*
%TO.N,/SW7*%
X176524374Y-106927236D02*
X177740000Y-108142862D01*
X190730000Y-100570907D02*
X192786000Y-98514907D01*
X177740000Y-108142862D02*
X177740000Y-108300000D01*
X192786000Y-98514907D02*
X192786000Y-94488000D01*
X190730000Y-101348020D02*
X190730000Y-100570907D01*
X183778020Y-108300000D02*
X190730000Y-101348020D01*
X177740000Y-108300000D02*
X183778020Y-108300000D01*
%TO.N,/SW8*%
X176570000Y-105810000D02*
X177376767Y-106616767D01*
X177376767Y-106616767D02*
X177376767Y-107143233D01*
X190246000Y-101195624D02*
X190246000Y-94488000D01*
X178083534Y-107850000D02*
X183591624Y-107850000D01*
X177376767Y-107143233D02*
X178083534Y-107850000D01*
X183591624Y-107850000D02*
X190246000Y-101195624D01*
%TO.N,/3v3*%
X190300000Y-114240000D02*
X190030000Y-114510000D01*
X190460000Y-114240000D02*
X190300000Y-114240000D01*
X194620000Y-116730000D02*
X192950000Y-116730000D01*
X190030000Y-114510000D02*
X190030000Y-116880000D01*
X192950000Y-116730000D02*
X190460000Y-114240000D01*
%TO.N,/CS*%
X185520000Y-120840000D02*
X185530000Y-120830000D01*
X176960000Y-77140000D02*
X176960000Y-105090000D01*
X182964500Y-120565500D02*
X183239000Y-120840000D01*
X176960000Y-105090000D02*
X178990000Y-107120000D01*
X183239000Y-120840000D02*
X185520000Y-120840000D01*
X188420000Y-118130000D02*
X188530000Y-118240000D01*
X185920000Y-118130000D02*
X188420000Y-118130000D01*
X185530000Y-120830000D02*
X185530000Y-119280000D01*
X185530000Y-118520000D02*
X185920000Y-118130000D01*
X185530000Y-119280000D02*
X185530000Y-118520000D01*
X188530000Y-118240000D02*
X188530000Y-119280000D01*
%TO.N,/SCK*%
X183800000Y-118550000D02*
X183800000Y-113835500D01*
X184530000Y-119280000D02*
X183800000Y-118550000D01*
%TO.N,/MOSI*%
X186530000Y-120610000D02*
X186530000Y-119280000D01*
X186230000Y-121290000D02*
X186540000Y-120980000D01*
X186540000Y-120980000D02*
X186540000Y-120620000D01*
X186540000Y-120620000D02*
X186530000Y-120610000D01*
X182330000Y-121290000D02*
X186230000Y-121290000D01*
X182240000Y-113111000D02*
X182240000Y-121200000D01*
X182240000Y-121200000D02*
X182330000Y-121290000D01*
%TO.N,/MISO*%
X189030000Y-114680000D02*
X185100000Y-114680000D01*
X185100000Y-114680000D02*
X184980000Y-114560000D01*
X189030000Y-116880000D02*
X189030000Y-114680000D01*
X184980000Y-116830000D02*
X185030000Y-116880000D01*
X184980000Y-114560000D02*
X184980000Y-116830000D01*
%TD*%
%TA.AperFunction,NonConductor*%
G36*
X194608098Y-75195770D02*
G01*
X194781236Y-75299215D01*
X194838256Y-75320615D01*
X194840100Y-75321307D01*
X194887680Y-75353330D01*
X194915760Y-75403339D01*
X194918334Y-75460635D01*
X194894849Y-75512960D01*
X194850331Y-75549120D01*
X194682027Y-75630170D01*
X194617385Y-75677136D01*
X194554229Y-75700436D01*
X194488205Y-75687303D01*
X194438773Y-75641608D01*
X194420500Y-75576818D01*
X194420500Y-75302219D01*
X194437345Y-75239818D01*
X194483305Y-75194371D01*
X194545891Y-75178227D01*
X194608098Y-75195770D01*
G37*
%TD.AperFunction*%
%TA.AperFunction,NonConductor*%
G36*
X180953057Y-75167403D02*
G01*
X181002493Y-75213073D01*
X181020789Y-75277842D01*
X181020938Y-75591310D01*
X181004115Y-75653732D01*
X180958159Y-75699202D01*
X180895562Y-75715361D01*
X180833339Y-75697817D01*
X180630764Y-75576784D01*
X180571898Y-75554692D01*
X180524318Y-75522668D01*
X180496238Y-75472659D01*
X180493665Y-75415363D01*
X180517150Y-75363038D01*
X180561662Y-75326882D01*
X180729973Y-75245829D01*
X180823908Y-75177581D01*
X180887045Y-75154284D01*
X180953057Y-75167403D01*
G37*
%TD.AperFunction*%
%TA.AperFunction,NonConductor*%
G36*
X199337538Y-72527104D02*
G01*
X199382923Y-72572469D01*
X199399554Y-72634446D01*
X199401094Y-76157087D01*
X199387598Y-76213397D01*
X199350006Y-76257440D01*
X199296513Y-76279611D01*
X199238786Y-76275075D01*
X199189413Y-76244822D01*
X199182470Y-76237879D01*
X199179290Y-76235412D01*
X199170424Y-76227839D01*
X199138582Y-76197938D01*
X199121024Y-76188285D01*
X199104764Y-76177604D01*
X199088936Y-76165327D01*
X199048851Y-76147980D01*
X199038361Y-76142841D01*
X199000091Y-76121802D01*
X198980691Y-76116821D01*
X198962284Y-76110519D01*
X198943897Y-76102562D01*
X198900758Y-76095729D01*
X198889324Y-76093361D01*
X198847019Y-76082500D01*
X198826984Y-76082500D01*
X198807586Y-76080973D01*
X198800162Y-76079797D01*
X198787805Y-76077840D01*
X198787804Y-76077840D01*
X198754751Y-76080964D01*
X198744325Y-76081950D01*
X198732656Y-76082500D01*
X197483552Y-76082500D01*
X197419951Y-76064946D01*
X197381373Y-76024596D01*
X197380811Y-76025045D01*
X197375823Y-76018791D01*
X197374356Y-76017256D01*
X197373851Y-76016317D01*
X197233509Y-75840335D01*
X197196160Y-75807704D01*
X197063996Y-75692235D01*
X197063993Y-75692233D01*
X196870764Y-75576784D01*
X196811898Y-75554692D01*
X196764318Y-75522668D01*
X196736238Y-75472659D01*
X196733665Y-75415363D01*
X196757150Y-75363038D01*
X196801662Y-75326882D01*
X196969973Y-75245829D01*
X197152078Y-75113522D01*
X197307632Y-74950825D01*
X197431635Y-74762968D01*
X197520103Y-74555988D01*
X197570191Y-74336537D01*
X197580290Y-74111670D01*
X197550075Y-73888613D01*
X197480517Y-73674536D01*
X197373852Y-73476319D01*
X197253737Y-73325701D01*
X197233509Y-73300335D01*
X197144395Y-73222478D01*
X197063996Y-73152235D01*
X197063993Y-73152233D01*
X196870762Y-73036783D01*
X196660025Y-72957693D01*
X196438547Y-72917500D01*
X195269845Y-72917500D01*
X195202631Y-72923549D01*
X195101809Y-72932623D01*
X194884828Y-72992507D01*
X194682027Y-73090170D01*
X194617385Y-73137136D01*
X194554229Y-73160436D01*
X194488205Y-73147303D01*
X194438773Y-73101608D01*
X194420500Y-73036818D01*
X194420500Y-72634500D01*
X194437113Y-72572500D01*
X194482500Y-72527113D01*
X194544500Y-72510500D01*
X199275554Y-72510500D01*
X199337538Y-72527104D01*
G37*
%TD.AperFunction*%
%TA.AperFunction,NonConductor*%
G36*
X194608098Y-77735770D02*
G01*
X194781236Y-77839215D01*
X194838256Y-77860615D01*
X194840100Y-77861307D01*
X194887680Y-77893330D01*
X194915760Y-77943339D01*
X194918334Y-78000635D01*
X194894849Y-78052960D01*
X194850331Y-78089120D01*
X194682027Y-78170170D01*
X194617385Y-78217136D01*
X194554229Y-78240436D01*
X194488205Y-78227303D01*
X194438773Y-78181608D01*
X194420500Y-78116818D01*
X194420500Y-77842219D01*
X194437345Y-77779818D01*
X194483305Y-77734371D01*
X194545891Y-77718227D01*
X194608098Y-77735770D01*
G37*
%TD.AperFunction*%
%TA.AperFunction,NonConductor*%
G36*
X180954267Y-77706524D02*
G01*
X181003703Y-77752194D01*
X181021999Y-77816963D01*
X181022149Y-78132302D01*
X181009403Y-78187120D01*
X180973739Y-78230657D01*
X180922503Y-78253946D01*
X180866251Y-78252188D01*
X180835009Y-78235560D01*
X180833577Y-78237959D01*
X180630764Y-78116784D01*
X180571898Y-78094692D01*
X180524318Y-78062668D01*
X180496238Y-78012659D01*
X180493665Y-77955363D01*
X180517150Y-77903038D01*
X180561662Y-77866882D01*
X180729973Y-77785829D01*
X180825117Y-77716702D01*
X180888255Y-77693405D01*
X180954267Y-77706524D01*
G37*
%TD.AperFunction*%
%TA.AperFunction,NonConductor*%
G36*
X194608098Y-80275770D02*
G01*
X194781236Y-80379215D01*
X194829482Y-80397322D01*
X194840100Y-80401307D01*
X194887680Y-80433330D01*
X194915760Y-80483339D01*
X194918334Y-80540635D01*
X194894849Y-80592960D01*
X194850331Y-80629120D01*
X194682027Y-80710170D01*
X194617385Y-80757136D01*
X194554229Y-80780436D01*
X194488205Y-80767303D01*
X194438773Y-80721608D01*
X194420500Y-80656818D01*
X194420500Y-80382219D01*
X194437345Y-80319818D01*
X194483305Y-80274371D01*
X194545891Y-80258227D01*
X194608098Y-80275770D01*
G37*
%TD.AperFunction*%
%TA.AperFunction,NonConductor*%
G36*
X180955476Y-80245644D02*
G01*
X181004912Y-80291315D01*
X181023208Y-80356084D01*
X181023360Y-80673360D01*
X181010614Y-80728178D01*
X180974949Y-80771716D01*
X180923713Y-80795004D01*
X180867460Y-80793245D01*
X180834822Y-80775873D01*
X180833577Y-80777959D01*
X180630764Y-80656784D01*
X180571898Y-80634692D01*
X180524318Y-80602668D01*
X180496238Y-80552659D01*
X180493665Y-80495363D01*
X180517150Y-80443038D01*
X180561662Y-80406882D01*
X180729973Y-80325829D01*
X180826325Y-80255824D01*
X180889463Y-80232526D01*
X180955476Y-80245644D01*
G37*
%TD.AperFunction*%
%TA.AperFunction,NonConductor*%
G36*
X198402500Y-77350113D02*
G01*
X198447887Y-77395500D01*
X198464500Y-77457500D01*
X198464500Y-81038500D01*
X198447887Y-81100500D01*
X198402500Y-81145887D01*
X198340500Y-81162500D01*
X197483552Y-81162500D01*
X197419951Y-81144946D01*
X197381373Y-81104596D01*
X197380811Y-81105045D01*
X197375823Y-81098791D01*
X197374356Y-81097256D01*
X197373851Y-81096317D01*
X197233509Y-80920335D01*
X197233508Y-80920334D01*
X197063996Y-80772235D01*
X197063993Y-80772233D01*
X196870764Y-80656784D01*
X196811898Y-80634692D01*
X196764318Y-80602668D01*
X196736238Y-80552659D01*
X196733665Y-80495363D01*
X196757150Y-80443038D01*
X196801662Y-80406882D01*
X196969973Y-80325829D01*
X197152078Y-80193522D01*
X197307632Y-80030825D01*
X197431635Y-79842968D01*
X197520103Y-79635988D01*
X197570191Y-79416537D01*
X197580290Y-79191670D01*
X197550075Y-78968613D01*
X197480517Y-78754536D01*
X197373852Y-78556319D01*
X197253737Y-78405701D01*
X197233509Y-78380335D01*
X197196160Y-78347704D01*
X197063996Y-78232235D01*
X197061355Y-78230657D01*
X196870764Y-78116784D01*
X196811898Y-78094692D01*
X196764318Y-78062668D01*
X196736238Y-78012659D01*
X196733665Y-77955363D01*
X196757150Y-77903038D01*
X196801662Y-77866882D01*
X196969973Y-77785829D01*
X197152078Y-77653522D01*
X197307632Y-77490825D01*
X197374721Y-77389188D01*
X197419448Y-77348306D01*
X197478208Y-77333500D01*
X198340500Y-77333500D01*
X198402500Y-77350113D01*
G37*
%TD.AperFunction*%
%TA.AperFunction,NonConductor*%
G36*
X194608098Y-82815770D02*
G01*
X194781236Y-82919215D01*
X194829482Y-82937322D01*
X194840100Y-82941307D01*
X194887680Y-82973330D01*
X194915760Y-83023339D01*
X194918334Y-83080635D01*
X194894849Y-83132960D01*
X194850331Y-83169120D01*
X194682027Y-83250170D01*
X194617385Y-83297136D01*
X194554229Y-83320436D01*
X194488205Y-83307303D01*
X194438773Y-83261608D01*
X194420500Y-83196818D01*
X194420500Y-82922219D01*
X194437345Y-82859818D01*
X194483305Y-82814371D01*
X194545891Y-82798227D01*
X194608098Y-82815770D01*
G37*
%TD.AperFunction*%
%TA.AperFunction,NonConductor*%
G36*
X180956686Y-82784767D02*
G01*
X181006122Y-82830437D01*
X181024418Y-82895206D01*
X181024570Y-83214417D01*
X181011824Y-83269235D01*
X180976160Y-83312772D01*
X180924924Y-83336061D01*
X180868671Y-83334303D01*
X180834635Y-83316187D01*
X180833577Y-83317959D01*
X180630764Y-83196784D01*
X180571898Y-83174692D01*
X180524318Y-83142668D01*
X180496238Y-83092659D01*
X180493665Y-83035363D01*
X180517150Y-82983038D01*
X180561662Y-82946882D01*
X180729973Y-82865829D01*
X180827535Y-82794945D01*
X180890674Y-82771648D01*
X180956686Y-82784767D01*
G37*
%TD.AperFunction*%
%TA.AperFunction,NonConductor*%
G36*
X197952500Y-82430113D02*
G01*
X197997887Y-82475500D01*
X198014500Y-82537500D01*
X198014500Y-83578500D01*
X197997887Y-83640500D01*
X197952500Y-83685887D01*
X197890500Y-83702500D01*
X197483552Y-83702500D01*
X197419951Y-83684946D01*
X197381373Y-83644596D01*
X197380811Y-83645045D01*
X197375823Y-83638791D01*
X197374356Y-83637256D01*
X197373851Y-83636317D01*
X197233509Y-83460335D01*
X197233508Y-83460334D01*
X197063996Y-83312235D01*
X197063993Y-83312233D01*
X196870764Y-83196784D01*
X196811898Y-83174692D01*
X196764318Y-83142668D01*
X196736238Y-83092659D01*
X196733665Y-83035363D01*
X196757150Y-82983038D01*
X196801662Y-82946882D01*
X196969973Y-82865829D01*
X197152078Y-82733522D01*
X197307632Y-82570825D01*
X197374721Y-82469188D01*
X197419448Y-82428306D01*
X197478208Y-82413500D01*
X197890500Y-82413500D01*
X197952500Y-82430113D01*
G37*
%TD.AperFunction*%
%TA.AperFunction,NonConductor*%
G36*
X194608098Y-85355770D02*
G01*
X194781236Y-85459215D01*
X194829482Y-85477322D01*
X194840100Y-85481307D01*
X194887680Y-85513330D01*
X194915760Y-85563339D01*
X194918334Y-85620635D01*
X194894849Y-85672960D01*
X194850331Y-85709120D01*
X194682027Y-85790170D01*
X194617385Y-85837136D01*
X194554229Y-85860436D01*
X194488205Y-85847303D01*
X194438773Y-85801608D01*
X194420500Y-85736818D01*
X194420500Y-85462219D01*
X194437345Y-85399818D01*
X194483305Y-85354371D01*
X194545891Y-85338227D01*
X194608098Y-85355770D01*
G37*
%TD.AperFunction*%
%TA.AperFunction,NonConductor*%
G36*
X180957896Y-85323888D02*
G01*
X181007332Y-85369558D01*
X181025628Y-85434327D01*
X181025781Y-85755475D01*
X181013035Y-85810293D01*
X180977370Y-85853831D01*
X180926134Y-85877119D01*
X180869881Y-85875361D01*
X180834447Y-85856501D01*
X180833577Y-85857959D01*
X180630764Y-85736784D01*
X180571898Y-85714692D01*
X180524318Y-85682668D01*
X180496238Y-85632659D01*
X180493665Y-85575363D01*
X180517150Y-85523038D01*
X180561662Y-85486882D01*
X180729973Y-85405829D01*
X180828745Y-85334066D01*
X180891884Y-85310769D01*
X180957896Y-85323888D01*
G37*
%TD.AperFunction*%
%TA.AperFunction,NonConductor*%
G36*
X197505052Y-85028754D02*
G01*
X197548621Y-85073916D01*
X197564500Y-85134626D01*
X197564500Y-86061012D01*
X197549694Y-86119772D01*
X197508811Y-86164499D01*
X197451616Y-86184513D01*
X197391765Y-86175034D01*
X197343553Y-86138325D01*
X197233509Y-86000335D01*
X197233508Y-86000334D01*
X197063996Y-85852235D01*
X197063993Y-85852233D01*
X196870764Y-85736784D01*
X196811898Y-85714692D01*
X196764318Y-85682668D01*
X196736238Y-85632659D01*
X196733665Y-85575363D01*
X196757150Y-85523038D01*
X196801662Y-85486882D01*
X196969973Y-85405829D01*
X197152078Y-85273522D01*
X197307632Y-85110825D01*
X197337012Y-85066315D01*
X197383710Y-85024395D01*
X197444951Y-85010706D01*
X197505052Y-85028754D01*
G37*
%TD.AperFunction*%
%TA.AperFunction,NonConductor*%
G36*
X194608098Y-87895770D02*
G01*
X194781236Y-87999215D01*
X194830700Y-88017779D01*
X194840100Y-88021307D01*
X194887680Y-88053330D01*
X194915760Y-88103339D01*
X194918334Y-88160635D01*
X194894849Y-88212960D01*
X194850331Y-88249120D01*
X194682027Y-88330170D01*
X194617385Y-88377136D01*
X194554229Y-88400436D01*
X194488205Y-88387303D01*
X194438773Y-88341608D01*
X194420500Y-88276818D01*
X194420500Y-88002219D01*
X194437345Y-87939818D01*
X194483305Y-87894371D01*
X194545891Y-87878227D01*
X194608098Y-87895770D01*
G37*
%TD.AperFunction*%
%TA.AperFunction,NonConductor*%
G36*
X180959107Y-87863009D02*
G01*
X181008542Y-87908680D01*
X181026838Y-87973448D01*
X181026991Y-88296533D01*
X181014244Y-88351353D01*
X180978577Y-88394892D01*
X180927337Y-88418178D01*
X180871083Y-88416416D01*
X180834261Y-88396814D01*
X180833577Y-88397959D01*
X180630764Y-88276784D01*
X180571898Y-88254692D01*
X180524318Y-88222668D01*
X180496238Y-88172659D01*
X180493665Y-88115363D01*
X180517150Y-88063038D01*
X180561662Y-88026882D01*
X180729973Y-87945829D01*
X180829954Y-87873187D01*
X180893094Y-87849890D01*
X180959107Y-87863009D01*
G37*
%TD.AperFunction*%
%TA.AperFunction,NonConductor*%
G36*
X194608098Y-90435770D02*
G01*
X194781236Y-90539215D01*
X194840100Y-90561307D01*
X194887680Y-90593330D01*
X194915760Y-90643339D01*
X194918334Y-90700635D01*
X194894849Y-90752960D01*
X194850331Y-90789120D01*
X194682027Y-90870170D01*
X194617385Y-90917136D01*
X194554229Y-90940436D01*
X194488205Y-90927303D01*
X194438773Y-90881608D01*
X194420500Y-90816818D01*
X194420500Y-90542219D01*
X194437345Y-90479818D01*
X194483305Y-90434371D01*
X194545891Y-90418227D01*
X194608098Y-90435770D01*
G37*
%TD.AperFunction*%
%TA.AperFunction,NonConductor*%
G36*
X180960315Y-90402130D02*
G01*
X181009751Y-90447800D01*
X181028047Y-90512569D01*
X181028202Y-90837590D01*
X181015456Y-90892408D01*
X180979791Y-90935946D01*
X180928555Y-90959234D01*
X180872302Y-90957476D01*
X180834073Y-90937128D01*
X180833577Y-90937959D01*
X180630764Y-90816784D01*
X180571898Y-90794692D01*
X180524318Y-90762668D01*
X180496238Y-90712659D01*
X180493665Y-90655363D01*
X180517150Y-90603038D01*
X180561662Y-90566882D01*
X180729973Y-90485829D01*
X180831165Y-90412308D01*
X180894303Y-90389011D01*
X180960315Y-90402130D01*
G37*
%TD.AperFunction*%
%TA.AperFunction,NonConductor*%
G36*
X194608098Y-92975770D02*
G01*
X194781236Y-93079215D01*
X194840100Y-93101307D01*
X194887680Y-93133330D01*
X194915760Y-93183339D01*
X194918334Y-93240635D01*
X194894849Y-93292960D01*
X194850331Y-93329120D01*
X194682027Y-93410170D01*
X194617385Y-93457136D01*
X194554229Y-93480436D01*
X194488205Y-93467303D01*
X194438773Y-93421608D01*
X194420500Y-93356818D01*
X194420500Y-93082219D01*
X194437345Y-93019818D01*
X194483305Y-92974371D01*
X194545891Y-92958227D01*
X194608098Y-92975770D01*
G37*
%TD.AperFunction*%
%TA.AperFunction,NonConductor*%
G36*
X180961525Y-92941251D02*
G01*
X181010961Y-92986921D01*
X181029257Y-93051690D01*
X181029412Y-93378648D01*
X181016665Y-93433468D01*
X180980999Y-93477006D01*
X180929761Y-93500293D01*
X180873506Y-93498532D01*
X180833886Y-93477441D01*
X180833577Y-93477959D01*
X180630764Y-93356784D01*
X180571898Y-93334692D01*
X180524318Y-93302668D01*
X180496238Y-93252659D01*
X180493665Y-93195363D01*
X180517150Y-93143038D01*
X180561662Y-93106882D01*
X180729973Y-93025829D01*
X180832375Y-92951429D01*
X180895513Y-92928132D01*
X180961525Y-92941251D01*
G37*
%TD.AperFunction*%
%TA.AperFunction,NonConductor*%
G36*
X181567326Y-93577345D02*
G01*
X181612773Y-93623305D01*
X181628917Y-93685891D01*
X181611373Y-93748099D01*
X181494785Y-93943234D01*
X181474085Y-93998389D01*
X181439575Y-94048199D01*
X181385581Y-94075709D01*
X181324999Y-94074347D01*
X181272297Y-94044440D01*
X181246786Y-94003836D01*
X181245805Y-94004364D01*
X181240518Y-93994539D01*
X181240517Y-93994536D01*
X181133852Y-93796319D01*
X181106332Y-93761810D01*
X181080061Y-93698383D01*
X181091561Y-93630698D01*
X181137309Y-93579506D01*
X181203281Y-93560500D01*
X181504925Y-93560500D01*
X181567326Y-93577345D01*
G37*
%TD.AperFunction*%
%TA.AperFunction,NonConductor*%
G36*
X184107326Y-93577345D02*
G01*
X184152773Y-93623305D01*
X184168917Y-93685891D01*
X184151373Y-93748099D01*
X184034784Y-93943236D01*
X184012692Y-94002101D01*
X183980668Y-94049681D01*
X183930659Y-94077761D01*
X183873363Y-94080333D01*
X183821039Y-94056849D01*
X183784879Y-94012331D01*
X183782926Y-94008276D01*
X183703829Y-93844027D01*
X183640880Y-93757385D01*
X183617580Y-93694229D01*
X183630713Y-93628205D01*
X183676408Y-93578773D01*
X183741198Y-93560500D01*
X184044925Y-93560500D01*
X184107326Y-93577345D01*
G37*
%TD.AperFunction*%
%TA.AperFunction,NonConductor*%
G36*
X186647326Y-93577345D02*
G01*
X186692773Y-93623305D01*
X186708917Y-93685891D01*
X186691373Y-93748099D01*
X186574784Y-93943236D01*
X186552692Y-94002101D01*
X186520668Y-94049681D01*
X186470659Y-94077761D01*
X186413363Y-94080333D01*
X186361039Y-94056849D01*
X186324879Y-94012331D01*
X186322926Y-94008276D01*
X186243829Y-93844027D01*
X186180880Y-93757385D01*
X186157580Y-93694229D01*
X186170713Y-93628205D01*
X186216408Y-93578773D01*
X186281198Y-93560500D01*
X186584925Y-93560500D01*
X186647326Y-93577345D01*
G37*
%TD.AperFunction*%
%TA.AperFunction,NonConductor*%
G36*
X189187326Y-93577345D02*
G01*
X189232773Y-93623305D01*
X189248917Y-93685891D01*
X189231373Y-93748099D01*
X189114784Y-93943236D01*
X189092692Y-94002101D01*
X189060668Y-94049681D01*
X189010659Y-94077761D01*
X188953363Y-94080333D01*
X188901039Y-94056849D01*
X188864879Y-94012331D01*
X188862926Y-94008276D01*
X188783829Y-93844027D01*
X188720880Y-93757385D01*
X188697580Y-93694229D01*
X188710713Y-93628205D01*
X188756408Y-93578773D01*
X188821198Y-93560500D01*
X189124925Y-93560500D01*
X189187326Y-93577345D01*
G37*
%TD.AperFunction*%
%TA.AperFunction,NonConductor*%
G36*
X191727326Y-93577345D02*
G01*
X191772773Y-93623305D01*
X191788917Y-93685891D01*
X191771373Y-93748099D01*
X191654784Y-93943236D01*
X191632692Y-94002101D01*
X191600668Y-94049681D01*
X191550659Y-94077761D01*
X191493363Y-94080333D01*
X191441039Y-94056849D01*
X191404879Y-94012331D01*
X191402926Y-94008276D01*
X191323829Y-93844027D01*
X191260880Y-93757385D01*
X191237580Y-93694229D01*
X191250713Y-93628205D01*
X191296408Y-93578773D01*
X191361198Y-93560500D01*
X191664925Y-93560500D01*
X191727326Y-93577345D01*
G37*
%TD.AperFunction*%
%TA.AperFunction,NonConductor*%
G36*
X194273036Y-93578052D02*
G01*
X194318631Y-93625740D01*
X194333312Y-93690063D01*
X194312924Y-93752811D01*
X194220365Y-93893031D01*
X194171106Y-94008276D01*
X194137827Y-94053650D01*
X194087921Y-94079645D01*
X194031666Y-94080907D01*
X193980645Y-94057177D01*
X193945368Y-94013346D01*
X193863829Y-93844027D01*
X193800880Y-93757385D01*
X193777580Y-93694229D01*
X193790713Y-93628205D01*
X193836408Y-93578773D01*
X193901198Y-93560500D01*
X194209437Y-93560500D01*
X194273036Y-93578052D01*
G37*
%TD.AperFunction*%
%TA.AperFunction,NonConductor*%
G36*
X194225053Y-95116857D02*
G01*
X194269692Y-95163968D01*
X194278148Y-95179681D01*
X194418492Y-95355666D01*
X194588004Y-95503765D01*
X194588006Y-95503766D01*
X194781237Y-95619216D01*
X194899214Y-95663493D01*
X194991976Y-95698307D01*
X195213453Y-95738500D01*
X195640548Y-95738500D01*
X195688001Y-95747939D01*
X195728229Y-95774819D01*
X196428181Y-96474771D01*
X196455061Y-96514999D01*
X196464500Y-96562452D01*
X196464500Y-96586756D01*
X196455061Y-96634209D01*
X196428181Y-96674437D01*
X196045832Y-97056785D01*
X196005604Y-97083665D01*
X195958151Y-97093104D01*
X194301439Y-97093104D01*
X194280935Y-97090840D01*
X194210843Y-97093043D01*
X194206949Y-97093104D01*
X194179347Y-97093104D01*
X194175352Y-97093608D01*
X194163728Y-97094522D01*
X194120067Y-97095894D01*
X194100828Y-97101484D01*
X194081779Y-97105429D01*
X194061907Y-97107939D01*
X194021292Y-97124019D01*
X194010248Y-97127800D01*
X193968310Y-97139986D01*
X193951063Y-97150185D01*
X193933599Y-97158740D01*
X193914966Y-97166118D01*
X193879625Y-97191793D01*
X193869867Y-97198203D01*
X193832278Y-97220433D01*
X193818109Y-97234602D01*
X193803321Y-97247232D01*
X193787109Y-97259011D01*
X193759269Y-97292663D01*
X193751409Y-97301301D01*
X193623180Y-97429530D01*
X193573818Y-97459780D01*
X193516102Y-97464322D01*
X193462615Y-97442167D01*
X193425015Y-97398144D01*
X193411500Y-97341849D01*
X193411500Y-96645552D01*
X193429054Y-96581951D01*
X193469403Y-96543373D01*
X193468955Y-96542811D01*
X193475208Y-96537823D01*
X193476744Y-96536356D01*
X193477681Y-96535852D01*
X193653666Y-96395508D01*
X193801765Y-96225996D01*
X193917215Y-96032764D01*
X193996307Y-95822024D01*
X194036500Y-95600547D01*
X194036500Y-95222729D01*
X194053486Y-95160087D01*
X194099790Y-95114607D01*
X194162726Y-95098749D01*
X194225053Y-95116857D01*
G37*
%TD.AperFunction*%
%TA.AperFunction,NonConductor*%
G36*
X191590960Y-95919150D02*
G01*
X191627120Y-95963668D01*
X191708170Y-96131972D01*
X191776483Y-96225996D01*
X191840478Y-96314078D01*
X192003175Y-96469632D01*
X192103494Y-96535852D01*
X192104811Y-96536721D01*
X192145694Y-96581448D01*
X192160500Y-96640208D01*
X192160500Y-98204455D01*
X192151061Y-98251908D01*
X192124181Y-98292136D01*
X191083181Y-99333135D01*
X191033818Y-99363385D01*
X190976102Y-99367927D01*
X190922615Y-99345772D01*
X190885015Y-99301749D01*
X190871500Y-99245454D01*
X190871500Y-96645552D01*
X190889054Y-96581951D01*
X190929403Y-96543373D01*
X190928955Y-96542811D01*
X190935208Y-96537823D01*
X190936744Y-96536356D01*
X190937681Y-96535852D01*
X191113666Y-96395508D01*
X191261765Y-96225996D01*
X191377215Y-96032764D01*
X191399308Y-95973896D01*
X191431330Y-95926319D01*
X191481339Y-95898239D01*
X191538635Y-95895665D01*
X191590960Y-95919150D01*
G37*
%TD.AperFunction*%
%TA.AperFunction,NonConductor*%
G36*
X178003022Y-77362394D02*
G01*
X178029575Y-77392242D01*
X178031190Y-77390955D01*
X178038146Y-77399678D01*
X178038148Y-77399681D01*
X178178492Y-77575666D01*
X178348004Y-77723765D01*
X178541236Y-77839215D01*
X178598256Y-77860615D01*
X178600100Y-77861307D01*
X178647680Y-77893330D01*
X178675760Y-77943339D01*
X178678334Y-78000635D01*
X178654849Y-78052960D01*
X178610331Y-78089120D01*
X178442027Y-78170170D01*
X178259925Y-78302475D01*
X178259922Y-78302477D01*
X178259922Y-78302478D01*
X178216682Y-78347704D01*
X178104365Y-78465178D01*
X177980365Y-78653031D01*
X177891896Y-78860012D01*
X177841809Y-79079462D01*
X177833375Y-79267254D01*
X177825526Y-79292364D01*
X177832378Y-79309261D01*
X177861925Y-79527388D01*
X177901156Y-79648129D01*
X177931483Y-79741464D01*
X178038148Y-79939681D01*
X178178492Y-80115666D01*
X178348004Y-80263765D01*
X178541236Y-80379215D01*
X178589482Y-80397322D01*
X178600100Y-80401307D01*
X178647680Y-80433330D01*
X178675760Y-80483339D01*
X178678334Y-80540635D01*
X178654849Y-80592960D01*
X178610331Y-80629120D01*
X178442027Y-80710170D01*
X178259925Y-80842475D01*
X178104365Y-81005178D01*
X177980365Y-81193031D01*
X177891896Y-81400012D01*
X177841809Y-81619462D01*
X177833375Y-81807254D01*
X177825526Y-81832364D01*
X177832378Y-81849261D01*
X177861925Y-82067388D01*
X177919100Y-82243355D01*
X177931483Y-82281464D01*
X178038148Y-82479681D01*
X178138032Y-82604931D01*
X178146153Y-82615115D01*
X178178492Y-82655666D01*
X178348004Y-82803765D01*
X178541236Y-82919215D01*
X178589482Y-82937322D01*
X178600100Y-82941307D01*
X178647680Y-82973330D01*
X178675760Y-83023339D01*
X178678334Y-83080635D01*
X178654849Y-83132960D01*
X178610331Y-83169120D01*
X178442027Y-83250170D01*
X178259925Y-83382475D01*
X178259922Y-83382477D01*
X178259922Y-83382478D01*
X178245655Y-83397400D01*
X178104365Y-83545178D01*
X177980365Y-83733031D01*
X177891896Y-83940012D01*
X177841809Y-84159462D01*
X177833375Y-84347254D01*
X177825526Y-84372364D01*
X177832378Y-84389261D01*
X177861925Y-84607388D01*
X177897211Y-84715988D01*
X177931483Y-84821464D01*
X178038148Y-85019681D01*
X178178492Y-85195666D01*
X178348004Y-85343765D01*
X178541236Y-85459215D01*
X178589482Y-85477322D01*
X178600100Y-85481307D01*
X178647680Y-85513330D01*
X178675760Y-85563339D01*
X178678334Y-85620635D01*
X178654849Y-85672960D01*
X178610331Y-85709120D01*
X178442027Y-85790170D01*
X178259925Y-85922475D01*
X178104365Y-86085178D01*
X177980365Y-86273031D01*
X177891896Y-86480012D01*
X177841809Y-86699462D01*
X177833375Y-86887254D01*
X177825526Y-86912364D01*
X177832378Y-86929261D01*
X177861925Y-87147388D01*
X177919100Y-87323355D01*
X177931483Y-87361464D01*
X178038148Y-87559681D01*
X178178492Y-87735666D01*
X178348004Y-87883765D01*
X178541236Y-87999215D01*
X178590700Y-88017779D01*
X178600100Y-88021307D01*
X178647680Y-88053330D01*
X178675760Y-88103339D01*
X178678334Y-88160635D01*
X178654849Y-88212960D01*
X178610331Y-88249120D01*
X178442027Y-88330170D01*
X178259925Y-88462475D01*
X178104365Y-88625178D01*
X177980365Y-88813031D01*
X177891896Y-89020012D01*
X177841809Y-89239462D01*
X177833375Y-89427254D01*
X177825526Y-89452364D01*
X177832378Y-89469261D01*
X177861925Y-89687388D01*
X177897211Y-89795988D01*
X177931483Y-89901464D01*
X178038148Y-90099681D01*
X178178492Y-90275666D01*
X178348004Y-90423765D01*
X178541236Y-90539215D01*
X178600100Y-90561307D01*
X178647680Y-90593330D01*
X178675760Y-90643339D01*
X178678334Y-90700635D01*
X178654849Y-90752960D01*
X178610331Y-90789120D01*
X178442027Y-90870170D01*
X178259925Y-91002475D01*
X178104365Y-91165178D01*
X177980365Y-91353031D01*
X177891896Y-91560012D01*
X177841809Y-91779462D01*
X177833375Y-91967254D01*
X177825526Y-91992364D01*
X177832378Y-92009261D01*
X177861925Y-92227388D01*
X177917500Y-92398431D01*
X177931483Y-92441464D01*
X178038148Y-92639681D01*
X178178492Y-92815666D01*
X178348004Y-92963765D01*
X178541236Y-93079215D01*
X178600100Y-93101307D01*
X178647680Y-93133330D01*
X178675760Y-93183339D01*
X178678334Y-93240635D01*
X178654849Y-93292960D01*
X178610331Y-93329120D01*
X178442027Y-93410170D01*
X178259925Y-93542475D01*
X178259922Y-93542477D01*
X178259922Y-93542478D01*
X178224520Y-93579506D01*
X178104365Y-93705178D01*
X177980365Y-93893031D01*
X177891896Y-94100012D01*
X177841809Y-94319462D01*
X177833375Y-94507254D01*
X177825526Y-94532364D01*
X177832378Y-94549261D01*
X177861925Y-94767388D01*
X177930746Y-94979198D01*
X177931483Y-94981464D01*
X178038148Y-95179681D01*
X178178492Y-95355666D01*
X178348004Y-95503765D01*
X178348006Y-95503766D01*
X178541237Y-95619216D01*
X178659214Y-95663493D01*
X178751976Y-95698307D01*
X178973453Y-95738500D01*
X180142153Y-95738500D01*
X180142155Y-95738500D01*
X180310188Y-95723377D01*
X180527170Y-95663493D01*
X180729973Y-95565829D01*
X180912078Y-95433522D01*
X181067632Y-95270825D01*
X181133182Y-95171521D01*
X181148013Y-95149053D01*
X181194710Y-95107133D01*
X181255951Y-95093444D01*
X181316052Y-95111491D01*
X181359621Y-95156654D01*
X181375500Y-95217364D01*
X181375500Y-95544153D01*
X181390623Y-95712190D01*
X181450507Y-95929171D01*
X181548170Y-96131972D01*
X181616483Y-96225996D01*
X181680478Y-96314078D01*
X181843175Y-96469632D01*
X182031032Y-96593635D01*
X182238012Y-96682103D01*
X182457463Y-96732191D01*
X182662998Y-96741421D01*
X182682328Y-96742290D01*
X182682328Y-96742289D01*
X182682330Y-96742290D01*
X182905387Y-96712075D01*
X183119464Y-96642517D01*
X183317681Y-96535852D01*
X183493666Y-96395508D01*
X183641765Y-96225996D01*
X183757215Y-96032764D01*
X183779308Y-95973896D01*
X183811330Y-95926319D01*
X183861339Y-95898239D01*
X183918635Y-95895665D01*
X183970960Y-95919150D01*
X184007120Y-95963668D01*
X184088170Y-96131972D01*
X184156483Y-96225996D01*
X184220478Y-96314078D01*
X184383175Y-96469632D01*
X184571032Y-96593635D01*
X184778012Y-96682103D01*
X184997463Y-96732191D01*
X185202998Y-96741421D01*
X185222328Y-96742290D01*
X185222328Y-96742289D01*
X185222330Y-96742290D01*
X185445387Y-96712075D01*
X185659464Y-96642517D01*
X185857681Y-96535852D01*
X186033666Y-96395508D01*
X186181765Y-96225996D01*
X186297215Y-96032764D01*
X186319308Y-95973896D01*
X186351330Y-95926319D01*
X186401339Y-95898239D01*
X186458635Y-95895665D01*
X186510960Y-95919150D01*
X186547120Y-95963668D01*
X186628170Y-96131972D01*
X186696483Y-96225996D01*
X186760478Y-96314078D01*
X186923175Y-96469632D01*
X187111032Y-96593635D01*
X187318012Y-96682103D01*
X187537463Y-96732191D01*
X187742998Y-96741421D01*
X187762328Y-96742290D01*
X187762328Y-96742289D01*
X187762330Y-96742290D01*
X187985387Y-96712075D01*
X188199464Y-96642517D01*
X188397681Y-96535852D01*
X188573666Y-96395508D01*
X188721765Y-96225996D01*
X188837215Y-96032764D01*
X188859308Y-95973896D01*
X188891330Y-95926319D01*
X188941339Y-95898239D01*
X188998635Y-95895665D01*
X189050960Y-95919150D01*
X189087120Y-95963668D01*
X189168170Y-96131972D01*
X189236483Y-96225996D01*
X189300478Y-96314078D01*
X189463175Y-96469632D01*
X189563494Y-96535852D01*
X189564811Y-96536721D01*
X189605694Y-96581448D01*
X189620500Y-96640208D01*
X189620500Y-100885172D01*
X189611061Y-100932625D01*
X189584181Y-100972853D01*
X183368852Y-107188181D01*
X183328624Y-107215061D01*
X183281171Y-107224500D01*
X180018093Y-107224500D01*
X179959878Y-107209985D01*
X179915292Y-107169840D01*
X179894773Y-107113463D01*
X179875674Y-106931744D01*
X179817179Y-106751716D01*
X179817179Y-106751715D01*
X179722533Y-106587783D01*
X179595870Y-106447110D01*
X179442730Y-106335848D01*
X179269802Y-106258855D01*
X179084648Y-106219500D01*
X179084646Y-106219500D01*
X179025452Y-106219500D01*
X178977999Y-106210061D01*
X178937771Y-106183181D01*
X177621819Y-104867228D01*
X177594939Y-104827000D01*
X177585500Y-104779547D01*
X177585500Y-94565906D01*
X177593844Y-94533305D01*
X177585500Y-94501690D01*
X177585500Y-92025906D01*
X177593844Y-91993305D01*
X177585500Y-91961690D01*
X177585500Y-89485906D01*
X177593844Y-89453305D01*
X177585500Y-89421690D01*
X177585500Y-86945906D01*
X177593844Y-86913305D01*
X177585500Y-86881690D01*
X177585500Y-84405906D01*
X177593844Y-84373305D01*
X177585500Y-84341690D01*
X177585500Y-81865906D01*
X177593844Y-81833305D01*
X177585500Y-81801690D01*
X177585500Y-79325906D01*
X177593844Y-79293305D01*
X177585500Y-79261690D01*
X177585500Y-77838687D01*
X177593736Y-77794249D01*
X177617347Y-77755717D01*
X177692533Y-77672216D01*
X177727447Y-77611744D01*
X177787179Y-77508284D01*
X177803680Y-77457500D01*
X177814017Y-77425684D01*
X177843874Y-77376716D01*
X177892573Y-77346421D01*
X177949696Y-77341280D01*
X178003022Y-77362394D01*
G37*
%TD.AperFunction*%
%TA.AperFunction,NonConductor*%
G36*
X188342500Y-115322113D02*
G01*
X188387887Y-115367500D01*
X188404500Y-115429500D01*
X188404500Y-115455500D01*
X188387887Y-115517500D01*
X188342500Y-115562887D01*
X188280500Y-115579500D01*
X187782130Y-115579500D01*
X187722513Y-115585909D01*
X187573331Y-115641550D01*
X187529999Y-115649368D01*
X187486666Y-115641550D01*
X187337485Y-115585909D01*
X187317253Y-115583734D01*
X187277873Y-115579500D01*
X187277869Y-115579500D01*
X186782130Y-115579500D01*
X186722513Y-115585909D01*
X186573331Y-115641550D01*
X186529999Y-115649368D01*
X186486666Y-115641550D01*
X186337485Y-115585909D01*
X186317253Y-115583734D01*
X186277873Y-115579500D01*
X186277869Y-115579500D01*
X185782130Y-115579500D01*
X185753850Y-115582540D01*
X185742751Y-115583733D01*
X185675318Y-115571980D01*
X185624394Y-115526237D01*
X185605500Y-115460444D01*
X185605500Y-115429500D01*
X185622113Y-115367500D01*
X185667500Y-115322113D01*
X185729500Y-115305500D01*
X188280500Y-115305500D01*
X188342500Y-115322113D01*
G37*
%TD.AperFunction*%
%TA.AperFunction,NonConductor*%
G36*
X198880971Y-98699029D02*
G01*
X198915997Y-98749310D01*
X198922670Y-98810224D01*
X196462277Y-116197007D01*
X196438905Y-116253759D01*
X196391179Y-116292351D01*
X196330791Y-116303327D01*
X196272538Y-116283998D01*
X196230690Y-116239100D01*
X196215500Y-116179633D01*
X196215500Y-101253244D01*
X196224939Y-101205791D01*
X196251819Y-101165563D01*
X197426611Y-99990771D01*
X198712214Y-98705167D01*
X198764905Y-98673888D01*
X198826143Y-98671660D01*
X198880971Y-98699029D01*
G37*
%TD.AperFunction*%
%TA.AperFunction,NonConductor*%
G36*
X183032723Y-114350217D02*
G01*
X183081650Y-114383468D01*
X183142650Y-114451215D01*
X183166264Y-114489749D01*
X183174500Y-114534187D01*
X183174500Y-118467256D01*
X183172235Y-118487762D01*
X183174439Y-118557873D01*
X183174500Y-118561768D01*
X183174500Y-118589349D01*
X183175003Y-118593334D01*
X183175918Y-118604967D01*
X183177290Y-118648626D01*
X183182879Y-118667860D01*
X183186825Y-118686916D01*
X183189335Y-118706792D01*
X183205414Y-118747404D01*
X183209197Y-118758451D01*
X183221382Y-118800391D01*
X183231580Y-118817635D01*
X183240136Y-118835100D01*
X183247514Y-118853732D01*
X183247515Y-118853733D01*
X183273180Y-118889059D01*
X183279593Y-118898822D01*
X183301826Y-118936416D01*
X183301829Y-118936419D01*
X183301830Y-118936420D01*
X183315995Y-118950585D01*
X183328627Y-118965375D01*
X183340406Y-118981587D01*
X183374058Y-119009426D01*
X183382698Y-119017288D01*
X183793182Y-119427773D01*
X183820061Y-119467999D01*
X183829500Y-119515452D01*
X183829500Y-119857373D01*
X183815389Y-119914822D01*
X183776268Y-119959196D01*
X183721041Y-119980395D01*
X183662277Y-119973596D01*
X183613350Y-119940345D01*
X183570370Y-119892610D01*
X183417230Y-119781348D01*
X183244302Y-119704355D01*
X183059148Y-119665000D01*
X183059146Y-119665000D01*
X182989500Y-119665000D01*
X182927500Y-119648387D01*
X182882113Y-119603000D01*
X182865500Y-119541000D01*
X182865500Y-114466440D01*
X182879611Y-114408991D01*
X182918731Y-114364618D01*
X182973958Y-114343418D01*
X183032723Y-114350217D01*
G37*
%TD.AperFunction*%
%TA.AperFunction,NonConductor*%
G36*
X190817818Y-115501521D02*
G01*
X190867181Y-115531771D01*
X192449197Y-117113787D01*
X192462098Y-117129889D01*
X192464212Y-117131874D01*
X192464214Y-117131877D01*
X192511561Y-117176339D01*
X192513240Y-117177916D01*
X192516035Y-117180625D01*
X192535530Y-117200120D01*
X192538704Y-117202582D01*
X192547568Y-117210153D01*
X192579418Y-117240062D01*
X192589914Y-117245832D01*
X192596974Y-117249714D01*
X192613231Y-117260392D01*
X192629064Y-117272674D01*
X192645185Y-117279649D01*
X192669156Y-117290023D01*
X192679643Y-117295160D01*
X192717908Y-117316197D01*
X192737316Y-117321180D01*
X192755710Y-117327478D01*
X192774105Y-117335438D01*
X192817254Y-117342271D01*
X192828680Y-117344638D01*
X192844222Y-117348629D01*
X192870980Y-117355500D01*
X192870981Y-117355500D01*
X192891016Y-117355500D01*
X192910413Y-117357026D01*
X192930196Y-117360160D01*
X192973674Y-117356050D01*
X192985344Y-117355500D01*
X193916253Y-117355500D01*
X193966688Y-117366220D01*
X194008401Y-117396526D01*
X194014129Y-117402888D01*
X194167270Y-117514151D01*
X194167271Y-117514151D01*
X194167272Y-117514152D01*
X194340197Y-117591144D01*
X194525352Y-117630500D01*
X194525354Y-117630500D01*
X194714646Y-117630500D01*
X194714649Y-117630500D01*
X194814720Y-117609230D01*
X194869448Y-117609946D01*
X194918536Y-117634154D01*
X194952421Y-117677137D01*
X194964500Y-117730520D01*
X194964500Y-118049547D01*
X194955061Y-118097000D01*
X194928181Y-118137228D01*
X191587228Y-121478181D01*
X191547000Y-121505061D01*
X191499547Y-121514500D01*
X190279500Y-121514500D01*
X190217500Y-121497887D01*
X190172113Y-121452500D01*
X190155500Y-121390500D01*
X190155500Y-120388042D01*
X190161846Y-120348881D01*
X190168976Y-120335250D01*
X190173793Y-120322334D01*
X190173796Y-120322331D01*
X190224091Y-120187483D01*
X190230500Y-120127873D01*
X190230499Y-118432128D01*
X190224091Y-118372517D01*
X190213089Y-118343021D01*
X190205868Y-118287534D01*
X190223776Y-118234521D01*
X190263166Y-118194778D01*
X190316016Y-118176398D01*
X190337483Y-118174091D01*
X190472331Y-118123796D01*
X190587546Y-118037546D01*
X190673796Y-117922331D01*
X190724091Y-117787483D01*
X190730500Y-117727873D01*
X190730499Y-116032128D01*
X190724091Y-115972517D01*
X190673796Y-115837669D01*
X190673793Y-115837665D01*
X190668977Y-115824752D01*
X190661846Y-115811119D01*
X190655500Y-115771958D01*
X190655500Y-115619452D01*
X190669015Y-115563157D01*
X190706615Y-115519134D01*
X190760102Y-115496979D01*
X190817818Y-115501521D01*
G37*
%TD.AperFunction*%
%TA.AperFunction,NonConductor*%
G36*
X157236111Y-70490434D02*
G01*
X157297926Y-70506978D01*
X157343262Y-70552138D01*
X157360045Y-70613888D01*
X157369468Y-72753076D01*
X157369469Y-72753838D01*
X157369458Y-72759997D01*
X157369679Y-72760543D01*
X157369999Y-72760540D01*
X157370002Y-72760541D01*
X157370004Y-72760540D01*
X157374401Y-72760501D01*
X157375414Y-72760496D01*
X176400777Y-72750510D01*
X176407555Y-72751552D01*
X176414809Y-72750940D01*
X176425249Y-72750500D01*
X176433425Y-72750500D01*
X176440171Y-72748820D01*
X178694618Y-72560949D01*
X178705432Y-72560523D01*
X180896092Y-72569965D01*
X180957849Y-72586746D01*
X181003014Y-72632084D01*
X181019558Y-72693905D01*
X181019728Y-73050587D01*
X181002905Y-73113009D01*
X180956949Y-73158479D01*
X180894352Y-73174638D01*
X180832129Y-73157094D01*
X180630762Y-73036783D01*
X180420025Y-72957693D01*
X180198547Y-72917500D01*
X179029845Y-72917500D01*
X178962631Y-72923549D01*
X178861809Y-72932623D01*
X178644828Y-72992507D01*
X178442027Y-73090170D01*
X178259925Y-73222475D01*
X178104365Y-73385178D01*
X177980365Y-73573031D01*
X177891896Y-73780012D01*
X177841809Y-73999462D01*
X177831709Y-74224328D01*
X177861925Y-74447388D01*
X177897211Y-74555988D01*
X177931483Y-74661464D01*
X178038148Y-74859681D01*
X178178492Y-75035666D01*
X178348004Y-75183765D01*
X178541236Y-75299215D01*
X178598256Y-75320615D01*
X178600100Y-75321307D01*
X178647680Y-75353330D01*
X178675760Y-75403339D01*
X178678334Y-75460635D01*
X178654849Y-75512960D01*
X178610331Y-75549120D01*
X178442027Y-75630170D01*
X178259925Y-75762475D01*
X178259922Y-75762477D01*
X178259922Y-75762478D01*
X178216682Y-75807704D01*
X178104365Y-75925178D01*
X177980365Y-76113031D01*
X177891896Y-76320011D01*
X177852347Y-76493290D01*
X177820439Y-76552057D01*
X177762653Y-76585708D01*
X177695794Y-76584458D01*
X177639306Y-76548669D01*
X177565870Y-76467110D01*
X177412730Y-76355848D01*
X177239802Y-76278855D01*
X177054648Y-76239500D01*
X177054646Y-76239500D01*
X176865354Y-76239500D01*
X176865352Y-76239500D01*
X176680197Y-76278855D01*
X176507269Y-76355848D01*
X176354129Y-76467110D01*
X176227466Y-76607783D01*
X176132820Y-76771715D01*
X176074326Y-76951742D01*
X176063053Y-77059002D01*
X176044428Y-77112483D01*
X176003967Y-77152105D01*
X175950108Y-77169605D01*
X175894084Y-77161332D01*
X175847582Y-77129012D01*
X175845869Y-77127110D01*
X175692730Y-77015848D01*
X175519802Y-76938855D01*
X175334648Y-76899500D01*
X175334646Y-76899500D01*
X175145354Y-76899500D01*
X175145352Y-76899500D01*
X174960197Y-76938855D01*
X174787269Y-77015848D01*
X174634129Y-77127110D01*
X174507466Y-77267783D01*
X174412820Y-77431715D01*
X174354326Y-77611742D01*
X174334540Y-77800000D01*
X174354326Y-77988257D01*
X174412820Y-78168284D01*
X174507466Y-78332216D01*
X174634129Y-78472889D01*
X174787269Y-78584151D01*
X174960193Y-78661143D01*
X174960196Y-78661143D01*
X174960197Y-78661144D01*
X174976278Y-78664562D01*
X175026841Y-78688139D01*
X175061950Y-78731494D01*
X175074500Y-78785853D01*
X175074500Y-109350500D01*
X175057887Y-109412500D01*
X175012500Y-109457887D01*
X174950500Y-109474500D01*
X157349500Y-109474500D01*
X157287500Y-109457887D01*
X157242113Y-109412500D01*
X157225500Y-109350500D01*
X157225500Y-101293355D01*
X160692843Y-101293355D01*
X160702852Y-101503459D01*
X160752442Y-101707871D01*
X160765569Y-101736615D01*
X160839822Y-101899208D01*
X160922656Y-102015531D01*
X160961831Y-102070544D01*
X161114063Y-102215697D01*
X161114065Y-102215698D01*
X161114066Y-102215699D01*
X161291009Y-102329414D01*
X161291014Y-102329416D01*
X161486288Y-102407593D01*
X161615084Y-102432416D01*
X161692828Y-102447400D01*
X161692829Y-102447400D01*
X161850463Y-102447400D01*
X161850468Y-102447400D01*
X162007389Y-102432416D01*
X162209211Y-102373156D01*
X162396170Y-102276771D01*
X162561510Y-102146747D01*
X162699255Y-101987781D01*
X162804426Y-101805619D01*
X162873222Y-101606846D01*
X162899919Y-101421167D01*
X164629833Y-101421167D01*
X164659911Y-101720145D01*
X164729569Y-102012448D01*
X164837567Y-102292857D01*
X164918469Y-102440485D01*
X164981979Y-102556375D01*
X165160223Y-102798290D01*
X165369121Y-103014289D01*
X165604946Y-103200518D01*
X165863487Y-103353652D01*
X166140133Y-103470960D01*
X166140134Y-103470960D01*
X166140136Y-103470961D01*
X166204010Y-103488457D01*
X166429946Y-103550348D01*
X166727755Y-103590400D01*
X166953033Y-103590400D01*
X166953035Y-103590400D01*
X167177820Y-103575352D01*
X167251436Y-103560388D01*
X167472287Y-103515499D01*
X167756151Y-103416931D01*
X167890246Y-103349169D01*
X168024340Y-103281409D01*
X168024343Y-103281407D01*
X168272080Y-103111346D01*
X168494939Y-102909782D01*
X168688943Y-102680312D01*
X168850631Y-102427032D01*
X168977118Y-102154460D01*
X169066146Y-101867462D01*
X169116126Y-101571158D01*
X169125414Y-101293355D01*
X170852843Y-101293355D01*
X170862852Y-101503459D01*
X170912442Y-101707871D01*
X170925569Y-101736615D01*
X170999822Y-101899208D01*
X171082656Y-102015531D01*
X171121831Y-102070544D01*
X171274063Y-102215697D01*
X171274065Y-102215698D01*
X171274066Y-102215699D01*
X171451009Y-102329414D01*
X171451014Y-102329416D01*
X171646288Y-102407593D01*
X171775084Y-102432416D01*
X171852828Y-102447400D01*
X171852829Y-102447400D01*
X172010463Y-102447400D01*
X172010468Y-102447400D01*
X172167389Y-102432416D01*
X172369211Y-102373156D01*
X172556170Y-102276771D01*
X172721510Y-102146747D01*
X172859255Y-101987781D01*
X172964426Y-101805619D01*
X173033222Y-101606846D01*
X173063157Y-101398645D01*
X173053148Y-101188541D01*
X173003558Y-100984129D01*
X172916179Y-100792795D01*
X172916178Y-100792794D01*
X172916177Y-100792791D01*
X172794170Y-100621458D01*
X172794169Y-100621456D01*
X172641937Y-100476303D01*
X172641934Y-100476301D01*
X172641933Y-100476300D01*
X172464990Y-100362585D01*
X172318634Y-100303992D01*
X172269712Y-100284407D01*
X172269711Y-100284406D01*
X172269709Y-100284406D01*
X172063172Y-100244600D01*
X172063171Y-100244600D01*
X171905532Y-100244600D01*
X171818353Y-100252924D01*
X171748607Y-100259584D01*
X171546786Y-100318844D01*
X171359832Y-100415227D01*
X171194491Y-100545252D01*
X171056743Y-100704220D01*
X170951574Y-100886379D01*
X170882777Y-101085154D01*
X170852843Y-101293352D01*
X170852843Y-101293355D01*
X169125414Y-101293355D01*
X169126167Y-101270836D01*
X169096089Y-100971855D01*
X169026430Y-100679551D01*
X168979521Y-100557755D01*
X168918432Y-100399142D01*
X168868411Y-100307866D01*
X168774021Y-100135625D01*
X168595777Y-99893710D01*
X168386879Y-99677711D01*
X168375316Y-99668580D01*
X168151053Y-99491481D01*
X168021783Y-99414915D01*
X167892513Y-99338348D01*
X167711407Y-99261552D01*
X167615863Y-99221038D01*
X167326058Y-99141653D01*
X167326057Y-99141652D01*
X167326054Y-99141652D01*
X167028245Y-99101600D01*
X166802967Y-99101600D01*
X166802965Y-99101600D01*
X166578179Y-99116647D01*
X166283715Y-99176500D01*
X165999845Y-99275070D01*
X165731659Y-99410590D01*
X165483919Y-99580654D01*
X165261062Y-99782216D01*
X165067057Y-100011687D01*
X164905367Y-100264970D01*
X164778883Y-100537537D01*
X164689854Y-100824537D01*
X164664836Y-100972853D01*
X164639874Y-101120842D01*
X164637165Y-101201882D01*
X164629833Y-101421167D01*
X162899919Y-101421167D01*
X162903157Y-101398645D01*
X162893148Y-101188541D01*
X162843558Y-100984129D01*
X162756179Y-100792795D01*
X162756178Y-100792794D01*
X162756177Y-100792791D01*
X162717883Y-100739015D01*
X162695062Y-100673620D01*
X162710876Y-100606187D01*
X162760390Y-100557755D01*
X162828156Y-100543435D01*
X163002501Y-100556500D01*
X163002506Y-100556500D01*
X163133494Y-100556500D01*
X163133499Y-100556500D01*
X163256078Y-100547313D01*
X163329630Y-100541802D01*
X163585416Y-100483420D01*
X163829643Y-100387568D01*
X164056857Y-100256386D01*
X164261981Y-100092805D01*
X164413323Y-99929697D01*
X164440428Y-99900485D01*
X164440431Y-99900481D01*
X164440433Y-99900479D01*
X164588228Y-99683704D01*
X164702063Y-99447323D01*
X164779396Y-99196615D01*
X164818500Y-98937182D01*
X164818500Y-98674818D01*
X164779396Y-98415385D01*
X164702063Y-98164677D01*
X164588228Y-97928296D01*
X164440433Y-97711521D01*
X164440432Y-97711520D01*
X164440428Y-97711514D01*
X164261984Y-97519198D01*
X164261983Y-97519197D01*
X164261981Y-97519195D01*
X164056857Y-97355614D01*
X164056856Y-97355613D01*
X163829641Y-97224431D01*
X163585418Y-97128580D01*
X163329627Y-97070197D01*
X163133499Y-97055500D01*
X163133494Y-97055500D01*
X163002506Y-97055500D01*
X163002501Y-97055500D01*
X162806372Y-97070197D01*
X162550581Y-97128580D01*
X162306358Y-97224431D01*
X162079143Y-97355613D01*
X161874015Y-97519198D01*
X161695571Y-97711514D01*
X161601409Y-97849625D01*
X161557705Y-97913728D01*
X161547771Y-97928298D01*
X161530879Y-97963374D01*
X161433937Y-98164677D01*
X161356604Y-98415385D01*
X161317500Y-98674818D01*
X161317500Y-98937182D01*
X161356604Y-99196615D01*
X161433937Y-99447323D01*
X161547772Y-99683704D01*
X161614938Y-99782218D01*
X161695568Y-99900481D01*
X161722677Y-99929697D01*
X161822281Y-100037045D01*
X161853102Y-100097712D01*
X161847268Y-100165508D01*
X161806535Y-100220018D01*
X161743171Y-100244824D01*
X161588612Y-100259583D01*
X161386786Y-100318844D01*
X161199832Y-100415227D01*
X161034491Y-100545252D01*
X160896743Y-100704220D01*
X160791574Y-100886379D01*
X160722777Y-101085154D01*
X160692843Y-101293352D01*
X160692843Y-101293355D01*
X157225500Y-101293355D01*
X157225500Y-96397182D01*
X167667500Y-96397182D01*
X167706604Y-96656615D01*
X167783937Y-96907323D01*
X167897772Y-97143704D01*
X168005220Y-97301301D01*
X168045571Y-97360485D01*
X168192836Y-97519198D01*
X168224019Y-97552805D01*
X168429143Y-97716386D01*
X168656357Y-97847568D01*
X168737739Y-97879508D01*
X168884903Y-97937266D01*
X168900584Y-97943420D01*
X169156370Y-98001802D01*
X169212408Y-98006001D01*
X169352501Y-98016500D01*
X169352506Y-98016500D01*
X169483494Y-98016500D01*
X169483499Y-98016500D01*
X169606756Y-98007263D01*
X169679630Y-98001802D01*
X169935416Y-97943420D01*
X170179643Y-97847568D01*
X170406857Y-97716386D01*
X170611981Y-97552805D01*
X170755485Y-97398144D01*
X170790428Y-97360485D01*
X170790429Y-97360482D01*
X170790433Y-97360479D01*
X170938228Y-97143704D01*
X171052063Y-96907323D01*
X171129396Y-96656615D01*
X171168500Y-96397182D01*
X171168500Y-96134818D01*
X171129396Y-95875385D01*
X171052063Y-95624677D01*
X170938228Y-95388296D01*
X170790433Y-95171521D01*
X170790432Y-95171520D01*
X170790428Y-95171514D01*
X170611984Y-94979198D01*
X170611983Y-94979197D01*
X170611981Y-94979195D01*
X170406857Y-94815614D01*
X170406856Y-94815613D01*
X170179641Y-94684431D01*
X169935418Y-94588580D01*
X169679627Y-94530197D01*
X169483499Y-94515500D01*
X169483494Y-94515500D01*
X169352506Y-94515500D01*
X169352501Y-94515500D01*
X169156372Y-94530197D01*
X168900581Y-94588580D01*
X168656358Y-94684431D01*
X168429143Y-94815613D01*
X168224015Y-94979198D01*
X168045571Y-95171514D01*
X167897771Y-95388298D01*
X167786567Y-95619215D01*
X167783937Y-95624677D01*
X167706604Y-95875385D01*
X167667500Y-96134818D01*
X167667500Y-96397182D01*
X157225500Y-96397182D01*
X157225500Y-82243355D01*
X160692843Y-82243355D01*
X160702852Y-82453459D01*
X160752442Y-82657871D01*
X160797082Y-82755619D01*
X160839822Y-82849208D01*
X160921205Y-82963493D01*
X160961831Y-83020544D01*
X161114063Y-83165697D01*
X161114065Y-83165698D01*
X161114066Y-83165699D01*
X161291009Y-83279414D01*
X161291014Y-83279416D01*
X161486288Y-83357593D01*
X161615084Y-83382416D01*
X161692828Y-83397400D01*
X161692829Y-83397400D01*
X161850463Y-83397400D01*
X161850468Y-83397400D01*
X162007389Y-83382416D01*
X162209211Y-83323156D01*
X162396170Y-83226771D01*
X162561510Y-83096747D01*
X162699255Y-82937781D01*
X162804426Y-82755619D01*
X162873222Y-82556846D01*
X162899919Y-82371167D01*
X164629833Y-82371167D01*
X164659911Y-82670145D01*
X164729569Y-82962448D01*
X164837567Y-83242857D01*
X164981978Y-83506374D01*
X165005121Y-83537784D01*
X165160223Y-83748290D01*
X165369121Y-83964289D01*
X165604946Y-84150518D01*
X165863487Y-84303652D01*
X166140133Y-84420960D01*
X166140134Y-84420960D01*
X166140136Y-84420961D01*
X166203376Y-84438284D01*
X166429946Y-84500348D01*
X166727755Y-84540400D01*
X166953033Y-84540400D01*
X166953035Y-84540400D01*
X167177820Y-84525352D01*
X167251436Y-84510388D01*
X167472287Y-84465499D01*
X167756151Y-84366931D01*
X167890247Y-84299168D01*
X168024340Y-84231409D01*
X168060964Y-84206268D01*
X168272080Y-84061346D01*
X168494939Y-83859782D01*
X168688943Y-83630312D01*
X168850631Y-83377032D01*
X168977118Y-83104460D01*
X169066146Y-82817462D01*
X169116126Y-82521158D01*
X169125414Y-82243355D01*
X170852843Y-82243355D01*
X170862852Y-82453459D01*
X170912442Y-82657871D01*
X170957082Y-82755619D01*
X170999822Y-82849208D01*
X171081205Y-82963493D01*
X171121831Y-83020544D01*
X171274063Y-83165697D01*
X171274065Y-83165698D01*
X171274066Y-83165699D01*
X171451009Y-83279414D01*
X171451014Y-83279416D01*
X171646288Y-83357593D01*
X171775084Y-83382416D01*
X171852828Y-83397400D01*
X171852829Y-83397400D01*
X172010463Y-83397400D01*
X172010468Y-83397400D01*
X172167389Y-83382416D01*
X172369211Y-83323156D01*
X172556170Y-83226771D01*
X172721510Y-83096747D01*
X172859255Y-82937781D01*
X172964426Y-82755619D01*
X173033222Y-82556846D01*
X173063157Y-82348645D01*
X173053148Y-82138541D01*
X173003558Y-81934129D01*
X172916179Y-81742795D01*
X172916178Y-81742794D01*
X172916177Y-81742791D01*
X172794170Y-81571458D01*
X172794169Y-81571456D01*
X172641937Y-81426303D01*
X172641934Y-81426301D01*
X172641933Y-81426300D01*
X172464990Y-81312585D01*
X172318634Y-81253992D01*
X172269712Y-81234407D01*
X172269711Y-81234406D01*
X172269709Y-81234406D01*
X172063172Y-81194600D01*
X172063171Y-81194600D01*
X171905532Y-81194600D01*
X171818353Y-81202924D01*
X171748607Y-81209584D01*
X171546786Y-81268844D01*
X171359832Y-81365227D01*
X171204298Y-81487540D01*
X171194490Y-81495253D01*
X171179977Y-81512001D01*
X171056743Y-81654220D01*
X170951574Y-81836379D01*
X170882777Y-82035154D01*
X170852843Y-82243352D01*
X170852843Y-82243355D01*
X169125414Y-82243355D01*
X169126167Y-82220836D01*
X169096089Y-81921855D01*
X169026430Y-81629551D01*
X168979521Y-81507755D01*
X168918432Y-81349142D01*
X168868411Y-81257866D01*
X168774021Y-81085625D01*
X168595777Y-80843710D01*
X168386879Y-80627711D01*
X168375316Y-80618580D01*
X168151053Y-80441481D01*
X168021783Y-80364915D01*
X167892513Y-80288348D01*
X167637165Y-80180071D01*
X167615863Y-80171038D01*
X167326058Y-80091653D01*
X167326057Y-80091652D01*
X167326054Y-80091652D01*
X167028245Y-80051600D01*
X166802967Y-80051600D01*
X166802965Y-80051600D01*
X166578179Y-80066647D01*
X166283715Y-80126500D01*
X165999845Y-80225070D01*
X165731659Y-80360590D01*
X165483919Y-80530654D01*
X165261062Y-80732216D01*
X165067057Y-80961687D01*
X164905367Y-81214970D01*
X164778883Y-81487537D01*
X164689854Y-81774537D01*
X164639874Y-82070841D01*
X164629833Y-82371167D01*
X162899919Y-82371167D01*
X162903157Y-82348645D01*
X162893148Y-82138541D01*
X162843558Y-81934129D01*
X162756179Y-81742795D01*
X162756178Y-81742794D01*
X162756177Y-81742791D01*
X162717883Y-81689015D01*
X162695062Y-81623620D01*
X162710876Y-81556187D01*
X162760390Y-81507755D01*
X162828156Y-81493435D01*
X163002501Y-81506500D01*
X163002506Y-81506500D01*
X163133494Y-81506500D01*
X163133499Y-81506500D01*
X163256078Y-81497313D01*
X163329630Y-81491802D01*
X163585416Y-81433420D01*
X163829643Y-81337568D01*
X164056857Y-81206386D01*
X164261981Y-81042805D01*
X164423973Y-80868219D01*
X164440428Y-80850485D01*
X164440431Y-80850481D01*
X164440433Y-80850479D01*
X164588228Y-80633704D01*
X164702063Y-80397323D01*
X164779396Y-80146615D01*
X164818500Y-79887182D01*
X164818500Y-79624818D01*
X164779396Y-79365385D01*
X164702063Y-79114677D01*
X164588228Y-78878296D01*
X164440433Y-78661521D01*
X164440432Y-78661520D01*
X164440428Y-78661514D01*
X164261984Y-78469198D01*
X164261983Y-78469197D01*
X164261981Y-78469195D01*
X164056857Y-78305614D01*
X164056856Y-78305613D01*
X163829641Y-78174431D01*
X163585418Y-78078580D01*
X163329627Y-78020197D01*
X163133499Y-78005500D01*
X163133494Y-78005500D01*
X163002506Y-78005500D01*
X163002501Y-78005500D01*
X162806372Y-78020197D01*
X162550581Y-78078580D01*
X162306358Y-78174431D01*
X162079143Y-78305613D01*
X161874015Y-78469198D01*
X161695571Y-78661514D01*
X161547771Y-78878298D01*
X161527503Y-78920386D01*
X161433937Y-79114677D01*
X161356604Y-79365385D01*
X161317500Y-79624818D01*
X161317500Y-79887182D01*
X161356604Y-80146615D01*
X161433937Y-80397323D01*
X161547772Y-80633704D01*
X161646124Y-80777959D01*
X161695568Y-80850481D01*
X161712027Y-80868219D01*
X161822281Y-80987045D01*
X161853102Y-81047712D01*
X161847268Y-81115508D01*
X161806535Y-81170018D01*
X161743171Y-81194824D01*
X161588612Y-81209583D01*
X161386786Y-81268844D01*
X161199832Y-81365227D01*
X161044298Y-81487540D01*
X161034490Y-81495253D01*
X161019977Y-81512001D01*
X160896743Y-81654220D01*
X160791574Y-81836379D01*
X160722777Y-82035154D01*
X160692843Y-82243352D01*
X160692843Y-82243355D01*
X157225500Y-82243355D01*
X157225500Y-77347182D01*
X167667500Y-77347182D01*
X167706604Y-77606615D01*
X167783937Y-77857323D01*
X167897772Y-78093704D01*
X168033766Y-78293170D01*
X168045571Y-78310485D01*
X168192836Y-78469198D01*
X168224019Y-78502805D01*
X168429143Y-78666386D01*
X168656357Y-78797568D01*
X168737739Y-78829508D01*
X168862048Y-78878296D01*
X168900584Y-78893420D01*
X169156370Y-78951802D01*
X169212408Y-78956001D01*
X169352501Y-78966500D01*
X169352506Y-78966500D01*
X169483494Y-78966500D01*
X169483499Y-78966500D01*
X169606078Y-78957313D01*
X169679630Y-78951802D01*
X169935416Y-78893420D01*
X170179643Y-78797568D01*
X170406857Y-78666386D01*
X170611981Y-78502805D01*
X170725617Y-78380334D01*
X170790428Y-78310485D01*
X170790429Y-78310482D01*
X170790433Y-78310479D01*
X170938228Y-78093704D01*
X171052063Y-77857323D01*
X171129396Y-77606615D01*
X171168500Y-77347182D01*
X171168500Y-77084818D01*
X171129396Y-76825385D01*
X171052063Y-76574677D01*
X170938228Y-76338296D01*
X170790433Y-76121521D01*
X170790432Y-76121520D01*
X170790428Y-76121514D01*
X170611984Y-75929198D01*
X170611983Y-75929197D01*
X170611981Y-75929195D01*
X170406857Y-75765614D01*
X170406856Y-75765613D01*
X170240522Y-75669581D01*
X170179643Y-75634432D01*
X170179642Y-75634431D01*
X170179641Y-75634431D01*
X169935418Y-75538580D01*
X169679627Y-75480197D01*
X169483499Y-75465500D01*
X169483494Y-75465500D01*
X169352506Y-75465500D01*
X169352501Y-75465500D01*
X169156372Y-75480197D01*
X168900581Y-75538580D01*
X168656358Y-75634431D01*
X168429143Y-75765613D01*
X168224015Y-75929198D01*
X168045571Y-76121514D01*
X167897771Y-76338298D01*
X167840301Y-76457636D01*
X167783937Y-76574677D01*
X167706604Y-76825385D01*
X167667500Y-77084818D01*
X167667500Y-77347182D01*
X157225500Y-77347182D01*
X157225500Y-75888687D01*
X157233736Y-75844249D01*
X157257347Y-75805717D01*
X157332533Y-75722216D01*
X157408112Y-75591310D01*
X157427179Y-75558284D01*
X157433581Y-75538580D01*
X157485674Y-75378256D01*
X157505460Y-75190000D01*
X157485674Y-75001744D01*
X157427179Y-74821716D01*
X157427179Y-74821715D01*
X157332533Y-74657783D01*
X157205870Y-74517110D01*
X157052730Y-74405848D01*
X156879802Y-74328855D01*
X156694648Y-74289500D01*
X156694646Y-74289500D01*
X156505354Y-74289500D01*
X156505352Y-74289500D01*
X156320197Y-74328855D01*
X156147269Y-74405848D01*
X155994129Y-74517110D01*
X155867466Y-74657783D01*
X155772820Y-74821715D01*
X155714326Y-75001742D01*
X155694540Y-75189999D01*
X155714326Y-75378257D01*
X155772820Y-75558284D01*
X155867464Y-75722213D01*
X155867467Y-75722216D01*
X155942652Y-75805717D01*
X155966264Y-75844249D01*
X155974500Y-75888687D01*
X155974500Y-109800500D01*
X155957887Y-109862500D01*
X155912500Y-109907887D01*
X155850500Y-109924500D01*
X138479500Y-109924500D01*
X138417500Y-109907887D01*
X138372113Y-109862500D01*
X138355500Y-109800500D01*
X138355500Y-99007355D01*
X141642843Y-99007355D01*
X141648050Y-99116648D01*
X141652852Y-99217460D01*
X141666828Y-99275069D01*
X141702442Y-99421871D01*
X141734232Y-99491481D01*
X141789822Y-99613208D01*
X141897509Y-99764431D01*
X141911831Y-99784544D01*
X142064063Y-99929697D01*
X142064065Y-99929698D01*
X142064066Y-99929699D01*
X142241009Y-100043414D01*
X142241014Y-100043416D01*
X142436288Y-100121593D01*
X142565084Y-100146416D01*
X142642828Y-100161400D01*
X142642829Y-100161400D01*
X142800463Y-100161400D01*
X142800468Y-100161400D01*
X142957389Y-100146416D01*
X143159211Y-100087156D01*
X143346170Y-99990771D01*
X143511510Y-99860747D01*
X143649255Y-99701781D01*
X143754426Y-99519619D01*
X143823222Y-99320846D01*
X143849919Y-99135167D01*
X145579833Y-99135167D01*
X145609911Y-99434145D01*
X145679569Y-99726448D01*
X145787567Y-100006857D01*
X145931978Y-100270374D01*
X146083705Y-100476300D01*
X146110223Y-100512290D01*
X146319121Y-100728289D01*
X146554946Y-100914518D01*
X146813487Y-101067652D01*
X147090133Y-101184960D01*
X147090134Y-101184960D01*
X147090136Y-101184961D01*
X147151908Y-101201882D01*
X147379946Y-101264348D01*
X147677755Y-101304400D01*
X147903033Y-101304400D01*
X147903035Y-101304400D01*
X148127820Y-101289352D01*
X148218915Y-101270836D01*
X148422287Y-101229499D01*
X148706151Y-101130931D01*
X148840247Y-101063168D01*
X148974340Y-100995409D01*
X148990772Y-100984129D01*
X149222080Y-100825346D01*
X149444939Y-100623782D01*
X149638943Y-100394312D01*
X149800631Y-100141032D01*
X149927118Y-99868460D01*
X150016146Y-99581462D01*
X150066126Y-99285158D01*
X150075414Y-99007355D01*
X151802843Y-99007355D01*
X151808050Y-99116648D01*
X151812852Y-99217460D01*
X151826828Y-99275069D01*
X151862442Y-99421871D01*
X151894232Y-99491481D01*
X151949822Y-99613208D01*
X152057509Y-99764431D01*
X152071831Y-99784544D01*
X152224063Y-99929697D01*
X152224065Y-99929698D01*
X152224066Y-99929699D01*
X152401009Y-100043414D01*
X152401014Y-100043416D01*
X152596288Y-100121593D01*
X152725084Y-100146416D01*
X152802828Y-100161400D01*
X152802829Y-100161400D01*
X152960463Y-100161400D01*
X152960468Y-100161400D01*
X153117389Y-100146416D01*
X153319211Y-100087156D01*
X153506170Y-99990771D01*
X153671510Y-99860747D01*
X153809255Y-99701781D01*
X153914426Y-99519619D01*
X153983222Y-99320846D01*
X154013157Y-99112645D01*
X154003148Y-98902541D01*
X153953558Y-98698129D01*
X153866179Y-98506795D01*
X153866178Y-98506794D01*
X153866177Y-98506791D01*
X153744170Y-98335458D01*
X153744169Y-98335456D01*
X153591937Y-98190303D01*
X153591934Y-98190301D01*
X153591933Y-98190300D01*
X153414990Y-98076585D01*
X153268634Y-98017992D01*
X153219712Y-97998407D01*
X153219711Y-97998406D01*
X153219709Y-97998406D01*
X153013172Y-97958600D01*
X153013171Y-97958600D01*
X152855532Y-97958600D01*
X152768353Y-97966924D01*
X152698607Y-97973584D01*
X152496786Y-98032844D01*
X152309832Y-98129227D01*
X152144491Y-98259252D01*
X152006743Y-98418220D01*
X151901574Y-98600379D01*
X151832777Y-98799154D01*
X151802843Y-99007352D01*
X151802843Y-99007355D01*
X150075414Y-99007355D01*
X150076167Y-98984836D01*
X150046089Y-98685855D01*
X149976430Y-98393551D01*
X149948174Y-98320187D01*
X149868432Y-98113142D01*
X149849490Y-98078578D01*
X149724021Y-97849625D01*
X149545777Y-97607710D01*
X149336879Y-97391711D01*
X149297329Y-97360479D01*
X149101053Y-97205481D01*
X148967152Y-97126172D01*
X148842513Y-97052348D01*
X148661407Y-96975552D01*
X148565863Y-96935038D01*
X148276058Y-96855653D01*
X148276057Y-96855652D01*
X148276054Y-96855652D01*
X147978245Y-96815600D01*
X147752967Y-96815600D01*
X147752965Y-96815600D01*
X147528179Y-96830647D01*
X147233715Y-96890500D01*
X146949845Y-96989070D01*
X146681659Y-97124590D01*
X146433919Y-97294654D01*
X146211062Y-97496216D01*
X146017057Y-97725687D01*
X145855367Y-97978970D01*
X145728883Y-98251537D01*
X145639854Y-98538537D01*
X145589874Y-98834841D01*
X145579833Y-99135167D01*
X143849919Y-99135167D01*
X143853157Y-99112645D01*
X143843148Y-98902541D01*
X143793558Y-98698129D01*
X143706179Y-98506795D01*
X143706178Y-98506794D01*
X143706177Y-98506791D01*
X143667883Y-98453015D01*
X143645062Y-98387620D01*
X143660876Y-98320187D01*
X143710390Y-98271755D01*
X143778156Y-98257435D01*
X143952501Y-98270500D01*
X143952506Y-98270500D01*
X144083494Y-98270500D01*
X144083499Y-98270500D01*
X144206078Y-98261313D01*
X144279630Y-98255802D01*
X144535416Y-98197420D01*
X144779643Y-98101568D01*
X145006857Y-97970386D01*
X145211981Y-97806805D01*
X145364881Y-97642018D01*
X145390428Y-97614485D01*
X145390431Y-97614481D01*
X145390433Y-97614479D01*
X145538228Y-97397704D01*
X145652063Y-97161323D01*
X145729396Y-96910615D01*
X145768500Y-96651182D01*
X145768500Y-96388818D01*
X145729396Y-96129385D01*
X145652063Y-95878677D01*
X145538228Y-95642296D01*
X145390433Y-95425521D01*
X145390432Y-95425520D01*
X145390428Y-95425514D01*
X145211984Y-95233198D01*
X145211983Y-95233197D01*
X145211981Y-95233195D01*
X145036739Y-95093444D01*
X145006856Y-95069613D01*
X144779641Y-94938431D01*
X144535418Y-94842580D01*
X144279627Y-94784197D01*
X144083499Y-94769500D01*
X144083494Y-94769500D01*
X143952506Y-94769500D01*
X143952501Y-94769500D01*
X143756372Y-94784197D01*
X143500581Y-94842580D01*
X143256358Y-94938431D01*
X143029143Y-95069613D01*
X142824015Y-95233198D01*
X142645571Y-95425514D01*
X142549906Y-95565829D01*
X142497772Y-95642296D01*
X142383937Y-95878677D01*
X142306604Y-96129385D01*
X142267500Y-96388818D01*
X142267500Y-96651182D01*
X142306604Y-96910615D01*
X142383937Y-97161323D01*
X142497772Y-97397704D01*
X142603516Y-97552801D01*
X142645568Y-97614481D01*
X142671119Y-97642018D01*
X142772281Y-97751045D01*
X142803102Y-97811712D01*
X142797268Y-97879508D01*
X142756535Y-97934018D01*
X142693171Y-97958824D01*
X142538612Y-97973583D01*
X142336786Y-98032844D01*
X142149832Y-98129227D01*
X141984491Y-98259252D01*
X141846743Y-98418220D01*
X141741574Y-98600379D01*
X141672777Y-98799154D01*
X141642843Y-99007352D01*
X141642843Y-99007355D01*
X138355500Y-99007355D01*
X138355500Y-94111182D01*
X148617500Y-94111182D01*
X148656604Y-94370615D01*
X148733937Y-94621323D01*
X148847772Y-94857704D01*
X148983766Y-95057170D01*
X148995571Y-95074485D01*
X149142836Y-95233198D01*
X149174019Y-95266805D01*
X149379143Y-95430386D01*
X149606357Y-95561568D01*
X149705674Y-95600547D01*
X149812048Y-95642296D01*
X149850584Y-95657420D01*
X150106370Y-95715802D01*
X150162408Y-95720001D01*
X150302501Y-95730500D01*
X150302506Y-95730500D01*
X150433494Y-95730500D01*
X150433499Y-95730500D01*
X150556079Y-95721313D01*
X150629630Y-95715802D01*
X150885416Y-95657420D01*
X151129643Y-95561568D01*
X151356857Y-95430386D01*
X151561981Y-95266805D01*
X151717914Y-95098749D01*
X151740428Y-95074485D01*
X151740429Y-95074482D01*
X151740433Y-95074479D01*
X151888228Y-94857704D01*
X152002063Y-94621323D01*
X152079396Y-94370615D01*
X152118500Y-94111182D01*
X152118500Y-93848818D01*
X152079396Y-93589385D01*
X152002063Y-93338677D01*
X151888228Y-93102296D01*
X151740433Y-92885521D01*
X151740432Y-92885520D01*
X151740428Y-92885514D01*
X151561984Y-92693198D01*
X151561983Y-92693197D01*
X151561981Y-92693195D01*
X151408138Y-92570509D01*
X151356856Y-92529613D01*
X151129641Y-92398431D01*
X150885418Y-92302580D01*
X150629627Y-92244197D01*
X150433499Y-92229500D01*
X150433494Y-92229500D01*
X150302506Y-92229500D01*
X150302501Y-92229500D01*
X150106372Y-92244197D01*
X149850581Y-92302580D01*
X149606358Y-92398431D01*
X149379143Y-92529613D01*
X149174015Y-92693198D01*
X148995571Y-92885514D01*
X148904005Y-93019818D01*
X148848447Y-93101307D01*
X148847771Y-93102298D01*
X148779623Y-93243809D01*
X148733937Y-93338677D01*
X148656604Y-93589385D01*
X148617500Y-93848818D01*
X148617500Y-94111182D01*
X138355500Y-94111182D01*
X138355500Y-80962744D01*
X138357764Y-80942236D01*
X138355561Y-80872113D01*
X138355500Y-80868219D01*
X138355500Y-80840654D01*
X138355500Y-80840650D01*
X138354997Y-80836670D01*
X138354081Y-80825028D01*
X138353875Y-80818460D01*
X138352710Y-80781373D01*
X138347118Y-80762126D01*
X138343174Y-80743085D01*
X138340664Y-80723208D01*
X138324579Y-80682583D01*
X138320808Y-80671568D01*
X138308618Y-80629610D01*
X138298414Y-80612355D01*
X138289861Y-80594895D01*
X138282486Y-80576269D01*
X138282486Y-80576268D01*
X138256808Y-80540925D01*
X138250401Y-80531171D01*
X138248694Y-80528284D01*
X138228170Y-80493580D01*
X138214005Y-80479415D01*
X138201367Y-80464617D01*
X138189595Y-80448413D01*
X138155941Y-80420573D01*
X138147299Y-80412709D01*
X137948960Y-80214369D01*
X137924720Y-80180071D01*
X137913321Y-80139655D01*
X137895674Y-79971744D01*
X137890999Y-79957355D01*
X141642843Y-79957355D01*
X141648050Y-80066648D01*
X141652852Y-80167460D01*
X141674290Y-80255826D01*
X141702442Y-80371871D01*
X141741916Y-80458307D01*
X141789822Y-80563208D01*
X141874842Y-80682600D01*
X141911831Y-80734544D01*
X142064063Y-80879697D01*
X142064065Y-80879698D01*
X142064066Y-80879699D01*
X142241009Y-80993414D01*
X142241014Y-80993416D01*
X142436288Y-81071593D01*
X142565084Y-81096416D01*
X142642828Y-81111400D01*
X142642829Y-81111400D01*
X142800463Y-81111400D01*
X142800468Y-81111400D01*
X142957389Y-81096416D01*
X143159211Y-81037156D01*
X143346170Y-80940771D01*
X143511510Y-80810747D01*
X143649255Y-80651781D01*
X143754426Y-80469619D01*
X143823222Y-80270846D01*
X143849919Y-80085167D01*
X145579833Y-80085167D01*
X145609911Y-80384145D01*
X145679569Y-80676448D01*
X145787567Y-80956857D01*
X145931978Y-81220374D01*
X146083705Y-81426300D01*
X146110223Y-81462290D01*
X146319121Y-81678289D01*
X146554946Y-81864518D01*
X146813487Y-82017652D01*
X147090133Y-82134960D01*
X147090134Y-82134960D01*
X147090136Y-82134961D01*
X147154010Y-82152457D01*
X147379946Y-82214348D01*
X147677755Y-82254400D01*
X147903033Y-82254400D01*
X147903035Y-82254400D01*
X148127820Y-82239352D01*
X148218915Y-82220836D01*
X148422287Y-82179499D01*
X148706151Y-82080931D01*
X148952318Y-81956537D01*
X148974340Y-81945409D01*
X149092178Y-81864518D01*
X149222080Y-81775346D01*
X149444939Y-81573782D01*
X149638943Y-81344312D01*
X149800631Y-81091032D01*
X149927118Y-80818460D01*
X150016146Y-80531462D01*
X150066126Y-80235158D01*
X150075414Y-79957355D01*
X151802843Y-79957355D01*
X151808050Y-80066648D01*
X151812852Y-80167460D01*
X151834290Y-80255826D01*
X151862442Y-80371871D01*
X151901916Y-80458307D01*
X151949822Y-80563208D01*
X152034842Y-80682600D01*
X152071831Y-80734544D01*
X152224063Y-80879697D01*
X152224065Y-80879698D01*
X152224066Y-80879699D01*
X152401009Y-80993414D01*
X152401014Y-80993416D01*
X152596288Y-81071593D01*
X152725084Y-81096416D01*
X152802828Y-81111400D01*
X152802829Y-81111400D01*
X152960463Y-81111400D01*
X152960468Y-81111400D01*
X153117389Y-81096416D01*
X153319211Y-81037156D01*
X153506170Y-80940771D01*
X153671510Y-80810747D01*
X153809255Y-80651781D01*
X153914426Y-80469619D01*
X153983222Y-80270846D01*
X154013157Y-80062645D01*
X154003148Y-79852541D01*
X153953558Y-79648129D01*
X153866179Y-79456795D01*
X153866178Y-79456794D01*
X153866177Y-79456791D01*
X153744170Y-79285458D01*
X153744169Y-79285456D01*
X153591937Y-79140303D01*
X153591934Y-79140301D01*
X153591933Y-79140300D01*
X153414990Y-79026585D01*
X153268634Y-78967992D01*
X153219712Y-78948407D01*
X153219711Y-78948406D01*
X153219709Y-78948406D01*
X153013172Y-78908600D01*
X153013171Y-78908600D01*
X152855532Y-78908600D01*
X152768353Y-78916924D01*
X152698607Y-78923584D01*
X152496786Y-78982844D01*
X152309832Y-79079227D01*
X152144491Y-79209252D01*
X152006743Y-79368220D01*
X151901574Y-79550379D01*
X151832777Y-79749154D01*
X151805384Y-79939681D01*
X151802843Y-79957355D01*
X150075414Y-79957355D01*
X150076167Y-79934836D01*
X150046089Y-79635855D01*
X149976430Y-79343551D01*
X149929521Y-79221755D01*
X149868432Y-79063142D01*
X149818411Y-78971866D01*
X149724021Y-78799625D01*
X149545777Y-78557710D01*
X149336879Y-78341711D01*
X149324855Y-78332216D01*
X149101053Y-78155481D01*
X148971218Y-78078580D01*
X148842513Y-78002348D01*
X148644320Y-77918307D01*
X148565863Y-77885038D01*
X148276058Y-77805653D01*
X148276057Y-77805652D01*
X148276054Y-77805652D01*
X147978245Y-77765600D01*
X147752967Y-77765600D01*
X147752965Y-77765600D01*
X147528179Y-77780647D01*
X147233715Y-77840500D01*
X146949845Y-77939070D01*
X146681659Y-78074590D01*
X146433919Y-78244654D01*
X146211062Y-78446216D01*
X146017057Y-78675687D01*
X145855367Y-78928970D01*
X145728883Y-79201537D01*
X145639854Y-79488537D01*
X145589874Y-79784841D01*
X145579833Y-80085167D01*
X143849919Y-80085167D01*
X143853157Y-80062645D01*
X143843148Y-79852541D01*
X143793558Y-79648129D01*
X143706179Y-79456795D01*
X143706178Y-79456794D01*
X143706177Y-79456791D01*
X143667883Y-79403015D01*
X143645062Y-79337620D01*
X143660876Y-79270187D01*
X143710390Y-79221755D01*
X143778156Y-79207435D01*
X143952501Y-79220500D01*
X143952506Y-79220500D01*
X144083494Y-79220500D01*
X144083499Y-79220500D01*
X144206079Y-79211313D01*
X144279630Y-79205802D01*
X144535416Y-79147420D01*
X144779643Y-79051568D01*
X145006857Y-78920386D01*
X145211981Y-78756805D01*
X145311273Y-78649792D01*
X145390428Y-78564485D01*
X145390431Y-78564481D01*
X145390433Y-78564479D01*
X145538228Y-78347704D01*
X145652063Y-78111323D01*
X145729396Y-77860615D01*
X145768500Y-77601182D01*
X145768500Y-77338818D01*
X145729396Y-77079385D01*
X145652063Y-76828677D01*
X145538228Y-76592296D01*
X145390433Y-76375521D01*
X145390432Y-76375520D01*
X145390428Y-76375514D01*
X145211984Y-76183198D01*
X145211983Y-76183197D01*
X145211981Y-76183195D01*
X145006857Y-76019614D01*
X145006856Y-76019613D01*
X144840522Y-75923581D01*
X144779643Y-75888432D01*
X144779642Y-75888431D01*
X144779641Y-75888431D01*
X144535418Y-75792580D01*
X144279627Y-75734197D01*
X144083499Y-75719500D01*
X144083494Y-75719500D01*
X143952506Y-75719500D01*
X143952501Y-75719500D01*
X143756372Y-75734197D01*
X143500581Y-75792580D01*
X143256358Y-75888431D01*
X143029143Y-76019613D01*
X142824015Y-76183198D01*
X142645571Y-76375514D01*
X142545070Y-76522922D01*
X142497772Y-76592296D01*
X142383937Y-76828677D01*
X142306604Y-77079385D01*
X142267500Y-77338818D01*
X142267500Y-77601182D01*
X142306604Y-77860615D01*
X142383937Y-78111323D01*
X142497772Y-78347704D01*
X142583121Y-78472888D01*
X142645568Y-78564481D01*
X142724572Y-78649626D01*
X142772281Y-78701045D01*
X142803102Y-78761712D01*
X142797268Y-78829508D01*
X142756535Y-78884018D01*
X142693171Y-78908824D01*
X142538612Y-78923583D01*
X142336786Y-78982844D01*
X142149832Y-79079227D01*
X141984491Y-79209252D01*
X141846743Y-79368220D01*
X141741574Y-79550379D01*
X141672777Y-79749154D01*
X141645384Y-79939681D01*
X141642843Y-79957355D01*
X137890999Y-79957355D01*
X137837179Y-79791716D01*
X137837179Y-79791715D01*
X137742533Y-79627783D01*
X137615870Y-79487110D01*
X137462730Y-79375848D01*
X137289802Y-79298855D01*
X137104648Y-79259500D01*
X137104646Y-79259500D01*
X136915354Y-79259500D01*
X136915352Y-79259500D01*
X136730197Y-79298855D01*
X136557269Y-79375848D01*
X136404129Y-79487110D01*
X136277466Y-79627783D01*
X136182820Y-79791715D01*
X136124326Y-79971742D01*
X136104540Y-80160000D01*
X136124326Y-80348257D01*
X136182820Y-80528284D01*
X136277466Y-80692216D01*
X136404129Y-80832889D01*
X136557269Y-80944151D01*
X136730197Y-81021144D01*
X136915352Y-81060500D01*
X136915354Y-81060500D01*
X136974548Y-81060500D01*
X137022001Y-81069939D01*
X137062229Y-81096819D01*
X137068181Y-81102771D01*
X137095061Y-81142999D01*
X137104500Y-81190452D01*
X137104500Y-110250500D01*
X137087887Y-110312500D01*
X137042500Y-110357887D01*
X136980500Y-110374500D01*
X119629500Y-110374500D01*
X119567500Y-110357887D01*
X119522113Y-110312500D01*
X119505500Y-110250500D01*
X119505500Y-101293355D01*
X122592843Y-101293355D01*
X122602852Y-101503459D01*
X122652442Y-101707871D01*
X122665569Y-101736615D01*
X122739822Y-101899208D01*
X122822656Y-102015531D01*
X122861831Y-102070544D01*
X123014063Y-102215697D01*
X123014065Y-102215698D01*
X123014066Y-102215699D01*
X123191009Y-102329414D01*
X123191014Y-102329416D01*
X123386288Y-102407593D01*
X123515084Y-102432416D01*
X123592828Y-102447400D01*
X123592829Y-102447400D01*
X123750463Y-102447400D01*
X123750468Y-102447400D01*
X123907389Y-102432416D01*
X124109211Y-102373156D01*
X124296170Y-102276771D01*
X124461510Y-102146747D01*
X124599255Y-101987781D01*
X124704426Y-101805619D01*
X124773222Y-101606846D01*
X124799919Y-101421167D01*
X126529833Y-101421167D01*
X126559911Y-101720145D01*
X126629569Y-102012448D01*
X126737567Y-102292857D01*
X126818469Y-102440485D01*
X126881979Y-102556375D01*
X127060223Y-102798290D01*
X127269121Y-103014289D01*
X127504946Y-103200518D01*
X127763487Y-103353652D01*
X128040133Y-103470960D01*
X128040134Y-103470960D01*
X128040136Y-103470961D01*
X128104010Y-103488457D01*
X128329946Y-103550348D01*
X128627755Y-103590400D01*
X128853033Y-103590400D01*
X128853035Y-103590400D01*
X129077820Y-103575352D01*
X129151436Y-103560388D01*
X129372287Y-103515499D01*
X129656151Y-103416931D01*
X129790246Y-103349169D01*
X129924340Y-103281409D01*
X129924343Y-103281407D01*
X130172080Y-103111346D01*
X130394939Y-102909782D01*
X130588943Y-102680312D01*
X130750631Y-102427032D01*
X130877118Y-102154460D01*
X130966146Y-101867462D01*
X131016126Y-101571158D01*
X131025414Y-101293355D01*
X132752843Y-101293355D01*
X132762852Y-101503459D01*
X132812442Y-101707871D01*
X132825569Y-101736615D01*
X132899822Y-101899208D01*
X132982656Y-102015531D01*
X133021831Y-102070544D01*
X133174063Y-102215697D01*
X133174065Y-102215698D01*
X133174066Y-102215699D01*
X133351009Y-102329414D01*
X133351014Y-102329416D01*
X133546288Y-102407593D01*
X133675084Y-102432416D01*
X133752828Y-102447400D01*
X133752829Y-102447400D01*
X133910463Y-102447400D01*
X133910468Y-102447400D01*
X134067389Y-102432416D01*
X134269211Y-102373156D01*
X134456170Y-102276771D01*
X134621510Y-102146747D01*
X134759255Y-101987781D01*
X134864426Y-101805619D01*
X134933222Y-101606846D01*
X134963157Y-101398645D01*
X134953148Y-101188541D01*
X134903558Y-100984129D01*
X134816179Y-100792795D01*
X134816178Y-100792794D01*
X134816177Y-100792791D01*
X134694170Y-100621458D01*
X134694169Y-100621456D01*
X134541937Y-100476303D01*
X134541934Y-100476301D01*
X134541933Y-100476300D01*
X134364990Y-100362585D01*
X134218634Y-100303992D01*
X134169712Y-100284407D01*
X134169711Y-100284406D01*
X134169709Y-100284406D01*
X133963172Y-100244600D01*
X133963171Y-100244600D01*
X133805532Y-100244600D01*
X133718353Y-100252924D01*
X133648607Y-100259584D01*
X133446786Y-100318844D01*
X133259832Y-100415227D01*
X133094491Y-100545252D01*
X132956743Y-100704220D01*
X132851574Y-100886379D01*
X132782777Y-101085154D01*
X132752843Y-101293352D01*
X132752843Y-101293355D01*
X131025414Y-101293355D01*
X131026167Y-101270836D01*
X130996089Y-100971855D01*
X130926430Y-100679551D01*
X130879521Y-100557755D01*
X130818432Y-100399142D01*
X130768411Y-100307866D01*
X130674021Y-100135625D01*
X130495777Y-99893710D01*
X130286879Y-99677711D01*
X130275316Y-99668580D01*
X130051053Y-99491481D01*
X129921783Y-99414915D01*
X129792513Y-99338348D01*
X129611407Y-99261552D01*
X129515863Y-99221038D01*
X129226058Y-99141653D01*
X129226057Y-99141652D01*
X129226054Y-99141652D01*
X128928245Y-99101600D01*
X128702967Y-99101600D01*
X128702965Y-99101600D01*
X128478179Y-99116647D01*
X128183715Y-99176500D01*
X127899845Y-99275070D01*
X127631659Y-99410590D01*
X127383919Y-99580654D01*
X127161062Y-99782216D01*
X126967057Y-100011687D01*
X126805367Y-100264970D01*
X126678883Y-100537537D01*
X126589854Y-100824537D01*
X126564836Y-100972853D01*
X126539874Y-101120842D01*
X126537165Y-101201882D01*
X126529833Y-101421167D01*
X124799919Y-101421167D01*
X124803157Y-101398645D01*
X124793148Y-101188541D01*
X124743558Y-100984129D01*
X124656179Y-100792795D01*
X124656178Y-100792794D01*
X124656177Y-100792791D01*
X124617883Y-100739015D01*
X124595062Y-100673620D01*
X124610876Y-100606187D01*
X124660390Y-100557755D01*
X124728156Y-100543435D01*
X124902501Y-100556500D01*
X124902506Y-100556500D01*
X125033494Y-100556500D01*
X125033499Y-100556500D01*
X125156078Y-100547313D01*
X125229630Y-100541802D01*
X125485416Y-100483420D01*
X125729643Y-100387568D01*
X125956857Y-100256386D01*
X126161981Y-100092805D01*
X126313323Y-99929697D01*
X126340428Y-99900485D01*
X126340431Y-99900481D01*
X126340433Y-99900479D01*
X126488228Y-99683704D01*
X126602063Y-99447323D01*
X126679396Y-99196615D01*
X126718500Y-98937182D01*
X126718500Y-98674818D01*
X126679396Y-98415385D01*
X126602063Y-98164677D01*
X126488228Y-97928296D01*
X126340433Y-97711521D01*
X126340432Y-97711520D01*
X126340428Y-97711514D01*
X126161984Y-97519198D01*
X126161983Y-97519197D01*
X126161981Y-97519195D01*
X125956857Y-97355614D01*
X125956856Y-97355613D01*
X125729641Y-97224431D01*
X125485418Y-97128580D01*
X125229627Y-97070197D01*
X125033499Y-97055500D01*
X125033494Y-97055500D01*
X124902506Y-97055500D01*
X124902501Y-97055500D01*
X124706372Y-97070197D01*
X124450581Y-97128580D01*
X124206358Y-97224431D01*
X123979143Y-97355613D01*
X123774015Y-97519198D01*
X123595571Y-97711514D01*
X123501409Y-97849625D01*
X123457705Y-97913728D01*
X123447771Y-97928298D01*
X123430879Y-97963374D01*
X123333937Y-98164677D01*
X123256604Y-98415385D01*
X123217500Y-98674818D01*
X123217500Y-98937182D01*
X123256604Y-99196615D01*
X123333937Y-99447323D01*
X123447772Y-99683704D01*
X123514938Y-99782218D01*
X123595568Y-99900481D01*
X123622677Y-99929697D01*
X123722281Y-100037045D01*
X123753102Y-100097712D01*
X123747268Y-100165508D01*
X123706535Y-100220018D01*
X123643171Y-100244824D01*
X123488612Y-100259583D01*
X123286786Y-100318844D01*
X123099832Y-100415227D01*
X122934491Y-100545252D01*
X122796743Y-100704220D01*
X122691574Y-100886379D01*
X122622777Y-101085154D01*
X122592843Y-101293352D01*
X122592843Y-101293355D01*
X119505500Y-101293355D01*
X119505500Y-96397182D01*
X129567500Y-96397182D01*
X129606604Y-96656615D01*
X129683937Y-96907323D01*
X129797772Y-97143704D01*
X129905220Y-97301301D01*
X129945571Y-97360485D01*
X130092836Y-97519198D01*
X130124019Y-97552805D01*
X130329143Y-97716386D01*
X130556357Y-97847568D01*
X130637739Y-97879508D01*
X130784903Y-97937266D01*
X130800584Y-97943420D01*
X131056370Y-98001802D01*
X131112408Y-98006001D01*
X131252501Y-98016500D01*
X131252506Y-98016500D01*
X131383494Y-98016500D01*
X131383499Y-98016500D01*
X131506756Y-98007263D01*
X131579630Y-98001802D01*
X131835416Y-97943420D01*
X132079643Y-97847568D01*
X132306857Y-97716386D01*
X132511981Y-97552805D01*
X132655485Y-97398144D01*
X132690428Y-97360485D01*
X132690429Y-97360482D01*
X132690433Y-97360479D01*
X132838228Y-97143704D01*
X132952063Y-96907323D01*
X133029396Y-96656615D01*
X133068500Y-96397182D01*
X133068500Y-96134818D01*
X133029396Y-95875385D01*
X132952063Y-95624677D01*
X132838228Y-95388296D01*
X132690433Y-95171521D01*
X132690432Y-95171520D01*
X132690428Y-95171514D01*
X132511984Y-94979198D01*
X132511983Y-94979197D01*
X132511981Y-94979195D01*
X132306857Y-94815614D01*
X132306856Y-94815613D01*
X132079641Y-94684431D01*
X131835418Y-94588580D01*
X131579627Y-94530197D01*
X131383499Y-94515500D01*
X131383494Y-94515500D01*
X131252506Y-94515500D01*
X131252501Y-94515500D01*
X131056372Y-94530197D01*
X130800581Y-94588580D01*
X130556358Y-94684431D01*
X130329143Y-94815613D01*
X130124015Y-94979198D01*
X129945571Y-95171514D01*
X129797771Y-95388298D01*
X129686567Y-95619215D01*
X129683937Y-95624677D01*
X129606604Y-95875385D01*
X129567500Y-96134818D01*
X129567500Y-96397182D01*
X119505500Y-96397182D01*
X119505500Y-84592744D01*
X119507764Y-84572237D01*
X119505561Y-84502127D01*
X119505500Y-84498232D01*
X119505500Y-84470653D01*
X119504997Y-84466672D01*
X119504080Y-84455019D01*
X119502709Y-84411373D01*
X119497120Y-84392140D01*
X119493174Y-84373082D01*
X119490664Y-84353206D01*
X119474588Y-84312604D01*
X119470804Y-84301553D01*
X119464881Y-84281168D01*
X119458618Y-84259610D01*
X119448414Y-84242355D01*
X119439861Y-84224895D01*
X119432486Y-84206269D01*
X119432486Y-84206268D01*
X119406808Y-84170925D01*
X119400401Y-84161171D01*
X119376981Y-84121569D01*
X119354720Y-84090072D01*
X119343321Y-84049656D01*
X119325674Y-83881744D01*
X119267179Y-83701716D01*
X119267179Y-83701715D01*
X119172533Y-83537783D01*
X119045870Y-83397110D01*
X118892730Y-83285848D01*
X118719802Y-83208855D01*
X118534648Y-83169500D01*
X118534646Y-83169500D01*
X118345354Y-83169500D01*
X118345352Y-83169500D01*
X118160197Y-83208855D01*
X117987269Y-83285848D01*
X117834129Y-83397110D01*
X117707466Y-83537783D01*
X117612820Y-83701715D01*
X117554326Y-83881742D01*
X117534540Y-84069999D01*
X117554326Y-84258257D01*
X117612820Y-84438284D01*
X117707466Y-84602216D01*
X117834129Y-84742889D01*
X117987267Y-84854150D01*
X118060451Y-84886733D01*
X118160197Y-84931144D01*
X118160198Y-84931144D01*
X118172102Y-84936444D01*
X118171643Y-84937474D01*
X118206845Y-84953891D01*
X118241951Y-84997246D01*
X118254500Y-85051602D01*
X118254500Y-110929151D01*
X118252304Y-110952385D01*
X118250772Y-110960412D01*
X118254255Y-111015759D01*
X118254500Y-111023545D01*
X118254500Y-111039350D01*
X118256481Y-111055037D01*
X118257213Y-111062787D01*
X118260695Y-111118137D01*
X118263220Y-111125908D01*
X118268310Y-111148678D01*
X118269335Y-111156788D01*
X118269336Y-111156792D01*
X118289602Y-111207978D01*
X118289753Y-111208360D01*
X118292390Y-111215684D01*
X118300755Y-111241427D01*
X118309533Y-111268441D01*
X118309534Y-111268442D01*
X118313910Y-111275339D01*
X118324500Y-111296123D01*
X118327513Y-111303732D01*
X118360120Y-111348612D01*
X118364498Y-111355053D01*
X118394214Y-111401877D01*
X118400167Y-111407467D01*
X118415603Y-111424976D01*
X118420406Y-111431587D01*
X118463146Y-111466945D01*
X118468978Y-111472087D01*
X118509418Y-111510062D01*
X118516578Y-111513998D01*
X118535883Y-111527117D01*
X118542179Y-111532326D01*
X118592363Y-111555941D01*
X118599302Y-111559476D01*
X118634120Y-111578617D01*
X118647908Y-111586197D01*
X118655822Y-111588228D01*
X118677774Y-111596132D01*
X118680425Y-111597379D01*
X118685174Y-111599614D01*
X118739673Y-111610010D01*
X118747263Y-111611707D01*
X118800981Y-111625500D01*
X118809151Y-111625500D01*
X118832385Y-111627696D01*
X118840412Y-111629227D01*
X118895759Y-111625745D01*
X118903545Y-111625500D01*
X184813652Y-111625500D01*
X184834158Y-111627764D01*
X184837061Y-111627672D01*
X184837063Y-111627673D01*
X184904268Y-111625561D01*
X184908164Y-111625500D01*
X184935745Y-111625500D01*
X184935746Y-111625500D01*
X184939715Y-111624998D01*
X184951361Y-111624080D01*
X184995023Y-111622709D01*
X185014255Y-111617120D01*
X185033314Y-111613174D01*
X185044921Y-111611708D01*
X185053188Y-111610664D01*
X185093803Y-111594582D01*
X185104840Y-111590803D01*
X185146786Y-111578618D01*
X185164025Y-111568422D01*
X185181498Y-111559862D01*
X185182473Y-111559476D01*
X185200128Y-111552486D01*
X185235460Y-111526814D01*
X185245226Y-111520400D01*
X185247018Y-111519340D01*
X185282816Y-111498170D01*
X185296981Y-111484004D01*
X185311769Y-111471373D01*
X185327983Y-111459594D01*
X185355834Y-111425926D01*
X185363675Y-111417309D01*
X194752818Y-102028168D01*
X194802182Y-101997918D01*
X194859898Y-101993376D01*
X194913385Y-102015531D01*
X194950985Y-102059554D01*
X194964500Y-102115849D01*
X194964500Y-115729480D01*
X194952421Y-115782863D01*
X194918536Y-115825846D01*
X194869448Y-115850054D01*
X194814720Y-115850770D01*
X194714649Y-115829500D01*
X194714646Y-115829500D01*
X194525354Y-115829500D01*
X194525352Y-115829500D01*
X194340197Y-115868855D01*
X194167272Y-115945847D01*
X194065175Y-116020024D01*
X194014129Y-116057112D01*
X194008401Y-116063473D01*
X193966688Y-116093780D01*
X193916253Y-116104500D01*
X193260452Y-116104500D01*
X193212999Y-116095061D01*
X193172771Y-116068181D01*
X190960802Y-113856211D01*
X190947906Y-113840113D01*
X190896775Y-113792098D01*
X190893978Y-113789387D01*
X190874470Y-113769879D01*
X190871290Y-113767412D01*
X190862424Y-113759839D01*
X190830582Y-113729938D01*
X190813024Y-113720285D01*
X190796764Y-113709604D01*
X190780936Y-113697327D01*
X190740851Y-113679980D01*
X190730361Y-113674841D01*
X190692091Y-113653802D01*
X190672691Y-113648821D01*
X190654284Y-113642519D01*
X190635897Y-113634562D01*
X190592758Y-113627729D01*
X190581324Y-113625361D01*
X190539019Y-113614500D01*
X190518984Y-113614500D01*
X190499586Y-113612973D01*
X190492162Y-113611797D01*
X190479805Y-113609840D01*
X190479804Y-113609840D01*
X190454468Y-113612235D01*
X190436325Y-113613950D01*
X190424656Y-113614500D01*
X190382744Y-113614500D01*
X190362236Y-113612235D01*
X190292113Y-113614439D01*
X190288219Y-113614500D01*
X190260650Y-113614500D01*
X190256671Y-113615002D01*
X190245041Y-113615917D01*
X190201372Y-113617289D01*
X190182128Y-113622880D01*
X190163084Y-113626824D01*
X190143208Y-113629335D01*
X190102600Y-113645413D01*
X190091554Y-113649194D01*
X190049610Y-113661382D01*
X190049607Y-113661383D01*
X190032365Y-113671579D01*
X190014904Y-113680133D01*
X189996267Y-113687512D01*
X189960931Y-113713185D01*
X189951174Y-113719595D01*
X189913580Y-113741829D01*
X189899413Y-113755996D01*
X189884624Y-113768626D01*
X189868415Y-113780402D01*
X189840574Y-113814057D01*
X189832712Y-113822696D01*
X189646206Y-114009201D01*
X189630109Y-114022098D01*
X189582096Y-114073225D01*
X189579391Y-114076017D01*
X189559874Y-114095534D01*
X189557415Y-114098705D01*
X189549840Y-114107574D01*
X189528779Y-114130002D01*
X189476702Y-114163051D01*
X189415145Y-114166922D01*
X189383163Y-114151870D01*
X189381998Y-114154346D01*
X189345846Y-114137334D01*
X189317633Y-114124058D01*
X189310700Y-114120525D01*
X189262093Y-114093803D01*
X189258813Y-114092961D01*
X189254173Y-114091769D01*
X189232223Y-114083866D01*
X189224826Y-114080386D01*
X189224824Y-114080385D01*
X189170356Y-114069994D01*
X189162759Y-114068296D01*
X189109021Y-114054500D01*
X189109019Y-114054500D01*
X189100849Y-114054500D01*
X189077615Y-114052304D01*
X189069587Y-114050772D01*
X189014241Y-114054255D01*
X189006455Y-114054500D01*
X185791796Y-114054500D01*
X185741361Y-114043780D01*
X185699646Y-114013472D01*
X185695800Y-114009201D01*
X185663001Y-113972773D01*
X185585870Y-113887110D01*
X185432730Y-113775848D01*
X185259802Y-113698855D01*
X185074648Y-113659500D01*
X185074646Y-113659500D01*
X184885354Y-113659500D01*
X184864235Y-113663988D01*
X184811507Y-113675196D01*
X184751547Y-113673101D01*
X184699589Y-113643103D01*
X184667796Y-113592223D01*
X184627179Y-113467215D01*
X184532533Y-113303283D01*
X184405870Y-113162610D01*
X184252730Y-113051348D01*
X184079802Y-112974355D01*
X183894648Y-112935000D01*
X183894646Y-112935000D01*
X183705354Y-112935000D01*
X183705352Y-112935000D01*
X183520197Y-112974355D01*
X183347269Y-113051348D01*
X183327707Y-113065561D01*
X183267783Y-113088563D01*
X183204387Y-113078521D01*
X183154504Y-113038127D01*
X183131503Y-112978205D01*
X183125674Y-112922744D01*
X183067179Y-112742716D01*
X183067179Y-112742715D01*
X182972533Y-112578783D01*
X182845870Y-112438110D01*
X182692730Y-112326848D01*
X182519802Y-112249855D01*
X182334648Y-112210500D01*
X182334646Y-112210500D01*
X182145354Y-112210500D01*
X182145352Y-112210500D01*
X181960197Y-112249855D01*
X181787269Y-112326848D01*
X181634129Y-112438110D01*
X181507466Y-112578783D01*
X181412820Y-112742715D01*
X181354326Y-112922742D01*
X181334540Y-113110999D01*
X181354326Y-113299257D01*
X181412820Y-113479284D01*
X181507464Y-113643213D01*
X181522129Y-113659500D01*
X181582652Y-113726717D01*
X181606264Y-113765249D01*
X181614500Y-113809687D01*
X181614500Y-121117256D01*
X181612235Y-121137762D01*
X181614439Y-121207873D01*
X181614500Y-121211768D01*
X181614500Y-121239349D01*
X181615003Y-121243334D01*
X181615918Y-121254967D01*
X181617290Y-121298626D01*
X181622879Y-121317860D01*
X181626825Y-121336916D01*
X181629335Y-121356792D01*
X181645414Y-121397404D01*
X181649197Y-121408451D01*
X181661382Y-121450391D01*
X181671580Y-121467635D01*
X181680136Y-121485100D01*
X181687514Y-121503732D01*
X181687515Y-121503733D01*
X181713180Y-121539059D01*
X181719593Y-121548821D01*
X181725937Y-121559547D01*
X181741830Y-121586420D01*
X181755997Y-121600588D01*
X181768627Y-121615376D01*
X181780405Y-121631586D01*
X181814055Y-121659423D01*
X181822694Y-121667284D01*
X181829199Y-121673789D01*
X181842100Y-121689891D01*
X181844212Y-121691875D01*
X181844214Y-121691877D01*
X181891044Y-121735854D01*
X181893226Y-121737903D01*
X181896022Y-121740613D01*
X181915529Y-121760120D01*
X181918711Y-121762588D01*
X181927571Y-121770155D01*
X181959418Y-121800062D01*
X181976970Y-121809711D01*
X181993238Y-121820397D01*
X182009064Y-121832673D01*
X182049146Y-121850017D01*
X182059633Y-121855155D01*
X182097907Y-121876197D01*
X182106410Y-121878379D01*
X182117308Y-121881178D01*
X182135713Y-121887478D01*
X182154104Y-121895437D01*
X182197250Y-121902270D01*
X182208668Y-121904635D01*
X182250981Y-121915500D01*
X182271016Y-121915500D01*
X182290415Y-121917027D01*
X182310196Y-121920160D01*
X182353674Y-121916050D01*
X182365344Y-121915500D01*
X186147256Y-121915500D01*
X186167762Y-121917764D01*
X186170665Y-121917672D01*
X186170667Y-121917673D01*
X186237872Y-121915561D01*
X186241768Y-121915500D01*
X186269349Y-121915500D01*
X186269350Y-121915500D01*
X186273319Y-121914998D01*
X186284965Y-121914080D01*
X186328627Y-121912709D01*
X186347859Y-121907120D01*
X186366918Y-121903174D01*
X186374099Y-121902267D01*
X186386792Y-121900664D01*
X186427407Y-121884582D01*
X186438444Y-121880803D01*
X186480390Y-121868618D01*
X186497629Y-121858422D01*
X186515102Y-121849862D01*
X186533732Y-121842486D01*
X186569064Y-121816814D01*
X186578830Y-121810400D01*
X186616418Y-121788171D01*
X186616417Y-121788171D01*
X186616420Y-121788170D01*
X186630585Y-121774004D01*
X186645373Y-121761373D01*
X186661587Y-121749594D01*
X186689437Y-121715927D01*
X186697278Y-121707310D01*
X186923786Y-121480802D01*
X186939882Y-121467909D01*
X186941873Y-121465788D01*
X186941877Y-121465786D01*
X186987934Y-121416739D01*
X186990582Y-121414007D01*
X187010120Y-121394471D01*
X187012581Y-121391298D01*
X187020156Y-121382427D01*
X187050062Y-121350582D01*
X187059717Y-121333018D01*
X187070394Y-121316764D01*
X187082673Y-121300936D01*
X187100018Y-121260852D01*
X187105160Y-121250356D01*
X187105834Y-121249130D01*
X187126197Y-121212092D01*
X187131179Y-121192684D01*
X187137481Y-121174280D01*
X187145437Y-121155896D01*
X187152269Y-121112752D01*
X187154633Y-121101338D01*
X187165500Y-121059019D01*
X187165500Y-121038984D01*
X187167027Y-121019585D01*
X187167068Y-121019321D01*
X187170160Y-120999804D01*
X187166050Y-120956325D01*
X187165500Y-120944656D01*
X187165500Y-120704500D01*
X187182113Y-120642500D01*
X187227500Y-120597113D01*
X187289500Y-120580500D01*
X187777670Y-120580499D01*
X187777872Y-120580499D01*
X187837483Y-120574091D01*
X187972331Y-120523796D01*
X187972335Y-120523792D01*
X187986665Y-120518448D01*
X188029999Y-120510630D01*
X188073333Y-120518448D01*
X188087666Y-120523794D01*
X188087669Y-120523796D01*
X188222517Y-120574091D01*
X188282127Y-120580500D01*
X188777872Y-120580499D01*
X188780500Y-120580499D01*
X188842500Y-120597112D01*
X188887887Y-120642499D01*
X188904500Y-120704499D01*
X188904500Y-121559547D01*
X188895061Y-121607000D01*
X188868181Y-121647228D01*
X175933135Y-134582272D01*
X175904622Y-134603564D01*
X175871237Y-134615881D01*
X175810197Y-134628856D01*
X175637267Y-134705849D01*
X175484129Y-134817110D01*
X175357466Y-134957783D01*
X175262820Y-135121715D01*
X175204326Y-135301742D01*
X175184540Y-135490000D01*
X175204326Y-135678257D01*
X175262820Y-135858284D01*
X175357466Y-136022216D01*
X175484129Y-136162889D01*
X175637269Y-136274151D01*
X175810197Y-136351144D01*
X175995352Y-136390500D01*
X175995354Y-136390500D01*
X176184646Y-136390500D01*
X176184648Y-136390500D01*
X176308084Y-136364262D01*
X176369803Y-136351144D01*
X176542730Y-136274151D01*
X176689395Y-136167593D01*
X176695870Y-136162889D01*
X176822533Y-136022216D01*
X176917179Y-135858284D01*
X176937920Y-135794449D01*
X176975674Y-135678256D01*
X176995460Y-135490000D01*
X176982537Y-135367052D01*
X176988972Y-135312699D01*
X177018176Y-135266412D01*
X189506093Y-122778496D01*
X189555453Y-122748248D01*
X189613168Y-122743705D01*
X189624101Y-122745436D01*
X189624105Y-122745438D01*
X189667258Y-122752272D01*
X189678680Y-122754638D01*
X189694222Y-122758629D01*
X189720980Y-122765500D01*
X189720981Y-122765500D01*
X189741016Y-122765500D01*
X189760413Y-122767026D01*
X189780196Y-122770160D01*
X189823674Y-122766050D01*
X189835344Y-122765500D01*
X191727256Y-122765500D01*
X191747762Y-122767764D01*
X191750665Y-122767672D01*
X191750667Y-122767673D01*
X191817872Y-122765561D01*
X191821768Y-122765500D01*
X191849349Y-122765500D01*
X191849350Y-122765500D01*
X191853319Y-122764998D01*
X191864965Y-122764080D01*
X191908627Y-122762709D01*
X191927859Y-122757120D01*
X191946918Y-122753174D01*
X191954091Y-122752268D01*
X191966792Y-122750664D01*
X192007407Y-122734582D01*
X192018444Y-122730803D01*
X192060390Y-122718618D01*
X192077629Y-122708422D01*
X192095102Y-122699862D01*
X192113732Y-122692486D01*
X192149064Y-122666814D01*
X192158830Y-122660400D01*
X192196418Y-122638171D01*
X192196417Y-122638171D01*
X192196420Y-122638170D01*
X192210585Y-122624004D01*
X192225373Y-122611373D01*
X192241587Y-122599594D01*
X192269438Y-122565926D01*
X192277279Y-122557309D01*
X195841245Y-118993344D01*
X195893936Y-118962065D01*
X195955174Y-118959837D01*
X196010002Y-118987206D01*
X196045028Y-119037487D01*
X196051701Y-119098401D01*
X194010423Y-133523431D01*
X194009204Y-133529769D01*
X194009374Y-133530597D01*
X194013118Y-133536109D01*
X194347940Y-134088408D01*
X196138235Y-137041558D01*
X196138591Y-137042471D01*
X196149573Y-137060261D01*
X196149575Y-137060264D01*
X196163070Y-137082126D01*
X196163750Y-137082825D01*
X196710232Y-137952618D01*
X198027216Y-140048763D01*
X198045517Y-140101548D01*
X198038789Y-140157010D01*
X190944289Y-159716424D01*
X190905844Y-159770437D01*
X190845067Y-159796924D01*
X190779331Y-159788312D01*
X187902502Y-158568994D01*
X187899862Y-158567214D01*
X187881990Y-158560239D01*
X187878390Y-158558769D01*
X187868422Y-158554513D01*
X187865575Y-158553788D01*
X182160291Y-156309576D01*
X182159603Y-156309302D01*
X174759312Y-153347191D01*
X174755636Y-153344964D01*
X174742795Y-153340452D01*
X174737638Y-153338510D01*
X174724323Y-153333155D01*
X174720042Y-153332422D01*
X169548884Y-151506139D01*
X169544359Y-151503681D01*
X169532824Y-151500305D01*
X169527517Y-151498622D01*
X169518398Y-151495502D01*
X169513528Y-151494828D01*
X157810040Y-148189492D01*
X152390330Y-146659573D01*
X152390044Y-146659492D01*
X152389814Y-146659426D01*
X152389448Y-146659326D01*
X151046690Y-146284143D01*
X151040092Y-146281278D01*
X151035886Y-146280533D01*
X151024444Y-146277941D01*
X151021284Y-146277066D01*
X151014303Y-146276753D01*
X150145165Y-146125167D01*
X182409833Y-146125167D01*
X182439911Y-146424145D01*
X182509569Y-146716448D01*
X182617567Y-146996857D01*
X182747663Y-147234253D01*
X182761979Y-147260375D01*
X182940223Y-147502290D01*
X183149121Y-147718289D01*
X183384946Y-147904518D01*
X183643487Y-148057652D01*
X183920133Y-148174960D01*
X183920134Y-148174960D01*
X183920136Y-148174961D01*
X183973183Y-148189492D01*
X184209946Y-148254348D01*
X184507755Y-148294400D01*
X184733033Y-148294400D01*
X184733035Y-148294400D01*
X184957820Y-148279352D01*
X185031435Y-148264388D01*
X185252287Y-148219499D01*
X185536151Y-148120931D01*
X185679869Y-148048307D01*
X185804340Y-147985409D01*
X185804343Y-147985407D01*
X186052080Y-147815346D01*
X186141117Y-147734817D01*
X188326482Y-147734817D01*
X188336491Y-147944921D01*
X188386081Y-148149333D01*
X188404885Y-148190508D01*
X188473461Y-148340670D01*
X188582401Y-148493653D01*
X188595470Y-148512006D01*
X188747702Y-148657159D01*
X188747704Y-148657160D01*
X188747705Y-148657161D01*
X188924648Y-148770876D01*
X188924653Y-148770878D01*
X189119927Y-148849055D01*
X189248723Y-148873878D01*
X189326467Y-148888862D01*
X189326468Y-148888862D01*
X189484102Y-148888862D01*
X189484107Y-148888862D01*
X189641028Y-148873878D01*
X189842850Y-148814618D01*
X190029809Y-148718233D01*
X190195149Y-148588209D01*
X190332894Y-148429243D01*
X190438065Y-148247081D01*
X190506861Y-148048308D01*
X190536796Y-147840107D01*
X190526787Y-147630003D01*
X190477197Y-147425591D01*
X190389818Y-147234257D01*
X190389817Y-147234256D01*
X190389816Y-147234253D01*
X190294510Y-147100416D01*
X190267808Y-147062918D01*
X190115576Y-146917765D01*
X190115573Y-146917763D01*
X190115572Y-146917762D01*
X189938629Y-146804047D01*
X189792273Y-146745454D01*
X189743351Y-146725869D01*
X189743350Y-146725868D01*
X189743348Y-146725868D01*
X189536811Y-146686062D01*
X189536810Y-146686062D01*
X189379171Y-146686062D01*
X189291992Y-146694386D01*
X189222246Y-146701046D01*
X189020425Y-146760306D01*
X188833471Y-146856689D01*
X188668130Y-146986714D01*
X188530382Y-147145682D01*
X188425213Y-147327841D01*
X188356416Y-147526616D01*
X188328858Y-147718289D01*
X188326482Y-147734817D01*
X186141117Y-147734817D01*
X186274939Y-147613782D01*
X186468943Y-147384312D01*
X186630631Y-147131032D01*
X186757118Y-146858460D01*
X186846146Y-146571462D01*
X186896126Y-146275158D01*
X186906167Y-145974836D01*
X186876089Y-145675855D01*
X186806430Y-145383551D01*
X186752417Y-145243310D01*
X186698432Y-145103142D01*
X186554021Y-144839625D01*
X186375776Y-144597709D01*
X186222817Y-144439551D01*
X186166879Y-144381711D01*
X186145949Y-144365183D01*
X185931053Y-144195481D01*
X185801783Y-144118914D01*
X185672513Y-144042348D01*
X185435043Y-143941652D01*
X185395863Y-143925038D01*
X185106058Y-143845653D01*
X185106057Y-143845652D01*
X185106054Y-143845652D01*
X184808245Y-143805600D01*
X184582967Y-143805600D01*
X184582965Y-143805600D01*
X184358179Y-143820647D01*
X184063715Y-143880500D01*
X183779845Y-143979070D01*
X183511659Y-144114590D01*
X183263919Y-144284654D01*
X183041062Y-144486216D01*
X182847057Y-144715687D01*
X182685367Y-144968970D01*
X182558883Y-145241537D01*
X182469854Y-145528537D01*
X182419874Y-145824841D01*
X182409833Y-146125167D01*
X150145165Y-146125167D01*
X139450363Y-144259890D01*
X178779204Y-144259890D01*
X178789213Y-144469998D01*
X178793148Y-144486218D01*
X178838803Y-144674409D01*
X178883443Y-144772157D01*
X178926183Y-144865746D01*
X179035123Y-145018729D01*
X179048192Y-145037082D01*
X179200424Y-145182235D01*
X179200426Y-145182236D01*
X179200427Y-145182237D01*
X179377370Y-145295952D01*
X179377375Y-145295954D01*
X179572649Y-145374131D01*
X179701445Y-145398954D01*
X179779189Y-145413938D01*
X179779190Y-145413938D01*
X179936824Y-145413938D01*
X179936829Y-145413938D01*
X180093750Y-145398954D01*
X180295572Y-145339694D01*
X180482531Y-145243309D01*
X180647871Y-145113285D01*
X180785616Y-144954319D01*
X180890787Y-144772157D01*
X180959583Y-144573384D01*
X180989518Y-144365183D01*
X180979509Y-144155079D01*
X180969686Y-144114590D01*
X180954120Y-144050425D01*
X180953846Y-143993105D01*
X180979382Y-143941786D01*
X181025269Y-143907435D01*
X181081703Y-143897392D01*
X181136622Y-143913802D01*
X181184859Y-143941652D01*
X181429086Y-144037504D01*
X181684872Y-144095886D01*
X181740910Y-144100085D01*
X181881003Y-144110584D01*
X181881008Y-144110584D01*
X182011996Y-144110584D01*
X182012001Y-144110584D01*
X182134581Y-144101397D01*
X182208132Y-144095886D01*
X182463918Y-144037504D01*
X182708145Y-143941652D01*
X182935359Y-143810470D01*
X183140483Y-143646889D01*
X183265836Y-143511790D01*
X183318930Y-143454569D01*
X183318931Y-143454566D01*
X183318935Y-143454563D01*
X183466730Y-143237788D01*
X183580565Y-143001407D01*
X183657898Y-142750699D01*
X183697002Y-142491266D01*
X183697002Y-142276275D01*
X187031782Y-142276275D01*
X187070886Y-142535708D01*
X187148219Y-142786416D01*
X187262054Y-143022797D01*
X187368893Y-143179500D01*
X187409853Y-143239578D01*
X187541784Y-143381765D01*
X187588301Y-143431898D01*
X187793425Y-143595479D01*
X188020639Y-143726661D01*
X188103886Y-143759333D01*
X188260111Y-143820647D01*
X188264866Y-143822513D01*
X188520652Y-143880895D01*
X188576690Y-143885094D01*
X188716783Y-143895593D01*
X188716788Y-143895593D01*
X188847776Y-143895593D01*
X188847781Y-143895593D01*
X188970360Y-143886406D01*
X189043912Y-143880895D01*
X189299698Y-143822513D01*
X189543925Y-143726661D01*
X189771139Y-143595479D01*
X189976263Y-143431898D01*
X190137692Y-143257919D01*
X190154710Y-143239578D01*
X190154711Y-143239575D01*
X190154715Y-143239572D01*
X190302510Y-143022797D01*
X190416345Y-142786416D01*
X190493678Y-142535708D01*
X190532782Y-142276275D01*
X190532782Y-142013911D01*
X190493678Y-141754478D01*
X190416345Y-141503770D01*
X190302510Y-141267389D01*
X190154715Y-141050614D01*
X190154714Y-141050613D01*
X190154710Y-141050607D01*
X189976266Y-140858291D01*
X189976265Y-140858290D01*
X189976263Y-140858288D01*
X189771139Y-140694707D01*
X189771138Y-140694706D01*
X189564924Y-140575649D01*
X189543925Y-140563525D01*
X189543924Y-140563524D01*
X189543923Y-140563524D01*
X189299700Y-140467673D01*
X189043909Y-140409290D01*
X188847781Y-140394593D01*
X188847776Y-140394593D01*
X188716788Y-140394593D01*
X188716783Y-140394593D01*
X188520654Y-140409290D01*
X188264863Y-140467673D01*
X188020640Y-140563524D01*
X187793425Y-140694706D01*
X187588297Y-140858291D01*
X187409853Y-141050607D01*
X187328481Y-141169959D01*
X187262054Y-141267389D01*
X187148219Y-141503770D01*
X187070886Y-141754478D01*
X187031782Y-142013911D01*
X187031782Y-142276275D01*
X183697002Y-142276275D01*
X183697002Y-142228902D01*
X183657898Y-141969469D01*
X183580565Y-141718761D01*
X183466730Y-141482380D01*
X183318935Y-141265605D01*
X183318934Y-141265604D01*
X183318930Y-141265598D01*
X183140486Y-141073282D01*
X183140485Y-141073281D01*
X183140483Y-141073279D01*
X182935359Y-140909698D01*
X182935358Y-140909697D01*
X182708143Y-140778515D01*
X182463920Y-140682664D01*
X182208129Y-140624281D01*
X182012001Y-140609584D01*
X182011996Y-140609584D01*
X181881008Y-140609584D01*
X181881003Y-140609584D01*
X181684874Y-140624281D01*
X181429083Y-140682664D01*
X181184860Y-140778515D01*
X180957645Y-140909697D01*
X180752517Y-141073282D01*
X180574073Y-141265598D01*
X180473572Y-141413006D01*
X180426274Y-141482380D01*
X180312439Y-141718761D01*
X180235106Y-141969469D01*
X180196002Y-142228902D01*
X180196002Y-142491266D01*
X180235106Y-142750699D01*
X180246123Y-142786416D01*
X180312440Y-143001409D01*
X180350638Y-143080729D01*
X180362857Y-143138408D01*
X180347056Y-143195211D01*
X180306807Y-143238295D01*
X180251209Y-143257919D01*
X180207968Y-143251792D01*
X180207700Y-143253186D01*
X180137063Y-143239572D01*
X180127792Y-143237785D01*
X179989533Y-143211138D01*
X179989532Y-143211138D01*
X179831893Y-143211138D01*
X179744714Y-143219462D01*
X179674968Y-143226122D01*
X179473147Y-143285382D01*
X179286193Y-143381765D01*
X179120852Y-143511790D01*
X178983104Y-143670758D01*
X178877935Y-143852917D01*
X178809138Y-144051692D01*
X178779204Y-144259890D01*
X139450363Y-144259890D01*
X137900099Y-143989509D01*
X137899692Y-143989437D01*
X134459729Y-143377664D01*
X134459510Y-143377645D01*
X134449013Y-143375796D01*
X134447684Y-143375819D01*
X132845659Y-143112071D01*
X132837849Y-143109746D01*
X132837300Y-143109729D01*
X132823590Y-143108487D01*
X132815684Y-143109268D01*
X131607714Y-143089784D01*
X131602961Y-143089030D01*
X131592955Y-143089392D01*
X131587046Y-143089465D01*
X131577138Y-143089351D01*
X131572389Y-143090222D01*
X129417892Y-143178763D01*
X129410915Y-143178049D01*
X129404813Y-143178857D01*
X129395073Y-143179756D01*
X129390698Y-143179986D01*
X129384155Y-143181818D01*
X127573693Y-143447484D01*
X127565095Y-143447780D01*
X127554281Y-143450204D01*
X127546349Y-143453647D01*
X124337656Y-144434082D01*
X124335976Y-144434332D01*
X124320570Y-144439291D01*
X124319141Y-144439741D01*
X124301733Y-144445112D01*
X124300174Y-144445921D01*
X120244156Y-145764869D01*
X120237257Y-145766225D01*
X120235283Y-145767103D01*
X120224146Y-145771423D01*
X120220970Y-145772481D01*
X120214717Y-145776387D01*
X117459407Y-147027090D01*
X117401895Y-147038020D01*
X117345777Y-147021347D01*
X117303563Y-146980787D01*
X117284661Y-146925380D01*
X116880514Y-142470141D01*
X116880485Y-142469807D01*
X116771611Y-141183113D01*
X116771887Y-141170132D01*
X116771814Y-141169733D01*
X116767000Y-141157654D01*
X116756145Y-141119574D01*
X116432558Y-139984367D01*
X161754933Y-139984367D01*
X161785011Y-140283345D01*
X161854669Y-140575648D01*
X161962667Y-140856057D01*
X162107078Y-141119574D01*
X162222811Y-141276648D01*
X162285323Y-141361490D01*
X162494221Y-141577489D01*
X162730046Y-141763718D01*
X162988587Y-141916852D01*
X163265233Y-142034160D01*
X163265234Y-142034160D01*
X163265236Y-142034161D01*
X163329110Y-142051657D01*
X163555046Y-142113548D01*
X163852855Y-142153600D01*
X164078133Y-142153600D01*
X164078135Y-142153600D01*
X164302920Y-142138552D01*
X164376536Y-142123588D01*
X164597387Y-142078699D01*
X164881251Y-141980131D01*
X165015347Y-141912368D01*
X165149440Y-141844609D01*
X165247625Y-141777209D01*
X165397180Y-141674546D01*
X165620039Y-141472982D01*
X165814043Y-141243512D01*
X165860106Y-141171356D01*
X167804846Y-141171356D01*
X167814855Y-141381460D01*
X167864445Y-141585872D01*
X167904941Y-141674546D01*
X167951825Y-141777209D01*
X168060765Y-141930192D01*
X168073834Y-141948545D01*
X168226066Y-142093698D01*
X168226068Y-142093699D01*
X168226069Y-142093700D01*
X168403012Y-142207415D01*
X168403017Y-142207417D01*
X168598291Y-142285594D01*
X168727087Y-142310417D01*
X168804831Y-142325401D01*
X168804832Y-142325401D01*
X168962466Y-142325401D01*
X168962471Y-142325401D01*
X169119392Y-142310417D01*
X169321214Y-142251157D01*
X169508173Y-142154772D01*
X169673513Y-142024748D01*
X169811258Y-141865782D01*
X169916429Y-141683620D01*
X169985225Y-141484847D01*
X170015160Y-141276646D01*
X170005151Y-141066542D01*
X169955561Y-140862130D01*
X169868182Y-140670796D01*
X169868181Y-140670795D01*
X169868180Y-140670792D01*
X169746173Y-140499459D01*
X169746172Y-140499457D01*
X169593940Y-140354304D01*
X169593937Y-140354302D01*
X169593936Y-140354301D01*
X169416993Y-140240586D01*
X169270637Y-140181993D01*
X169221715Y-140162408D01*
X169221714Y-140162407D01*
X169221712Y-140162407D01*
X169015175Y-140122601D01*
X169015174Y-140122601D01*
X168857535Y-140122601D01*
X168770356Y-140130925D01*
X168700610Y-140137585D01*
X168498789Y-140196845D01*
X168311835Y-140293228D01*
X168146494Y-140423253D01*
X168008746Y-140582221D01*
X167903577Y-140764380D01*
X167834780Y-140963155D01*
X167805040Y-141170006D01*
X167804846Y-141171356D01*
X165860106Y-141171356D01*
X165975731Y-140990232D01*
X166102218Y-140717660D01*
X166191246Y-140430662D01*
X166241226Y-140134358D01*
X166251267Y-139834036D01*
X166221189Y-139535055D01*
X166151530Y-139242751D01*
X166078841Y-139054019D01*
X166043532Y-138962342D01*
X166040204Y-138956270D01*
X165899121Y-138698825D01*
X165720877Y-138456910D01*
X165511979Y-138240911D01*
X165501363Y-138232528D01*
X165276153Y-138054681D01*
X165146883Y-137978114D01*
X165017613Y-137901548D01*
X164836507Y-137824752D01*
X164740963Y-137784238D01*
X164451158Y-137704853D01*
X164451157Y-137704852D01*
X164451154Y-137704852D01*
X164153345Y-137664800D01*
X163928067Y-137664800D01*
X163928065Y-137664800D01*
X163703279Y-137679847D01*
X163408815Y-137739700D01*
X163124945Y-137838270D01*
X162856759Y-137973790D01*
X162609019Y-138143854D01*
X162386162Y-138345416D01*
X162192157Y-138574887D01*
X162030467Y-138828170D01*
X161903983Y-139100737D01*
X161814954Y-139387737D01*
X161764974Y-139684041D01*
X161754933Y-139984367D01*
X116432558Y-139984367D01*
X116165248Y-139046590D01*
X116164057Y-139038067D01*
X116163957Y-139037836D01*
X116158142Y-139021419D01*
X116158104Y-139021281D01*
X116153676Y-139013921D01*
X115952021Y-138541754D01*
X157991040Y-138541754D01*
X158001049Y-138751858D01*
X158050639Y-138956270D01*
X158087889Y-139037836D01*
X158138019Y-139147607D01*
X158246959Y-139300590D01*
X158260028Y-139318943D01*
X158412260Y-139464096D01*
X158412262Y-139464097D01*
X158412263Y-139464098D01*
X158589206Y-139577813D01*
X158589211Y-139577815D01*
X158784485Y-139655992D01*
X158913281Y-139680815D01*
X158991025Y-139695799D01*
X158991026Y-139695799D01*
X159148660Y-139695799D01*
X159148665Y-139695799D01*
X159305586Y-139680815D01*
X159507408Y-139621555D01*
X159694367Y-139525170D01*
X159859707Y-139395146D01*
X159997452Y-139236180D01*
X160102623Y-139054018D01*
X160171419Y-138855245D01*
X160201354Y-138647044D01*
X160191345Y-138436940D01*
X160141755Y-138232528D01*
X160141754Y-138232525D01*
X160141281Y-138230576D01*
X160143609Y-138163786D01*
X160180264Y-138107905D01*
X160240599Y-138079164D01*
X160307087Y-138085913D01*
X160454717Y-138143854D01*
X160462907Y-138147068D01*
X160718693Y-138205450D01*
X160774731Y-138209649D01*
X160914824Y-138220148D01*
X160914829Y-138220148D01*
X161045817Y-138220148D01*
X161045822Y-138220148D01*
X161168402Y-138210961D01*
X161241953Y-138205450D01*
X161497739Y-138147068D01*
X161741966Y-138051216D01*
X161969180Y-137920034D01*
X162174304Y-137756453D01*
X162349865Y-137567243D01*
X162352751Y-137564133D01*
X162352752Y-137564130D01*
X162352756Y-137564127D01*
X162500551Y-137347352D01*
X162614386Y-137110971D01*
X162691719Y-136860263D01*
X162730823Y-136600830D01*
X162730823Y-136338466D01*
X162691719Y-136079033D01*
X162614386Y-135828325D01*
X162596353Y-135790879D01*
X166020852Y-135790879D01*
X166059956Y-136050312D01*
X166137289Y-136301020D01*
X166251124Y-136537401D01*
X166356380Y-136691783D01*
X166398923Y-136754182D01*
X166577367Y-136946498D01*
X166577371Y-136946502D01*
X166782495Y-137110083D01*
X167009709Y-137241265D01*
X167152991Y-137297499D01*
X167241784Y-137332348D01*
X167253936Y-137337117D01*
X167509722Y-137395499D01*
X167565760Y-137399698D01*
X167705853Y-137410197D01*
X167705858Y-137410197D01*
X167836846Y-137410197D01*
X167836851Y-137410197D01*
X167959430Y-137401010D01*
X168032982Y-137395499D01*
X168288768Y-137337117D01*
X168532995Y-137241265D01*
X168760209Y-137110083D01*
X168965333Y-136946502D01*
X169104710Y-136796289D01*
X169143780Y-136754182D01*
X169143781Y-136754179D01*
X169143785Y-136754176D01*
X169291580Y-136537401D01*
X169405415Y-136301020D01*
X169482748Y-136050312D01*
X169521852Y-135790879D01*
X169521852Y-135528515D01*
X169482748Y-135269082D01*
X169405415Y-135018374D01*
X169291580Y-134781993D01*
X169143785Y-134565218D01*
X169143784Y-134565217D01*
X169143780Y-134565211D01*
X168965336Y-134372895D01*
X168965335Y-134372894D01*
X168965333Y-134372892D01*
X168760209Y-134209311D01*
X168760208Y-134209310D01*
X168532993Y-134078128D01*
X168288770Y-133982277D01*
X168032979Y-133923894D01*
X167836851Y-133909197D01*
X167836846Y-133909197D01*
X167705858Y-133909197D01*
X167705853Y-133909197D01*
X167509724Y-133923894D01*
X167253933Y-133982277D01*
X167009710Y-134078128D01*
X166782495Y-134209310D01*
X166577367Y-134372895D01*
X166398923Y-134565211D01*
X166364377Y-134615881D01*
X166251124Y-134781993D01*
X166137289Y-135018374D01*
X166059956Y-135269082D01*
X166020852Y-135528515D01*
X166020852Y-135790879D01*
X162596353Y-135790879D01*
X162500551Y-135591944D01*
X162352756Y-135375169D01*
X162352755Y-135375168D01*
X162352751Y-135375162D01*
X162174307Y-135182846D01*
X162174306Y-135182845D01*
X162174304Y-135182843D01*
X161969180Y-135019262D01*
X161969179Y-135019261D01*
X161777738Y-134908733D01*
X161741966Y-134888080D01*
X161741965Y-134888079D01*
X161741964Y-134888079D01*
X161497741Y-134792228D01*
X161241950Y-134733845D01*
X161045822Y-134719148D01*
X161045817Y-134719148D01*
X160914829Y-134719148D01*
X160914824Y-134719148D01*
X160718695Y-134733845D01*
X160462904Y-134792228D01*
X160218681Y-134888079D01*
X159991466Y-135019261D01*
X159786338Y-135182846D01*
X159607894Y-135375162D01*
X159529600Y-135489999D01*
X159460095Y-135591944D01*
X159346260Y-135828325D01*
X159268927Y-136079033D01*
X159229823Y-136338466D01*
X159229823Y-136600830D01*
X159268927Y-136860263D01*
X159346260Y-137110971D01*
X159456855Y-137340624D01*
X159468469Y-137407260D01*
X159443383Y-137470078D01*
X159389061Y-137510384D01*
X159321669Y-137516184D01*
X159201370Y-137492999D01*
X159201368Y-137492999D01*
X159043729Y-137492999D01*
X158956550Y-137501323D01*
X158886804Y-137507983D01*
X158684983Y-137567243D01*
X158498029Y-137663626D01*
X158332688Y-137793651D01*
X158194940Y-137952619D01*
X158089771Y-138134778D01*
X158020974Y-138333553D01*
X157991040Y-138541751D01*
X157991040Y-138541754D01*
X115952021Y-138541754D01*
X114572946Y-135312699D01*
X114527863Y-135207139D01*
X114525819Y-135199247D01*
X114524085Y-135196189D01*
X114517592Y-135182968D01*
X114516309Y-135179908D01*
X114511252Y-135173414D01*
X113960429Y-134193222D01*
X136894020Y-134193222D01*
X136904029Y-134403326D01*
X136953619Y-134607738D01*
X136998259Y-134705486D01*
X137040999Y-134799075D01*
X137114892Y-134902842D01*
X137163008Y-134970411D01*
X137315240Y-135115564D01*
X137315242Y-135115565D01*
X137315243Y-135115566D01*
X137492186Y-135229281D01*
X137492191Y-135229283D01*
X137687465Y-135307460D01*
X137816261Y-135332283D01*
X137894005Y-135347267D01*
X137894006Y-135347267D01*
X138051640Y-135347267D01*
X138051645Y-135347267D01*
X138208566Y-135332283D01*
X138410388Y-135273023D01*
X138545888Y-135203167D01*
X140753833Y-135203167D01*
X140783911Y-135502145D01*
X140853569Y-135794448D01*
X140961567Y-136074857D01*
X141085507Y-136301020D01*
X141105979Y-136338375D01*
X141284223Y-136580290D01*
X141493121Y-136796289D01*
X141728946Y-136982518D01*
X141987487Y-137135652D01*
X142264133Y-137252960D01*
X142264134Y-137252960D01*
X142264136Y-137252961D01*
X142328010Y-137270457D01*
X142553946Y-137332348D01*
X142851755Y-137372400D01*
X143077033Y-137372400D01*
X143077035Y-137372400D01*
X143301820Y-137357352D01*
X143401377Y-137337116D01*
X143596287Y-137297499D01*
X143880151Y-137198931D01*
X144053105Y-137111533D01*
X144148340Y-137063409D01*
X144152805Y-137060344D01*
X144396080Y-136893346D01*
X144618939Y-136691782D01*
X144812943Y-136462312D01*
X144974631Y-136209032D01*
X145091361Y-135957485D01*
X146899666Y-135957485D01*
X146909675Y-136167593D01*
X146919728Y-136209032D01*
X146954204Y-136351144D01*
X146959265Y-136372003D01*
X147046645Y-136563341D01*
X147138109Y-136691783D01*
X147168654Y-136734677D01*
X147320886Y-136879830D01*
X147320888Y-136879831D01*
X147320889Y-136879832D01*
X147497832Y-136993547D01*
X147497837Y-136993549D01*
X147693111Y-137071726D01*
X147821907Y-137096549D01*
X147899651Y-137111533D01*
X147899652Y-137111533D01*
X148057286Y-137111533D01*
X148057291Y-137111533D01*
X148214212Y-137096549D01*
X148416034Y-137037289D01*
X148602993Y-136940904D01*
X148768333Y-136810880D01*
X148906078Y-136651914D01*
X149011249Y-136469752D01*
X149080045Y-136270979D01*
X149109980Y-136062778D01*
X149099971Y-135852674D01*
X149050381Y-135648262D01*
X148963002Y-135456928D01*
X148963001Y-135456927D01*
X148963000Y-135456924D01*
X148860297Y-135312699D01*
X148840992Y-135285589D01*
X148688760Y-135140436D01*
X148688757Y-135140434D01*
X148688756Y-135140433D01*
X148511813Y-135026718D01*
X148339625Y-134957784D01*
X148316535Y-134948540D01*
X148316534Y-134948539D01*
X148316532Y-134948539D01*
X148109995Y-134908733D01*
X148109994Y-134908733D01*
X147952355Y-134908733D01*
X147865176Y-134917057D01*
X147795430Y-134923717D01*
X147593609Y-134982977D01*
X147406655Y-135079360D01*
X147241314Y-135209385D01*
X147103566Y-135368353D01*
X146998397Y-135550512D01*
X146929600Y-135749287D01*
X146899666Y-135957485D01*
X145091361Y-135957485D01*
X145101118Y-135936460D01*
X145190146Y-135649462D01*
X145240126Y-135353158D01*
X145250167Y-135052836D01*
X145220089Y-134753855D01*
X145150430Y-134461551D01*
X145053281Y-134209310D01*
X145042432Y-134181142D01*
X144991612Y-134088408D01*
X144898021Y-133917625D01*
X144719777Y-133675710D01*
X144510879Y-133459711D01*
X144495764Y-133447775D01*
X144275053Y-133273481D01*
X144145783Y-133196914D01*
X144016513Y-133120348D01*
X143835407Y-133043552D01*
X143739863Y-133003038D01*
X143450058Y-132923653D01*
X143450057Y-132923652D01*
X143450054Y-132923652D01*
X143152245Y-132883600D01*
X142926967Y-132883600D01*
X142926965Y-132883600D01*
X142702179Y-132898647D01*
X142407715Y-132958500D01*
X142123845Y-133057070D01*
X141855659Y-133192590D01*
X141607919Y-133362654D01*
X141385062Y-133564216D01*
X141191057Y-133793687D01*
X141029367Y-134046970D01*
X140902883Y-134319537D01*
X140813854Y-134606537D01*
X140784258Y-134781993D01*
X140763874Y-134902842D01*
X140754278Y-135189871D01*
X140753833Y-135203167D01*
X138545888Y-135203167D01*
X138597347Y-135176638D01*
X138762687Y-135046614D01*
X138900432Y-134887648D01*
X139005603Y-134705486D01*
X139074399Y-134506713D01*
X139104334Y-134298512D01*
X139094325Y-134088408D01*
X139044735Y-133883996D01*
X139009597Y-133807056D01*
X138998525Y-133749813D01*
X139014837Y-133693836D01*
X139054929Y-133651503D01*
X139109937Y-133632172D01*
X139167694Y-133640117D01*
X139173533Y-133642409D01*
X139429319Y-133700791D01*
X139485357Y-133704990D01*
X139625450Y-133715489D01*
X139625455Y-133715489D01*
X139756443Y-133715489D01*
X139756448Y-133715489D01*
X139879027Y-133706302D01*
X139952579Y-133700791D01*
X140208365Y-133642409D01*
X140452592Y-133546557D01*
X140679806Y-133415375D01*
X140884930Y-133251794D01*
X141010374Y-133116597D01*
X141063377Y-133059474D01*
X141063378Y-133059471D01*
X141063382Y-133059468D01*
X141211177Y-132842693D01*
X141325012Y-132606312D01*
X141402345Y-132355604D01*
X141441449Y-132096171D01*
X141441449Y-131833807D01*
X141402345Y-131574374D01*
X141325012Y-131323666D01*
X141211177Y-131087285D01*
X141063382Y-130870510D01*
X141063381Y-130870509D01*
X141063377Y-130870503D01*
X140902783Y-130697425D01*
X144635044Y-130697425D01*
X144674148Y-130956858D01*
X144751481Y-131207566D01*
X144865316Y-131443947D01*
X144954240Y-131574374D01*
X145013115Y-131660728D01*
X145173710Y-131833807D01*
X145191563Y-131853048D01*
X145396687Y-132016629D01*
X145623901Y-132147811D01*
X145868128Y-132243663D01*
X146123914Y-132302045D01*
X146179952Y-132306244D01*
X146320045Y-132316743D01*
X146320050Y-132316743D01*
X146451038Y-132316743D01*
X146451043Y-132316743D01*
X146573622Y-132307556D01*
X146647174Y-132302045D01*
X146902960Y-132243663D01*
X147147187Y-132147811D01*
X147374401Y-132016629D01*
X147579525Y-131853048D01*
X147678817Y-131746035D01*
X147757972Y-131660728D01*
X147757973Y-131660725D01*
X147757977Y-131660722D01*
X147905772Y-131443947D01*
X148019607Y-131207566D01*
X148096940Y-130956858D01*
X148136044Y-130697425D01*
X148136044Y-130435061D01*
X148096940Y-130175628D01*
X148019607Y-129924920D01*
X147905772Y-129688539D01*
X147757977Y-129471764D01*
X147757976Y-129471763D01*
X147757972Y-129471757D01*
X147579528Y-129279441D01*
X147579527Y-129279440D01*
X147579525Y-129279438D01*
X147374401Y-129115857D01*
X147374400Y-129115856D01*
X147147185Y-128984674D01*
X146902962Y-128888823D01*
X146647171Y-128830440D01*
X146451043Y-128815743D01*
X146451038Y-128815743D01*
X146320050Y-128815743D01*
X146320045Y-128815743D01*
X146123916Y-128830440D01*
X145868125Y-128888823D01*
X145623902Y-128984674D01*
X145396687Y-129115856D01*
X145191559Y-129279441D01*
X145013115Y-129471757D01*
X144912614Y-129619165D01*
X144865316Y-129688539D01*
X144751481Y-129924920D01*
X144674148Y-130175628D01*
X144635044Y-130435061D01*
X144635044Y-130697425D01*
X140902783Y-130697425D01*
X140884933Y-130678187D01*
X140884932Y-130678186D01*
X140884930Y-130678184D01*
X140679806Y-130514603D01*
X140679805Y-130514602D01*
X140452590Y-130383420D01*
X140208367Y-130287569D01*
X139952576Y-130229186D01*
X139756448Y-130214489D01*
X139756443Y-130214489D01*
X139625455Y-130214489D01*
X139625450Y-130214489D01*
X139429321Y-130229186D01*
X139173530Y-130287569D01*
X138929307Y-130383420D01*
X138702092Y-130514602D01*
X138496964Y-130678187D01*
X138318520Y-130870503D01*
X138218019Y-131017911D01*
X138170721Y-131087285D01*
X138056886Y-131323666D01*
X137979553Y-131574374D01*
X137940449Y-131833807D01*
X137940449Y-132096171D01*
X137979553Y-132355604D01*
X138056886Y-132606312D01*
X138170721Y-132842693D01*
X138225919Y-132923653D01*
X138248183Y-132956308D01*
X138268738Y-133010518D01*
X138262404Y-133068147D01*
X138230565Y-133116597D01*
X138180180Y-133145278D01*
X138122264Y-133147920D01*
X138104348Y-133144467D01*
X137946709Y-133144467D01*
X137859530Y-133152791D01*
X137789784Y-133159451D01*
X137587963Y-133218711D01*
X137401009Y-133315094D01*
X137273491Y-133415375D01*
X137235667Y-133445120D01*
X137223025Y-133459710D01*
X137097920Y-133604087D01*
X136992751Y-133786246D01*
X136923954Y-133985021D01*
X136894020Y-134193219D01*
X136894020Y-134193222D01*
X113960429Y-134193222D01*
X111312403Y-129481051D01*
X111311325Y-129477778D01*
X111301593Y-129461670D01*
X111299330Y-129457768D01*
X111291252Y-129443229D01*
X111288916Y-129440555D01*
X109931188Y-127177675D01*
X109928717Y-127171380D01*
X109923319Y-127163799D01*
X109917854Y-127155432D01*
X109913749Y-127148557D01*
X109909138Y-127143821D01*
X107323952Y-123498808D01*
X107321914Y-123494374D01*
X107312165Y-123481948D01*
X107308730Y-123477354D01*
X107301609Y-123467359D01*
X107298144Y-123464159D01*
X105793271Y-121556021D01*
X105789874Y-121549835D01*
X105784161Y-121543722D01*
X105776969Y-121535301D01*
X105772390Y-121529427D01*
X105766870Y-121525097D01*
X105741654Y-121497887D01*
X104027013Y-119647624D01*
X104025483Y-119645145D01*
X104011229Y-119630543D01*
X104009498Y-119628734D01*
X103997908Y-119616371D01*
X103995800Y-119614838D01*
X103923235Y-119541000D01*
X103440321Y-119049614D01*
X103404411Y-119013152D01*
X102800107Y-118399550D01*
X102799218Y-118398421D01*
X102791168Y-118390452D01*
X102789497Y-118388766D01*
X102778213Y-118377160D01*
X102776281Y-118375778D01*
X102100603Y-117709892D01*
X102099961Y-117709254D01*
X101837522Y-117446814D01*
X101836541Y-117445357D01*
X101821033Y-117430306D01*
X101819711Y-117429003D01*
X101807979Y-117417270D01*
X101806534Y-117416245D01*
X101500934Y-117119906D01*
X101500296Y-117119122D01*
X101490501Y-117109786D01*
X101490205Y-117109503D01*
X101477954Y-117097749D01*
X101477019Y-117097096D01*
X101151716Y-116790928D01*
X101149020Y-116788312D01*
X100944637Y-116583929D01*
X100940736Y-116578516D01*
X100934027Y-116572783D01*
X100926908Y-116566199D01*
X100920916Y-116560207D01*
X100915161Y-116556703D01*
X100679608Y-116356046D01*
X100678806Y-116355021D01*
X100660861Y-116340067D01*
X100659836Y-116339203D01*
X100643407Y-116325208D01*
X100642272Y-116324576D01*
X100603602Y-116292351D01*
X100557127Y-116253622D01*
X100554088Y-116250028D01*
X100542382Y-116241174D01*
X100538300Y-116237950D01*
X100529401Y-116230613D01*
X100525508Y-116228505D01*
X100397361Y-116132395D01*
X100393715Y-116128542D01*
X100383151Y-116121499D01*
X100377531Y-116117523D01*
X100368791Y-116110968D01*
X100364100Y-116108798D01*
X100308807Y-116071936D01*
X100277307Y-116041696D01*
X100234205Y-115982432D01*
X100216571Y-115947860D01*
X100210488Y-115909531D01*
X100210477Y-115868856D01*
X100207986Y-106373355D01*
X103542843Y-106373355D01*
X103552852Y-106583459D01*
X103602442Y-106787871D01*
X103647082Y-106885619D01*
X103689822Y-106979208D01*
X103785424Y-107113461D01*
X103811831Y-107150544D01*
X103964063Y-107295697D01*
X103964065Y-107295698D01*
X103964066Y-107295699D01*
X104141009Y-107409414D01*
X104141014Y-107409416D01*
X104336288Y-107487593D01*
X104465084Y-107512416D01*
X104542828Y-107527400D01*
X104542829Y-107527400D01*
X104700463Y-107527400D01*
X104700468Y-107527400D01*
X104857389Y-107512416D01*
X105059211Y-107453156D01*
X105246170Y-107356771D01*
X105411510Y-107226747D01*
X105549255Y-107067781D01*
X105654426Y-106885619D01*
X105723222Y-106686846D01*
X105749919Y-106501167D01*
X107479833Y-106501167D01*
X107509911Y-106800145D01*
X107579569Y-107092448D01*
X107687567Y-107372857D01*
X107764047Y-107512416D01*
X107831979Y-107636375D01*
X108010223Y-107878290D01*
X108219121Y-108094289D01*
X108454946Y-108280518D01*
X108713487Y-108433652D01*
X108990133Y-108550960D01*
X108990134Y-108550960D01*
X108990136Y-108550961D01*
X109054010Y-108568457D01*
X109279946Y-108630348D01*
X109577755Y-108670400D01*
X109803033Y-108670400D01*
X109803035Y-108670400D01*
X110027820Y-108655352D01*
X110101435Y-108640388D01*
X110322287Y-108595499D01*
X110606151Y-108496931D01*
X110740246Y-108429169D01*
X110874340Y-108361409D01*
X110992178Y-108280518D01*
X111122080Y-108191346D01*
X111344939Y-107989782D01*
X111538943Y-107760312D01*
X111700631Y-107507032D01*
X111827118Y-107234460D01*
X111916146Y-106947462D01*
X111966126Y-106651158D01*
X111975414Y-106373355D01*
X113702843Y-106373355D01*
X113712852Y-106583459D01*
X113762442Y-106787871D01*
X113807082Y-106885619D01*
X113849822Y-106979208D01*
X113945424Y-107113461D01*
X113971831Y-107150544D01*
X114124063Y-107295697D01*
X114124065Y-107295698D01*
X114124066Y-107295699D01*
X114301009Y-107409414D01*
X114301014Y-107409416D01*
X114496288Y-107487593D01*
X114625084Y-107512416D01*
X114702828Y-107527400D01*
X114702829Y-107527400D01*
X114860463Y-107527400D01*
X114860468Y-107527400D01*
X115017389Y-107512416D01*
X115219211Y-107453156D01*
X115406170Y-107356771D01*
X115571510Y-107226747D01*
X115709255Y-107067781D01*
X115814426Y-106885619D01*
X115883222Y-106686846D01*
X115913157Y-106478645D01*
X115903148Y-106268541D01*
X115853558Y-106064129D01*
X115766179Y-105872795D01*
X115766178Y-105872794D01*
X115766177Y-105872791D01*
X115644170Y-105701458D01*
X115644169Y-105701456D01*
X115491937Y-105556303D01*
X115491934Y-105556301D01*
X115491933Y-105556300D01*
X115314990Y-105442585D01*
X115168634Y-105383992D01*
X115119712Y-105364407D01*
X115119711Y-105364406D01*
X115119709Y-105364406D01*
X114913172Y-105324600D01*
X114913171Y-105324600D01*
X114755532Y-105324600D01*
X114668353Y-105332924D01*
X114598607Y-105339584D01*
X114396786Y-105398844D01*
X114209832Y-105495227D01*
X114044491Y-105625252D01*
X113906743Y-105784220D01*
X113801574Y-105966379D01*
X113732777Y-106165154D01*
X113702843Y-106373352D01*
X113702843Y-106373355D01*
X111975414Y-106373355D01*
X111976167Y-106350836D01*
X111946089Y-106051855D01*
X111876430Y-105759551D01*
X111829521Y-105637755D01*
X111768432Y-105479142D01*
X111718411Y-105387866D01*
X111624021Y-105215625D01*
X111445777Y-104973710D01*
X111236879Y-104757711D01*
X111001054Y-104571482D01*
X111001055Y-104571482D01*
X111001053Y-104571481D01*
X110871783Y-104494914D01*
X110742513Y-104418348D01*
X110561407Y-104341552D01*
X110465863Y-104301038D01*
X110176058Y-104221653D01*
X110176057Y-104221652D01*
X110176054Y-104221652D01*
X109878245Y-104181600D01*
X109652967Y-104181600D01*
X109652965Y-104181600D01*
X109428179Y-104196647D01*
X109133715Y-104256500D01*
X108849845Y-104355070D01*
X108581659Y-104490590D01*
X108333919Y-104660654D01*
X108111062Y-104862216D01*
X107917057Y-105091687D01*
X107755367Y-105344970D01*
X107628883Y-105617537D01*
X107539854Y-105904537D01*
X107489874Y-106200841D01*
X107479833Y-106501167D01*
X105749919Y-106501167D01*
X105753157Y-106478645D01*
X105743148Y-106268541D01*
X105693558Y-106064129D01*
X105606179Y-105872795D01*
X105606178Y-105872794D01*
X105606177Y-105872791D01*
X105567883Y-105819015D01*
X105545062Y-105753620D01*
X105560876Y-105686187D01*
X105610390Y-105637755D01*
X105678156Y-105623435D01*
X105852501Y-105636500D01*
X105852506Y-105636500D01*
X105983494Y-105636500D01*
X105983499Y-105636500D01*
X106106078Y-105627313D01*
X106179630Y-105621802D01*
X106435416Y-105563420D01*
X106679643Y-105467568D01*
X106906857Y-105336386D01*
X107111981Y-105172805D01*
X107211273Y-105065792D01*
X107290428Y-104980485D01*
X107290431Y-104980481D01*
X107290433Y-104980479D01*
X107438228Y-104763704D01*
X107552063Y-104527323D01*
X107629396Y-104276615D01*
X107668500Y-104017182D01*
X107668500Y-103754818D01*
X107629396Y-103495385D01*
X107552063Y-103244677D01*
X107438228Y-103008296D01*
X107290433Y-102791521D01*
X107290432Y-102791520D01*
X107290428Y-102791514D01*
X107111984Y-102599198D01*
X107111983Y-102599197D01*
X107111981Y-102599195D01*
X106906857Y-102435614D01*
X106906856Y-102435613D01*
X106679641Y-102304431D01*
X106435418Y-102208580D01*
X106179627Y-102150197D01*
X105983499Y-102135500D01*
X105983494Y-102135500D01*
X105852506Y-102135500D01*
X105852501Y-102135500D01*
X105656372Y-102150197D01*
X105400581Y-102208580D01*
X105156358Y-102304431D01*
X104929143Y-102435613D01*
X104724015Y-102599198D01*
X104545571Y-102791514D01*
X104445070Y-102938922D01*
X104397772Y-103008296D01*
X104283937Y-103244677D01*
X104206604Y-103495385D01*
X104167500Y-103754818D01*
X104167500Y-104017182D01*
X104206604Y-104276615D01*
X104283937Y-104527323D01*
X104397772Y-104763704D01*
X104464938Y-104862218D01*
X104545568Y-104980481D01*
X104624572Y-105065626D01*
X104672281Y-105117045D01*
X104703102Y-105177712D01*
X104697268Y-105245508D01*
X104656535Y-105300018D01*
X104593171Y-105324824D01*
X104438612Y-105339583D01*
X104236786Y-105398844D01*
X104049832Y-105495227D01*
X103884491Y-105625252D01*
X103746743Y-105784220D01*
X103641574Y-105966379D01*
X103572777Y-106165154D01*
X103542843Y-106373352D01*
X103542843Y-106373355D01*
X100207986Y-106373355D01*
X100206701Y-101477182D01*
X110517500Y-101477182D01*
X110556604Y-101736615D01*
X110633937Y-101987323D01*
X110747772Y-102223704D01*
X110849666Y-102373155D01*
X110895571Y-102440485D01*
X111042836Y-102599198D01*
X111074019Y-102632805D01*
X111279143Y-102796386D01*
X111506357Y-102927568D01*
X111674550Y-102993579D01*
X111727318Y-103014289D01*
X111750584Y-103023420D01*
X112006370Y-103081802D01*
X112062408Y-103086001D01*
X112202501Y-103096500D01*
X112202506Y-103096500D01*
X112333494Y-103096500D01*
X112333499Y-103096500D01*
X112456078Y-103087313D01*
X112529630Y-103081802D01*
X112785416Y-103023420D01*
X113029643Y-102927568D01*
X113256857Y-102796386D01*
X113461981Y-102632805D01*
X113561273Y-102525792D01*
X113640428Y-102440485D01*
X113640429Y-102440482D01*
X113640433Y-102440479D01*
X113788228Y-102223704D01*
X113902063Y-101987323D01*
X113979396Y-101736615D01*
X114018500Y-101477182D01*
X114018500Y-101214818D01*
X113979396Y-100955385D01*
X113902063Y-100704677D01*
X113788228Y-100468296D01*
X113640433Y-100251521D01*
X113640432Y-100251520D01*
X113640428Y-100251514D01*
X113461984Y-100059198D01*
X113461983Y-100059197D01*
X113461981Y-100059195D01*
X113256857Y-99895614D01*
X113256856Y-99895613D01*
X113029641Y-99764431D01*
X112785418Y-99668580D01*
X112529627Y-99610197D01*
X112333499Y-99595500D01*
X112333494Y-99595500D01*
X112202506Y-99595500D01*
X112202501Y-99595500D01*
X112006372Y-99610197D01*
X111750581Y-99668580D01*
X111506358Y-99764431D01*
X111279143Y-99895613D01*
X111074015Y-100059198D01*
X110895571Y-100251514D01*
X110798214Y-100394312D01*
X110747772Y-100468296D01*
X110633937Y-100704677D01*
X110556604Y-100955385D01*
X110517500Y-101214818D01*
X110517500Y-101477182D01*
X100206701Y-101477182D01*
X100205387Y-96469632D01*
X100202987Y-87323355D01*
X103542843Y-87323355D01*
X103552852Y-87533459D01*
X103602442Y-87737871D01*
X103636991Y-87813522D01*
X103689822Y-87929208D01*
X103771205Y-88043493D01*
X103811831Y-88100544D01*
X103964063Y-88245697D01*
X103964065Y-88245698D01*
X103964066Y-88245699D01*
X104141009Y-88359414D01*
X104141014Y-88359416D01*
X104336288Y-88437593D01*
X104465084Y-88462416D01*
X104542828Y-88477400D01*
X104542829Y-88477400D01*
X104700463Y-88477400D01*
X104700468Y-88477400D01*
X104857389Y-88462416D01*
X105059211Y-88403156D01*
X105246170Y-88306771D01*
X105411510Y-88176747D01*
X105549255Y-88017781D01*
X105654426Y-87835619D01*
X105723222Y-87636846D01*
X105749919Y-87451167D01*
X107479833Y-87451167D01*
X107509911Y-87750145D01*
X107579569Y-88042448D01*
X107687567Y-88322857D01*
X107830538Y-88583747D01*
X107831979Y-88586375D01*
X108010223Y-88828290D01*
X108219121Y-89044289D01*
X108454946Y-89230518D01*
X108713487Y-89383652D01*
X108990133Y-89500960D01*
X108990134Y-89500960D01*
X108990136Y-89500961D01*
X109054010Y-89518457D01*
X109279946Y-89580348D01*
X109577755Y-89620400D01*
X109803033Y-89620400D01*
X109803035Y-89620400D01*
X110027820Y-89605352D01*
X110101436Y-89590388D01*
X110322287Y-89545499D01*
X110606151Y-89446931D01*
X110740247Y-89379168D01*
X110874340Y-89311409D01*
X110874343Y-89311407D01*
X111122080Y-89141346D01*
X111344939Y-88939782D01*
X111538943Y-88710312D01*
X111700631Y-88457032D01*
X111827118Y-88184460D01*
X111916146Y-87897462D01*
X111966126Y-87601158D01*
X111975414Y-87323355D01*
X113702843Y-87323355D01*
X113712852Y-87533459D01*
X113762442Y-87737871D01*
X113796991Y-87813522D01*
X113849822Y-87929208D01*
X113931205Y-88043493D01*
X113971831Y-88100544D01*
X114124063Y-88245697D01*
X114124065Y-88245698D01*
X114124066Y-88245699D01*
X114301009Y-88359414D01*
X114301014Y-88359416D01*
X114496288Y-88437593D01*
X114625084Y-88462416D01*
X114702828Y-88477400D01*
X114702829Y-88477400D01*
X114860463Y-88477400D01*
X114860468Y-88477400D01*
X115017389Y-88462416D01*
X115219211Y-88403156D01*
X115406170Y-88306771D01*
X115571510Y-88176747D01*
X115709255Y-88017781D01*
X115814426Y-87835619D01*
X115883222Y-87636846D01*
X115913157Y-87428645D01*
X115903148Y-87218541D01*
X115853558Y-87014129D01*
X115766179Y-86822795D01*
X115766178Y-86822794D01*
X115766177Y-86822791D01*
X115644170Y-86651458D01*
X115644169Y-86651456D01*
X115491937Y-86506303D01*
X115491934Y-86506301D01*
X115491933Y-86506300D01*
X115314990Y-86392585D01*
X115168634Y-86333992D01*
X115119712Y-86314407D01*
X115119711Y-86314406D01*
X115119709Y-86314406D01*
X114913172Y-86274600D01*
X114913171Y-86274600D01*
X114755532Y-86274600D01*
X114668353Y-86282924D01*
X114598607Y-86289584D01*
X114396786Y-86348844D01*
X114209832Y-86445227D01*
X114054298Y-86567540D01*
X114044490Y-86575253D01*
X114029977Y-86592001D01*
X113906743Y-86734220D01*
X113801574Y-86916379D01*
X113732777Y-87115154D01*
X113702843Y-87323352D01*
X113702843Y-87323355D01*
X111975414Y-87323355D01*
X111976167Y-87300836D01*
X111946089Y-87001855D01*
X111876430Y-86709551D01*
X111829521Y-86587755D01*
X111768432Y-86429142D01*
X111718411Y-86337866D01*
X111624021Y-86165625D01*
X111445777Y-85923710D01*
X111236879Y-85707711D01*
X111173540Y-85657693D01*
X111001053Y-85521481D01*
X110871783Y-85444914D01*
X110742513Y-85368348D01*
X110518886Y-85273522D01*
X110465863Y-85251038D01*
X110176058Y-85171653D01*
X110176057Y-85171652D01*
X110176054Y-85171652D01*
X109878245Y-85131600D01*
X109652967Y-85131600D01*
X109652965Y-85131600D01*
X109428179Y-85146647D01*
X109133715Y-85206500D01*
X108849845Y-85305070D01*
X108581659Y-85440590D01*
X108333919Y-85610654D01*
X108111062Y-85812216D01*
X107917057Y-86041687D01*
X107755367Y-86294970D01*
X107628883Y-86567537D01*
X107539854Y-86854537D01*
X107489874Y-87150841D01*
X107479833Y-87451167D01*
X105749919Y-87451167D01*
X105753157Y-87428645D01*
X105743148Y-87218541D01*
X105693558Y-87014129D01*
X105606179Y-86822795D01*
X105606178Y-86822794D01*
X105606177Y-86822791D01*
X105567883Y-86769015D01*
X105545062Y-86703620D01*
X105560876Y-86636187D01*
X105610390Y-86587755D01*
X105678156Y-86573435D01*
X105852501Y-86586500D01*
X105852506Y-86586500D01*
X105983494Y-86586500D01*
X105983499Y-86586500D01*
X106106078Y-86577313D01*
X106179630Y-86571802D01*
X106435416Y-86513420D01*
X106679643Y-86417568D01*
X106906857Y-86286386D01*
X107111981Y-86122805D01*
X107225617Y-86000334D01*
X107290428Y-85930485D01*
X107290431Y-85930481D01*
X107290433Y-85930479D01*
X107438228Y-85713704D01*
X107552063Y-85477323D01*
X107629396Y-85226615D01*
X107668500Y-84967182D01*
X107668500Y-84704818D01*
X107629396Y-84445385D01*
X107552063Y-84194677D01*
X107438228Y-83958296D01*
X107290433Y-83741521D01*
X107290432Y-83741520D01*
X107290428Y-83741514D01*
X107111984Y-83549198D01*
X107111983Y-83549197D01*
X107111981Y-83549195D01*
X106906857Y-83385614D01*
X106906856Y-83385613D01*
X106722913Y-83279414D01*
X106679643Y-83254432D01*
X106679642Y-83254431D01*
X106679641Y-83254431D01*
X106435418Y-83158580D01*
X106179627Y-83100197D01*
X105983499Y-83085500D01*
X105983494Y-83085500D01*
X105852506Y-83085500D01*
X105852501Y-83085500D01*
X105656372Y-83100197D01*
X105400581Y-83158580D01*
X105156358Y-83254431D01*
X104929143Y-83385613D01*
X104724015Y-83549198D01*
X104545571Y-83741514D01*
X104449966Y-83881742D01*
X104397772Y-83958296D01*
X104283937Y-84194677D01*
X104206604Y-84445385D01*
X104167500Y-84704818D01*
X104167500Y-84967182D01*
X104206604Y-85226615D01*
X104283937Y-85477323D01*
X104397772Y-85713704D01*
X104492220Y-85852233D01*
X104545568Y-85930481D01*
X104610383Y-86000334D01*
X104672281Y-86067045D01*
X104703102Y-86127712D01*
X104697268Y-86195508D01*
X104656535Y-86250018D01*
X104593171Y-86274824D01*
X104438612Y-86289583D01*
X104236786Y-86348844D01*
X104049832Y-86445227D01*
X103894298Y-86567540D01*
X103884490Y-86575253D01*
X103869977Y-86592001D01*
X103746743Y-86734220D01*
X103641574Y-86916379D01*
X103572777Y-87115154D01*
X103542843Y-87323352D01*
X103542843Y-87323355D01*
X100202987Y-87323355D01*
X100201702Y-82427182D01*
X110517500Y-82427182D01*
X110556604Y-82686615D01*
X110633937Y-82937323D01*
X110747772Y-83173704D01*
X110873146Y-83357593D01*
X110895571Y-83390485D01*
X111074015Y-83582801D01*
X111074019Y-83582805D01*
X111279143Y-83746386D01*
X111506357Y-83877568D01*
X111665462Y-83940012D01*
X111727318Y-83964289D01*
X111750584Y-83973420D01*
X112006370Y-84031802D01*
X112062408Y-84036001D01*
X112202501Y-84046500D01*
X112202506Y-84046500D01*
X112333494Y-84046500D01*
X112333499Y-84046500D01*
X112456079Y-84037313D01*
X112529630Y-84031802D01*
X112785416Y-83973420D01*
X113029643Y-83877568D01*
X113256857Y-83746386D01*
X113461981Y-83582805D01*
X113575617Y-83460334D01*
X113640428Y-83390485D01*
X113640429Y-83390482D01*
X113640433Y-83390479D01*
X113788228Y-83173704D01*
X113902063Y-82937323D01*
X113979396Y-82686615D01*
X114018500Y-82427182D01*
X114018500Y-82243355D01*
X122592843Y-82243355D01*
X122602852Y-82453459D01*
X122652442Y-82657871D01*
X122697082Y-82755619D01*
X122739822Y-82849208D01*
X122821205Y-82963493D01*
X122861831Y-83020544D01*
X123014063Y-83165697D01*
X123014065Y-83165698D01*
X123014066Y-83165699D01*
X123191009Y-83279414D01*
X123191014Y-83279416D01*
X123386288Y-83357593D01*
X123515084Y-83382416D01*
X123592828Y-83397400D01*
X123592829Y-83397400D01*
X123750463Y-83397400D01*
X123750468Y-83397400D01*
X123907389Y-83382416D01*
X124109211Y-83323156D01*
X124296170Y-83226771D01*
X124461510Y-83096747D01*
X124599255Y-82937781D01*
X124704426Y-82755619D01*
X124773222Y-82556846D01*
X124799919Y-82371167D01*
X126529833Y-82371167D01*
X126559911Y-82670145D01*
X126629569Y-82962448D01*
X126737567Y-83242857D01*
X126881978Y-83506374D01*
X126905121Y-83537784D01*
X127060223Y-83748290D01*
X127269121Y-83964289D01*
X127504946Y-84150518D01*
X127763487Y-84303652D01*
X128040133Y-84420960D01*
X128040134Y-84420960D01*
X128040136Y-84420961D01*
X128103376Y-84438284D01*
X128329946Y-84500348D01*
X128627755Y-84540400D01*
X128853033Y-84540400D01*
X128853035Y-84540400D01*
X129077820Y-84525352D01*
X129151436Y-84510388D01*
X129372287Y-84465499D01*
X129656151Y-84366931D01*
X129790247Y-84299168D01*
X129924340Y-84231409D01*
X129960964Y-84206268D01*
X130172080Y-84061346D01*
X130394939Y-83859782D01*
X130588943Y-83630312D01*
X130750631Y-83377032D01*
X130877118Y-83104460D01*
X130966146Y-82817462D01*
X131016126Y-82521158D01*
X131025414Y-82243355D01*
X132752843Y-82243355D01*
X132762852Y-82453459D01*
X132812442Y-82657871D01*
X132857082Y-82755619D01*
X132899822Y-82849208D01*
X132981205Y-82963493D01*
X133021831Y-83020544D01*
X133174063Y-83165697D01*
X133174065Y-83165698D01*
X133174066Y-83165699D01*
X133351009Y-83279414D01*
X133351014Y-83279416D01*
X133546288Y-83357593D01*
X133675084Y-83382416D01*
X133752828Y-83397400D01*
X133752829Y-83397400D01*
X133910463Y-83397400D01*
X133910468Y-83397400D01*
X134067389Y-83382416D01*
X134269211Y-83323156D01*
X134456170Y-83226771D01*
X134621510Y-83096747D01*
X134759255Y-82937781D01*
X134864426Y-82755619D01*
X134933222Y-82556846D01*
X134963157Y-82348645D01*
X134953148Y-82138541D01*
X134903558Y-81934129D01*
X134816179Y-81742795D01*
X134816178Y-81742794D01*
X134816177Y-81742791D01*
X134694170Y-81571458D01*
X134694169Y-81571456D01*
X134541937Y-81426303D01*
X134541934Y-81426301D01*
X134541933Y-81426300D01*
X134364990Y-81312585D01*
X134218634Y-81253992D01*
X134169712Y-81234407D01*
X134169711Y-81234406D01*
X134169709Y-81234406D01*
X133963172Y-81194600D01*
X133963171Y-81194600D01*
X133805532Y-81194600D01*
X133718353Y-81202924D01*
X133648607Y-81209584D01*
X133446786Y-81268844D01*
X133259832Y-81365227D01*
X133104298Y-81487540D01*
X133094490Y-81495253D01*
X133079977Y-81512001D01*
X132956743Y-81654220D01*
X132851574Y-81836379D01*
X132782777Y-82035154D01*
X132752843Y-82243352D01*
X132752843Y-82243355D01*
X131025414Y-82243355D01*
X131026167Y-82220836D01*
X130996089Y-81921855D01*
X130926430Y-81629551D01*
X130879521Y-81507755D01*
X130818432Y-81349142D01*
X130768411Y-81257866D01*
X130674021Y-81085625D01*
X130495777Y-80843710D01*
X130286879Y-80627711D01*
X130275316Y-80618580D01*
X130051053Y-80441481D01*
X129921783Y-80364915D01*
X129792513Y-80288348D01*
X129537165Y-80180071D01*
X129515863Y-80171038D01*
X129226058Y-80091653D01*
X129226057Y-80091652D01*
X129226054Y-80091652D01*
X128928245Y-80051600D01*
X128702967Y-80051600D01*
X128702965Y-80051600D01*
X128478179Y-80066647D01*
X128183715Y-80126500D01*
X127899845Y-80225070D01*
X127631659Y-80360590D01*
X127383919Y-80530654D01*
X127161062Y-80732216D01*
X126967057Y-80961687D01*
X126805367Y-81214970D01*
X126678883Y-81487537D01*
X126589854Y-81774537D01*
X126539874Y-82070841D01*
X126529833Y-82371167D01*
X124799919Y-82371167D01*
X124803157Y-82348645D01*
X124793148Y-82138541D01*
X124743558Y-81934129D01*
X124656179Y-81742795D01*
X124656178Y-81742794D01*
X124656177Y-81742791D01*
X124617883Y-81689015D01*
X124595062Y-81623620D01*
X124610876Y-81556187D01*
X124660390Y-81507755D01*
X124728156Y-81493435D01*
X124902501Y-81506500D01*
X124902506Y-81506500D01*
X125033494Y-81506500D01*
X125033499Y-81506500D01*
X125156078Y-81497313D01*
X125229630Y-81491802D01*
X125485416Y-81433420D01*
X125729643Y-81337568D01*
X125956857Y-81206386D01*
X126161981Y-81042805D01*
X126323973Y-80868219D01*
X126340428Y-80850485D01*
X126340431Y-80850481D01*
X126340433Y-80850479D01*
X126488228Y-80633704D01*
X126602063Y-80397323D01*
X126679396Y-80146615D01*
X126718500Y-79887182D01*
X126718500Y-79624818D01*
X126679396Y-79365385D01*
X126602063Y-79114677D01*
X126488228Y-78878296D01*
X126340433Y-78661521D01*
X126340432Y-78661520D01*
X126340428Y-78661514D01*
X126161984Y-78469198D01*
X126161983Y-78469197D01*
X126161981Y-78469195D01*
X125956857Y-78305614D01*
X125956856Y-78305613D01*
X125729641Y-78174431D01*
X125485418Y-78078580D01*
X125229627Y-78020197D01*
X125033499Y-78005500D01*
X125033494Y-78005500D01*
X124902506Y-78005500D01*
X124902501Y-78005500D01*
X124706372Y-78020197D01*
X124450581Y-78078580D01*
X124206358Y-78174431D01*
X123979143Y-78305613D01*
X123774015Y-78469198D01*
X123595571Y-78661514D01*
X123447771Y-78878298D01*
X123427503Y-78920386D01*
X123333937Y-79114677D01*
X123256604Y-79365385D01*
X123217500Y-79624818D01*
X123217500Y-79887182D01*
X123256604Y-80146615D01*
X123333937Y-80397323D01*
X123447772Y-80633704D01*
X123546124Y-80777959D01*
X123595568Y-80850481D01*
X123612027Y-80868219D01*
X123722281Y-80987045D01*
X123753102Y-81047712D01*
X123747268Y-81115508D01*
X123706535Y-81170018D01*
X123643171Y-81194824D01*
X123488612Y-81209583D01*
X123286786Y-81268844D01*
X123099832Y-81365227D01*
X122944298Y-81487540D01*
X122934490Y-81495253D01*
X122919977Y-81512001D01*
X122796743Y-81654220D01*
X122691574Y-81836379D01*
X122622777Y-82035154D01*
X122592843Y-82243352D01*
X122592843Y-82243355D01*
X114018500Y-82243355D01*
X114018500Y-82164818D01*
X113979396Y-81905385D01*
X113902063Y-81654677D01*
X113788228Y-81418296D01*
X113640433Y-81201521D01*
X113640432Y-81201520D01*
X113640428Y-81201514D01*
X113461984Y-81009198D01*
X113461983Y-81009197D01*
X113461981Y-81009195D01*
X113256857Y-80845614D01*
X113256856Y-80845613D01*
X113029641Y-80714431D01*
X112785418Y-80618580D01*
X112529627Y-80560197D01*
X112333499Y-80545500D01*
X112333494Y-80545500D01*
X112202506Y-80545500D01*
X112202501Y-80545500D01*
X112006372Y-80560197D01*
X111750581Y-80618580D01*
X111506358Y-80714431D01*
X111279143Y-80845613D01*
X111074015Y-81009198D01*
X110895571Y-81201514D01*
X110798214Y-81344312D01*
X110747772Y-81418296D01*
X110633937Y-81654677D01*
X110556604Y-81905385D01*
X110517500Y-82164818D01*
X110517500Y-82427182D01*
X100201702Y-82427182D01*
X100200533Y-77974533D01*
X100217135Y-77912519D01*
X100262524Y-77867118D01*
X100324533Y-77850500D01*
X119225240Y-77850500D01*
X119225383Y-77850528D01*
X119225384Y-77850524D01*
X119249997Y-77850539D01*
X119250000Y-77850541D01*
X119250383Y-77850383D01*
X119250500Y-77850099D01*
X119250541Y-77850000D01*
X119250541Y-77825446D01*
X119250500Y-77825240D01*
X119250500Y-77347182D01*
X129567500Y-77347182D01*
X129606604Y-77606615D01*
X129683937Y-77857323D01*
X129797772Y-78093704D01*
X129933766Y-78293170D01*
X129945571Y-78310485D01*
X130092836Y-78469198D01*
X130124019Y-78502805D01*
X130329143Y-78666386D01*
X130556357Y-78797568D01*
X130637739Y-78829508D01*
X130762048Y-78878296D01*
X130800584Y-78893420D01*
X131056370Y-78951802D01*
X131112408Y-78956001D01*
X131252501Y-78966500D01*
X131252506Y-78966500D01*
X131383494Y-78966500D01*
X131383499Y-78966500D01*
X131506078Y-78957313D01*
X131579630Y-78951802D01*
X131835416Y-78893420D01*
X132079643Y-78797568D01*
X132306857Y-78666386D01*
X132511981Y-78502805D01*
X132625617Y-78380334D01*
X132690428Y-78310485D01*
X132690429Y-78310482D01*
X132690433Y-78310479D01*
X132838228Y-78093704D01*
X132952063Y-77857323D01*
X133029396Y-77606615D01*
X133068500Y-77347182D01*
X133068500Y-77084818D01*
X133029396Y-76825385D01*
X132952063Y-76574677D01*
X132838228Y-76338296D01*
X132690433Y-76121521D01*
X132690432Y-76121520D01*
X132690428Y-76121514D01*
X132511984Y-75929198D01*
X132511983Y-75929197D01*
X132511981Y-75929195D01*
X132306857Y-75765614D01*
X132306856Y-75765613D01*
X132140522Y-75669581D01*
X132079643Y-75634432D01*
X132079642Y-75634431D01*
X132079641Y-75634431D01*
X131835418Y-75538580D01*
X131579627Y-75480197D01*
X131383499Y-75465500D01*
X131383494Y-75465500D01*
X131252506Y-75465500D01*
X131252501Y-75465500D01*
X131056372Y-75480197D01*
X130800581Y-75538580D01*
X130556358Y-75634431D01*
X130329143Y-75765613D01*
X130124015Y-75929198D01*
X129945571Y-76121514D01*
X129797771Y-76338298D01*
X129740301Y-76457636D01*
X129683937Y-76574677D01*
X129606604Y-76825385D01*
X129567500Y-77084818D01*
X129567500Y-77347182D01*
X119250500Y-77347182D01*
X119250500Y-75061182D01*
X148617500Y-75061182D01*
X148656604Y-75320615D01*
X148733937Y-75571323D01*
X148847772Y-75807704D01*
X148983766Y-76007170D01*
X148995571Y-76024485D01*
X149174015Y-76216801D01*
X149174019Y-76216805D01*
X149379143Y-76380386D01*
X149606357Y-76511568D01*
X149747206Y-76566847D01*
X149827634Y-76598413D01*
X149850584Y-76607420D01*
X150106370Y-76665802D01*
X150162408Y-76670001D01*
X150302501Y-76680500D01*
X150302506Y-76680500D01*
X150433494Y-76680500D01*
X150433499Y-76680500D01*
X150556079Y-76671313D01*
X150629630Y-76665802D01*
X150885416Y-76607420D01*
X151129643Y-76511568D01*
X151356857Y-76380386D01*
X151561981Y-76216805D01*
X151687108Y-76081950D01*
X151740428Y-76024485D01*
X151740429Y-76024482D01*
X151740433Y-76024479D01*
X151888228Y-75807704D01*
X152002063Y-75571323D01*
X152079396Y-75320615D01*
X152118500Y-75061182D01*
X152118500Y-74798818D01*
X152079396Y-74539385D01*
X152002063Y-74288677D01*
X151888228Y-74052296D01*
X151740433Y-73835521D01*
X151740432Y-73835520D01*
X151740428Y-73835514D01*
X151561984Y-73643198D01*
X151561983Y-73643197D01*
X151561981Y-73643195D01*
X151356857Y-73479614D01*
X151356856Y-73479613D01*
X151129641Y-73348431D01*
X150885418Y-73252580D01*
X150629627Y-73194197D01*
X150433499Y-73179500D01*
X150433494Y-73179500D01*
X150302506Y-73179500D01*
X150302501Y-73179500D01*
X150106372Y-73194197D01*
X149850581Y-73252580D01*
X149606358Y-73348431D01*
X149379143Y-73479613D01*
X149174015Y-73643198D01*
X148995571Y-73835514D01*
X148959369Y-73888613D01*
X148847772Y-74052296D01*
X148733937Y-74288677D01*
X148656604Y-74539385D01*
X148617500Y-74798818D01*
X148617500Y-75061182D01*
X119250500Y-75061182D01*
X119250500Y-72884565D01*
X119267124Y-72822546D01*
X119312538Y-72777156D01*
X119374564Y-72760565D01*
X138284169Y-72770490D01*
X138284254Y-72770491D01*
X138299999Y-72770540D01*
X138300000Y-72770541D01*
X138300000Y-72770540D01*
X138300001Y-72770541D01*
X138300381Y-72770384D01*
X138300381Y-72770383D01*
X138300383Y-72770383D01*
X138300500Y-72770099D01*
X138300541Y-72770000D01*
X138300540Y-72769997D01*
X138300583Y-72745889D01*
X138300500Y-72745467D01*
X138300500Y-70604565D01*
X138317124Y-70542546D01*
X138362538Y-70497156D01*
X138424564Y-70480565D01*
X157236111Y-70490434D01*
G37*
%TD.AperFunction*%
M02*
