%TF.GenerationSoftware,KiCad,Pcbnew,7.0.1*%
%TF.CreationDate,2024-01-26T17:48:26-05:00*%
%TF.ProjectId,OctoPlus Trio,4f63746f-506c-4757-9320-5472696f2e6b,rev?*%
%TF.SameCoordinates,Original*%
%TF.FileFunction,Legend,Top*%
%TF.FilePolarity,Positive*%
%FSLAX46Y46*%
G04 Gerber Fmt 4.6, Leading zero omitted, Abs format (unit mm)*
G04 Created by KiCad (PCBNEW 7.0.1) date 2024-01-26 17:48:26*
%MOMM*%
%LPD*%
G01*
G04 APERTURE LIST*
%ADD10C,0.150000*%
%ADD11C,0.254000*%
%ADD12C,0.300000*%
%ADD13C,0.100000*%
G04 APERTURE END LIST*
D10*
X107595032Y-122455006D02*
X108461058Y-121955006D01*
X107880746Y-122949877D02*
X108161332Y-122293009D01*
X108746772Y-122449877D02*
X107966186Y-122240720D01*
X108326748Y-123627136D02*
X108237889Y-123568467D01*
X108237889Y-123568467D02*
X108142651Y-123403510D01*
X108142651Y-123403510D02*
X108136271Y-123297221D01*
X108136271Y-123297221D02*
X108194941Y-123208363D01*
X108194941Y-123208363D02*
X108524855Y-123017887D01*
X108524855Y-123017887D02*
X108631143Y-123011507D01*
X108631143Y-123011507D02*
X108720001Y-123070176D01*
X108720001Y-123070176D02*
X108815240Y-123235133D01*
X108815240Y-123235133D02*
X108821619Y-123341422D01*
X108821619Y-123341422D02*
X108762950Y-123430280D01*
X108762950Y-123430280D02*
X108680472Y-123477899D01*
X108680472Y-123477899D02*
X108359898Y-123113125D01*
X109053335Y-123647527D02*
X108595032Y-124187056D01*
X109291430Y-124059920D02*
X108595032Y-124187056D01*
X108595032Y-124187056D02*
X108341217Y-124223625D01*
X108341217Y-124223625D02*
X108276168Y-124206196D01*
X108276168Y-124206196D02*
X108187309Y-124147527D01*
X108904556Y-124723168D02*
X109770582Y-124223168D01*
X109440667Y-124413644D02*
X109529525Y-124472313D01*
X109529525Y-124472313D02*
X109624764Y-124637270D01*
X109624764Y-124637270D02*
X109631143Y-124743558D01*
X109631143Y-124743558D02*
X109613714Y-124808607D01*
X109613714Y-124808607D02*
X109555044Y-124897465D01*
X109555044Y-124897465D02*
X109307609Y-125040323D01*
X109307609Y-125040323D02*
X109201320Y-125046702D01*
X109201320Y-125046702D02*
X109136272Y-125029273D01*
X109136272Y-125029273D02*
X109047413Y-124970603D01*
X109047413Y-124970603D02*
X108952175Y-124805646D01*
X108952175Y-124805646D02*
X108945795Y-124699358D01*
X109428366Y-125630432D02*
X109421986Y-125524144D01*
X109421986Y-125524144D02*
X109439416Y-125459095D01*
X109439416Y-125459095D02*
X109498085Y-125370237D01*
X109498085Y-125370237D02*
X109745521Y-125227380D01*
X109745521Y-125227380D02*
X109851809Y-125221000D01*
X109851809Y-125221000D02*
X109916858Y-125238430D01*
X109916858Y-125238430D02*
X110005716Y-125297099D01*
X110005716Y-125297099D02*
X110077145Y-125420817D01*
X110077145Y-125420817D02*
X110083524Y-125527105D01*
X110083524Y-125527105D02*
X110066095Y-125592154D01*
X110066095Y-125592154D02*
X110007425Y-125681012D01*
X110007425Y-125681012D02*
X109759990Y-125823869D01*
X109759990Y-125823869D02*
X109653701Y-125830249D01*
X109653701Y-125830249D02*
X109588653Y-125812819D01*
X109588653Y-125812819D02*
X109499794Y-125754150D01*
X109499794Y-125754150D02*
X109428366Y-125630432D01*
X110023604Y-126661415D02*
X110477236Y-126399510D01*
X110477236Y-126399510D02*
X110535905Y-126310652D01*
X110535905Y-126310652D02*
X110529526Y-126204364D01*
X110529526Y-126204364D02*
X110434287Y-126039407D01*
X110434287Y-126039407D02*
X110345429Y-125980738D01*
X110064843Y-126637606D02*
X109975985Y-126578937D01*
X109975985Y-126578937D02*
X109856937Y-126372740D01*
X109856937Y-126372740D02*
X109850557Y-126266452D01*
X109850557Y-126266452D02*
X109909227Y-126177594D01*
X109909227Y-126177594D02*
X109991705Y-126129974D01*
X109991705Y-126129974D02*
X110097993Y-126123595D01*
X110097993Y-126123595D02*
X110186852Y-126182264D01*
X110186852Y-126182264D02*
X110305899Y-126388460D01*
X110305899Y-126388460D02*
X110394758Y-126447129D01*
X110261699Y-127073808D02*
X110839049Y-126740475D01*
X110674092Y-126835713D02*
X110780380Y-126829333D01*
X110780380Y-126829333D02*
X110845429Y-126846763D01*
X110845429Y-126846763D02*
X110934287Y-126905432D01*
X110934287Y-126905432D02*
X110981907Y-126987911D01*
X110785509Y-127981073D02*
X111651534Y-127481073D01*
X110826748Y-127957264D02*
X110737890Y-127898595D01*
X110737890Y-127898595D02*
X110642652Y-127733637D01*
X110642652Y-127733637D02*
X110636272Y-127627349D01*
X110636272Y-127627349D02*
X110653702Y-127562301D01*
X110653702Y-127562301D02*
X110712371Y-127473442D01*
X110712371Y-127473442D02*
X110959807Y-127330585D01*
X110959807Y-127330585D02*
X111066095Y-127324205D01*
X111066095Y-127324205D02*
X111131144Y-127341635D01*
X111131144Y-127341635D02*
X111220002Y-127400304D01*
X111220002Y-127400304D02*
X111315240Y-127565261D01*
X111315240Y-127565261D02*
X111321620Y-127671550D01*
X111023604Y-128393466D02*
X111889630Y-127893466D01*
X111889630Y-127893466D02*
X112008677Y-128099663D01*
X112008677Y-128099663D02*
X112038866Y-128247190D01*
X112038866Y-128247190D02*
X112004007Y-128377288D01*
X112004007Y-128377288D02*
X111945338Y-128466146D01*
X111945338Y-128466146D02*
X111804190Y-128602624D01*
X111804190Y-128602624D02*
X111680472Y-128674052D01*
X111680472Y-128674052D02*
X111491705Y-128728051D01*
X111491705Y-128728051D02*
X111385417Y-128734431D01*
X111385417Y-128734431D02*
X111255320Y-128699571D01*
X111255320Y-128699571D02*
X111142652Y-128599663D01*
X111142652Y-128599663D02*
X111023604Y-128393466D01*
X112053335Y-128843680D02*
X111571223Y-129341970D01*
X111571223Y-129341970D02*
X112078854Y-129268832D01*
X112078854Y-129268832D02*
X111761699Y-129671885D01*
X111761699Y-129671885D02*
X112434288Y-129503509D01*
X112279129Y-130472861D02*
X112190271Y-130414192D01*
X112190271Y-130414192D02*
X112095033Y-130249235D01*
X112095033Y-130249235D02*
X112088653Y-130142947D01*
X112088653Y-130142947D02*
X112147322Y-130054089D01*
X112147322Y-130054089D02*
X112477236Y-129863612D01*
X112477236Y-129863612D02*
X112583525Y-129857233D01*
X112583525Y-129857233D02*
X112672383Y-129915902D01*
X112672383Y-129915902D02*
X112767621Y-130080859D01*
X112767621Y-130080859D02*
X112774001Y-130187147D01*
X112774001Y-130187147D02*
X112715332Y-130276006D01*
X112715332Y-130276006D02*
X112632853Y-130323625D01*
X112632853Y-130323625D02*
X112312279Y-129958851D01*
X112707701Y-131215169D02*
X112618842Y-131156500D01*
X112618842Y-131156500D02*
X112523604Y-130991543D01*
X112523604Y-130991543D02*
X112517224Y-130885255D01*
X112517224Y-130885255D02*
X112575894Y-130796396D01*
X112575894Y-130796396D02*
X112905808Y-130605920D01*
X112905808Y-130605920D02*
X113012096Y-130599540D01*
X113012096Y-130599540D02*
X113100954Y-130658209D01*
X113100954Y-130658209D02*
X113196193Y-130823167D01*
X113196193Y-130823167D02*
X113202572Y-130929455D01*
X113202572Y-130929455D02*
X113143903Y-131018313D01*
X113143903Y-131018313D02*
X113061425Y-131065932D01*
X113061425Y-131065932D02*
X112740851Y-130701158D01*
X112904557Y-131651372D02*
X113770582Y-131151372D01*
X113440668Y-131341848D02*
X113529526Y-131400517D01*
X113529526Y-131400517D02*
X113624764Y-131565474D01*
X113624764Y-131565474D02*
X113631144Y-131671762D01*
X113631144Y-131671762D02*
X113613714Y-131736811D01*
X113613714Y-131736811D02*
X113555045Y-131825670D01*
X113555045Y-131825670D02*
X113307609Y-131968527D01*
X113307609Y-131968527D02*
X113201321Y-131974906D01*
X113201321Y-131974906D02*
X113136272Y-131957477D01*
X113136272Y-131957477D02*
X113047414Y-131898808D01*
X113047414Y-131898808D02*
X112952176Y-131733850D01*
X112952176Y-131733850D02*
X112945796Y-131627562D01*
X113374367Y-132369870D02*
X113380747Y-132476158D01*
X113380747Y-132476158D02*
X113475985Y-132641115D01*
X113475985Y-132641115D02*
X113564844Y-132699784D01*
X113564844Y-132699784D02*
X113671132Y-132693404D01*
X113671132Y-132693404D02*
X113712371Y-132669595D01*
X113712371Y-132669595D02*
X113771040Y-132580737D01*
X113771040Y-132580737D02*
X113764660Y-132474448D01*
X113764660Y-132474448D02*
X113693232Y-132350731D01*
X113693232Y-132350731D02*
X113686852Y-132244442D01*
X113686852Y-132244442D02*
X113745521Y-132155584D01*
X113745521Y-132155584D02*
X113786760Y-132131775D01*
X113786760Y-132131775D02*
X113893049Y-132125395D01*
X113893049Y-132125395D02*
X113981907Y-132184064D01*
X113981907Y-132184064D02*
X114053336Y-132307782D01*
X114053336Y-132307782D02*
X114059715Y-132414070D01*
X113844178Y-133088368D02*
X113826748Y-133153417D01*
X113826748Y-133153417D02*
X113761700Y-133135987D01*
X113761700Y-133135987D02*
X113779129Y-133070938D01*
X113779129Y-133070938D02*
X113844178Y-133088368D01*
X113844178Y-133088368D02*
X113761700Y-133135987D01*
X114577145Y-133215046D02*
X113999795Y-133548380D01*
X114494666Y-133262665D02*
X114559715Y-133280095D01*
X114559715Y-133280095D02*
X114648573Y-133338764D01*
X114648573Y-133338764D02*
X114720002Y-133462482D01*
X114720002Y-133462482D02*
X114726382Y-133568770D01*
X114726382Y-133568770D02*
X114667713Y-133657629D01*
X114667713Y-133657629D02*
X114214080Y-133919533D01*
X114683891Y-134638031D02*
X114595033Y-134579362D01*
X114595033Y-134579362D02*
X114499795Y-134414405D01*
X114499795Y-134414405D02*
X114493415Y-134308117D01*
X114493415Y-134308117D02*
X114552084Y-134219259D01*
X114552084Y-134219259D02*
X114881998Y-134028782D01*
X114881998Y-134028782D02*
X114988287Y-134022403D01*
X114988287Y-134022403D02*
X115077145Y-134081072D01*
X115077145Y-134081072D02*
X115172383Y-134246029D01*
X115172383Y-134246029D02*
X115178763Y-134352317D01*
X115178763Y-134352317D02*
X115120094Y-134441175D01*
X115120094Y-134441175D02*
X115037615Y-134488795D01*
X115037615Y-134488795D02*
X114717041Y-134124021D01*
X115386669Y-134617183D02*
X115577145Y-134947097D01*
X115746773Y-134574234D02*
X115004465Y-135002806D01*
X115004465Y-135002806D02*
X114945796Y-135091664D01*
X114945796Y-135091664D02*
X114952176Y-135197952D01*
X114952176Y-135197952D02*
X114999795Y-135280431D01*
X165088571Y-128027619D02*
X165279047Y-128027619D01*
X165279047Y-128027619D02*
X165374285Y-128075238D01*
X165374285Y-128075238D02*
X165469523Y-128170476D01*
X165469523Y-128170476D02*
X165517142Y-128360952D01*
X165517142Y-128360952D02*
X165517142Y-128694285D01*
X165517142Y-128694285D02*
X165469523Y-128884761D01*
X165469523Y-128884761D02*
X165374285Y-128980000D01*
X165374285Y-128980000D02*
X165279047Y-129027619D01*
X165279047Y-129027619D02*
X165088571Y-129027619D01*
X165088571Y-129027619D02*
X164993333Y-128980000D01*
X164993333Y-128980000D02*
X164898095Y-128884761D01*
X164898095Y-128884761D02*
X164850476Y-128694285D01*
X164850476Y-128694285D02*
X164850476Y-128360952D01*
X164850476Y-128360952D02*
X164898095Y-128170476D01*
X164898095Y-128170476D02*
X164993333Y-128075238D01*
X164993333Y-128075238D02*
X165088571Y-128027619D01*
X166374285Y-128980000D02*
X166279047Y-129027619D01*
X166279047Y-129027619D02*
X166088571Y-129027619D01*
X166088571Y-129027619D02*
X165993333Y-128980000D01*
X165993333Y-128980000D02*
X165945714Y-128932380D01*
X165945714Y-128932380D02*
X165898095Y-128837142D01*
X165898095Y-128837142D02*
X165898095Y-128551428D01*
X165898095Y-128551428D02*
X165945714Y-128456190D01*
X165945714Y-128456190D02*
X165993333Y-128408571D01*
X165993333Y-128408571D02*
X166088571Y-128360952D01*
X166088571Y-128360952D02*
X166279047Y-128360952D01*
X166279047Y-128360952D02*
X166374285Y-128408571D01*
X166660000Y-128360952D02*
X167040952Y-128360952D01*
X166802857Y-128027619D02*
X166802857Y-128884761D01*
X166802857Y-128884761D02*
X166850476Y-128980000D01*
X166850476Y-128980000D02*
X166945714Y-129027619D01*
X166945714Y-129027619D02*
X167040952Y-129027619D01*
X167517143Y-129027619D02*
X167421905Y-128980000D01*
X167421905Y-128980000D02*
X167374286Y-128932380D01*
X167374286Y-128932380D02*
X167326667Y-128837142D01*
X167326667Y-128837142D02*
X167326667Y-128551428D01*
X167326667Y-128551428D02*
X167374286Y-128456190D01*
X167374286Y-128456190D02*
X167421905Y-128408571D01*
X167421905Y-128408571D02*
X167517143Y-128360952D01*
X167517143Y-128360952D02*
X167660000Y-128360952D01*
X167660000Y-128360952D02*
X167755238Y-128408571D01*
X167755238Y-128408571D02*
X167802857Y-128456190D01*
X167802857Y-128456190D02*
X167850476Y-128551428D01*
X167850476Y-128551428D02*
X167850476Y-128837142D01*
X167850476Y-128837142D02*
X167802857Y-128932380D01*
X167802857Y-128932380D02*
X167755238Y-128980000D01*
X167755238Y-128980000D02*
X167660000Y-129027619D01*
X167660000Y-129027619D02*
X167517143Y-129027619D01*
X168279048Y-128360952D02*
X168279048Y-129360952D01*
X168279048Y-128408571D02*
X168374286Y-128360952D01*
X168374286Y-128360952D02*
X168564762Y-128360952D01*
X168564762Y-128360952D02*
X168660000Y-128408571D01*
X168660000Y-128408571D02*
X168707619Y-128456190D01*
X168707619Y-128456190D02*
X168755238Y-128551428D01*
X168755238Y-128551428D02*
X168755238Y-128837142D01*
X168755238Y-128837142D02*
X168707619Y-128932380D01*
X168707619Y-128932380D02*
X168660000Y-128980000D01*
X168660000Y-128980000D02*
X168564762Y-129027619D01*
X168564762Y-129027619D02*
X168374286Y-129027619D01*
X168374286Y-129027619D02*
X168279048Y-128980000D01*
X169326667Y-129027619D02*
X169231429Y-128980000D01*
X169231429Y-128980000D02*
X169183810Y-128884761D01*
X169183810Y-128884761D02*
X169183810Y-128027619D01*
X170136191Y-128360952D02*
X170136191Y-129027619D01*
X169707620Y-128360952D02*
X169707620Y-128884761D01*
X169707620Y-128884761D02*
X169755239Y-128980000D01*
X169755239Y-128980000D02*
X169850477Y-129027619D01*
X169850477Y-129027619D02*
X169993334Y-129027619D01*
X169993334Y-129027619D02*
X170088572Y-128980000D01*
X170088572Y-128980000D02*
X170136191Y-128932380D01*
X170564763Y-128980000D02*
X170660001Y-129027619D01*
X170660001Y-129027619D02*
X170850477Y-129027619D01*
X170850477Y-129027619D02*
X170945715Y-128980000D01*
X170945715Y-128980000D02*
X170993334Y-128884761D01*
X170993334Y-128884761D02*
X170993334Y-128837142D01*
X170993334Y-128837142D02*
X170945715Y-128741904D01*
X170945715Y-128741904D02*
X170850477Y-128694285D01*
X170850477Y-128694285D02*
X170707620Y-128694285D01*
X170707620Y-128694285D02*
X170612382Y-128646666D01*
X170612382Y-128646666D02*
X170564763Y-128551428D01*
X170564763Y-128551428D02*
X170564763Y-128503809D01*
X170564763Y-128503809D02*
X170612382Y-128408571D01*
X170612382Y-128408571D02*
X170707620Y-128360952D01*
X170707620Y-128360952D02*
X170850477Y-128360952D01*
X170850477Y-128360952D02*
X170945715Y-128408571D01*
X172040954Y-128027619D02*
X172612382Y-128027619D01*
X172326668Y-129027619D02*
X172326668Y-128027619D01*
X172945716Y-129027619D02*
X172945716Y-128360952D01*
X172945716Y-128551428D02*
X172993335Y-128456190D01*
X172993335Y-128456190D02*
X173040954Y-128408571D01*
X173040954Y-128408571D02*
X173136192Y-128360952D01*
X173136192Y-128360952D02*
X173231430Y-128360952D01*
X173564764Y-129027619D02*
X173564764Y-128360952D01*
X173564764Y-128027619D02*
X173517145Y-128075238D01*
X173517145Y-128075238D02*
X173564764Y-128122857D01*
X173564764Y-128122857D02*
X173612383Y-128075238D01*
X173612383Y-128075238D02*
X173564764Y-128027619D01*
X173564764Y-128027619D02*
X173564764Y-128122857D01*
X174183811Y-129027619D02*
X174088573Y-128980000D01*
X174088573Y-128980000D02*
X174040954Y-128932380D01*
X174040954Y-128932380D02*
X173993335Y-128837142D01*
X173993335Y-128837142D02*
X173993335Y-128551428D01*
X173993335Y-128551428D02*
X174040954Y-128456190D01*
X174040954Y-128456190D02*
X174088573Y-128408571D01*
X174088573Y-128408571D02*
X174183811Y-128360952D01*
X174183811Y-128360952D02*
X174326668Y-128360952D01*
X174326668Y-128360952D02*
X174421906Y-128408571D01*
X174421906Y-128408571D02*
X174469525Y-128456190D01*
X174469525Y-128456190D02*
X174517144Y-128551428D01*
X174517144Y-128551428D02*
X174517144Y-128837142D01*
X174517144Y-128837142D02*
X174469525Y-128932380D01*
X174469525Y-128932380D02*
X174421906Y-128980000D01*
X174421906Y-128980000D02*
X174326668Y-129027619D01*
X174326668Y-129027619D02*
X174183811Y-129027619D01*
D11*
%TO.C,Cirque1*%
X184679524Y-118546573D02*
X184619048Y-118607050D01*
X184619048Y-118607050D02*
X184437619Y-118667526D01*
X184437619Y-118667526D02*
X184316667Y-118667526D01*
X184316667Y-118667526D02*
X184135238Y-118607050D01*
X184135238Y-118607050D02*
X184014286Y-118486097D01*
X184014286Y-118486097D02*
X183953809Y-118365145D01*
X183953809Y-118365145D02*
X183893333Y-118123240D01*
X183893333Y-118123240D02*
X183893333Y-117941811D01*
X183893333Y-117941811D02*
X183953809Y-117699907D01*
X183953809Y-117699907D02*
X184014286Y-117578954D01*
X184014286Y-117578954D02*
X184135238Y-117458002D01*
X184135238Y-117458002D02*
X184316667Y-117397526D01*
X184316667Y-117397526D02*
X184437619Y-117397526D01*
X184437619Y-117397526D02*
X184619048Y-117458002D01*
X184619048Y-117458002D02*
X184679524Y-117518478D01*
X185223809Y-118667526D02*
X185223809Y-117820859D01*
X185223809Y-117397526D02*
X185163333Y-117458002D01*
X185163333Y-117458002D02*
X185223809Y-117518478D01*
X185223809Y-117518478D02*
X185284286Y-117458002D01*
X185284286Y-117458002D02*
X185223809Y-117397526D01*
X185223809Y-117397526D02*
X185223809Y-117518478D01*
X185828571Y-118667526D02*
X185828571Y-117820859D01*
X185828571Y-118062764D02*
X185889048Y-117941811D01*
X185889048Y-117941811D02*
X185949524Y-117881335D01*
X185949524Y-117881335D02*
X186070476Y-117820859D01*
X186070476Y-117820859D02*
X186191429Y-117820859D01*
X187159047Y-117820859D02*
X187159047Y-119090859D01*
X187159047Y-118607050D02*
X187038095Y-118667526D01*
X187038095Y-118667526D02*
X186796190Y-118667526D01*
X186796190Y-118667526D02*
X186675238Y-118607050D01*
X186675238Y-118607050D02*
X186614761Y-118546573D01*
X186614761Y-118546573D02*
X186554285Y-118425621D01*
X186554285Y-118425621D02*
X186554285Y-118062764D01*
X186554285Y-118062764D02*
X186614761Y-117941811D01*
X186614761Y-117941811D02*
X186675238Y-117881335D01*
X186675238Y-117881335D02*
X186796190Y-117820859D01*
X186796190Y-117820859D02*
X187038095Y-117820859D01*
X187038095Y-117820859D02*
X187159047Y-117881335D01*
X188308095Y-117820859D02*
X188308095Y-118667526D01*
X187763809Y-117820859D02*
X187763809Y-118486097D01*
X187763809Y-118486097D02*
X187824286Y-118607050D01*
X187824286Y-118607050D02*
X187945238Y-118667526D01*
X187945238Y-118667526D02*
X188126667Y-118667526D01*
X188126667Y-118667526D02*
X188247619Y-118607050D01*
X188247619Y-118607050D02*
X188308095Y-118546573D01*
X189396667Y-118607050D02*
X189275715Y-118667526D01*
X189275715Y-118667526D02*
X189033810Y-118667526D01*
X189033810Y-118667526D02*
X188912857Y-118607050D01*
X188912857Y-118607050D02*
X188852381Y-118486097D01*
X188852381Y-118486097D02*
X188852381Y-118002288D01*
X188852381Y-118002288D02*
X188912857Y-117881335D01*
X188912857Y-117881335D02*
X189033810Y-117820859D01*
X189033810Y-117820859D02*
X189275715Y-117820859D01*
X189275715Y-117820859D02*
X189396667Y-117881335D01*
X189396667Y-117881335D02*
X189457143Y-118002288D01*
X189457143Y-118002288D02*
X189457143Y-118123240D01*
X189457143Y-118123240D02*
X188852381Y-118244192D01*
X190666667Y-118667526D02*
X189940952Y-118667526D01*
X190303809Y-118667526D02*
X190303809Y-117397526D01*
X190303809Y-117397526D02*
X190182857Y-117578954D01*
X190182857Y-117578954D02*
X190061905Y-117699907D01*
X190061905Y-117699907D02*
X189940952Y-117760383D01*
D12*
%TO.C,G\u002A\u002A\u002A*%
X208098572Y-119585357D02*
X207955715Y-119513928D01*
X207955715Y-119513928D02*
X207741429Y-119513928D01*
X207741429Y-119513928D02*
X207527143Y-119585357D01*
X207527143Y-119585357D02*
X207384286Y-119728214D01*
X207384286Y-119728214D02*
X207312857Y-119871071D01*
X207312857Y-119871071D02*
X207241429Y-120156785D01*
X207241429Y-120156785D02*
X207241429Y-120371071D01*
X207241429Y-120371071D02*
X207312857Y-120656785D01*
X207312857Y-120656785D02*
X207384286Y-120799642D01*
X207384286Y-120799642D02*
X207527143Y-120942500D01*
X207527143Y-120942500D02*
X207741429Y-121013928D01*
X207741429Y-121013928D02*
X207884286Y-121013928D01*
X207884286Y-121013928D02*
X208098572Y-120942500D01*
X208098572Y-120942500D02*
X208170000Y-120871071D01*
X208170000Y-120871071D02*
X208170000Y-120371071D01*
X208170000Y-120371071D02*
X207884286Y-120371071D01*
X209027143Y-119513928D02*
X209027143Y-119871071D01*
X208670000Y-119728214D02*
X209027143Y-119871071D01*
X209027143Y-119871071D02*
X209384286Y-119728214D01*
X208812857Y-120156785D02*
X209027143Y-119871071D01*
X209027143Y-119871071D02*
X209241429Y-120156785D01*
X210170000Y-119513928D02*
X210170000Y-119871071D01*
X209812857Y-119728214D02*
X210170000Y-119871071D01*
X210170000Y-119871071D02*
X210527143Y-119728214D01*
X209955714Y-120156785D02*
X210170000Y-119871071D01*
X210170000Y-119871071D02*
X210384286Y-120156785D01*
X211312857Y-119513928D02*
X211312857Y-119871071D01*
X210955714Y-119728214D02*
X211312857Y-119871071D01*
X211312857Y-119871071D02*
X211670000Y-119728214D01*
X211098571Y-120156785D02*
X211312857Y-119871071D01*
X211312857Y-119871071D02*
X211527143Y-120156785D01*
D10*
%TO.C,SW2*%
X121778000Y-76296000D02*
X121778000Y-75296000D01*
X121778000Y-89296000D02*
X121778000Y-88296000D01*
X121778000Y-89296000D02*
X122778000Y-89296000D01*
X122778000Y-75296000D02*
X121778000Y-75296000D01*
X134778000Y-89296000D02*
X135778000Y-89296000D01*
X135778000Y-75296000D02*
X134778000Y-75296000D01*
X135778000Y-75296000D02*
X135778000Y-76296000D01*
X135778000Y-88296000D02*
X135778000Y-89296000D01*
%TO.C,SW7*%
X140828000Y-93060000D02*
X140828000Y-92060000D01*
X140828000Y-106060000D02*
X140828000Y-105060000D01*
X140828000Y-106060000D02*
X141828000Y-106060000D01*
X141828000Y-92060000D02*
X140828000Y-92060000D01*
X153828000Y-106060000D02*
X154828000Y-106060000D01*
X154828000Y-92060000D02*
X153828000Y-92060000D01*
X154828000Y-92060000D02*
X154828000Y-93060000D01*
X154828000Y-105060000D02*
X154828000Y-106060000D01*
%TO.C,SW11*%
X180132273Y-138017703D02*
X180474293Y-137078011D01*
X175686011Y-150233707D02*
X176028031Y-149294015D01*
X175686011Y-150233707D02*
X176625703Y-150575727D01*
X181413985Y-137420031D02*
X180474293Y-137078011D01*
X187902015Y-154679969D02*
X188841707Y-155021989D01*
X193629989Y-141866293D02*
X192690297Y-141524273D01*
X193629989Y-141866293D02*
X193287969Y-142805985D01*
X189183727Y-154082297D02*
X188841707Y-155021989D01*
%TO.C,SW4*%
X159878000Y-76296000D02*
X159878000Y-75296000D01*
X159878000Y-89296000D02*
X159878000Y-88296000D01*
X159878000Y-89296000D02*
X160878000Y-89296000D01*
X160878000Y-75296000D02*
X159878000Y-75296000D01*
X172878000Y-89296000D02*
X173878000Y-89296000D01*
X173878000Y-75296000D02*
X172878000Y-75296000D01*
X173878000Y-75296000D02*
X173878000Y-76296000D01*
X173878000Y-88296000D02*
X173878000Y-89296000D01*
D13*
%TO.C,Cirque1*%
X183480000Y-116480000D02*
X183480000Y-119880000D01*
X183480000Y-119880000D02*
X184030000Y-119880000D01*
X184530000Y-116480000D02*
X183480000Y-116480000D01*
X190530000Y-116480000D02*
X191080000Y-116480000D01*
X191080000Y-116480000D02*
X191080000Y-119880000D01*
X191080000Y-119880000D02*
X190030000Y-119880000D01*
D10*
%TO.C,SW9*%
X137150235Y-128003616D02*
X137323883Y-127018808D01*
X134892808Y-140806117D02*
X135066457Y-139821309D01*
X134892808Y-140806117D02*
X135877616Y-140979765D01*
X138308691Y-127192457D02*
X137323883Y-127018808D01*
X147695309Y-143063543D02*
X148680117Y-143237192D01*
X151111192Y-129449883D02*
X150126384Y-129276235D01*
X151111192Y-129449883D02*
X150937543Y-130434691D01*
X148853765Y-142252384D02*
X148680117Y-143237192D01*
%TO.C,SW10*%
X158794533Y-132301912D02*
X159053353Y-131335986D01*
X155429886Y-144858947D02*
X155688705Y-143893022D01*
X155429886Y-144858947D02*
X156395812Y-145117767D01*
X160019278Y-131594805D02*
X159053353Y-131335986D01*
X167986922Y-148223595D02*
X168952847Y-148482414D01*
X172576314Y-134959453D02*
X171610388Y-134700633D01*
X172576314Y-134959453D02*
X172317495Y-135925378D01*
X169211667Y-147516488D02*
X168952847Y-148482414D01*
%TO.C,SW5*%
X102728000Y-100426000D02*
X102728000Y-99426000D01*
X102728000Y-113426000D02*
X102728000Y-112426000D01*
X102728000Y-113426000D02*
X103728000Y-113426000D01*
X103728000Y-99426000D02*
X102728000Y-99426000D01*
X115728000Y-113426000D02*
X116728000Y-113426000D01*
X116728000Y-99426000D02*
X115728000Y-99426000D01*
X116728000Y-99426000D02*
X116728000Y-100426000D01*
X116728000Y-112426000D02*
X116728000Y-113426000D01*
%TO.C,G\u002A\u002A\u002A*%
G36*
X163687150Y-125349417D02*
G01*
X163790830Y-125406934D01*
X163878464Y-125493549D01*
X163932685Y-125582760D01*
X163971635Y-125706023D01*
X163975354Y-125826490D01*
X163947633Y-125939251D01*
X163892260Y-126039398D01*
X163813026Y-126122020D01*
X163713719Y-126182209D01*
X163598128Y-126215054D01*
X163470045Y-126215648D01*
X163446903Y-126212118D01*
X163326601Y-126172505D01*
X163227289Y-126102348D01*
X163153076Y-126006348D01*
X163108073Y-125889205D01*
X163096874Y-125811873D01*
X163101689Y-125680266D01*
X163136365Y-125569556D01*
X163203649Y-125472498D01*
X163239058Y-125437025D01*
X163343378Y-125364801D01*
X163457070Y-125327016D01*
X163573779Y-125322333D01*
X163687150Y-125349417D01*
G37*
G36*
X174899242Y-125333293D02*
G01*
X175009359Y-125382924D01*
X175065290Y-125424205D01*
X175150710Y-125519765D01*
X175205076Y-125628870D01*
X175229103Y-125744990D01*
X175223504Y-125861598D01*
X175188996Y-125972164D01*
X175126293Y-126070160D01*
X175036111Y-126149057D01*
X174982692Y-126178496D01*
X174893808Y-126204733D01*
X174789645Y-126213544D01*
X174688270Y-126204558D01*
X174624787Y-126185851D01*
X174506546Y-126116342D01*
X174420485Y-126025090D01*
X174367423Y-125913321D01*
X174348178Y-125782261D01*
X174348121Y-125771688D01*
X174365250Y-125643308D01*
X174411975Y-125532455D01*
X174482860Y-125441762D01*
X174572467Y-125373865D01*
X174675358Y-125331398D01*
X174786096Y-125316996D01*
X174899242Y-125333293D01*
G37*
G36*
X169273894Y-126388064D02*
G01*
X169385467Y-126438400D01*
X169485219Y-126522632D01*
X169486200Y-126523717D01*
X169556080Y-126627887D01*
X169593201Y-126743663D01*
X169598037Y-126863491D01*
X169571061Y-126979818D01*
X169512747Y-127085093D01*
X169446668Y-127153969D01*
X169398114Y-127186050D01*
X169333451Y-127218765D01*
X169265347Y-127246847D01*
X169206473Y-127265027D01*
X169171338Y-127268474D01*
X169146948Y-127263701D01*
X169098698Y-127254220D01*
X169075907Y-127249736D01*
X168955405Y-127208372D01*
X168857753Y-127139939D01*
X168784938Y-127050408D01*
X168738945Y-126945748D01*
X168721759Y-126831931D01*
X168735367Y-126714927D01*
X168781753Y-126600707D01*
X168835008Y-126525352D01*
X168931057Y-126440266D01*
X169040409Y-126389012D01*
X169156781Y-126371606D01*
X169273894Y-126388064D01*
G37*
G36*
X168480163Y-119566584D02*
G01*
X168543869Y-119593841D01*
X168613561Y-119646193D01*
X168659717Y-119715506D01*
X168687164Y-119810232D01*
X168693905Y-119856432D01*
X168724720Y-119969143D01*
X168786870Y-120060071D01*
X168878325Y-120127772D01*
X168997052Y-120170802D01*
X169141020Y-120187717D01*
X169160231Y-120187923D01*
X169309530Y-120173846D01*
X169433232Y-120131206D01*
X169533048Y-120059391D01*
X169540767Y-120051632D01*
X169581976Y-120001331D01*
X169606480Y-119946543D01*
X169621669Y-119870420D01*
X169622330Y-119865655D01*
X169646038Y-119751050D01*
X169683249Y-119667451D01*
X169737399Y-119608109D01*
X169761987Y-119591209D01*
X169851983Y-119557536D01*
X169947412Y-119557523D01*
X170039256Y-119588522D01*
X170118495Y-119647887D01*
X170164123Y-119709247D01*
X170196939Y-119802692D01*
X170205967Y-119916318D01*
X170191804Y-120039770D01*
X170155043Y-120162691D01*
X170135550Y-120206544D01*
X170068239Y-120317301D01*
X169977381Y-120430342D01*
X169875022Y-120532168D01*
X169780038Y-120604985D01*
X169652873Y-120670352D01*
X169501752Y-120722827D01*
X169339543Y-120759651D01*
X169179112Y-120778062D01*
X169033326Y-120775302D01*
X169003923Y-120771491D01*
X168809262Y-120724529D01*
X168628764Y-120647693D01*
X168467596Y-120544428D01*
X168330925Y-120418179D01*
X168223916Y-120272390D01*
X168205412Y-120239074D01*
X168148286Y-120103349D01*
X168116218Y-119965905D01*
X168111555Y-119838149D01*
X168115800Y-119803720D01*
X168149733Y-119703568D01*
X168210010Y-119626409D01*
X168289757Y-119575611D01*
X168382099Y-119554546D01*
X168480163Y-119566584D01*
G37*
G36*
X166769742Y-117965731D02*
G01*
X166897359Y-117992938D01*
X166942207Y-118008507D01*
X167115531Y-118098178D01*
X167264803Y-118216914D01*
X167387051Y-118361007D01*
X167479303Y-118526748D01*
X167538588Y-118710426D01*
X167549114Y-118766045D01*
X167560852Y-118952071D01*
X167537698Y-119130297D01*
X167483001Y-119297359D01*
X167400115Y-119449894D01*
X167292391Y-119584537D01*
X167163181Y-119697925D01*
X167015837Y-119786695D01*
X166853710Y-119847482D01*
X166680153Y-119876924D01*
X166498517Y-119871656D01*
X166454154Y-119864863D01*
X166270125Y-119813811D01*
X166104898Y-119728902D01*
X165956651Y-119609108D01*
X165905430Y-119555392D01*
X165817703Y-119441317D01*
X165747834Y-119318572D01*
X165696681Y-119192596D01*
X165665103Y-119068826D01*
X165653957Y-118952701D01*
X165664101Y-118849658D01*
X165696395Y-118765137D01*
X165751695Y-118704575D01*
X165769447Y-118693691D01*
X165799895Y-118683386D01*
X165818933Y-118700191D01*
X165830306Y-118726637D01*
X165873760Y-118800527D01*
X165940073Y-118868162D01*
X166015457Y-118916748D01*
X166048334Y-118928901D01*
X166158816Y-118939686D01*
X166266447Y-118915910D01*
X166361856Y-118861254D01*
X166435671Y-118779397D01*
X166437825Y-118775960D01*
X166473506Y-118684319D01*
X166480793Y-118580827D01*
X166459751Y-118480412D01*
X166436359Y-118432283D01*
X166368410Y-118354041D01*
X166280847Y-118299185D01*
X166183600Y-118271364D01*
X166086601Y-118274228D01*
X166042830Y-118287663D01*
X165979110Y-118307020D01*
X165941573Y-118299659D01*
X165927041Y-118264654D01*
X165926615Y-118253724D01*
X165944763Y-118204458D01*
X165995303Y-118150903D01*
X166072380Y-118096785D01*
X166170140Y-118045827D01*
X166282729Y-118001754D01*
X166357856Y-117979403D01*
X166484838Y-117958209D01*
X166627184Y-117953904D01*
X166769742Y-117965731D01*
G37*
G36*
X171834818Y-117956179D02*
G01*
X171924025Y-117968290D01*
X172098575Y-118025088D01*
X172260944Y-118115763D01*
X172404216Y-118235467D01*
X172521473Y-118379356D01*
X172530337Y-118393047D01*
X172608875Y-118551854D01*
X172656031Y-118726095D01*
X172671801Y-118908031D01*
X172656182Y-119089921D01*
X172609168Y-119264023D01*
X172530879Y-119422405D01*
X172415763Y-119570334D01*
X172277222Y-119692308D01*
X172120641Y-119786041D01*
X171951402Y-119849249D01*
X171774890Y-119879646D01*
X171596488Y-119874949D01*
X171504846Y-119857899D01*
X171338189Y-119802482D01*
X171192449Y-119720428D01*
X171057086Y-119605713D01*
X171048581Y-119597171D01*
X170917492Y-119440827D01*
X170824411Y-119276115D01*
X170769442Y-119103271D01*
X170752615Y-118934036D01*
X170756695Y-118865181D01*
X170773468Y-118815699D01*
X170809734Y-118766331D01*
X170813255Y-118762295D01*
X170852557Y-118721378D01*
X170882859Y-118696610D01*
X170891146Y-118693231D01*
X170909279Y-118709439D01*
X170931678Y-118749343D01*
X170935601Y-118758335D01*
X170989371Y-118839714D01*
X171068363Y-118900167D01*
X171162156Y-118934760D01*
X171260332Y-118938564D01*
X171298812Y-118930264D01*
X171403657Y-118881584D01*
X171484277Y-118808613D01*
X171535884Y-118717269D01*
X171553692Y-118615419D01*
X171535697Y-118501471D01*
X171484138Y-118404262D01*
X171402654Y-118328576D01*
X171298757Y-118280334D01*
X171231900Y-118267260D01*
X171169323Y-118275124D01*
X171142743Y-118283135D01*
X171085318Y-118297805D01*
X171051604Y-118294024D01*
X171041728Y-118286774D01*
X171029681Y-118250983D01*
X171049873Y-118205463D01*
X171097919Y-118154111D01*
X171169432Y-118100820D01*
X171260027Y-118049488D01*
X171356250Y-118007419D01*
X171456148Y-117979894D01*
X171579235Y-117961488D01*
X171710472Y-117953238D01*
X171834818Y-117956179D01*
G37*
G36*
X175273097Y-120357971D02*
G01*
X175489051Y-120397467D01*
X175662632Y-120451909D01*
X175800490Y-120516896D01*
X175948058Y-120609823D01*
X176097190Y-120723870D01*
X176239735Y-120852222D01*
X176367545Y-120988059D01*
X176472470Y-121124565D01*
X176479782Y-121135538D01*
X176613972Y-121374453D01*
X176713700Y-121629127D01*
X176778637Y-121896297D01*
X176808456Y-122172699D01*
X176802828Y-122455072D01*
X176761426Y-122740151D01*
X176683921Y-123024675D01*
X176672882Y-123056635D01*
X176560718Y-123319793D01*
X176413842Y-123570844D01*
X176230868Y-123811912D01*
X176058238Y-123998334D01*
X175836265Y-124197093D01*
X175596765Y-124366906D01*
X175335892Y-124509850D01*
X175049800Y-124628004D01*
X174734642Y-124723444D01*
X174699384Y-124732312D01*
X174629075Y-124748606D01*
X174563901Y-124760598D01*
X174495772Y-124768940D01*
X174416599Y-124774284D01*
X174318289Y-124777284D01*
X174192754Y-124778592D01*
X174123000Y-124778806D01*
X173978854Y-124778442D01*
X173864797Y-124776361D01*
X173771853Y-124771891D01*
X173691046Y-124764363D01*
X173613403Y-124753107D01*
X173529949Y-124737453D01*
X173507538Y-124732860D01*
X173158657Y-124642752D01*
X172821646Y-124520495D01*
X172501612Y-124368476D01*
X172203659Y-124189085D01*
X171964000Y-124010655D01*
X171899961Y-123959228D01*
X171854235Y-123927926D01*
X171825526Y-123919522D01*
X171812537Y-123936791D01*
X171813972Y-123982508D01*
X171828535Y-124059447D01*
X171854929Y-124170382D01*
X171866900Y-124218467D01*
X171920303Y-124408860D01*
X171985192Y-124602736D01*
X172057563Y-124789820D01*
X172133410Y-124959837D01*
X172208726Y-125102513D01*
X172216895Y-125116244D01*
X172279896Y-125225893D01*
X172321097Y-125312234D01*
X172342799Y-125382720D01*
X172347301Y-125444804D01*
X172337025Y-125505490D01*
X172290751Y-125609419D01*
X172218355Y-125689259D01*
X172126583Y-125742053D01*
X172022184Y-125764843D01*
X171911904Y-125754673D01*
X171834004Y-125725954D01*
X171744893Y-125667509D01*
X171647594Y-125578803D01*
X171547523Y-125466207D01*
X171450093Y-125336093D01*
X171360719Y-125194832D01*
X171320681Y-125121888D01*
X171225013Y-124914640D01*
X171136385Y-124676365D01*
X171057150Y-124414833D01*
X170989660Y-124137812D01*
X170936267Y-123853070D01*
X170935999Y-123851384D01*
X170927294Y-123778201D01*
X170919292Y-123675799D01*
X170912080Y-123549496D01*
X170905742Y-123404613D01*
X170900365Y-123246469D01*
X170896033Y-123080384D01*
X170892833Y-122911677D01*
X170890849Y-122745668D01*
X170890168Y-122587676D01*
X170890875Y-122443022D01*
X170893056Y-122317024D01*
X170896796Y-122215002D01*
X170902180Y-122142277D01*
X170907966Y-122107952D01*
X170951850Y-122017726D01*
X171022338Y-121933687D01*
X171107597Y-121869066D01*
X171133448Y-121855823D01*
X171247398Y-121823188D01*
X171358939Y-121827034D01*
X171464229Y-121864790D01*
X171559427Y-121933888D01*
X171640690Y-122031756D01*
X171704176Y-122155825D01*
X171736560Y-122259264D01*
X171801587Y-122469279D01*
X171893467Y-122666986D01*
X172015311Y-122857426D01*
X172170228Y-123045637D01*
X172310079Y-123188448D01*
X172554058Y-123395703D01*
X172820114Y-123571764D01*
X173104748Y-123714900D01*
X173404456Y-123823381D01*
X173715738Y-123895473D01*
X173751769Y-123901299D01*
X173897873Y-123917638D01*
X174059636Y-123925257D01*
X174225844Y-123924438D01*
X174385279Y-123915468D01*
X174526726Y-123898631D01*
X174621231Y-123879206D01*
X174866505Y-123795649D01*
X175099599Y-123679706D01*
X175313072Y-123535610D01*
X175473309Y-123394386D01*
X175641254Y-123202033D01*
X175775570Y-122995828D01*
X175875277Y-122778748D01*
X175939395Y-122553769D01*
X175966944Y-122323870D01*
X175956945Y-122092027D01*
X175938516Y-121980908D01*
X175884180Y-121800440D01*
X175801102Y-121635420D01*
X175693370Y-121489753D01*
X175565069Y-121367345D01*
X175420288Y-121272102D01*
X175263112Y-121207930D01*
X175099328Y-121178842D01*
X175026009Y-121176189D01*
X174963245Y-121180406D01*
X174897416Y-121193750D01*
X174814902Y-121218478D01*
X174770284Y-121233383D01*
X174642923Y-121271140D01*
X174541044Y-121287476D01*
X174457352Y-121282243D01*
X174384550Y-121255297D01*
X174337867Y-121224744D01*
X174255597Y-121140321D01*
X174207247Y-121042030D01*
X174192687Y-120935173D01*
X174211787Y-120825053D01*
X174264416Y-120716972D01*
X174350445Y-120616234D01*
X174352872Y-120613993D01*
X174500724Y-120504169D01*
X174671148Y-120423100D01*
X174859669Y-120371342D01*
X175061811Y-120349448D01*
X175273097Y-120357971D01*
G37*
G36*
X163367651Y-120352643D02*
G01*
X163562669Y-120393220D01*
X163747485Y-120467958D01*
X163806692Y-120501007D01*
X163930870Y-120585471D01*
X164021514Y-120670770D01*
X164083932Y-120762025D01*
X164090212Y-120774514D01*
X164122769Y-120882282D01*
X164120747Y-120989998D01*
X164087818Y-121090774D01*
X164027650Y-121177721D01*
X163943915Y-121243948D01*
X163840282Y-121282566D01*
X163817541Y-121286364D01*
X163762870Y-121287646D01*
X163695092Y-121276614D01*
X163605312Y-121251503D01*
X163549717Y-121233227D01*
X163457783Y-121203297D01*
X163388813Y-121185409D01*
X163329351Y-121177447D01*
X163265937Y-121177296D01*
X163214382Y-121180523D01*
X163050417Y-121211924D01*
X162894512Y-121278375D01*
X162750655Y-121376059D01*
X162622837Y-121501162D01*
X162515046Y-121649868D01*
X162431271Y-121818363D01*
X162381184Y-121977415D01*
X162355962Y-122149269D01*
X162354426Y-122338884D01*
X162375455Y-122533828D01*
X162417926Y-122721670D01*
X162459033Y-122840359D01*
X162559167Y-123038643D01*
X162692597Y-123228180D01*
X162853679Y-123403485D01*
X163036768Y-123559074D01*
X163236221Y-123689463D01*
X163428150Y-123781982D01*
X163633139Y-123853248D01*
X163834938Y-123899201D01*
X164045836Y-123921862D01*
X164278124Y-123923252D01*
X164285384Y-123922992D01*
X164400891Y-123916905D01*
X164515728Y-123907657D01*
X164617819Y-123896422D01*
X164695091Y-123884372D01*
X164705461Y-123882200D01*
X164956013Y-123813983D01*
X165202025Y-123723021D01*
X165433473Y-123613709D01*
X165640333Y-123490439D01*
X165707447Y-123443051D01*
X165951003Y-123243869D01*
X166156813Y-123035365D01*
X166325176Y-122817143D01*
X166456390Y-122588808D01*
X166550753Y-122349964D01*
X166563276Y-122307846D01*
X166589972Y-122219165D01*
X166617433Y-122137019D01*
X166641350Y-122073961D01*
X166650463Y-122053846D01*
X166721071Y-121953097D01*
X166813826Y-121878681D01*
X166921466Y-121833441D01*
X167036728Y-121820215D01*
X167152349Y-121841846D01*
X167172553Y-121849625D01*
X167259967Y-121898543D01*
X167329019Y-121968222D01*
X167385710Y-122061130D01*
X167434167Y-122156337D01*
X167426225Y-122930591D01*
X167423762Y-123144428D01*
X167420760Y-123324836D01*
X167416655Y-123477463D01*
X167410878Y-123607957D01*
X167402864Y-123721965D01*
X167392044Y-123825137D01*
X167377853Y-123923119D01*
X167359724Y-124021560D01*
X167337088Y-124126108D01*
X167309381Y-124242410D01*
X167284536Y-124342320D01*
X167215944Y-124582451D01*
X167134606Y-124810564D01*
X167042700Y-125022897D01*
X166942409Y-125215690D01*
X166835913Y-125385184D01*
X166725393Y-125527616D01*
X166613028Y-125639228D01*
X166501000Y-125716258D01*
X166482468Y-125725492D01*
X166376434Y-125759351D01*
X166270656Y-125764617D01*
X166176029Y-125741413D01*
X166140008Y-125721727D01*
X166051996Y-125639976D01*
X165993686Y-125536414D01*
X165974027Y-125460551D01*
X165969472Y-125411126D01*
X165974769Y-125366718D01*
X165993140Y-125314977D01*
X166027808Y-125243549D01*
X166033560Y-125232406D01*
X166112062Y-125079821D01*
X166174881Y-124954807D01*
X166225049Y-124850633D01*
X166265599Y-124760567D01*
X166299564Y-124677878D01*
X166329978Y-124595833D01*
X166359320Y-124509381D01*
X166395504Y-124394543D01*
X166430103Y-124276327D01*
X166461109Y-124162488D01*
X166486511Y-124060785D01*
X166504299Y-123978973D01*
X166512464Y-123924810D01*
X166512769Y-123917193D01*
X166501645Y-123908454D01*
X166467196Y-123927162D01*
X166419961Y-123963928D01*
X166159313Y-124158191D01*
X165869637Y-124333602D01*
X165557733Y-124486909D01*
X165230402Y-124614859D01*
X164894443Y-124714200D01*
X164808650Y-124734465D01*
X164735527Y-124749906D01*
X164668273Y-124761354D01*
X164599086Y-124769358D01*
X164520164Y-124774464D01*
X164423703Y-124777221D01*
X164301902Y-124778175D01*
X164187692Y-124778032D01*
X164047119Y-124777319D01*
X163937904Y-124775775D01*
X163852332Y-124772669D01*
X163782685Y-124767270D01*
X163721246Y-124758846D01*
X163660296Y-124746667D01*
X163592120Y-124730002D01*
X163541979Y-124716869D01*
X163219025Y-124612811D01*
X162918746Y-124478156D01*
X162642450Y-124314033D01*
X162391446Y-124121573D01*
X162167040Y-123901907D01*
X161970542Y-123656166D01*
X161803258Y-123385480D01*
X161669324Y-123098097D01*
X161611960Y-122941261D01*
X161570486Y-122794056D01*
X161542247Y-122643365D01*
X161524589Y-122476069D01*
X161517303Y-122346923D01*
X161517464Y-122117218D01*
X161539838Y-121905965D01*
X161586811Y-121702646D01*
X161660773Y-121496746D01*
X161756834Y-121291846D01*
X161879095Y-121088475D01*
X162024068Y-120906566D01*
X162188099Y-120747529D01*
X162367528Y-120612775D01*
X162558699Y-120503716D01*
X162757954Y-120421762D01*
X162961636Y-120368324D01*
X163166088Y-120344814D01*
X163367651Y-120352643D01*
G37*
G36*
X169332448Y-122135323D02*
G01*
X169452856Y-122196109D01*
X169559719Y-122284714D01*
X169647339Y-122397439D01*
X169707548Y-122523452D01*
X169728962Y-122597943D01*
X169753377Y-122707073D01*
X169780063Y-122846583D01*
X169808294Y-123012214D01*
X169837339Y-123199707D01*
X169866470Y-123404802D01*
X169892945Y-123607154D01*
X169931133Y-123893449D01*
X169969980Y-124146475D01*
X170010819Y-124372036D01*
X170054986Y-124575935D01*
X170103817Y-124763973D01*
X170158646Y-124941955D01*
X170220808Y-125115682D01*
X170266545Y-125230936D01*
X170391283Y-125495775D01*
X170536293Y-125735225D01*
X170699429Y-125947642D01*
X170878542Y-126131383D01*
X171071487Y-126284805D01*
X171276116Y-126406265D01*
X171490282Y-126494120D01*
X171711838Y-126546726D01*
X171938638Y-126562439D01*
X172003077Y-126559987D01*
X172155525Y-126543611D01*
X172283491Y-126512709D01*
X172400129Y-126463273D01*
X172486483Y-126412658D01*
X172621122Y-126305003D01*
X172726367Y-126177026D01*
X172799526Y-126033391D01*
X172837908Y-125878759D01*
X172843231Y-125794515D01*
X172831745Y-125672658D01*
X172794386Y-125567515D01*
X172726800Y-125470166D01*
X172645671Y-125389814D01*
X172587541Y-125333534D01*
X172540210Y-125278393D01*
X172513021Y-125235406D01*
X172511648Y-125231856D01*
X172490786Y-125117393D01*
X172506892Y-125007429D01*
X172557870Y-124907476D01*
X172641627Y-124823051D01*
X172675855Y-124799691D01*
X172791253Y-124750589D01*
X172917508Y-124737017D01*
X173049080Y-124759033D01*
X173139540Y-124794744D01*
X173237363Y-124857122D01*
X173338979Y-124946636D01*
X173435080Y-125053607D01*
X173516359Y-125168356D01*
X173542210Y-125213465D01*
X173620715Y-125401172D01*
X173667843Y-125605534D01*
X173683568Y-125819873D01*
X173667861Y-126037514D01*
X173620694Y-126251781D01*
X173547381Y-126444716D01*
X173430021Y-126650405D01*
X173280377Y-126838492D01*
X173102440Y-127005904D01*
X172900201Y-127149569D01*
X172677650Y-127266416D01*
X172438779Y-127353371D01*
X172331006Y-127381040D01*
X172200518Y-127401632D01*
X172045090Y-127412331D01*
X171877550Y-127413280D01*
X171710724Y-127404618D01*
X171557440Y-127386486D01*
X171479770Y-127371682D01*
X171179576Y-127284244D01*
X170895699Y-127161815D01*
X170629022Y-127005301D01*
X170380425Y-126815606D01*
X170150788Y-126593639D01*
X169940991Y-126340305D01*
X169751917Y-126056511D01*
X169584444Y-125743162D01*
X169439455Y-125401166D01*
X169369079Y-125199538D01*
X169329339Y-125071670D01*
X169290465Y-124936989D01*
X169254208Y-124802548D01*
X169222319Y-124675396D01*
X169196548Y-124562585D01*
X169178645Y-124471165D01*
X169170362Y-124408187D01*
X169170000Y-124397737D01*
X169168129Y-124364623D01*
X169162264Y-124364651D01*
X169152026Y-124399155D01*
X169137037Y-124469465D01*
X169116918Y-124576913D01*
X169113262Y-124597282D01*
X169068766Y-124806731D01*
X169008592Y-125031074D01*
X168936184Y-125260429D01*
X168854992Y-125484914D01*
X168768461Y-125694648D01*
X168680039Y-125879749D01*
X168640625Y-125952244D01*
X168457954Y-126239983D01*
X168254524Y-126499877D01*
X168032393Y-126730462D01*
X167793618Y-126930277D01*
X167540257Y-127097857D01*
X167274367Y-127231739D01*
X166998007Y-127330461D01*
X166713233Y-127392560D01*
X166594588Y-127407088D01*
X166505890Y-127415008D01*
X166429973Y-127420881D01*
X166376335Y-127424024D01*
X166356461Y-127424182D01*
X166324329Y-127421211D01*
X166264423Y-127415671D01*
X166187881Y-127408591D01*
X166161077Y-127406112D01*
X165919192Y-127364752D01*
X165686473Y-127288045D01*
X165466957Y-127179026D01*
X165264679Y-127040728D01*
X165083677Y-126876185D01*
X164927989Y-126688433D01*
X164801650Y-126480505D01*
X164737120Y-126335813D01*
X164676393Y-126145013D01*
X164645203Y-125957781D01*
X164641046Y-125758072D01*
X164642422Y-125729233D01*
X164664174Y-125542907D01*
X164710345Y-125375964D01*
X164785372Y-125214206D01*
X164823630Y-125149106D01*
X164932272Y-124997830D01*
X165049187Y-124880278D01*
X165172373Y-124797654D01*
X165299828Y-124751162D01*
X165429549Y-124742008D01*
X165486897Y-124750132D01*
X165607933Y-124791790D01*
X165704542Y-124859172D01*
X165773062Y-124948122D01*
X165809831Y-125054483D01*
X165815162Y-125122771D01*
X165802936Y-125216337D01*
X165765437Y-125296756D01*
X165697421Y-125373648D01*
X165661399Y-125404832D01*
X165568238Y-125504457D01*
X165507470Y-125620777D01*
X165478863Y-125748980D01*
X165482182Y-125884253D01*
X165517196Y-126021784D01*
X165583670Y-126156763D01*
X165681372Y-126284376D01*
X165705201Y-126309155D01*
X165840674Y-126417533D01*
X165999919Y-126496669D01*
X166179688Y-126545549D01*
X166376728Y-126563154D01*
X166502315Y-126558248D01*
X166631486Y-126544486D01*
X166737343Y-126525098D01*
X166835627Y-126495815D01*
X166942079Y-126452370D01*
X167011000Y-126420324D01*
X167238317Y-126290033D01*
X167446692Y-126125584D01*
X167636109Y-125927003D01*
X167806556Y-125694319D01*
X167958016Y-125427559D01*
X168090477Y-125126750D01*
X168203924Y-124791922D01*
X168298342Y-124423100D01*
X168373717Y-124020314D01*
X168417845Y-123695077D01*
X168449586Y-123437922D01*
X168482654Y-123202524D01*
X168516520Y-122991702D01*
X168550653Y-122808276D01*
X168584524Y-122655065D01*
X168617602Y-122534888D01*
X168649358Y-122450564D01*
X168653253Y-122442597D01*
X168738002Y-122309375D01*
X168840969Y-122210043D01*
X168964429Y-122142811D01*
X169073784Y-122112005D01*
X169204191Y-122106056D01*
X169332448Y-122135323D01*
G37*
G36*
X169236692Y-112389855D02*
G01*
X169269339Y-112391803D01*
X169326330Y-112396402D01*
X169409089Y-112402067D01*
X169504354Y-112407920D01*
X169560769Y-112411091D01*
X169836979Y-112436110D01*
X170133343Y-112481318D01*
X170438040Y-112544440D01*
X170739251Y-112623202D01*
X170870605Y-112663172D01*
X170972388Y-112698242D01*
X171098921Y-112745820D01*
X171239687Y-112801586D01*
X171384166Y-112861222D01*
X171521838Y-112920412D01*
X171642186Y-112974836D01*
X171712172Y-113008631D01*
X172122892Y-113236287D01*
X172508923Y-113493325D01*
X172869069Y-113778381D01*
X173202133Y-114090092D01*
X173506916Y-114427095D01*
X173782222Y-114788026D01*
X174026852Y-115171523D01*
X174239609Y-115576223D01*
X174419297Y-116000761D01*
X174473569Y-116152080D01*
X174569389Y-116453781D01*
X174642438Y-116736817D01*
X174694682Y-117012772D01*
X174728086Y-117293232D01*
X174744616Y-117589782D01*
X174747230Y-117765154D01*
X174740695Y-118067176D01*
X174718268Y-118347932D01*
X174678031Y-118619315D01*
X174618067Y-118893218D01*
X174536459Y-119181534D01*
X174501013Y-119292361D01*
X174412304Y-119535905D01*
X174306249Y-119776462D01*
X174178806Y-120022246D01*
X174025936Y-120281471D01*
X173973453Y-120364745D01*
X173878115Y-120516075D01*
X173802498Y-120641556D01*
X173743584Y-120747119D01*
X173698356Y-120838695D01*
X173663796Y-120922216D01*
X173636889Y-121003613D01*
X173623438Y-121052821D01*
X173597700Y-121195226D01*
X173586661Y-121353136D01*
X173590827Y-121508730D01*
X173607125Y-121627923D01*
X173639984Y-121740347D01*
X173690822Y-121860206D01*
X173752678Y-121973682D01*
X173818593Y-122066961D01*
X173840731Y-122091660D01*
X173940103Y-122173078D01*
X174050292Y-122227756D01*
X174163723Y-122253999D01*
X174272823Y-122250110D01*
X174370018Y-122214393D01*
X174375095Y-122211331D01*
X174432679Y-122163129D01*
X174457100Y-122106178D01*
X174450282Y-122033265D01*
X174435014Y-121986607D01*
X174409568Y-121868817D01*
X174419572Y-121751605D01*
X174462229Y-121642764D01*
X174534742Y-121550085D01*
X174612274Y-121492868D01*
X174732170Y-121444618D01*
X174850230Y-121432779D01*
X174962801Y-121454726D01*
X175066234Y-121507835D01*
X175156878Y-121589480D01*
X175231082Y-121697038D01*
X175285194Y-121827883D01*
X175315565Y-121979393D01*
X175317526Y-121999846D01*
X175314185Y-122185256D01*
X175272693Y-122363834D01*
X175193611Y-122534090D01*
X175077499Y-122694532D01*
X175041548Y-122734208D01*
X174880258Y-122877820D01*
X174701946Y-122986615D01*
X174508702Y-123059857D01*
X174302620Y-123096810D01*
X174085791Y-123096739D01*
X174027818Y-123090553D01*
X173811194Y-123043632D01*
X173608090Y-122961107D01*
X173420154Y-122844603D01*
X173249031Y-122695745D01*
X173096368Y-122516159D01*
X172963812Y-122307470D01*
X172853008Y-122071302D01*
X172779589Y-121858461D01*
X172757110Y-121755211D01*
X172740751Y-121625464D01*
X172731070Y-121481404D01*
X172728623Y-121335212D01*
X172733970Y-121199071D01*
X172744933Y-121101132D01*
X172803232Y-120848925D01*
X172898176Y-120588744D01*
X173028748Y-120323028D01*
X173160476Y-120104580D01*
X173348336Y-119798727D01*
X173504465Y-119503472D01*
X173631844Y-119211469D01*
X173733456Y-118915372D01*
X173812282Y-118607836D01*
X173852401Y-118400154D01*
X173867820Y-118283334D01*
X173880024Y-118138128D01*
X173888739Y-117975115D01*
X173893694Y-117804874D01*
X173894616Y-117637986D01*
X173891232Y-117485029D01*
X173883269Y-117356584D01*
X173880077Y-117325538D01*
X173814030Y-116920657D01*
X173711007Y-116525298D01*
X173572440Y-116141772D01*
X173399759Y-115772390D01*
X173194394Y-115419466D01*
X172957777Y-115085311D01*
X172691338Y-114772236D01*
X172396508Y-114482554D01*
X172074718Y-114218577D01*
X171866308Y-114071500D01*
X171493920Y-113844998D01*
X171109234Y-113652102D01*
X170715108Y-113493716D01*
X170314397Y-113370743D01*
X169909958Y-113284089D01*
X169504646Y-113234656D01*
X169183653Y-113222516D01*
X168776173Y-113241609D01*
X168366621Y-113297706D01*
X167959416Y-113389278D01*
X167558979Y-113514796D01*
X167169727Y-113672730D01*
X166796080Y-113861552D01*
X166442457Y-114079730D01*
X166202634Y-114254212D01*
X165894649Y-114517614D01*
X165609138Y-114809083D01*
X165348619Y-115124802D01*
X165115614Y-115460954D01*
X164912642Y-115813721D01*
X164742224Y-116179288D01*
X164606880Y-116553837D01*
X164549328Y-116758234D01*
X164510327Y-116920113D01*
X164480838Y-117064286D01*
X164459638Y-117201237D01*
X164445506Y-117341447D01*
X164437221Y-117495399D01*
X164433560Y-117673573D01*
X164433113Y-117755384D01*
X164434636Y-117954254D01*
X164441028Y-118124825D01*
X164453558Y-118277709D01*
X164473495Y-118423516D01*
X164502106Y-118572860D01*
X164540660Y-118736350D01*
X164558730Y-118806485D01*
X164632372Y-119055786D01*
X164720821Y-119294567D01*
X164827960Y-119531343D01*
X164957671Y-119774631D01*
X165113837Y-120032946D01*
X165127830Y-120054892D01*
X165247886Y-120249974D01*
X165344577Y-120424517D01*
X165421726Y-120586049D01*
X165483157Y-120742096D01*
X165496091Y-120779882D01*
X165562789Y-121041148D01*
X165592165Y-121308009D01*
X165584692Y-121576142D01*
X165540846Y-121841225D01*
X165461100Y-122098935D01*
X165345930Y-122344947D01*
X165319172Y-122391548D01*
X165264505Y-122472285D01*
X165190372Y-122565980D01*
X165106943Y-122660124D01*
X165068224Y-122700158D01*
X164979741Y-122785191D01*
X164903750Y-122848541D01*
X164828372Y-122899074D01*
X164741733Y-122945655D01*
X164734769Y-122949080D01*
X164521650Y-123036507D01*
X164313894Y-123086614D01*
X164107509Y-123100025D01*
X163904384Y-123078472D01*
X163754635Y-123038376D01*
X163603142Y-122976330D01*
X163462793Y-122898657D01*
X163346477Y-122811678D01*
X163330620Y-122796997D01*
X163234013Y-122690265D01*
X163145408Y-122566433D01*
X163074213Y-122439686D01*
X163040988Y-122360343D01*
X163016755Y-122256839D01*
X163005285Y-122131995D01*
X163006483Y-122000626D01*
X163020256Y-121877544D01*
X163044661Y-121782429D01*
X163087530Y-121694722D01*
X163147595Y-121607399D01*
X163215373Y-121532355D01*
X163281379Y-121481489D01*
X163286951Y-121478481D01*
X163398363Y-121441550D01*
X163515513Y-121438411D01*
X163630528Y-121466226D01*
X163735535Y-121522156D01*
X163822660Y-121603363D01*
X163877302Y-121691294D01*
X163907790Y-121786707D01*
X163908477Y-121881550D01*
X163879391Y-121988580D01*
X163877989Y-121992298D01*
X163857483Y-122053139D01*
X163852977Y-122093563D01*
X163863398Y-122128306D01*
X163867497Y-122136477D01*
X163918022Y-122193328D01*
X163994614Y-122230848D01*
X164088816Y-122248011D01*
X164192167Y-122243787D01*
X164296212Y-122217151D01*
X164346653Y-122194689D01*
X164464869Y-122111530D01*
X164563445Y-121996854D01*
X164640825Y-121853781D01*
X164695454Y-121685436D01*
X164725777Y-121494939D01*
X164730322Y-121424510D01*
X164731269Y-121289100D01*
X164720900Y-121162957D01*
X164697146Y-121040222D01*
X164657939Y-120915034D01*
X164601208Y-120781534D01*
X164524884Y-120633862D01*
X164426899Y-120466159D01*
X164346138Y-120336584D01*
X164179649Y-120062714D01*
X164039450Y-119804401D01*
X163922122Y-119552711D01*
X163824248Y-119298709D01*
X163742411Y-119033461D01*
X163673193Y-118748032D01*
X163613177Y-118433487D01*
X163609195Y-118409923D01*
X163595303Y-118298068D01*
X163585125Y-118156211D01*
X163578665Y-117993253D01*
X163575928Y-117818091D01*
X163576919Y-117639627D01*
X163581640Y-117466758D01*
X163590097Y-117308383D01*
X163602294Y-117173403D01*
X163608573Y-117125559D01*
X163690419Y-116698310D01*
X163808032Y-116275634D01*
X163959399Y-115861648D01*
X164142510Y-115460469D01*
X164355354Y-115076214D01*
X164595920Y-114712999D01*
X164862196Y-114374943D01*
X165056183Y-114162299D01*
X165361928Y-113866470D01*
X165674562Y-113604193D01*
X166001682Y-113369949D01*
X166350882Y-113158218D01*
X166659308Y-112997391D01*
X167000426Y-112840935D01*
X167327761Y-112712444D01*
X167651176Y-112608772D01*
X167980532Y-112526776D01*
X168325694Y-112463309D01*
X168342141Y-112460780D01*
X168468676Y-112443445D01*
X168609086Y-112427510D01*
X168755297Y-112413576D01*
X168899236Y-112402243D01*
X169032830Y-112394111D01*
X169148007Y-112389782D01*
X169236692Y-112389855D01*
G37*
%TO.C,SW8*%
X159878000Y-95346000D02*
X159878000Y-94346000D01*
X159878000Y-108346000D02*
X159878000Y-107346000D01*
X159878000Y-108346000D02*
X160878000Y-108346000D01*
X160878000Y-94346000D02*
X159878000Y-94346000D01*
X172878000Y-108346000D02*
X173878000Y-108346000D01*
X173878000Y-94346000D02*
X172878000Y-94346000D01*
X173878000Y-94346000D02*
X173878000Y-95346000D01*
X173878000Y-107346000D02*
X173878000Y-108346000D01*
%TO.C,SW6*%
X121778000Y-95346000D02*
X121778000Y-94346000D01*
X121778000Y-108346000D02*
X121778000Y-107346000D01*
X121778000Y-108346000D02*
X122778000Y-108346000D01*
X122778000Y-94346000D02*
X121778000Y-94346000D01*
X134778000Y-108346000D02*
X135778000Y-108346000D01*
X135778000Y-94346000D02*
X134778000Y-94346000D01*
X135778000Y-94346000D02*
X135778000Y-95346000D01*
X135778000Y-107346000D02*
X135778000Y-108346000D01*
%TO.C,SW1*%
X102728000Y-81376000D02*
X102728000Y-80376000D01*
X102728000Y-94376000D02*
X102728000Y-93376000D01*
X102728000Y-94376000D02*
X103728000Y-94376000D01*
X103728000Y-80376000D02*
X102728000Y-80376000D01*
X115728000Y-94376000D02*
X116728000Y-94376000D01*
X116728000Y-80376000D02*
X115728000Y-80376000D01*
X116728000Y-80376000D02*
X116728000Y-81376000D01*
X116728000Y-93376000D02*
X116728000Y-94376000D01*
%TO.C,SW3*%
X140828000Y-74010000D02*
X140828000Y-73010000D01*
X140828000Y-87010000D02*
X140828000Y-86010000D01*
X140828000Y-87010000D02*
X141828000Y-87010000D01*
X141828000Y-73010000D02*
X140828000Y-73010000D01*
X153828000Y-87010000D02*
X154828000Y-87010000D01*
X154828000Y-73010000D02*
X153828000Y-73010000D01*
X154828000Y-73010000D02*
X154828000Y-74010000D01*
X154828000Y-86010000D02*
X154828000Y-87010000D01*
%TD*%
M02*
