  0
SECTION
  2
HEADER
  9
$ANGBASE
  50
0.0
  9
$ANGDIR
  70
1
  9
$MEASUREMENT
  70
1
  0
ENDSEC
  0
SECTION
  2
TABLES
  0
TABLE
  2
LTYPE
  70
4
  0
LTYPE
  5
40F
  2
CONTINUOUS
  70
0
  3
Solid line
  72
65
  73
0
  40
0.0
  0
LTYPE
  5
410
  2
DASHDOT
 70
0
  3
Dash Dot ____ _ ____ _
 72
65
 73
4
 40
2.0
 49
1.25
 49
-0.25
 49
0.25
 49
-0.25
  0
LTYPE
  5
411
  2
DASHED
 70
0
  3
Dashed __ __ __ __ __
 72
65
 73
2
 40
0.75
 49
0.5
 49
-0.25
  0
LTYPE
  5
43B
  2
DOTTED
 70
0
  3
Dotted .  .  .  .
 72
65
 73
2
 40
0.2
 49
0.0
 49
-0.2
  0
ENDTAB
  0
TABLE
  2
STYLE
  70
4
  0
STYLE
  2
KICAD
  70
0
  40
0
  41
1
  42
1
  50
0
  71
0
  3
isocp.shx
  0
STYLE
  2
KICADB
  70
0
  40
0
  41
1
  42
1
  50
0
  71
0
  3
isocp.shx
  0
STYLE
  2
KICADI
  70
0
  40
0
  41
1
  42
1
  50
15
  71
0
  3
isocp.shx
  0
STYLE
  2
KICADBI
  70
0
  40
0
  41
1
  42
1
  50
15
  71
0
  3
isocp.shx
  0
ENDTAB
  0
TABLE
  2
LAYER
  70
1
  0
LAYER
  2
BLACK
  70
0
  62
7
  6
CONTINUOUS
  0
ENDTAB
  0
ENDSEC
  0
SECTION
  2
ENTITIES
0
LINE
8
BLACK
6
CONTINUOUS
10
157.36
20
-70.44
11
157.378
21
-70.4473
0
LINE
8
BLACK
6
CONTINUOUS
10
157.378
20
-70.4473
11
157.395
21
-70.4545
0
LINE
8
BLACK
6
CONTINUOUS
10
157.395
20
-70.4545
11
157.395
21
-70.4546
0
LINE
8
BLACK
6
CONTINUOUS
10
157.395
20
-70.4546
11
157.395
21
-70.4547
0
LINE
8
BLACK
6
CONTINUOUS
10
157.395
20
-70.4547
11
157.403
21
-70.4722
0
LINE
8
BLACK
6
CONTINUOUS
10
157.403
20
-70.4722
11
157.41
21
-70.4898
0
LINE
8
BLACK
6
CONTINUOUS
10
157.41
20
-70.4898
11
157.42
21
-72.71
0
LINE
8
BLACK
6
CONTINUOUS
10
157.42
20
-72.71
11
176.418
21
-72.7
0
LINE
8
BLACK
6
CONTINUOUS
10
176.418
20
-72.7
11
178.696
21
-72.5102
0
LINE
8
BLACK
6
CONTINUOUS
10
178.696
20
-72.5102
11
178.698
21
-72.5109
0
LINE
8
BLACK
6
CONTINUOUS
10
178.698
20
-72.5109
11
178.7
21
-72.51
0
LINE
8
BLACK
6
CONTINUOUS
10
178.7
20
-72.51
11
181.02
21
-72.52
0
LINE
8
BLACK
6
CONTINUOUS
10
181.02
20
-72.52
11
181.038
21
-72.5274
0
LINE
8
BLACK
6
CONTINUOUS
10
181.038
20
-72.5274
11
181.055
21
-72.5346
0
LINE
8
BLACK
6
CONTINUOUS
10
181.055
20
-72.5346
11
181.055
21
-72.5347
0
LINE
8
BLACK
6
CONTINUOUS
10
181.055
20
-72.5347
11
181.056
21
-72.5348
0
LINE
8
BLACK
6
CONTINUOUS
10
181.056
20
-72.5348
11
181.063
21
-72.5525
0
LINE
8
BLACK
6
CONTINUOUS
10
181.063
20
-72.5525
11
181.07
21
-72.57
0
LINE
8
BLACK
6
CONTINUOUS
10
181.07
20
-72.57
11
181.08
21
-93.51
0
LINE
8
BLACK
6
CONTINUOUS
10
181.08
20
-93.51
11
194.37
21
-93.51
0
LINE
8
BLACK
6
CONTINUOUS
10
194.37
20
-93.51
11
194.37
21
-72.51
0
LINE
8
BLACK
6
CONTINUOUS
10
194.37
20
-72.51
11
194.385
21
-72.4746
0
LINE
8
BLACK
6
CONTINUOUS
10
194.385
20
-72.4746
11
194.42
21
-72.46
0
LINE
8
BLACK
6
CONTINUOUS
10
194.42
20
-72.46
11
199.4
21
-72.46
0
LINE
8
BLACK
6
CONTINUOUS
10
199.4
20
-72.46
11
199.418
21
-72.4674
0
LINE
8
BLACK
6
CONTINUOUS
10
199.418
20
-72.4674
11
199.435
21
-72.4746
0
LINE
8
BLACK
6
CONTINUOUS
10
199.435
20
-72.4746
11
199.435
21
-72.4746
0
LINE
8
BLACK
6
CONTINUOUS
10
199.435
20
-72.4746
11
199.435
21
-72.4746
0
LINE
8
BLACK
6
CONTINUOUS
10
199.435
20
-72.4746
11
199.443
21
-72.492
0
LINE
8
BLACK
6
CONTINUOUS
10
199.443
20
-72.492
11
199.45
21
-72.51
0
LINE
8
BLACK
6
CONTINUOUS
10
199.45
20
-72.51
11
199.46
21
-95.37
0
LINE
8
BLACK
6
CONTINUOUS
10
199.46
20
-95.37
11
199.459
21
-95.3734
0
LINE
8
BLACK
6
CONTINUOUS
10
199.459
20
-95.3734
11
199.46
21
-95.377
0
LINE
8
BLACK
6
CONTINUOUS
10
199.46
20
-95.377
11
194.062
21
-133.519
0
LINE
8
BLACK
6
CONTINUOUS
10
194.062
20
-133.519
11
196.193
21
-137.034
0
LINE
8
BLACK
6
CONTINUOUS
10
196.193
20
-137.034
11
198.102
21
-140.073
0
LINE
8
BLACK
6
CONTINUOUS
10
198.102
20
-140.073
11
198.103
21
-140.077
0
LINE
8
BLACK
6
CONTINUOUS
10
198.103
20
-140.077
11
198.105
21
-140.079
0
LINE
8
BLACK
6
CONTINUOUS
10
198.105
20
-140.079
11
198.106
21
-140.095
0
LINE
8
BLACK
6
CONTINUOUS
10
198.106
20
-140.095
11
198.109
21
-140.111
0
LINE
8
BLACK
6
CONTINUOUS
10
198.109
20
-140.111
11
198.107
21
-140.114
0
LINE
8
BLACK
6
CONTINUOUS
10
198.107
20
-140.114
11
198.107
21
-140.117
0
LINE
8
BLACK
6
CONTINUOUS
10
198.107
20
-140.117
11
190.947
21
-159.857
0
LINE
8
BLACK
6
CONTINUOUS
10
190.947
20
-159.857
11
190.946
21
-159.858
0
LINE
8
BLACK
6
CONTINUOUS
10
190.946
20
-159.858
11
190.946
21
-159.86
0
LINE
8
BLACK
6
CONTINUOUS
10
190.946
20
-159.86
11
190.933
21
-159.872
0
LINE
8
BLACK
6
CONTINUOUS
10
190.933
20
-159.872
11
190.921
21
-159.885
0
LINE
8
BLACK
6
CONTINUOUS
10
190.921
20
-159.885
11
190.92
21
-159.885
0
LINE
8
BLACK
6
CONTINUOUS
10
190.92
20
-159.885
11
190.919
21
-159.886
0
LINE
8
BLACK
6
CONTINUOUS
10
190.919
20
-159.886
11
190.901
21
-159.886
0
LINE
8
BLACK
6
CONTINUOUS
10
190.901
20
-159.886
11
190.883
21
-159.887
0
LINE
8
BLACK
6
CONTINUOUS
10
190.883
20
-159.887
11
190.882
21
-159.886
0
LINE
8
BLACK
6
CONTINUOUS
10
190.882
20
-159.886
11
190.88
21
-159.886
0
LINE
8
BLACK
6
CONTINUOUS
10
190.88
20
-159.886
11
187.861
21
-158.606
0
LINE
8
BLACK
6
CONTINUOUS
10
187.861
20
-158.606
11
182.142
21
-156.357
0
LINE
8
BLACK
6
CONTINUOUS
10
182.142
20
-156.357
11
182.142
21
-156.356
0
LINE
8
BLACK
6
CONTINUOUS
10
182.142
20
-156.356
11
182.141
21
-156.356
0
LINE
8
BLACK
6
CONTINUOUS
10
182.141
20
-156.356
11
174.722
21
-153.387
0
LINE
8
BLACK
6
CONTINUOUS
10
174.722
20
-153.387
11
169.515
21
-151.548
0
LINE
8
BLACK
6
CONTINUOUS
10
169.515
20
-151.548
11
157.796
21
-148.238
0
LINE
8
BLACK
6
CONTINUOUS
10
157.796
20
-148.238
11
157.796
21
-148.238
0
LINE
8
BLACK
6
CONTINUOUS
10
157.796
20
-148.238
11
152.376
21
-146.708
0
LINE
8
BLACK
6
CONTINUOUS
10
152.376
20
-146.708
11
152.376
21
-146.708
0
LINE
8
BLACK
6
CONTINUOUS
10
152.376
20
-146.708
11
151.019
21
-146.329
0
LINE
8
BLACK
6
CONTINUOUS
10
151.019
20
-146.329
11
137.891
21
-144.039
0
LINE
8
BLACK
6
CONTINUOUS
10
137.891
20
-144.039
11
137.891
21
-144.039
0
LINE
8
BLACK
6
CONTINUOUS
10
137.891
20
-144.039
11
137.891
21
-144.039
0
LINE
8
BLACK
6
CONTINUOUS
10
137.891
20
-144.039
11
134.462
21
-143.429
0
LINE
8
BLACK
6
CONTINUOUS
10
134.462
20
-143.429
11
132.826
21
-143.16
0
LINE
8
BLACK
6
CONTINUOUS
10
132.826
20
-143.16
11
131.591
21
-143.14
0
LINE
8
BLACK
6
CONTINUOUS
10
131.591
20
-143.14
11
129.405
21
-143.23
0
LINE
8
BLACK
6
CONTINUOUS
10
129.405
20
-143.23
11
127.571
21
-143.499
0
LINE
8
BLACK
6
CONTINUOUS
10
127.571
20
-143.499
11
124.335
21
-144.488
0
LINE
8
BLACK
6
CONTINUOUS
10
124.335
20
-144.488
11
120.248
21
-145.817
0
LINE
8
BLACK
6
CONTINUOUS
10
120.248
20
-145.817
11
117.321
21
-147.146
0
LINE
8
BLACK
6
CONTINUOUS
10
117.321
20
-147.146
11
117.312
21
-147.146
0
LINE
8
BLACK
6
CONTINUOUS
10
117.312
20
-147.146
11
117.305
21
-147.15
0
LINE
8
BLACK
6
CONTINUOUS
10
117.305
20
-147.15
11
117.294
21
-147.146
0
LINE
8
BLACK
6
CONTINUOUS
10
117.294
20
-147.146
11
117.282
21
-147.147
0
LINE
8
BLACK
6
CONTINUOUS
10
117.282
20
-147.147
11
117.276
21
-147.141
0
LINE
8
BLACK
6
CONTINUOUS
10
117.276
20
-147.141
11
117.268
21
-147.138
0
LINE
8
BLACK
6
CONTINUOUS
10
117.268
20
-147.138
11
117.263
21
-147.128
0
LINE
8
BLACK
6
CONTINUOUS
10
117.263
20
-147.128
11
117.254
21
-147.121
0
LINE
8
BLACK
6
CONTINUOUS
10
117.254
20
-147.121
11
117.254
21
-147.112
0
LINE
8
BLACK
6
CONTINUOUS
10
117.254
20
-147.112
11
117.25
21
-147.105
0
LINE
8
BLACK
6
CONTINUOUS
10
117.25
20
-147.105
11
116.83
21
-142.475
0
LINE
8
BLACK
6
CONTINUOUS
10
116.83
20
-142.475
11
116.83
21
-142.474
0
LINE
8
BLACK
6
CONTINUOUS
10
116.83
20
-142.474
11
116.83
21
-142.474
0
LINE
8
BLACK
6
CONTINUOUS
10
116.83
20
-142.474
11
116.721
21
-141.179
0
LINE
8
BLACK
6
CONTINUOUS
10
116.721
20
-141.179
11
116.113
21
-139.047
0
LINE
8
BLACK
6
CONTINUOUS
10
116.113
20
-139.047
11
114.475
21
-135.212
0
LINE
8
BLACK
6
CONTINUOUS
10
114.475
20
-135.212
11
111.257
21
-129.485
0
LINE
8
BLACK
6
CONTINUOUS
10
111.257
20
-129.485
11
109.878
21
-127.187
0
LINE
8
BLACK
6
CONTINUOUS
10
109.878
20
-127.187
11
107.27
21
-123.51
0
LINE
8
BLACK
6
CONTINUOUS
10
107.27
20
-123.51
11
105.742
21
-121.573
0
LINE
8
BLACK
6
CONTINUOUS
10
105.742
20
-121.573
11
103.974
21
-119.665
0
LINE
8
BLACK
6
CONTINUOUS
10
103.974
20
-119.665
11
103.404
21
-119.085
0
LINE
8
BLACK
6
CONTINUOUS
10
103.404
20
-119.085
11
102.755
21
-118.425
0
LINE
8
BLACK
6
CONTINUOUS
10
102.755
20
-118.425
11
102.065
21
-117.746
0
LINE
8
BLACK
6
CONTINUOUS
10
102.065
20
-117.746
11
102.065
21
-117.745
0
LINE
8
BLACK
6
CONTINUOUS
10
102.065
20
-117.745
11
102.065
21
-117.745
0
LINE
8
BLACK
6
CONTINUOUS
10
102.065
20
-117.745
11
101.785
21
-117.466
0
LINE
8
BLACK
6
CONTINUOUS
10
101.785
20
-117.466
11
101.455
21
-117.146
0
LINE
8
BLACK
6
CONTINUOUS
10
101.455
20
-117.146
11
101.116
21
-116.826
0
LINE
8
BLACK
6
CONTINUOUS
10
101.116
20
-116.826
11
101.115
21
-116.826
0
LINE
8
BLACK
6
CONTINUOUS
10
101.115
20
-116.826
11
101.115
21
-116.825
0
LINE
8
BLACK
6
CONTINUOUS
10
101.115
20
-116.825
11
100.896
21
-116.607
0
LINE
8
BLACK
6
CONTINUOUS
10
100.896
20
-116.607
11
100.628
21
-116.378
0
LINE
8
BLACK
6
CONTINUOUS
10
100.628
20
-116.378
11
100.509
21
-116.279
0
LINE
8
BLACK
6
CONTINUOUS
10
100.509
20
-116.279
11
100.351
21
-116.161
0
LINE
8
BLACK
6
CONTINUOUS
10
100.351
20
-116.161
11
100.262
21
-116.102
0
LINE
8
BLACK
6
CONTINUOUS
10
100.262
20
-116.102
11
100.257
21
-116.094
0
LINE
8
BLACK
6
CONTINUOUS
10
100.257
20
-116.094
11
100.25
21
-116.089
0
LINE
8
BLACK
6
CONTINUOUS
10
100.25
20
-116.089
11
100.17
21
-115.979
0
LINE
8
BLACK
6
CONTINUOUS
10
100.17
20
-115.979
11
100.166
21
-115.964
0
LINE
8
BLACK
6
CONTINUOUS
10
100.166
20
-115.964
11
100.16
21
-115.95
0
LINE
8
BLACK
6
CONTINUOUS
10
100.16
20
-115.95
11
100.15
21
-77.85
0
LINE
8
BLACK
6
CONTINUOUS
10
100.15
20
-77.85
11
100.15
21
-77.85
0
LINE
8
BLACK
6
CONTINUOUS
10
100.15
20
-77.85
11
100.15
21
-77.85
0
LINE
8
BLACK
6
CONTINUOUS
10
100.15
20
-77.85
11
100.157
21
-77.8321
0
LINE
8
BLACK
6
CONTINUOUS
10
100.157
20
-77.8321
11
100.165
21
-77.8147
0
LINE
8
BLACK
6
CONTINUOUS
10
100.165
20
-77.8147
11
100.165
21
-77.8147
0
LINE
8
BLACK
6
CONTINUOUS
10
100.165
20
-77.8147
11
100.165
21
-77.8146
0
LINE
8
BLACK
6
CONTINUOUS
10
100.165
20
-77.8146
11
100.182
21
-77.8074
0
LINE
8
BLACK
6
CONTINUOUS
10
100.182
20
-77.8074
11
100.2
21
-77.8
0
LINE
8
BLACK
6
CONTINUOUS
10
100.2
20
-77.8
11
100.2
21
-77.8
0
LINE
8
BLACK
6
CONTINUOUS
10
100.2
20
-77.8
11
100.2
21
-77.8
0
LINE
8
BLACK
6
CONTINUOUS
10
100.2
20
-77.8
11
119.2
21
-77.8
0
LINE
8
BLACK
6
CONTINUOUS
10
119.2
20
-77.8
11
119.2
21
-72.76
0
LINE
8
BLACK
6
CONTINUOUS
10
119.2
20
-72.76
11
119.2
21
-72.76
0
LINE
8
BLACK
6
CONTINUOUS
10
119.2
20
-72.76
11
119.2
21
-72.76
0
LINE
8
BLACK
6
CONTINUOUS
10
119.2
20
-72.76
11
119.207
21
-72.7426
0
LINE
8
BLACK
6
CONTINUOUS
10
119.207
20
-72.7426
11
119.215
21
-72.7246
0
LINE
8
BLACK
6
CONTINUOUS
10
119.215
20
-72.7246
11
119.215
21
-72.7246
0
LINE
8
BLACK
6
CONTINUOUS
10
119.215
20
-72.7246
11
119.215
21
-72.7246
0
LINE
8
BLACK
6
CONTINUOUS
10
119.215
20
-72.7246
11
119.233
21
-72.7172
0
LINE
8
BLACK
6
CONTINUOUS
10
119.233
20
-72.7172
11
119.25
21
-72.71
0
LINE
8
BLACK
6
CONTINUOUS
10
119.25
20
-72.71
11
119.25
21
-72.71
0
LINE
8
BLACK
6
CONTINUOUS
10
119.25
20
-72.71
11
119.25
21
-72.71
0
LINE
8
BLACK
6
CONTINUOUS
10
119.25
20
-72.71
11
138.25
21
-72.72
0
LINE
8
BLACK
6
CONTINUOUS
10
138.25
20
-72.72
11
138.25
21
-70.48
0
LINE
8
BLACK
6
CONTINUOUS
10
138.25
20
-70.48
11
138.25
21
-70.48
0
LINE
8
BLACK
6
CONTINUOUS
10
138.25
20
-70.48
11
138.25
21
-70.48
0
LINE
8
BLACK
6
CONTINUOUS
10
138.25
20
-70.48
11
138.257
21
-70.4626
0
LINE
8
BLACK
6
CONTINUOUS
10
138.257
20
-70.4626
11
138.265
21
-70.4446
0
LINE
8
BLACK
6
CONTINUOUS
10
138.265
20
-70.4446
11
138.265
21
-70.4446
0
LINE
8
BLACK
6
CONTINUOUS
10
138.265
20
-70.4446
11
138.265
21
-70.4446
0
LINE
8
BLACK
6
CONTINUOUS
10
138.265
20
-70.4446
11
138.283
21
-70.4372
0
LINE
8
BLACK
6
CONTINUOUS
10
138.283
20
-70.4372
11
138.3
21
-70.43
0
LINE
8
BLACK
6
CONTINUOUS
10
138.3
20
-70.43
11
138.3
21
-70.43
0
LINE
8
BLACK
6
CONTINUOUS
10
138.3
20
-70.43
11
138.3
21
-70.43
0
LINE
8
BLACK
6
CONTINUOUS
10
138.3
20
-70.43
11
157.36
21
-70.44
0
LINE
8
BLACK
6
CONTINUOUS
10
138.35
20
-72.77
11
138.35
21
-72.77
0
LINE
8
BLACK
6
CONTINUOUS
10
138.35
20
-72.77
11
138.35
21
-72.77
0
LINE
8
BLACK
6
CONTINUOUS
10
138.35
20
-72.77
11
138.342
21
-72.7882
0
LINE
8
BLACK
6
CONTINUOUS
10
138.342
20
-72.7882
11
138.335
21
-72.8054
0
LINE
8
BLACK
6
CONTINUOUS
10
138.335
20
-72.8054
11
138.335
21
-72.8054
0
LINE
8
BLACK
6
CONTINUOUS
10
138.335
20
-72.8054
11
138.335
21
-72.8054
0
LINE
8
BLACK
6
CONTINUOUS
10
138.335
20
-72.8054
11
138.317
21
-72.8129
0
LINE
8
BLACK
6
CONTINUOUS
10
138.317
20
-72.8129
11
138.3
21
-72.82
0
LINE
8
BLACK
6
CONTINUOUS
10
138.3
20
-72.82
11
138.3
21
-72.82
0
LINE
8
BLACK
6
CONTINUOUS
10
138.3
20
-72.82
11
138.3
21
-72.82
0
LINE
8
BLACK
6
CONTINUOUS
10
138.3
20
-72.82
11
119.3
21
-72.81
0
LINE
8
BLACK
6
CONTINUOUS
10
119.3
20
-72.81
11
119.3
21
-77.85
0
LINE
8
BLACK
6
CONTINUOUS
10
119.3
20
-77.85
11
119.285
21
-77.8854
0
LINE
8
BLACK
6
CONTINUOUS
10
119.285
20
-77.8854
11
119.25
21
-77.9
0
LINE
8
BLACK
6
CONTINUOUS
10
119.25
20
-77.9
11
100.25
21
-77.9
0
LINE
8
BLACK
6
CONTINUOUS
10
100.25
20
-77.9
11
100.26
21
-115.934
0
LINE
8
BLACK
6
CONTINUOUS
10
100.26
20
-115.934
11
100.325
21
-116.023
0
LINE
8
BLACK
6
CONTINUOUS
10
100.325
20
-116.023
11
100.408
21
-116.078
0
LINE
8
BLACK
6
CONTINUOUS
10
100.408
20
-116.078
11
100.409
21
-116.08
0
LINE
8
BLACK
6
CONTINUOUS
10
100.409
20
-116.08
11
100.41
21
-116.08
0
LINE
8
BLACK
6
CONTINUOUS
10
100.41
20
-116.08
11
100.57
21
-116.2
0
LINE
8
BLACK
6
CONTINUOUS
10
100.57
20
-116.2
11
100.571
21
-116.201
0
LINE
8
BLACK
6
CONTINUOUS
10
100.571
20
-116.201
11
100.572
21
-116.202
0
LINE
8
BLACK
6
CONTINUOUS
10
100.572
20
-116.202
11
100.692
21
-116.302
0
LINE
8
BLACK
6
CONTINUOUS
10
100.692
20
-116.302
11
100.692
21
-116.302
0
LINE
8
BLACK
6
CONTINUOUS
10
100.692
20
-116.302
11
100.692
21
-116.302
0
LINE
8
BLACK
6
CONTINUOUS
10
100.692
20
-116.302
11
100.962
21
-116.532
0
LINE
8
BLACK
6
CONTINUOUS
10
100.962
20
-116.532
11
100.963
21
-116.534
0
LINE
8
BLACK
6
CONTINUOUS
10
100.963
20
-116.534
11
100.965
21
-116.535
0
LINE
8
BLACK
6
CONTINUOUS
10
100.965
20
-116.535
11
101.185
21
-116.754
0
LINE
8
BLACK
6
CONTINUOUS
10
101.185
20
-116.754
11
101.524
21
-117.074
0
LINE
8
BLACK
6
CONTINUOUS
10
101.524
20
-117.074
11
101.524
21
-117.074
0
LINE
8
BLACK
6
CONTINUOUS
10
101.524
20
-117.074
11
101.525
21
-117.074
0
LINE
8
BLACK
6
CONTINUOUS
10
101.525
20
-117.074
11
101.855
21
-117.394
0
LINE
8
BLACK
6
CONTINUOUS
10
101.855
20
-117.394
11
101.855
21
-117.394
0
LINE
8
BLACK
6
CONTINUOUS
10
101.855
20
-117.394
11
101.855
21
-117.395
0
LINE
8
BLACK
6
CONTINUOUS
10
101.855
20
-117.395
11
102.135
21
-117.675
0
LINE
8
BLACK
6
CONTINUOUS
10
102.135
20
-117.675
11
102.825
21
-118.354
0
LINE
8
BLACK
6
CONTINUOUS
10
102.825
20
-118.354
11
102.825
21
-118.355
0
LINE
8
BLACK
6
CONTINUOUS
10
102.825
20
-118.355
11
102.826
21
-118.355
0
LINE
8
BLACK
6
CONTINUOUS
10
102.826
20
-118.355
11
103.476
21
-119.015
0
LINE
8
BLACK
6
CONTINUOUS
10
103.476
20
-119.015
11
103.476
21
-119.015
0
LINE
8
BLACK
6
CONTINUOUS
10
103.476
20
-119.015
11
103.476
21
-119.015
0
LINE
8
BLACK
6
CONTINUOUS
10
103.476
20
-119.015
11
104.046
21
-119.595
0
LINE
8
BLACK
6
CONTINUOUS
10
104.046
20
-119.595
11
104.046
21
-119.596
0
LINE
8
BLACK
6
CONTINUOUS
10
104.046
20
-119.596
11
104.047
21
-119.596
0
LINE
8
BLACK
6
CONTINUOUS
10
104.047
20
-119.596
11
105.817
21
-121.506
0
LINE
8
BLACK
6
CONTINUOUS
10
105.817
20
-121.506
11
105.817
21
-121.508
0
LINE
8
BLACK
6
CONTINUOUS
10
105.817
20
-121.508
11
105.819
21
-121.509
0
LINE
8
BLACK
6
CONTINUOUS
10
105.819
20
-121.509
11
107.349
21
-123.449
0
LINE
8
BLACK
6
CONTINUOUS
10
107.349
20
-123.449
11
107.35
21
-123.45
0
LINE
8
BLACK
6
CONTINUOUS
10
107.35
20
-123.45
11
107.351
21
-123.451
0
LINE
8
BLACK
6
CONTINUOUS
10
107.351
20
-123.451
11
109.961
21
-127.131
0
LINE
8
BLACK
6
CONTINUOUS
10
109.961
20
-127.131
11
109.961
21
-127.133
0
LINE
8
BLACK
6
CONTINUOUS
10
109.961
20
-127.133
11
109.963
21
-127.134
0
LINE
8
BLACK
6
CONTINUOUS
10
109.963
20
-127.134
11
111.343
21
-129.434
0
LINE
8
BLACK
6
CONTINUOUS
10
111.343
20
-129.434
11
111.343
21
-129.435
0
LINE
8
BLACK
6
CONTINUOUS
10
111.343
20
-129.435
11
111.344
21
-129.436
0
LINE
8
BLACK
6
CONTINUOUS
10
111.344
20
-129.436
11
114.564
21
-135.166
0
LINE
8
BLACK
6
CONTINUOUS
10
114.564
20
-135.166
11
114.564
21
-135.168
0
LINE
8
BLACK
6
CONTINUOUS
10
114.564
20
-135.168
11
114.566
21
-135.17
0
LINE
8
BLACK
6
CONTINUOUS
10
114.566
20
-135.17
11
116.206
21
-139.01
0
LINE
8
BLACK
6
CONTINUOUS
10
116.206
20
-139.01
11
116.206
21
-139.014
0
LINE
8
BLACK
6
CONTINUOUS
10
116.206
20
-139.014
11
116.208
21
-139.016
0
LINE
8
BLACK
6
CONTINUOUS
10
116.208
20
-139.016
11
116.818
21
-141.156
0
LINE
8
BLACK
6
CONTINUOUS
10
116.818
20
-141.156
11
116.818
21
-141.161
0
LINE
8
BLACK
6
CONTINUOUS
10
116.818
20
-141.161
11
116.82
21
-141.166
0
LINE
8
BLACK
6
CONTINUOUS
10
116.82
20
-141.166
11
116.93
21
-142.465
0
LINE
8
BLACK
6
CONTINUOUS
10
116.93
20
-142.465
11
117.343
21
-147.025
0
LINE
8
BLACK
6
CONTINUOUS
10
117.343
20
-147.025
11
120.209
21
-145.724
0
LINE
8
BLACK
6
CONTINUOUS
10
120.209
20
-145.724
11
120.212
21
-145.724
0
LINE
8
BLACK
6
CONTINUOUS
10
120.212
20
-145.724
11
120.215
21
-145.722
0
LINE
8
BLACK
6
CONTINUOUS
10
120.215
20
-145.722
11
124.305
21
-144.392
0
LINE
8
BLACK
6
CONTINUOUS
10
124.305
20
-144.392
11
124.305
21
-144.392
0
LINE
8
BLACK
6
CONTINUOUS
10
124.305
20
-144.392
11
124.305
21
-144.392
0
LINE
8
BLACK
6
CONTINUOUS
10
124.305
20
-144.392
11
127.545
21
-143.402
0
LINE
8
BLACK
6
CONTINUOUS
10
127.545
20
-143.402
11
127.549
21
-143.403
0
LINE
8
BLACK
6
CONTINUOUS
10
127.549
20
-143.403
11
127.553
21
-143.401
0
LINE
8
BLACK
6
CONTINUOUS
10
127.553
20
-143.401
11
129.393
21
-143.131
0
LINE
8
BLACK
6
CONTINUOUS
10
129.393
20
-143.131
11
129.395
21
-143.131
0
LINE
8
BLACK
6
CONTINUOUS
10
129.395
20
-143.131
11
129.398
21
-143.13
0
LINE
8
BLACK
6
CONTINUOUS
10
129.398
20
-143.13
11
131.588
21
-143.04
0
LINE
8
BLACK
6
CONTINUOUS
10
131.588
20
-143.04
11
131.589
21
-143.041
0
LINE
8
BLACK
6
CONTINUOUS
10
131.589
20
-143.041
11
131.591
21
-143.04
0
LINE
8
BLACK
6
CONTINUOUS
10
131.591
20
-143.04
11
132.831
21
-143.06
0
LINE
8
BLACK
6
CONTINUOUS
10
132.831
20
-143.06
11
132.834
21
-143.062
0
LINE
8
BLACK
6
CONTINUOUS
10
132.834
20
-143.062
11
132.838
21
-143.061
0
LINE
8
BLACK
6
CONTINUOUS
10
132.838
20
-143.061
11
134.478
21
-143.331
0
LINE
8
BLACK
6
CONTINUOUS
10
134.478
20
-143.331
11
134.478
21
-143.331
0
LINE
8
BLACK
6
CONTINUOUS
10
134.478
20
-143.331
11
134.479
21
-143.331
0
LINE
8
BLACK
6
CONTINUOUS
10
134.479
20
-143.331
11
137.909
21
-143.941
0
LINE
8
BLACK
6
CONTINUOUS
10
137.909
20
-143.941
11
137.909
21
-143.941
0
LINE
8
BLACK
6
CONTINUOUS
10
137.909
20
-143.941
11
151.039
21
-146.231
0
LINE
8
BLACK
6
CONTINUOUS
10
151.039
20
-146.231
11
151.041
21
-146.232
0
LINE
8
BLACK
6
CONTINUOUS
10
151.041
20
-146.232
11
151.043
21
-146.232
0
LINE
8
BLACK
6
CONTINUOUS
10
151.043
20
-146.232
11
152.403
21
-146.612
0
LINE
8
BLACK
6
CONTINUOUS
10
152.403
20
-146.612
11
152.404
21
-146.612
0
LINE
8
BLACK
6
CONTINUOUS
10
152.404
20
-146.612
11
152.404
21
-146.612
0
LINE
8
BLACK
6
CONTINUOUS
10
152.404
20
-146.612
11
157.824
21
-148.142
0
LINE
8
BLACK
6
CONTINUOUS
10
157.824
20
-148.142
11
157.824
21
-148.142
0
LINE
8
BLACK
6
CONTINUOUS
10
157.824
20
-148.142
11
157.824
21
-148.142
0
LINE
8
BLACK
6
CONTINUOUS
10
157.824
20
-148.142
11
169.544
21
-151.452
0
LINE
8
BLACK
6
CONTINUOUS
10
169.544
20
-151.452
11
169.545
21
-151.453
0
LINE
8
BLACK
6
CONTINUOUS
10
169.545
20
-151.453
11
169.547
21
-151.453
0
LINE
8
BLACK
6
CONTINUOUS
10
169.547
20
-151.453
11
174.757
21
-153.293
0
LINE
8
BLACK
6
CONTINUOUS
10
174.757
20
-153.293
11
174.757
21
-153.294
0
LINE
8
BLACK
6
CONTINUOUS
10
174.757
20
-153.294
11
174.759
21
-153.294
0
LINE
8
BLACK
6
CONTINUOUS
10
174.759
20
-153.294
11
182.178
21
-156.263
0
LINE
8
BLACK
6
CONTINUOUS
10
182.178
20
-156.263
11
187.898
21
-158.513
0
LINE
8
BLACK
6
CONTINUOUS
10
187.898
20
-158.513
11
187.899
21
-158.514
0
LINE
8
BLACK
6
CONTINUOUS
10
187.899
20
-158.514
11
187.9
21
-158.514
0
LINE
8
BLACK
6
CONTINUOUS
10
187.9
20
-158.514
11
190.871
21
-159.773
0
LINE
8
BLACK
6
CONTINUOUS
10
190.871
20
-159.773
11
198.005
21
-140.106
0
LINE
8
BLACK
6
CONTINUOUS
10
198.005
20
-140.106
11
196.108
21
-137.087
0
LINE
8
BLACK
6
CONTINUOUS
10
196.108
20
-137.087
11
196.108
21
-137.086
0
LINE
8
BLACK
6
CONTINUOUS
10
196.108
20
-137.086
11
196.107
21
-137.086
0
LINE
8
BLACK
6
CONTINUOUS
10
196.107
20
-137.086
11
193.967
21
-133.556
0
LINE
8
BLACK
6
CONTINUOUS
10
193.967
20
-133.556
11
193.965
21
-133.539
0
LINE
8
BLACK
6
CONTINUOUS
10
193.965
20
-133.539
11
193.96
21
-133.523
0
LINE
8
BLACK
6
CONTINUOUS
10
193.96
20
-133.523
11
199.36
21
-95.3665
0
LINE
8
BLACK
6
CONTINUOUS
10
199.36
20
-95.3665
11
199.35
21
-72.56
0
LINE
8
BLACK
6
CONTINUOUS
10
199.35
20
-72.56
11
194.47
21
-72.56
0
LINE
8
BLACK
6
CONTINUOUS
10
194.47
20
-72.56
11
194.47
21
-93.56
0
LINE
8
BLACK
6
CONTINUOUS
10
194.47
20
-93.56
11
194.455
21
-93.5954
0
LINE
8
BLACK
6
CONTINUOUS
10
194.455
20
-93.5954
11
194.42
21
-93.61
0
LINE
8
BLACK
6
CONTINUOUS
10
194.42
20
-93.61
11
181.03
21
-93.61
0
LINE
8
BLACK
6
CONTINUOUS
10
181.03
20
-93.61
11
181.03
21
-93.61
0
LINE
8
BLACK
6
CONTINUOUS
10
181.03
20
-93.61
11
181.011
21
-93.6023
0
LINE
8
BLACK
6
CONTINUOUS
10
181.011
20
-93.6023
11
180.995
21
-93.5954
0
LINE
8
BLACK
6
CONTINUOUS
10
180.995
20
-93.5954
11
180.995
21
-93.5954
0
LINE
8
BLACK
6
CONTINUOUS
10
180.995
20
-93.5954
11
180.995
21
-93.5954
0
LINE
8
BLACK
6
CONTINUOUS
10
180.995
20
-93.5954
11
180.987
21
-93.5769
0
LINE
8
BLACK
6
CONTINUOUS
10
180.987
20
-93.5769
11
180.98
21
-93.56
0
LINE
8
BLACK
6
CONTINUOUS
10
180.98
20
-93.56
11
180.97
21
-72.6198
0
LINE
8
BLACK
6
CONTINUOUS
10
180.97
20
-72.6198
11
178.702
21
-72.61
0
LINE
8
BLACK
6
CONTINUOUS
10
178.702
20
-72.61
11
176.424
21
-72.7998
0
LINE
8
BLACK
6
CONTINUOUS
10
176.424
20
-72.7998
11
176.422
21
-72.7992
0
LINE
8
BLACK
6
CONTINUOUS
10
176.422
20
-72.7992
11
176.42
21
-72.8
0
LINE
8
BLACK
6
CONTINUOUS
10
176.42
20
-72.8
11
157.37
21
-72.81
0
LINE
8
BLACK
6
CONTINUOUS
10
157.37
20
-72.81
11
157.352
21
-72.8027
0
LINE
8
BLACK
6
CONTINUOUS
10
157.352
20
-72.8027
11
157.335
21
-72.7955
0
LINE
8
BLACK
6
CONTINUOUS
10
157.335
20
-72.7955
11
157.335
21
-72.7954
0
LINE
8
BLACK
6
CONTINUOUS
10
157.335
20
-72.7954
11
157.335
21
-72.7954
0
LINE
8
BLACK
6
CONTINUOUS
10
157.335
20
-72.7954
11
157.327
21
-72.7779
0
LINE
8
BLACK
6
CONTINUOUS
10
157.327
20
-72.7779
11
157.32
21
-72.7602
0
LINE
8
BLACK
6
CONTINUOUS
10
157.32
20
-72.7602
11
157.31
21
-70.54
0
LINE
8
BLACK
6
CONTINUOUS
10
157.31
20
-70.54
11
138.35
21
-70.53
0
LINE
8
BLACK
6
CONTINUOUS
10
138.35
20
-70.53
11
138.35
21
-72.77
  0
ENDSEC
  0
EOF
