  0
SECTION
  2
HEADER
  9
$ANGBASE
  50
0.0
  9
$ANGDIR
  70
1
  9
$MEASUREMENT
  70
1
  0
ENDSEC
  0
SECTION
  2
TABLES
  0
TABLE
  2
LTYPE
  70
4
  0
LTYPE
  5
40F
  2
CONTINUOUS
  70
0
  3
Solid line
  72
65
  73
0
  40
0.0
  0
LTYPE
  5
410
  2
DASHDOT
 70
0
  3
Dash Dot ____ _ ____ _
 72
65
 73
4
 40
2.0
 49
1.25
 49
-0.25
 49
0.25
 49
-0.25
  0
LTYPE
  5
411
  2
DASHED
 70
0
  3
Dashed __ __ __ __ __
 72
65
 73
2
 40
0.75
 49
0.5
 49
-0.25
  0
LTYPE
  5
43B
  2
DOTTED
 70
0
  3
Dotted .  .  .  .
 72
65
 73
2
 40
0.2
 49
0.0
 49
-0.2
  0
ENDTAB
  0
TABLE
  2
STYLE
  70
4
  0
STYLE
  2
KICAD
  70
0
  40
0
  41
1
  42
1
  50
0
  71
0
  3
isocp.shx
  0
STYLE
  2
KICADB
  70
0
  40
0
  41
1
  42
1
  50
0
  71
0
  3
isocp.shx
  0
STYLE
  2
KICADI
  70
0
  40
0
  41
1
  42
1
  50
15
  71
0
  3
isocp.shx
  0
STYLE
  2
KICADBI
  70
0
  40
0
  41
1
  42
1
  50
15
  71
0
  3
isocp.shx
  0
ENDTAB
  0
TABLE
  2
LAYER
  70
1
  0
LAYER
  2
BLACK
  70
0
  62
7
  6
CONTINUOUS
  0
ENDTAB
  0
ENDSEC
  0
SECTION
  2
ENTITIES
0
LINE
8
BLACK
6
CONTINUOUS
10
193.932
20
-142.689
11
193.077
21
-145.038
0
LINE
8
BLACK
6
CONTINUOUS
10
193.077
20
-145.038
11
190.68
21
-144.166
0
LINE
8
BLACK
6
CONTINUOUS
10
190.68
20
-144.166
11
191.536
21
-141.817
0
LINE
8
BLACK
6
CONTINUOUS
10
191.536
20
-141.817
11
193.932
21
-142.689
0
LINE
8
BLACK
6
CONTINUOUS
10
180.048
20
-140.339
11
179.193
21
-142.688
0
LINE
8
BLACK
6
CONTINUOUS
10
179.193
20
-142.688
11
176.797
21
-141.816
0
LINE
8
BLACK
6
CONTINUOUS
10
176.797
20
-141.816
11
177.652
21
-139.467
0
LINE
8
BLACK
6
CONTINUOUS
10
177.652
20
-139.467
11
180.048
21
-140.339
0
LINE
8
BLACK
6
CONTINUOUS
10
172.949
20
-135.753
11
172.302
21
-138.168
0
LINE
8
BLACK
6
CONTINUOUS
10
172.302
20
-138.168
11
169.838
21
-137.508
0
LINE
8
BLACK
6
CONTINUOUS
10
169.838
20
-137.508
11
170.486
21
-135.093
0
LINE
8
BLACK
6
CONTINUOUS
10
170.486
20
-135.093
11
172.949
21
-135.753
0
LINE
8
BLACK
6
CONTINUOUS
10
158.913
20
-134.622
11
158.266
21
-137.036
0
LINE
8
BLACK
6
CONTINUOUS
10
158.266
20
-137.036
11
155.803
21
-136.376
0
LINE
8
BLACK
6
CONTINUOUS
10
155.803
20
-136.376
11
156.45
21
-133.962
0
LINE
8
BLACK
6
CONTINUOUS
10
156.45
20
-133.962
11
158.913
21
-134.622
0
LINE
8
BLACK
6
CONTINUOUS
10
137.471
20
-130.304
11
137.036
21
-132.766
0
LINE
8
BLACK
6
CONTINUOUS
10
137.036
20
-132.766
11
134.525
21
-132.323
0
LINE
8
BLACK
6
CONTINUOUS
10
134.525
20
-132.323
11
134.959
21
-129.861
0
LINE
8
BLACK
6
CONTINUOUS
10
134.959
20
-129.861
11
137.471
21
-130.304
0
LINE
8
BLACK
6
CONTINUOUS
10
151.551
20
-130.208
11
151.117
21
-132.67
0
LINE
8
BLACK
6
CONTINUOUS
10
151.117
20
-132.67
11
148.606
21
-132.227
0
LINE
8
BLACK
6
CONTINUOUS
10
148.606
20
-132.227
11
149.04
21
-129.765
0
LINE
8
BLACK
6
CONTINUOUS
10
149.04
20
-129.765
11
151.551
21
-130.208
0
LINE
8
BLACK
6
CONTINUOUS
10
103.443
20
-105.136
11
100.893
21
-105.136
0
LINE
8
BLACK
6
CONTINUOUS
10
100.893
20
-105.136
11
100.893
21
-102.636
0
LINE
8
BLACK
6
CONTINUOUS
10
100.893
20
-102.636
11
103.443
21
-102.636
0
LINE
8
BLACK
6
CONTINUOUS
10
103.443
20
-102.636
11
103.443
21
-105.136
0
LINE
8
BLACK
6
CONTINUOUS
10
117.293
20
-102.596
11
114.743
21
-102.596
0
LINE
8
BLACK
6
CONTINUOUS
10
114.743
20
-102.596
11
114.743
21
-100.096
0
LINE
8
BLACK
6
CONTINUOUS
10
114.743
20
-100.096
11
117.293
21
-100.096
0
LINE
8
BLACK
6
CONTINUOUS
10
117.293
20
-100.096
11
117.293
21
-102.596
0
LINE
8
BLACK
6
CONTINUOUS
10
160.593
20
-100.056
11
158.043
21
-100.056
0
LINE
8
BLACK
6
CONTINUOUS
10
158.043
20
-100.056
11
158.043
21
-97.556
0
LINE
8
BLACK
6
CONTINUOUS
10
158.043
20
-97.556
11
160.593
21
-97.556
0
LINE
8
BLACK
6
CONTINUOUS
10
160.593
20
-97.556
11
160.593
21
-100.056
0
LINE
8
BLACK
6
CONTINUOUS
10
122.493
20
-100.056
11
119.943
21
-100.056
0
LINE
8
BLACK
6
CONTINUOUS
10
119.943
20
-100.056
11
119.943
21
-97.556
0
LINE
8
BLACK
6
CONTINUOUS
10
119.943
20
-97.556
11
122.493
21
-97.556
0
LINE
8
BLACK
6
CONTINUOUS
10
122.493
20
-97.556
11
122.493
21
-100.056
0
LINE
8
BLACK
6
CONTINUOUS
10
141.543
20
-97.77
11
138.993
21
-97.77
0
LINE
8
BLACK
6
CONTINUOUS
10
138.993
20
-97.77
11
138.993
21
-95.27
0
LINE
8
BLACK
6
CONTINUOUS
10
138.993
20
-95.27
11
141.543
21
-95.27
0
LINE
8
BLACK
6
CONTINUOUS
10
141.543
20
-95.27
11
141.543
21
-97.77
0
LINE
8
BLACK
6
CONTINUOUS
10
174.443
20
-97.516
11
171.893
21
-97.516
0
LINE
8
BLACK
6
CONTINUOUS
10
171.893
20
-97.516
11
171.893
21
-95.016
0
LINE
8
BLACK
6
CONTINUOUS
10
171.893
20
-95.016
11
174.443
21
-95.016
0
LINE
8
BLACK
6
CONTINUOUS
10
174.443
20
-95.016
11
174.443
21
-97.516
0
LINE
8
BLACK
6
CONTINUOUS
10
136.343
20
-97.516
11
133.793
21
-97.516
0
LINE
8
BLACK
6
CONTINUOUS
10
133.793
20
-97.516
11
133.793
21
-95.016
0
LINE
8
BLACK
6
CONTINUOUS
10
133.793
20
-95.016
11
136.343
21
-95.016
0
LINE
8
BLACK
6
CONTINUOUS
10
136.343
20
-95.016
11
136.343
21
-97.516
0
LINE
8
BLACK
6
CONTINUOUS
10
155.393
20
-95.23
11
152.843
21
-95.23
0
LINE
8
BLACK
6
CONTINUOUS
10
152.843
20
-95.23
11
152.843
21
-92.73
0
LINE
8
BLACK
6
CONTINUOUS
10
152.843
20
-92.73
11
155.393
21
-92.73
0
LINE
8
BLACK
6
CONTINUOUS
10
155.393
20
-92.73
11
155.393
21
-95.23
0
LINE
8
BLACK
6
CONTINUOUS
10
103.443
20
-86.086
11
100.893
21
-86.086
0
LINE
8
BLACK
6
CONTINUOUS
10
100.893
20
-86.086
11
100.893
21
-83.586
0
LINE
8
BLACK
6
CONTINUOUS
10
100.893
20
-83.586
11
103.443
21
-83.586
0
LINE
8
BLACK
6
CONTINUOUS
10
103.443
20
-83.586
11
103.443
21
-86.086
0
LINE
8
BLACK
6
CONTINUOUS
10
117.293
20
-83.546
11
114.743
21
-83.546
0
LINE
8
BLACK
6
CONTINUOUS
10
114.743
20
-83.546
11
114.743
21
-81.046
0
LINE
8
BLACK
6
CONTINUOUS
10
114.743
20
-81.046
11
117.293
21
-81.046
0
LINE
8
BLACK
6
CONTINUOUS
10
117.293
20
-81.046
11
117.293
21
-83.546
0
LINE
8
BLACK
6
CONTINUOUS
10
160.593
20
-81.006
11
158.043
21
-81.006
0
LINE
8
BLACK
6
CONTINUOUS
10
158.043
20
-81.006
11
158.043
21
-78.506
0
LINE
8
BLACK
6
CONTINUOUS
10
158.043
20
-78.506
11
160.593
21
-78.506
0
LINE
8
BLACK
6
CONTINUOUS
10
160.593
20
-78.506
11
160.593
21
-81.006
0
LINE
8
BLACK
6
CONTINUOUS
10
122.493
20
-81.006
11
119.943
21
-81.006
0
LINE
8
BLACK
6
CONTINUOUS
10
119.943
20
-81.006
11
119.943
21
-78.506
0
LINE
8
BLACK
6
CONTINUOUS
10
119.943
20
-78.506
11
122.493
21
-78.506
0
LINE
8
BLACK
6
CONTINUOUS
10
122.493
20
-78.506
11
122.493
21
-81.006
0
LINE
8
BLACK
6
CONTINUOUS
10
141.543
20
-78.72
11
138.993
21
-78.72
0
LINE
8
BLACK
6
CONTINUOUS
10
138.993
20
-78.72
11
138.993
21
-76.22
0
LINE
8
BLACK
6
CONTINUOUS
10
138.993
20
-76.22
11
141.543
21
-76.22
0
LINE
8
BLACK
6
CONTINUOUS
10
141.543
20
-76.22
11
141.543
21
-78.72
0
LINE
8
BLACK
6
CONTINUOUS
10
174.443
20
-78.466
11
171.893
21
-78.466
0
LINE
8
BLACK
6
CONTINUOUS
10
171.893
20
-78.466
11
171.893
21
-75.966
0
LINE
8
BLACK
6
CONTINUOUS
10
171.893
20
-75.966
11
174.443
21
-75.966
0
LINE
8
BLACK
6
CONTINUOUS
10
174.443
20
-75.966
11
174.443
21
-78.466
0
LINE
8
BLACK
6
CONTINUOUS
10
136.343
20
-78.466
11
133.793
21
-78.466
0
LINE
8
BLACK
6
CONTINUOUS
10
133.793
20
-78.466
11
133.793
21
-75.966
0
LINE
8
BLACK
6
CONTINUOUS
10
133.793
20
-75.966
11
136.343
21
-75.966
0
LINE
8
BLACK
6
CONTINUOUS
10
136.343
20
-75.966
11
136.343
21
-78.466
0
LINE
8
BLACK
6
CONTINUOUS
10
155.393
20
-76.18
11
152.843
21
-76.18
0
LINE
8
BLACK
6
CONTINUOUS
10
152.843
20
-76.18
11
152.843
21
-73.68
0
LINE
8
BLACK
6
CONTINUOUS
10
152.843
20
-73.68
11
155.393
21
-73.68
0
LINE
8
BLACK
6
CONTINUOUS
10
155.393
20
-73.68
11
155.393
21
-76.18
  0
ENDSEC
  0
EOF
