%TF.GenerationSoftware,KiCad,Pcbnew,7.0.1*%
%TF.CreationDate,2024-01-26T17:48:26-05:00*%
%TF.ProjectId,OctoPlus Trio,4f63746f-506c-4757-9320-5472696f2e6b,rev?*%
%TF.SameCoordinates,Original*%
%TF.FileFunction,Soldermask,Bot*%
%TF.FilePolarity,Negative*%
%FSLAX46Y46*%
G04 Gerber Fmt 4.6, Leading zero omitted, Abs format (unit mm)*
G04 Created by KiCad (PCBNEW 7.0.1) date 2024-01-26 17:48:26*
%MOMM*%
%LPD*%
G01*
G04 APERTURE LIST*
G04 Aperture macros list*
%AMRotRect*
0 Rectangle, with rotation*
0 The origin of the aperture is its center*
0 $1 length*
0 $2 width*
0 $3 Rotation angle, in degrees counterclockwise*
0 Add horizontal line*
21,1,$1,$2,0,0,$3*%
G04 Aperture macros list end*
%ADD10C,1.701800*%
%ADD11C,3.000000*%
%ADD12C,3.987800*%
%ADD13R,2.550000X2.500000*%
%ADD14RotRect,2.550000X2.500000X340.000000*%
%ADD15RotRect,2.550000X2.500000X350.000000*%
%ADD16RotRect,2.550000X2.500000X345.000000*%
%ADD17O,2.500000X1.500000*%
%ADD18O,1.500000X2.500000*%
G04 APERTURE END LIST*
D10*
%TO.C,SW2*%
X123698000Y-82296000D03*
D11*
X124968000Y-79756000D03*
D12*
X128778000Y-82296000D03*
D11*
X131318000Y-77216000D03*
D10*
X133858000Y-82296000D03*
D13*
X135068000Y-77216000D03*
X121218000Y-79756000D03*
%TD*%
D10*
%TO.C,SW7*%
X142748000Y-99060000D03*
D11*
X144018000Y-96520000D03*
D12*
X147828000Y-99060000D03*
D11*
X150368000Y-93980000D03*
D10*
X152908000Y-99060000D03*
D13*
X154118000Y-93980000D03*
X140268000Y-96520000D03*
%TD*%
D10*
%TO.C,SW11*%
X179884361Y-144312538D03*
D11*
X181946502Y-142360084D03*
D12*
X184658000Y-146050000D03*
D11*
X188782282Y-142145093D03*
D10*
X189431639Y-147787462D03*
D14*
X192306129Y-143427668D03*
X178422655Y-141077508D03*
%TD*%
D10*
%TO.C,SW4*%
X161798000Y-82296000D03*
D11*
X163068000Y-79756000D03*
D12*
X166878000Y-82296000D03*
D11*
X169418000Y-77216000D03*
D10*
X171958000Y-82296000D03*
D13*
X173168000Y-77216000D03*
X159318000Y-79756000D03*
%TD*%
D10*
%TO.C,SW9*%
X137999177Y-134245867D03*
D11*
X139690949Y-131964989D03*
D12*
X143002000Y-135128000D03*
D11*
X146385544Y-130566243D03*
D10*
X148004823Y-136010133D03*
D15*
X150078574Y-131217424D03*
X135997920Y-131313808D03*
%TD*%
D10*
%TO.C,SW10*%
X159096197Y-138594399D03*
D11*
X160980323Y-136469648D03*
D12*
X164003100Y-139909200D03*
D11*
X167771352Y-135659697D03*
D10*
X168910003Y-141224001D03*
D16*
X171393574Y-136630269D03*
X157358101Y-135499076D03*
%TD*%
D10*
%TO.C,SW5*%
X104648000Y-106426000D03*
D11*
X105918000Y-103886000D03*
D12*
X109728000Y-106426000D03*
D11*
X112268000Y-101346000D03*
D10*
X114808000Y-106426000D03*
D13*
X116018000Y-101346000D03*
X102168000Y-103886000D03*
%TD*%
D10*
%TO.C,SW8*%
X161798000Y-101346000D03*
D11*
X163068000Y-98806000D03*
D12*
X166878000Y-101346000D03*
D11*
X169418000Y-96266000D03*
D10*
X171958000Y-101346000D03*
D13*
X173168000Y-96266000D03*
X159318000Y-98806000D03*
%TD*%
D10*
%TO.C,SW6*%
X123698000Y-101346000D03*
D11*
X124968000Y-98806000D03*
D12*
X128778000Y-101346000D03*
D11*
X131318000Y-96266000D03*
D10*
X133858000Y-101346000D03*
D13*
X135068000Y-96266000D03*
X121218000Y-98806000D03*
%TD*%
D10*
%TO.C,SW1*%
X104648000Y-87376000D03*
D11*
X105918000Y-84836000D03*
D12*
X109728000Y-87376000D03*
D11*
X112268000Y-82296000D03*
D10*
X114808000Y-87376000D03*
D13*
X116018000Y-82296000D03*
X102168000Y-84836000D03*
%TD*%
D10*
%TO.C,SW3*%
X142748000Y-80010000D03*
D11*
X144018000Y-77470000D03*
D12*
X147828000Y-80010000D03*
D11*
X150368000Y-74930000D03*
D10*
X152908000Y-80010000D03*
D13*
X154118000Y-74930000D03*
X140268000Y-77470000D03*
%TD*%
D17*
%TO.C,U1*%
X179586000Y-74168000D03*
X179586000Y-76708000D03*
X179586000Y-79248000D03*
X179586000Y-81788000D03*
X179586000Y-84328000D03*
X179586000Y-86868000D03*
X179586000Y-89408000D03*
X179586000Y-91948000D03*
X179586000Y-94488000D03*
D18*
X182626000Y-94988000D03*
X185166000Y-94988000D03*
X187706000Y-94988000D03*
X190246000Y-94988000D03*
X192786000Y-94988000D03*
D17*
X195826000Y-94488000D03*
X195826000Y-91948000D03*
X195826000Y-89408000D03*
X195826000Y-86868000D03*
X195826000Y-84328000D03*
X195826000Y-81788000D03*
X195826000Y-79248000D03*
X195826000Y-76708000D03*
X195826000Y-74168000D03*
%TD*%
M02*
