  0
SECTION
  2
HEADER
  9
$ANGBASE
  50
0.0
  9
$ANGDIR
  70
1
  9
$MEASUREMENT
  70
1
  0
ENDSEC
  0
SECTION
  2
TABLES
  0
TABLE
  2
LTYPE
  70
4
  0
LTYPE
  5
40F
  2
CONTINUOUS
  70
0
  3
Solid line
  72
65
  73
0
  40
0.0
  0
LTYPE
  5
410
  2
DASHDOT
 70
0
  3
Dash Dot ____ _ ____ _
 72
65
 73
4
 40
2.0
 49
1.25
 49
-0.25
 49
0.25
 49
-0.25
  0
LTYPE
  5
411
  2
DASHED
 70
0
  3
Dashed __ __ __ __ __
 72
65
 73
2
 40
0.75
 49
0.5
 49
-0.25
  0
LTYPE
  5
43B
  2
DOTTED
 70
0
  3
Dotted .  .  .  .
 72
65
 73
2
 40
0.2
 49
0.0
 49
-0.2
  0
ENDTAB
  0
TABLE
  2
STYLE
  70
4
  0
STYLE
  2
KICAD
  70
0
  40
0
  41
1
  42
1
  50
0
  71
0
  3
isocp.shx
  0
STYLE
  2
KICADB
  70
0
  40
0
  41
1
  42
1
  50
0
  71
0
  3
isocp.shx
  0
STYLE
  2
KICADI
  70
0
  40
0
  41
1
  42
1
  50
15
  71
0
  3
isocp.shx
  0
STYLE
  2
KICADBI
  70
0
  40
0
  41
1
  42
1
  50
15
  71
0
  3
isocp.shx
  0
ENDTAB
  0
TABLE
  2
LAYER
  70
1
  0
LAYER
  2
BLACK
  70
0
  62
7
  6
CONTINUOUS
  0
ENDTAB
  0
ENDSEC
  0
SECTION
  2
ENTITIES
0
LINE
8
BLACK
6
CONTINUOUS
10
189.73
20
-120.08
11
189.33
21
-120.08
0
LINE
8
BLACK
6
CONTINUOUS
10
189.33
20
-120.08
11
189.33
21
-118.48
0
LINE
8
BLACK
6
CONTINUOUS
10
189.33
20
-118.48
11
189.73
21
-118.48
0
LINE
8
BLACK
6
CONTINUOUS
10
189.73
20
-118.48
11
189.73
21
-120.08
0
LINE
8
BLACK
6
CONTINUOUS
10
188.73
20
-120.08
11
188.33
21
-120.08
0
LINE
8
BLACK
6
CONTINUOUS
10
188.33
20
-120.08
11
188.33
21
-118.48
0
LINE
8
BLACK
6
CONTINUOUS
10
188.33
20
-118.48
11
188.73
21
-118.48
0
LINE
8
BLACK
6
CONTINUOUS
10
188.73
20
-118.48
11
188.73
21
-120.08
0
LINE
8
BLACK
6
CONTINUOUS
10
187.73
20
-120.08
11
187.33
21
-120.08
0
LINE
8
BLACK
6
CONTINUOUS
10
187.33
20
-120.08
11
187.33
21
-118.48
0
LINE
8
BLACK
6
CONTINUOUS
10
187.33
20
-118.48
11
187.73
21
-118.48
0
LINE
8
BLACK
6
CONTINUOUS
10
187.73
20
-118.48
11
187.73
21
-120.08
0
LINE
8
BLACK
6
CONTINUOUS
10
186.73
20
-120.08
11
186.33
21
-120.08
0
LINE
8
BLACK
6
CONTINUOUS
10
186.33
20
-120.08
11
186.33
21
-118.48
0
LINE
8
BLACK
6
CONTINUOUS
10
186.33
20
-118.48
11
186.73
21
-118.48
0
LINE
8
BLACK
6
CONTINUOUS
10
186.73
20
-118.48
11
186.73
21
-120.08
0
LINE
8
BLACK
6
CONTINUOUS
10
185.73
20
-120.08
11
185.33
21
-120.08
0
LINE
8
BLACK
6
CONTINUOUS
10
185.33
20
-120.08
11
185.33
21
-118.48
0
LINE
8
BLACK
6
CONTINUOUS
10
185.33
20
-118.48
11
185.73
21
-118.48
0
LINE
8
BLACK
6
CONTINUOUS
10
185.73
20
-118.48
11
185.73
21
-120.08
0
LINE
8
BLACK
6
CONTINUOUS
10
184.73
20
-120.08
11
184.33
21
-120.08
0
LINE
8
BLACK
6
CONTINUOUS
10
184.33
20
-120.08
11
184.33
21
-118.48
0
LINE
8
BLACK
6
CONTINUOUS
10
184.33
20
-118.48
11
184.73
21
-118.48
0
LINE
8
BLACK
6
CONTINUOUS
10
184.73
20
-118.48
11
184.73
21
-120.08
0
LINE
8
BLACK
6
CONTINUOUS
10
190.23
20
-117.68
11
189.83
21
-117.68
0
LINE
8
BLACK
6
CONTINUOUS
10
189.83
20
-117.68
11
189.83
21
-116.08
0
LINE
8
BLACK
6
CONTINUOUS
10
189.83
20
-116.08
11
190.23
21
-116.08
0
LINE
8
BLACK
6
CONTINUOUS
10
190.23
20
-116.08
11
190.23
21
-117.68
0
LINE
8
BLACK
6
CONTINUOUS
10
189.23
20
-117.68
11
188.83
21
-117.68
0
LINE
8
BLACK
6
CONTINUOUS
10
188.83
20
-117.68
11
188.83
21
-116.08
0
LINE
8
BLACK
6
CONTINUOUS
10
188.83
20
-116.08
11
189.23
21
-116.08
0
LINE
8
BLACK
6
CONTINUOUS
10
189.23
20
-116.08
11
189.23
21
-117.68
0
LINE
8
BLACK
6
CONTINUOUS
10
188.23
20
-117.68
11
187.83
21
-117.68
0
LINE
8
BLACK
6
CONTINUOUS
10
187.83
20
-117.68
11
187.83
21
-116.08
0
LINE
8
BLACK
6
CONTINUOUS
10
187.83
20
-116.08
11
188.23
21
-116.08
0
LINE
8
BLACK
6
CONTINUOUS
10
188.23
20
-116.08
11
188.23
21
-117.68
0
LINE
8
BLACK
6
CONTINUOUS
10
187.23
20
-117.68
11
186.83
21
-117.68
0
LINE
8
BLACK
6
CONTINUOUS
10
186.83
20
-117.68
11
186.83
21
-116.08
0
LINE
8
BLACK
6
CONTINUOUS
10
186.83
20
-116.08
11
187.23
21
-116.08
0
LINE
8
BLACK
6
CONTINUOUS
10
187.23
20
-116.08
11
187.23
21
-117.68
0
LINE
8
BLACK
6
CONTINUOUS
10
186.23
20
-117.68
11
185.83
21
-117.68
0
LINE
8
BLACK
6
CONTINUOUS
10
185.83
20
-117.68
11
185.83
21
-116.08
0
LINE
8
BLACK
6
CONTINUOUS
10
185.83
20
-116.08
11
186.23
21
-116.08
0
LINE
8
BLACK
6
CONTINUOUS
10
186.23
20
-116.08
11
186.23
21
-117.68
0
LINE
8
BLACK
6
CONTINUOUS
10
185.23
20
-117.68
11
184.83
21
-117.68
0
LINE
8
BLACK
6
CONTINUOUS
10
184.83
20
-117.68
11
184.83
21
-116.08
0
LINE
8
BLACK
6
CONTINUOUS
10
184.83
20
-116.08
11
185.23
21
-116.08
0
LINE
8
BLACK
6
CONTINUOUS
10
185.23
20
-116.08
11
185.23
21
-117.68
  0
ENDSEC
  0
EOF
